<svg xmlns="http://www.w3.org/2000/svg" width="321.808" height="345.639" viewBox="0 0 321.808 345.639">
  <g id="Group_22011" data-name="Group 22011" transform="translate(-55.366 -860.03)">
    <path id="Path_21873" data-name="Path 21873" d="M216.439,860.094c1.505.493,3.018.963,4.513,1.482q4.542,1.577,9.069,3.2c6.789,2.436,13.567,4.908,20.362,7.329,7.408,2.64,14.835,5.228,22.247,7.858,4.744,1.684,9.47,3.417,14.212,5.106,7.28,2.594,14.569,5.162,21.849,7.756,4.743,1.691,9.475,3.414,14.215,5.115q13,4.666,26.015,9.318c6.7,2.383,13.409,4.716,20.108,7.09,2.47.875,4.913,1.826,7.387,2.688.563.2.82.446.745,1.032-.267,2.093-.537,4.185-.792,6.28-.171,1.41-.311,2.824-.477,4.235-.268,2.268-.562,4.533-.815,6.8-.239,2.137-.42,4.28-.665,6.416-.247,2.164-.558,4.32-.812,6.483-.239,2.031-.427,4.068-.664,6.1-.252,2.165-.545,4.324-.8,6.489-.238,2.03-.44,4.065-.675,6.1-.263,2.268-.559,4.533-.813,6.8-.239,2.136-.421,4.279-.665,6.415-.248,2.163-.558,4.32-.812,6.482-.239,2.031-.428,4.068-.664,6.1-.251,2.165-.543,4.326-.8,6.49-.238,2.031-.443,4.066-.678,6.1-.263,2.27-.56,4.535-.814,6.8-.238,2.138-.42,4.281-.664,6.418-.248,2.164-.558,4.321-.812,6.484-.239,2.032-.428,4.069-.664,6.1-.252,2.165-.545,4.325-.8,6.49-.239,2.031-.441,4.065-.676,6.1-.262,2.268-.557,4.533-.813,6.8-.237,2.1-.426,4.21-.664,6.312-.245,2.166-.527,4.328-.785,6.492-.167,1.412-.312,2.826-.478,4.237-.268,2.268-.554,4.534-.816,6.8-.231,2-.429,4-.663,6-.261,2.234-.565,4.463-.816,6.7-.241,2.137-.419,4.281-.663,6.417s-.553,4.255-.8,6.385c-.244,2.1-.434,4.209-.673,6.31-.246,2.167-.525,4.331-.782,6.5-.167,1.411-.315,2.824-.481,4.236-.269,2.269-.56,4.536-.816,6.807-.24,2.137-.445,4.278-.673,6.488-3.258,1.8-6.532,3.586-9.79,5.4-4.229,2.358-8.439,4.752-12.67,7.107-2.933,1.632-5.9,3.21-8.833,4.835-4.3,2.375-8.579,4.774-12.873,7.155-2.781,1.542-5.576,3.059-8.355,4.605-4.322,2.4-8.628,4.834-12.954,7.23-2.875,1.592-5.782,3.127-8.657,4.719-4.356,2.413-8.694,4.859-13.044,7.281-2.687,1.5-5.385,2.972-8.074,4.465q-6.621,3.677-13.237,7.36c-2.785,1.543-5.588,3.054-8.373,4.6-4.476,2.48-8.941,4.978-13.415,7.459-1.931,1.071-3.873,2.121-5.94,3.112a5.714,5.714,0,0,1-.246-1.63q-.008-65.281.092-130.586c13.912-.025,27.727-.022,41.543-.045a1.094,1.094,0,0,1,1.217.822c2.045,5.185,4.136,10.353,6.208,15.528q5.535,13.817,11.066,27.634c.868,2.167,1.746,4.33,2.614,6.481,9.534,0,18.954,0,28.375,0,2.952,0,5.9-.022,8.913-.025a.539.539,0,0,0,0-.344,1.978,1.978,0,0,0-.081-.272q-47.169-106.129-94.341-212.257c-1.851-4.163-3.739-8.308-5.609-12.554,0-12.36,0-24.627.009-36.9A7.932,7.932,0,0,1,216.439,860.094Z" fill="#c3002f"/>
    <path id="Path_21874" data-name="Path 21874" d="M216.4,860.03c-.035.5-.177.941-.177,1.379-.012,12.268-.009,24.535-.067,36.949q-50.288,112.776-100.5,225.356c.388.021.591.042.795.042q17.928,0,35.856.021a1.1,1.1,0,0,0,1.187-.87c2.131-5.378,4.295-10.744,6.435-16.119q6.332-15.907,12.651-31.821c.66-1.661.662-1.66,2.513-1.66q19.931,0,39.863,0c.42,0,.84.033,1.26.05q0,65.283.005,130.564a10.28,10.28,0,0,0,.17,1.632.491.491,0,0,1-.443.088q-4.725-2.58-9.433-5.191c-5.462-3.043-10.909-6.115-16.376-9.148-3.655-2.027-7.347-3.989-11-6.014-4.863-2.7-9.7-5.438-14.562-8.134-3.658-2.029-7.347-4-11.005-6.029-4.832-2.68-9.641-5.4-14.471-8.085-2.962-1.646-5.952-3.24-8.915-4.884-4.107-2.279-8.194-4.593-12.3-6.872-2.9-1.607-5.821-3.165-8.718-4.772-4.379-2.429-8.736-4.9-13.117-7.32-2.992-1.657-6.017-3.256-9.013-4.906-2.295-1.265-4.6-2.512-6.822-3.9-.43-.269-.584-1.152-.664-1.777-.461-3.6-.878-7.213-1.276-10.825-.311-2.825-.54-5.659-.865-8.482-.305-2.643-.714-5.273-1.029-7.915-.253-2.134-.411-4.278-.654-6.413s-.555-4.25-.807-6.378c-.241-2.029-.432-4.065-.666-6.095-.261-2.268-.555-4.531-.818-6.8-.231-2-.424-4-.659-5.991-.263-2.231-.567-4.457-.828-6.688-.169-1.447-.27-2.9-.439-4.348-.258-2.2-.567-4.388-.819-6.585-.241-2.1-.421-4.209-.657-6.31-.244-2.166-.527-4.328-.784-6.492-.167-1.411-.312-2.824-.479-4.234-.268-2.268-.559-4.533-.815-6.8-.237-2.1-.426-4.208-.664-6.31-.245-2.166-.528-4.327-.788-6.491-.164-1.376-.31-2.754-.474-4.13-.345-2.885-.712-5.768-1.039-8.656-.241-2.136-.411-4.28-.655-6.416s-.559-4.252-.806-6.381c-.245-2.1-.43-4.208-.668-6.31-.245-2.166-.524-4.328-.783-6.492-.165-1.376-.314-2.753-.479-4.129-.345-2.886-.711-5.77-1.038-8.658-.242-2.136-.412-4.28-.655-6.416s-.557-4.252-.805-6.382c-.245-2.1-.431-4.209-.669-6.311-.246-2.166-.528-4.328-.783-6.494-.17-1.445-.309-2.894-.481-4.34-.333-2.782-.691-5.562-1.016-8.346-.241-2.065-.448-4.135-.668-6.2-.011-.1,0-.211,0-.316,0-.73-.283-1.66.063-2.136.377-.52,1.324-.647,2.038-.9Q66.287,913.359,75,910.3q9.248-3.266,18.488-6.555c4.893-1.743,9.776-3.513,14.667-5.258q12.151-4.336,24.308-8.657,7.491-2.673,14.975-5.362,13.271-4.74,26.543-9.472,10.889-3.877,21.782-7.739,7.683-2.732,15.36-5.476C212.867,861.163,214.614,860.57,216.4,860.03Z" fill="#dd0031"/>
    <path id="Path_21875" data-name="Path 21875" d="M216.308,1073.337c-.517.005-.937-.028-1.357-.028q-19.932,0-39.863,0c-1.851,0-1.853,0-2.513,1.66q-6.325,15.91-12.651,31.821c-2.14,5.375-4.3,10.741-6.435,16.119a1.1,1.1,0,0,1-1.187.87q-17.928-.04-35.856-.021c-.2,0-.407-.021-.795-.042q50.267-112.7,100.5-225.263,2.892,6.148,5.667,12.407Q269,1016.985,316.162,1123.115a.917.917,0,0,1,.056.336c-.017.181-.024.226-.031.271-2.952.012-5.9.032-8.856.034-9.421,0-18.841,0-28.375,0-.868-2.151-1.746-4.314-2.614-6.481q-5.535-13.817-11.066-27.634c-2.072-5.175-4.163-10.343-6.208-15.528a1.094,1.094,0,0,0-1.217-.822c-13.816.023-27.631.02-41.543.045m-.245-101.387q-6.564,15.717-13.127,31.434-7.215,17.328-14.4,34.669c-.555,1.337-1.09,2.682-1.671,4.114,5.314,0,10.479.006,15.644,0,4.568-.006,9.135-.027,13.9,0h29.163c-1.069-2.581-2.077-5.032-3.1-7.478q-7.1-17.02-14.208-34.039-5.834-14.023-11.62-28.065A1.442,1.442,0,0,0,216.063,971.95Z" fill="#fff"/>
    <path id="Path_21876" data-name="Path 21876" d="M316.244,1123.731c-.05-.054-.043-.1-.011-.207A.179.179,0,0,1,316.244,1123.731Z" fill="#f7dce2"/>
    <path id="Path_21877" data-name="Path 21877" d="M216.211,1042.123q-6.852.022-13.7.042c-5.165.008-10.33,0-15.644,0,.581-1.432,1.116-2.777,1.671-4.114q7.2-17.336,14.4-34.669c4.365-10.482,8.751-20.956,13.2-31.346Q216.248,1007.168,216.211,1042.123Z" fill="#dd0031"/>
    <path id="Path_21878" data-name="Path 21878" d="M216.309,1042.142c-.1-23.352-.1-46.684-.1-70.114a1.481,1.481,0,0,1,.433.551q5.815,14.03,11.62,28.065,7.081,17.028,14.208,34.039c1.02,2.446,2.028,4.9,3.1,7.478C235.772,1042.161,226.089,1042.161,216.309,1042.142Z" fill="#c3002f"/>
  </g>
</svg>
