<svg xmlns="http://www.w3.org/2000/svg" width="1276.956" height="730.366" viewBox="0 0 1276.956 730.366">
  <g id="Group_22012" data-name="Group 22012" transform="translate(421.443 147.415)">
    <path id="Path_21886" data-name="Path 21886" d="M107.159,197.281V216.3H-97.94V373.735h220.6v18.953H-119.9V35.264H120.186V53.922h-218.1V197.281Z"/>
    <path id="Path_21887" data-name="Path 21887" d="M142.436,34.945c8.507,0,16.108-.194,23.683.166,1.489.071,3.191,2.054,4.264,3.539q46.079,63.807,92.035,127.7c6.113,8.488,12.247,16.96,19.085,26.428,82.832-117.138,170.763-229.423,260.832-340.2-1.228,1.827-2.433,3.668-3.686,5.478Q418.76,31.224,298.783,204.325c-2.339,3.372-2.559,5.5-.046,8.953q63.7,87.448,127.124,175.1c.874,1.205,1.688,2.453,3.105,4.519-9.005,0-17.365.165-25.7-.178-1.251-.051-2.536-2.384-3.582-3.825q-54.442-75.03-108.837-150.1c-3.1-4.271-6.224-8.52-9.606-13.145-1.515,1.949-2.76,3.463-3.912,5.045q-57.648,79.186-115.214,158.432c-2.091,2.884-4.215,4.1-7.786,3.945-6.646-.292-13.314-.084-21.023-.084,1.466-2.122,2.485-3.673,3.579-5.17q63.825-87.363,127.744-174.657c2.409-3.282,2.378-5.29,0-8.568Q205.427,122.842,146.5,40.888C145.273,39.189,144.132,37.432,142.436,34.945Z"/>
    <path id="Path_21888" data-name="Path 21888" d="M-27.722,582.951q-18.635-24.732-37.269-49.465c-33.978-45.112-68.553-89.79-101.745-135.474-27.7-38.123-53.818-77.395-80.561-116.211Q-321.007,174.815-394.63,67.77c-.989-1.437-2.021-2.844-3.033-4.265l-1.529.377V392.728h-22.251V34.953c8.676,0,17.288-.178,25.879.176,1.426.059,3.054,2.238,4.087,3.774q52.719,78.351,105.323,156.778Q-157.916,386.722-29.691,577.773c.984,1.467,1.891,2.985,2.834,4.48Z"/>
    <path id="Path_21889" data-name="Path 21889" d="M586.816,53.8v338.89H565.038V54.062H439.084V35.28H712.77V53.8Z"/>
    <path id="Path_21890" data-name="Path 21890" d="M854.118,310.239c-3.244,0-5.938.314-8.5-.125a5.659,5.659,0,0,1-3.763-2.739c-4.71-11.17-23.166-10.147-28.64-4.144-4.443,4.872-3.715,11.665,2.228,14.68,3.656,1.855,7.792,2.789,11.751,4.015,5.234,1.62,10.625,2.806,15.74,4.732,17.729,6.678,14.448,28.932,4.107,36.388-10.965,7.906-31.163,8.2-42.014.107-5.219-3.893-8.128-9.1-8.88-16.578,2.9,0,5.658.31,8.319-.071,4.224-.606,4.127,3.093,5.606,5.159,6.086,8.5,24.293,9.217,30.9,1.159,4.006-4.886,3.033-11.535-2.9-14.336-5.2-2.458-10.99-3.678-16.532-5.4-3.488-1.086-7.12-1.8-10.481-3.188-14.887-6.133-17.572-25.183-5.091-35.449,10.47-8.612,30.261-8.412,40.541.424A20.764,20.764,0,0,1,854.118,310.239Z"/>
    <path id="Path_21891" data-name="Path 21891" d="M780.244,290.336c0,9.163.027,18.114-.008,27.064-.04,10.488.238,20.995-.308,31.458-.589,11.281-8.657,19.025-19.885,20.092-13.362,1.271-23.4-4.541-26.377-15.387a54.506,54.506,0,0,1-.925-6.429,67.185,67.185,0,0,1,8.838.119,4.935,4.935,0,0,1,3.3,2.541c2.468,5.94,7.12,8.865,13.312,7.965,6.076-.884,9.757-4.666,9.852-11.251.241-16.646.145-33.3.183-49.946.005-1.966,0-3.932,0-6.226Z"/>
    <path id="Path_21892" data-name="Path 21892" d="M711.278,368.06a7.778,7.778,0,0,1-8.133-7.631,8.059,8.059,0,0,1,7.677-8.2,7.938,7.938,0,0,1,8.095,7.742A7.7,7.7,0,0,1,711.278,368.06Z"/>
  </g>
</svg>
