<svg xmlns="http://www.w3.org/2000/svg" width="1279.917" height="529.156" viewBox="0 0 1279.917 529.156">
  <g id="Extensible_Markup_Language__XML__logo_adobe_express" data-name="Extensible_Markup_Language_(XML)_logo_adobe_express" transform="translate(-1.083 -1)">
    <path id="Path_21880" data-name="Path 21880" d="M239.532,1c2.715,2.318,4.806,4.813,7.233,6.923,14.679,12.762,24.907,28,23.978,48.168-.361,7.855-3.59,15.578-5.506,23.363-5.721,23.24-11.985,46.364-16.948,69.764-2.855,13.46-4.157,27.328-5.143,41.085-1.021,14.227-1.09,28.545-.991,42.82.033,4.8,1.583,9.671,2.936,14.367,1.779,6.172,4.977,7.15,10.323,3.563,10.092-6.773,19.952-13.918,30.288-20.293,19.986-12.329,39.951-24.741,60.449-36.18,25.74-14.364,51.73-28.341,78.127-41.447,23.641-11.738,47.222-23.98,73.431-29.457,7.692-1.608,15.361-3.852,23.133-4.35,4.181-.268,9.172,1.669,12.726,4.147,9,6.274,18.218,12.812,23.741,22.545,5.863,10.333,6.212,21.715,4.945,33.559a186.756,186.756,0,0,1-11.275,46.243c-6.773,17.947-14.246,35.633-21.622,53.347-7.5,18.017-15.308,35.908-22.845,53.911-1.231,2.94-1.764,6.172-2.62,9.27l1.085,1.058c2.033-1.327,4.311-2.391,6.06-4.022,12.37-11.541,24.518-23.322,36.953-34.791,19.5-17.988,38.392-36.7,61.368-50.54,16.781-10.106,34.471-16.931,54.292-17.03,19.356-.1,33.689,11.543,38.359,30.586,4.492,18.321,3.972,36.673.137,54.914-3.252,15.467-7.329,30.761-11.255,47.015,3.669-2.613,7.513-4.725,10.587-7.648,12.9-12.264,25.377-24.973,38.372-37.132,12.538-11.73,25.441-23.076,38.353-34.4,4.323-3.791,9.237-4.091,14.643-1.47,14.436,7,26.1,16.923,29.246,33.1,1.68,8.653.561,18.146-.821,27.022-1.656,10.638-4.971,21.014-7.512,31.517-2.849,11.781-2.338,23.676-.2,35.417a86.907,86.907,0,0,0,5.833,18.622c3.214,7.459,8.045,9,15.04,5.2,9.049-4.921,18.989-6.262,28.888-7.583,2.868-.383,6.145.9,8.988,2.03,4.728,1.887,9.256,4.277,13.872,6.447,5.863,2.758,8.477,10.082,6.169,17.542a65.87,65.87,0,0,1-24.982,34.657,77.135,77.135,0,0,1-38.151,14.333,53.2,53.2,0,0,1-56.055-36.523c-5.657-17.567-8.924-35.91-13.108-53.942-1-4.3-1.323-8.751-2.121-13.1-.58-3.17-2.06-5.024-5.422-2.62a40.488,40.488,0,0,0-4.3,3.321c-12.43,11.708-24.717,23.569-37.249,35.166q-22.221,20.562-44.79,40.745c-8.486,7.586-16.92,15.326-26.077,22.042-11.043,8.1-25.963,7.056-36.611-1.292-12.212-9.573-17.9-22.585-20.557-37.478-3.144-17.622,2.629-33.557,9.119-49.2,8.564-20.635,18.14-40.848,26.868-61.418,3.258-7.677,5.427-15.824,7.916-23.812.458-1.469.066-3.2.066-5.223a44.177,44.177,0,0,0-21.512,11.473c-12.012,11.3-23.575,23.094-35.089,34.911-6.231,6.4-11.881,13.354-17.967,19.895-14.9,16.015-29.913,31.925-44.858,47.9-9.049,9.671-18,19.439-27.1,29.058-8.675,9.166-17.385,18.3-26.279,27.255-8.477,8.531-18.763,14.227-30.739,15.157-3.986.309-8.946-2.492-12.3-5.269-10.614-8.775-17.616-20.175-19.957-33.812-3.555-20.708-.354-40.837,7.9-59.945,9.251-21.424,19.245-42.531,29.093-63.694,12.906-27.732,26.4-55.2,38.844-83.132,8.608-19.329,15.91-39.242,23.672-58.943,1.3-3.306,1.972-6.861,3.142-11.043-3.17.639-6,.808-8.518,1.783-17.436,6.75-35.062,13.1-52.127,20.695-16.665,7.419-33.023,15.653-48.994,24.473-18.39,10.157-36.529,20.853-54.184,32.235C313.244,283.6,297.3,295.5,281.12,307c-4.29,3.05-8.357,6.43-12.4,9.811-11,9.2-13.135,21.151-9.116,34.09,3.537,11.387,8.13,22.465,12.607,33.538,9.3,23,22.29,43.946,36.674,64.015,5.7,7.946,12.658,14.973,18.652,22.721,3.244,4.194,7.227,8.735,8.134,13.627,1.945,10.494-2.645,14.675-13,19.185-11.8,5.139-20.771-.059-30.242-6.814-23.69-16.9-40.395-39.638-54.68-64.236-8.049-13.86-14.357-28.777-20.8-43.5-2.711-6.2-3.738-13.139-5.719-20.437-4.911,3.657-10.031,6.946-14.541,10.925q-21.027,18.552-41.646,37.564C141.53,430,128.27,442.8,114.971,455.545c-10.913,10.461-22.176,20.612-32.421,31.7A214.888,214.888,0,0,0,62.2,513.794c-8.577,12.822-20.277,20.418-35.878,14.09-4.031-1.635-7.766-5.459-10.225-9.2-4.754-7.243-8.492-15.153-12.685-22.768A5.711,5.711,0,0,0,1.342,493.8C1,487.312,1,480.625,1.319,473.681c2.318-2.434,4.121-4.84,6.347-6.752,13.115-11.265,26.459-22.265,39.471-33.645,13.422-11.738,26.584-23.773,39.8-35.74,14.822-13.417,29.65-26.829,44.348-40.382,11.568-10.668,22.892-21.6,34.421-32.308,5.805-5.395,11.78-10.61,17.756-15.816,7.447-6.488,13.655-13.136,11.613-24.5-3.16-17.59-6.223-35.262-7.912-53.034a463.894,463.894,0,0,1-1.954-52.3,414.937,414.937,0,0,1,3.947-48.28c2.363-17.346,6.031-34.52,9.328-51.731q4.575-23.884,9.613-47.679c1.694-7.944,2.727-16.2,7.784-23.019,1.919-2.588,4.069-5,6.114-7.5Z" fill="#005fad"/>
    <path id="Path_21882" data-name="Path 21882" d="M1281,111.667c-.86.693-1.96.825-2.53,1.446-9.64,10.5-22.23,16.747-34.24,23.82-4.23,2.49-8.53,4.847-12.88,7.306,16.49,14.071,25.61,32.765,34.62,51.911-16.37.433-29.28-7.669-42.07-15.853-7.59-4.849-14.97-10.022-22.27-15.3-2.38-1.724-3.77-1.627-5.7.515q-11.655,12.9-23.55,25.578c-6.67,7.134-15.28,11.211-24.16,14.765-.84.334-1.92.044-4.63.044,5.92-8.449,11.02-15.94,16.33-23.282,6.05-8.356,12.67-16.317,15.58-26.545.95-3.34.37-4.765-3.09-6.208a146.55,146.55,0,0,1-37.76-22.8c-5.12-4.286-9.83-9.062-14.72-13.616l.84-1.667,65.89,6.077c3.31-23.682,4.01-47.545,13.26-69.674l1.38-.094c1.9,7.032,3.84,14.052,5.69,21.1,3.45,13.137,6.31,26.528,15.05,37.493a6.638,6.638,0,0,0,4.71,1.886c13.16-.086,26.31-.63,39.47-.511,4.68.042,9.34,1.53,14.4,2.15C1281,110.444,1281,110.889,1281,111.667Z" fill="#af0084"/>
    <path id="Path_21883" data-name="Path 21883" d="M1098.93,443.482c2.27,14.327-2.93,25.859-11.9,35.91-15.39,17.252-35.36,26-57.75,29.516a203.71,203.71,0,0,1-30.45,2.942c-29.847.151-53.6-11.588-69.711-37.443-11.629-18.666-19.359-38.813-21.986-60.589-1.816-15.062-3.3-30.342-2.808-45.455.493-15.186,3.471-30.308,5.615-45.421,3.222-22.7,10.322-44.427,18.31-65.752,9.668-25.81,20.159-51.334,31.034-76.665,11.547-26.9,24.947-52.911,41.606-77.063,10.6-15.353,22.25-29.906,35.94-42.684a52.106,52.106,0,0,1,7.51-5.584c10.38-6.675,18.31-3.991,19.67,9.381,1.53,15.157-2.74,28.677-10.53,41.583-8.83,14.624-17.06,29.612-25.38,44.534-17.91,32.092-31.791,66.039-45.333,100.093C971,280.38,960.982,310.639,955.3,342.043c-2.365,13.087-3.624,26.505-1.409,39.973,2.025,12.306,2.238,25.026,5.376,37.007,5.2,19.842,17.545,34.6,37.538,41,6.37,2.039,13.88,1.458,20.74.791,9.93-.966,19.78-2.9,29.6-4.794,10.27-1.986,19.46-6.682,28.42-11.965,3.63-2.141,7.73-3.5,11.63-5.167C1092.38,436.674,1096.15,438.449,1098.93,443.482Z" fill="#005fad"/>
    <path id="Path_21884" data-name="Path 21884" d="M1180.74,318.779c5.7-8.359,11.25-16.392,16.55-24.58,1.38-2.134,2.02-4.75,3.13-7.464-15.91-7.021-30.36-15.519-42.34-29.65l49.45,4.512c2.56-16.82,2.55-34.433,10.88-50.552,2.53,9.12,5.02,18.249,7.61,27.351a40.239,40.239,0,0,0,2.36,6.394c5.32,11.144,6.42,11.311,18.73,8.77,9.6-1.981,18.97,1.063,29.15,2.174-9.76,12.413-23.52,17.282-35.71,25.424,11.81,10.078,18.67,23.175,25.12,37.837-20.71-.942-33.9-15.364-49.54-23.9-11.55,12.147-20.89,26.581-39.81,31.4C1178.11,323.29,1179.3,321.169,1180.74,318.779Z" fill="#98c000"/>
    <path id="Path_21885" data-name="Path 21885" d="M1134.05,390.006c-8.54-4.533-16.37-9.409-22.67-17.782,6.38.437,11.97.727,17.53,1.232,4.06.368,8.1.983,12.14,1.554,3.8.537,4.54-1.547,5.04-4.827,1.41-9.3,3.24-18.533,4.96-27.783a10.959,10.959,0,0,1,1.23-2.435q5.31,15.74,10.19,30.234h29.26l.42,1.757c-5.91,7.915-15.31,11.3-22.65,16.066,5.68,8.729,11.11,17.087,16.54,25.445-.46.621-.92,1.242-1.39,1.864-3.29-.792-6.92-.946-9.8-2.505-6.7-3.635-13.09-7.868-19.51-12.017-3.09-2-4.79-2.158-7.53,1.323-5.69,7.214-12.2,13.87-20.98,17.567-.69.292-1.55.2-3.67.423,6.24-9.457,11.91-18.052,17.73-26.868C1138.1,391.881,1136.26,390.978,1134.05,390.006Z" fill="#f08500"/>
  </g>
</svg>
