<svg id="Layer_3" data-name="Layer 3" xmlns="http://www.w3.org/2000/svg" xmlns:xlink="http://www.w3.org/1999/xlink" viewBox="0 0 408.5 386"><defs><style>.cls-1{fill:url(#linear-gradient);}.cls-2{fill:url(#linear-gradient-2);}.cls-3{fill:url(#linear-gradient-3);}.cls-4{fill:url(#linear-gradient-4);}.cls-5{fill:url(#linear-gradient-5);}.cls-6{fill:url(#linear-gradient-6);}.cls-7{fill:url(#linear-gradient-7);}.cls-8{fill:url(#linear-gradient-8);}.cls-9{fill:url(#linear-gradient-9);}.cls-10{fill:url(#linear-gradient-10);}.cls-11{fill:url(#linear-gradient-11);}.cls-12{fill:#4d4854;}.cls-12,.cls-13,.cls-14{stroke:#212831;stroke-linecap:square;stroke-miterlimit:10;}.cls-12,.cls-14{stroke-width:0;}.cls-13{fill:none;}.cls-14{fill:#393644;}</style><linearGradient id="linear-gradient" x1="78.53" y1="209.12" x2="204.84" y2="209.12" gradientUnits="userSpaceOnUse"><stop offset="0" stop-color="#f6ba29"/><stop offset="0.23" stop-color="#f4a832"/><stop offset="0.68" stop-color="#ee7a48"/><stop offset="1" stop-color="#e95559"/></linearGradient><linearGradient id="linear-gradient-2" x1="191.65" y1="193.88" x2="238.24" y2="193.88" xlink:href="#linear-gradient"/><linearGradient id="linear-gradient-3" x1="113.41" y1="279.02" x2="263.15" y2="279.02" xlink:href="#linear-gradient"/><linearGradient id="linear-gradient-4" x1="273.11" y1="227.29" x2="332.6" y2="227.29" xlink:href="#linear-gradient"/><linearGradient id="linear-gradient-5" x1="156.48" y1="106.1" x2="206.59" y2="106.1" xlink:href="#linear-gradient"/><linearGradient id="linear-gradient-6" x1="140.66" y1="145.08" x2="154.14" y2="145.08" xlink:href="#linear-gradient"/><linearGradient id="linear-gradient-7" x1="257" y1="261.73" x2="270.48" y2="261.73" xlink:href="#linear-gradient"/><linearGradient id="linear-gradient-8" x1="62.71" y1="281.37" x2="76.19" y2="281.37" xlink:href="#linear-gradient"/><linearGradient id="linear-gradient-9" x1="97.29" y1="363.14" x2="110.77" y2="363.14" xlink:href="#linear-gradient"/><linearGradient id="linear-gradient-10" x1="175.82" y1="226.56" x2="189.3" y2="226.56" xlink:href="#linear-gradient"/><linearGradient id="linear-gradient-11" x1="394.6" y1="51.52" x2="216.68" y2="154.23" xlink:href="#linear-gradient"/></defs><title>NEW LOGO</title><polyline class="cls-1" points="80.29 260.56 193.11 147.72 193.41 148.01 195.17 146.54 197.51 145.96 199.85 146.25 201.91 147.13 203.66 148.89 204.54 150.94 204.84 153.29 204.25 155.63 202.78 157.39 203.08 157.39 89.96 270.52 89.96 270.23 88.2 271.69 85.86 272.28 83.52 271.99 81.47 271.11 79.71 269.35 78.83 267.3 78.53 264.95 79.12 262.61 80.59 260.85"/><polyline class="cls-2" points="203.08 215.13 201.32 216.59 198.97 217.18 196.63 216.89 194.58 216.01 192.82 214.25 191.94 212.2 191.65 209.85 192.24 207.51 193.7 205.75 193.41 205.75 228.28 170.87 228.57 170.58 238.24 180.25 238.24 179.44 201.17 216.52"/><polyline class="cls-3" points="115.46 342.62 113.99 344.38 113.41 346.73 113.7 349.07 114.58 351.12 116.34 352.88 118.39 353.76 120.73 354.05 123.08 353.47 124.84 352 261.1 215.72 261.1 215.42 262.56 213.66 263.15 211.32 262.86 208.97 261.98 206.92 260.22 205.16 258.17 204.28 255.82 203.99 253.48 204.58 251.72 206.04 251.43 206.04 115.17 342.33"/><polyline class="cls-4" points="309.75 206.04 274.87 240.92 275.17 240.92 273.7 242.68 273.12 245.02 273.41 247.37 274.29 249.42 276.05 251.18 278.1 252.06 280.44 252.35 282.79 251.76 284.54 250.3 284.54 250.59 332.6 202.53 332.6 202.23 321.47 204.58 309.75 205.75"/><polyline class="cls-5" points="168.21 133.94 203.08 99.06 204.25 87.34 206.59 76.2 158.53 124.27 158.53 124.56 157.07 126.32 156.48 128.67 156.78 131.01 157.66 133.06 159.41 134.82 161.47 135.7 163.81 135.99 166.16 135.41 167.91 133.94"/><polygon class="cls-6" points="154.14 145.08 153.85 143.03 152.68 140.98 151.21 139.51 149.16 138.63 146.81 138.34 144.76 138.93 142.71 140.1 141.54 141.86 140.66 143.91 140.66 146.25 141.54 148.3 142.71 150.06 144.76 151.24 146.81 151.82 149.16 151.53 151.21 150.65 152.68 149.18 153.85 147.13 154.14 145.08 154.14 145.08"/><polygon class="cls-7" points="270.48 261.73 270.18 259.68 269.01 257.63 267.55 256.16 265.5 255.28 263.15 254.99 261.1 255.57 259.05 256.75 257.88 258.51 257 260.56 257 262.9 257.88 264.95 259.05 266.71 261.1 267.88 263.15 268.47 265.5 268.18 267.55 267.3 269.01 265.83 270.18 263.78 270.48 261.73 270.48 261.73"/><polygon class="cls-8" points="76.19 281.37 75.9 279.31 74.73 277.26 73.26 275.8 71.21 274.92 68.86 274.63 66.81 275.21 64.76 276.38 63.59 278.14 62.71 280.19 62.71 282.54 63.59 284.59 64.76 286.35 66.81 287.52 68.86 288.11 71.21 287.81 73.26 286.94 74.73 285.47 75.9 283.42 76.19 281.37 76.19 281.37"/><polygon class="cls-9" points="110.77 363.14 110.48 361.09 109.3 359.04 107.84 357.57 105.79 356.69 103.44 356.4 101.39 356.98 99.34 358.16 98.17 359.92 97.29 361.97 97.29 364.31 98.17 366.36 99.34 368.12 101.39 369.29 103.44 369.88 105.79 369.59 107.84 368.71 109.3 367.24 110.48 365.19 110.77 363.14 110.77 363.14"/><polygon class="cls-10" points="189.31 226.56 189.01 224.51 187.84 222.46 186.37 220.99 184.32 220.11 181.98 219.82 179.93 220.4 177.88 221.58 176.7 223.34 175.82 225.39 175.82 227.73 176.7 229.78 177.88 231.54 179.93 232.71 181.98 233.3 184.32 233.01 186.37 232.13 187.84 230.66 189.01 228.61 189.31 226.56 189.31 226.56"/><polygon class="cls-11" points="408.5 102.88 408.21 94.08 407.04 85.58 405.28 77.08 402.64 68.58 399.42 60.38 395.31 52.76 390.92 45.14 385.64 38.1 379.78 31.65 373.63 25.79 366.89 20.22 359.56 15.24 351.94 11.14 344.03 7.33 335.83 4.4 327.33 2.35 318.83 0.88 310.04 0 301.25 0 292.46 0.88 283.96 2.35 275.46 4.4 267.25 7.33 259.34 11.14 251.72 15.24 244.4 20.22 237.66 25.79 231.5 31.65 225.64 38.1 220.37 45.14 215.97 52.76 211.87 60.38 208.65 68.58 206.01 77.08 204.25 85.58 203.08 94.08 202.78 102.88 203.08 111.67 204.25 120.17 206.01 128.67 208.65 137.17 211.87 145.37 215.97 152.99 220.37 160.61 225.64 167.65 231.5 174.1 237.66 179.96 244.4 185.53 251.72 190.51 259.34 194.61 267.25 198.42 275.46 201.35 283.96 203.41 292.46 204.87 301.25 205.75 310.04 205.75 318.83 204.87 327.33 203.41 335.83 201.35 344.03 198.42 351.94 194.61 359.56 190.51 366.89 185.53 373.63 179.96 379.78 174.1 385.64 167.65 390.92 160.61 395.31 152.99 399.42 145.37 402.64 137.17 405.28 128.67 407.04 120.17 408.21 111.67 408.5 102.88 408.5 102.88"/><polygon class="cls-12" points="389.16 287.23 385.94 291.92 382.13 296.31 377.73 300.12 372.75 303.64 367.47 306.57 361.32 308.92 354.87 310.68 347.84 312.14 340.22 313.02 332.6 313.31 324.4 313.02 315.9 312.14 307.11 310.68 298.02 308.62 288.94 306.28 279.56 303.35 270.48 299.83 261.1 296.02 252.02 291.92 242.35 287.23 232.97 281.95 223 276.38 213.33 270.23 203.66 263.78 193.7 256.75 184.32 249.42 174.65 241.8 165.57 233.89 156.48 225.68 147.99 217.18 139.49 208.39 131.87 199.89 124.25 191.09 117.22 182.3 110.77 173.51 104.91 164.72 99.34 156.22 94.36 147.72 89.67 138.93 85.28 130.13 81.76 121.63 78.53 113.13 75.9 104.63 73.55 96.13 72.09 88.22 71.21 80.31 71.21 72.98 71.5 65.65 72.38 59.2 73.85 52.76 76.19 46.9 78.83 41.62 82.05 36.64 85.57 32.24 87.62 30.19 88.79 29.31 89.08 29.02 89.38 28.72 88.79 28.43 80 27.55 71.21 26.96 62.71 27.26 54.51 27.84 46.59 29.31 39.27 31.07 32.23 34 25.79 37.22 20.22 41.33 14.95 46.02 10.55 51.29 7.03 57.15 4.1 63.6 2.05 70.93 0.59 78.25 0 86.46 0 94.96 0.88 103.75 2.64 112.84 4.69 121.93 7.62 131.3 11.14 140.98 15.24 150.65 19.63 160.03 24.61 169.7 30.48 179.66 36.63 189.92 43.66 200.18 51.28 210.73 59.49 221.58 68.28 232.42 77.66 243.26 87.62 254.11 98.17 264.66 109.01 275.21 120.15 285.47 131.87 295.44 143.59 305.11 155.6 314.19 167.62 322.99 179.63 331.19 191.94 338.81 203.66 345.85 215.68 352.3 227.11 358.45 238.54 363.73 249.38 368.42 259.93 372.52 270.18 376.04 280.44 378.97 290.4 381.6 300.37 383.65 310.04 385.12 319.71 385.71 328.79 386 337.58 385.71 345.79 384.54 353.7 382.48 361.03 380.14 367.77 376.91 373.63 372.81 378.9 368.42 383.59 363.14 387.4 357.57 390.33 351.12 392.68 344.38 394.14 337.05 395.02 329.43 395.31 321.52 394.73 313.31 393.56 304.81 391.8 296.02 389.16 287.23 389.16 287.23"/><line class="cls-13" x1="105.79" y1="121.05" x2="105.79" y2="121.05"/><line class="cls-13" x1="214.51" y1="55.1" x2="214.51" y2="55.1"/><line class="cls-13" x1="206.3" y1="76.2" x2="206.3" y2="76.2"/><line class="cls-13" x1="187.84" y1="94.67" x2="187.84" y2="94.67"/><polygon class="cls-14" points="214.51 55.1 209.82 65.36 206.3 76.2 187.84 94.67 180.22 92.03 172.6 90.27 164.98 88.51 157.66 87.63 150.62 87.34 143.88 87.63 137.44 88.51 131.58 89.98 126.3 92.03 121.32 94.96 117.22 98.19 113.7 102 110.77 106.1 108.42 110.79 106.67 115.77 105.79 121.05 102.86 111.08 101.98 106.1 101.1 101.41 100.81 96.72 100.51 92.03 100.51 87.34 101.1 82.94 101.69 78.55 102.56 74.44 104.03 70.34 105.5 66.53 107.55 63.01 109.89 59.79 112.53 56.57 115.17 53.93 118.39 51.29 121.91 48.95 125.72 46.9 129.52 45.14 133.63 43.96 138.02 42.79 142.71 41.91 147.4 41.33 152.38 41.03 157.36 41.03 162.64 41.33 167.91 41.91 178.46 43.38 189.31 46.02 195.46 48.07 201.61 50.12 208.06 52.46 214.51 55.1"/><line class="cls-13" x1="332.6" y1="202.53" x2="332.6" y2="202.53"/><line class="cls-13" x1="357.8" y1="191.97" x2="357.8" y2="191.97"/><line class="cls-13" x1="295.68" y1="284.88" x2="295.68" y2="284.88"/><line class="cls-13" x1="317.66" y1="217.47" x2="317.66" y2="217.47"/><polyline class="cls-14" points="357.8 191.97 361.91 202.23 364.84 212.49 366.3 217.47 367.18 222.46 367.77 227.44 368.35 232.42 368.35 237.11 368.35 241.8 367.77 246.2 366.89 250.59 365.72 254.7 364.25 258.51 362.49 262.32 360.44 265.83 358.1 269.06 355.46 271.99 352.53 274.63 349.01 276.97 345.79 279.31 341.98 281.07 337.88 282.83 333.77 284 329.38 284.88 324.98 285.76 320.3 286.35 315.61 286.35 310.62 286.35 305.94 286.06 295.68 284.88 300.07 283.42 303.88 281.37 307.69 279.02 311.21 276.38 314.14 273.16 316.78 269.64 318.83 265.83 320.59 261.44 322.05 256.75 322.64 251.76 323.23 246.49 322.93 241.21 322.35 235.35 321.17 229.49 319.42 223.63 317.66 217.47 332.6 202.53 332.31 202.23 341.1 199.3 349.6 195.78 357.51 191.68"/></svg>