<?xml version="1.0" standalone="no"?>
<!DOCTYPE svg PUBLIC "-//W3C//DTD SVG 20010904//EN"
 "http://www.w3.org/TR/2001/REC-SVG-20010904/DTD/svg10.dtd">
<svg version="1.0" xmlns="http://www.w3.org/2000/svg"
 width="150.000000pt" height="150.000000pt" viewBox="0 0 150.000000 150.000000"
 preserveAspectRatio="xMidYMid meet">
<metadata>
Created by potrace 1.16, written by Peter Selinger 2001-2019
</metadata>
<g transform="translate(0.000000,150.000000) scale(0.100000,-0.100000)"
fill="blue" stroke="none">
<path d="M529 1471 c-43 -15 -90 -36 -105 -47 -16 -10 -38 -23 -48 -29 -11 -5
-28 -25 -39 -43 -18 -31 -18 -34 -2 -58 17 -26 17 -77 0 -119 -4 -11 4 -4 18
16 35 51 40 74 22 89 -19 16 -20 34 0 26 8 -3 15 0 15 7 1 26 52 50 99 47 25
-1 56 -3 69 -4 17 -1 22 -6 18 -18 -2 -11 1 -18 10 -18 8 0 14 4 14 8 0 17 44
29 65 18 21 -11 23 -48 2 -40 -7 2 -25 0 -42 -4 -26 -7 -30 -13 -30 -45 0 -20
2 -37 3 -37 2 0 17 9 33 21 16 11 29 16 29 11 0 -5 11 -7 24 -5 13 3 26 0 30
-5 8 -13 -41 -52 -65 -52 -24 0 -49 -10 -49 -21 0 -15 27 -10 64 11 44 27 62
8 24 -25 -19 -16 -23 -26 -16 -38 12 -23 30 -21 51 3 21 25 37 26 37 1 0 -12
-9 -23 -22 -27 -13 -4 -39 -17 -59 -30 -20 -13 -40 -20 -43 -17 -3 4 -21 -11
-39 -32 l-33 -38 -93 2 c-51 1 -97 3 -101 6 -12 7 -68 -58 -86 -100 -24 -59
-43 -196 -54 -400 -15 -277 -15 -285 -33 -302 -18 -18 -82 -43 -113 -43 -11 0
-35 -15 -53 -34 -26 -27 -32 -40 -29 -67 l3 -34 95 0 96 0 74 57 c41 32 81 65
89 74 8 10 21 13 35 9 11 -3 44 -10 71 -15 87 -15 110 -22 127 -38 14 -12 33
-14 85 -9 36 4 71 11 77 17 5 5 31 10 57 10 86 0 125 55 134 192 7 90 24 133
45 112 16 -16 60 -139 60 -168 0 -13 5 -37 11 -55 9 -25 17 -31 39 -31 15 0
34 -7 41 -17 29 -34 93 -53 173 -51 53 2 76 7 76 16 0 6 5 12 10 12 6 0 10 -6
10 -14 0 -17 49 -27 72 -15 28 15 21 52 -15 87 -32 31 -39 33 -132 40 -72 5
-100 11 -105 22 -5 8 -27 98 -50 200 -23 102 -51 205 -61 229 -10 24 -19 60
-19 80 0 20 -9 61 -20 91 -11 30 -20 67 -20 82 0 16 -4 36 -9 46 -5 9 -21 43
-36 75 -15 31 -31 57 -36 57 -5 0 -9 20 -9 45 0 30 -5 47 -16 53 -11 6 -13 11
-5 16 12 8 14 47 5 94 -8 39 -114 148 -168 173 -62 28 -163 24 -257 -10z m346
-96 c18 -4 20 -12 20 -90 0 -80 -2 -88 -25 -107 -38 -31 -109 -9 -95 30 2 7
-7 18 -20 24 -16 7 -25 19 -25 34 0 30 35 111 51 116 12 4 55 1 94 -7z m-79
-366 c4 -7 24 -9 55 -6 52 6 53 6 63 -35 5 -21 2 -28 -14 -33 -26 -8 -26 -35
0 -35 10 0 24 -9 30 -20 6 -11 21 -20 34 -20 13 0 30 -8 38 -17 20 -24 32 -63
19 -63 -13 0 -51 40 -51 53 0 11 -96 2 -135 -13 -14 -5 -27 -15 -30 -22 -2 -7
-11 -39 -20 -70 -10 -36 -21 -58 -30 -58 -8 0 -19 -17 -25 -39 -5 -21 -17 -42
-26 -45 -8 -3 -12 -11 -9 -16 4 -6 1 -17 -5 -25 -7 -9 -10 -28 -7 -44 4 -21 0
-36 -13 -52 l-20 -22 0 27 c0 15 -4 25 -9 22 -4 -3 -6 6 -3 19 5 31 -23 35
-33 5 -3 -11 -10 -20 -15 -20 -10 0 -27 60 -28 105 -3 65 -26 172 -44 202 -17
29 -22 31 -66 28 -52 -3 -71 3 -51 16 11 7 9 10 -8 15 -25 7 -32 34 -9 34 7 0
19 7 26 15 9 11 34 15 97 15 62 0 83 3 81 13 -4 16 42 67 61 68 9 0 32 6 51
13 45 17 87 19 96 5z m-296 -228 c0 -10 -7 -21 -15 -25 -8 -3 -15 -16 -15 -28
l0 -23 20 25 20 25 1 -30 c1 -16 2 -34 4 -40 1 -5 3 -29 3 -53 1 -25 6 -41 12
-37 9 6 11 0 29 -84 7 -32 6 -40 -2 -32 -22 22 -28 10 -26 -57 1 -38 -1 -74
-5 -81 -4 -6 2 -27 14 -46 l22 -35 -25 0 c-39 0 -52 25 -49 93 3 59 -2 83 -39
163 -11 22 -19 58 -19 80 0 22 -5 45 -12 52 -9 9 -7 17 10 35 12 13 22 30 22
38 0 12 -2 12 -10 -1 -8 -12 -10 -12 -15 2 -4 11 4 27 26 47 37 36 49 39 49
12z"/>
</g>
</svg>
