<svg xmlns="http://www.w3.org/2000/svg" width="914" height="1198.121" viewBox="0 0 914 1198.121">
  <g id="Group_22015" data-name="Group 22015" transform="translate(139.648 1198.455)">
    <g id="Group_22014" data-name="Group 22014">
      <path id="Path_22043" data-name="Path 22043" d="M-78.717-271.634a59.232,59.232,0,0,1-42.915-17.622,57.218,57.218,0,0,1-18.012-42.395,57.281,57.281,0,0,1,18.012-42.395,59.232,59.232,0,0,1,42.915-17.947,57.483,57.483,0,0,1,41.16,16.581l-11.574,11.769a41.681,41.681,0,0,0-29.586-11.7,41.226,41.226,0,0,0-30.561,13,42.463,42.463,0,0,0-12.55,30.886,42.462,42.462,0,0,0,12.55,30.5,43.63,43.63,0,0,0,60.862.715,34.581,34.581,0,0,0,8.908-20.222H-78.522v-16.646h55.205a52.752,52.752,0,0,1,.65,10.144,52.018,52.018,0,0,1-14.24,38.364A55.338,55.338,0,0,1-78.717-271.634ZM49.64-282.688a39.8,39.8,0,0,1-55.075,0,37.06,37.06,0,0,1-11.249-27.635A37.124,37.124,0,0,1-5.435-337.958a39.858,39.858,0,0,1,55.075,0,37.128,37.128,0,0,1,11.249,27.635,37.069,37.069,0,0,1-11.314,27.635ZM6.724-293.547a21.068,21.068,0,0,0,29.778.978q.506-.473.978-.978a23.151,23.151,0,0,0,6.5-16.776,23.215,23.215,0,0,0-6.5-16.841A21.393,21.393,0,0,0,7.233-327.8q-.326.312-.639.639a23.21,23.21,0,0,0-6.5,16.841,23.148,23.148,0,0,0,6.567,16.776ZM134.3-282.688a39.8,39.8,0,0,1-55.075,0,37.064,37.064,0,0,1-11.25-27.635,37.128,37.128,0,0,1,11.25-27.635,39.794,39.794,0,0,1,55.075,0,37.131,37.131,0,0,1,11.249,27.635A37.067,37.067,0,0,1,134.3-282.688ZM91.385-293.547a21.068,21.068,0,0,0,29.778.978q.505-.473.978-.978a23.151,23.151,0,0,0,6.5-16.776,23.215,23.215,0,0,0-6.5-16.841,21.393,21.393,0,0,0-30.247-.639q-.325.312-.639.639a23.21,23.21,0,0,0-6.5,16.841,23.148,23.148,0,0,0,6.567,16.776Zm98.576,56.635a34.073,34.073,0,0,1-21.653-6.892,39.865,39.865,0,0,1-12.615-16l14.826-6.177a24.956,24.956,0,0,0,7.347,9.688,18.532,18.532,0,0,0,12.16,4.1,19.507,19.507,0,0,0,15.15-5.852,23.732,23.732,0,0,0,5.4-16.906v-5.592h-.585a24.773,24.773,0,0,1-20.352,8.778,35.31,35.31,0,0,1-26.01-11.314,37.394,37.394,0,0,1-11.119-27.245,37.781,37.781,0,0,1,11.119-27.44,35.242,35.242,0,0,1,26.01-11.379,27.944,27.944,0,0,1,11.964,2.666,24.045,24.045,0,0,1,8.453,6.177h.585v-6.177h16.126v69.25a40.38,40.38,0,0,1-10.338,30.236A36.413,36.413,0,0,1,189.961-236.912Zm1.17-49.938a18.921,18.921,0,0,0,14.7-6.5A24.059,24.059,0,0,0,211.744-310a24.578,24.578,0,0,0-5.917-16.971,18.86,18.86,0,0,0-14.7-6.5,20.094,20.094,0,0,0-15.215,6.5,23.737,23.737,0,0,0-6.5,16.841,23.281,23.281,0,0,0,6.5,16.646A20.156,20.156,0,0,0,191.131-286.85ZM255.44-387.636v113.661H238.469V-387.636Zm46.557,116a36.932,36.932,0,0,1-27.375-11.119,37.647,37.647,0,0,1-10.989-27.57,38.1,38.1,0,0,1,10.6-27.83,34.851,34.851,0,0,1,26.01-10.859,32.829,32.829,0,0,1,13.005,2.536,30.619,30.619,0,0,1,9.948,6.5,45.543,45.543,0,0,1,6.5,7.868,46.464,46.464,0,0,1,3.836,7.608l1.756,4.421L283.27-298.684A19.506,19.506,0,0,0,302-286.98a22.171,22.171,0,0,0,19.052-10.729l13.005,8.779A42.856,42.856,0,0,1,321.569-277.1,35.371,35.371,0,0,1,302-271.634Zm-21.718-39.86,34.592-14.37a11.962,11.962,0,0,0-5.4-5.917,17.614,17.614,0,0,0-8.908-2.276,20.092,20.092,0,0,0-13.98,6.177A20.61,20.61,0,0,0,280.279-311.494Z" fill="#1a1818"/>
      <path id="Path_22044" data-name="Path 22044" d="M424.176-271.634a53.579,53.579,0,0,1-54.5-52.647q-.02-1.084.006-2.168a53.581,53.581,0,0,1,52.322-54.809q1.083-.024,2.168-.006A48.507,48.507,0,0,1,462.735-364.1l-9.363,9.1a35.372,35.372,0,0,0-29.131-13.33,39.726,39.726,0,0,0-28.935,11.574,40.574,40.574,0,0,0-11.77,30.3,40.574,40.574,0,0,0,11.77,30.3,39.726,39.726,0,0,0,28.935,11.574,41.355,41.355,0,0,0,32.512-15.215l9.363,9.363a51.106,51.106,0,0,1-18.011,13.72A55.141,55.141,0,0,1,424.176-271.634Z" fill="#1a1818"/>
      <path id="Path_22045" data-name="Path 22045" d="M491.28-273.975H477.821V-378.988H491.28Z" fill="#1a1818"/>
      <path id="Path_22046" data-name="Path 22046" d="M513.258-337.178a37.65,37.65,0,0,1,53.06,0,38.038,38.038,0,0,1,10.4,27.31,38.04,38.04,0,0,1-10.4,27.31,37.65,37.65,0,0,1-53.06,0,38.039,38.039,0,0,1-10.4-27.31A38.037,38.037,0,0,1,513.258-337.178Zm10.014,46.167a22.694,22.694,0,0,0,32.081.886q.454-.43.886-.886a26.014,26.014,0,0,0,6.958-18.857,26.012,26.012,0,0,0-6.958-18.857,22.693,22.693,0,0,0-32.081-.886q-.455.43-.886.886a26.007,26.007,0,0,0-6.957,18.857,26.009,26.009,0,0,0,7.022,18.792Z" fill="#1a1818"/>
      <path id="Path_22047" data-name="Path 22047" d="M651.3-273.975H638.3v-9.949h-.39a25.042,25.042,0,0,1-9.494,8.974,26.529,26.529,0,0,1-13.33,3.576,25.292,25.292,0,0,1-20.417-8.193,32.511,32.511,0,0,1-6.958-21.978v-44.216h13.46v41.745q0,20.092,17.752,20.092a16.513,16.513,0,0,0,13.655-6.5,24.51,24.51,0,0,0,5.267-15.541v-39.794H651.3Z" fill="#1a1818"/>
      <path id="Path_22048" data-name="Path 22048" d="M697.015-271.634a31.6,31.6,0,0,1-24.058-10.989,39.012,39.012,0,0,1-10.079-27.245,39.012,39.012,0,0,1,10.079-27.245A31.6,31.6,0,0,1,697.015-348.1a30.5,30.5,0,0,1,14.7,3.511,24.912,24.912,0,0,1,9.753,8.778h.585l-.585-9.948v-33.227h13.46v105.013H721.919v-9.949h-.585a24.907,24.907,0,0,1-9.753,8.779A30.5,30.5,0,0,1,697.015-271.634Zm2.211-12.29a21.457,21.457,0,0,0,16.191-7.022,26.333,26.333,0,0,0,6.5-18.922,26.333,26.333,0,0,0-6.5-18.922,21.978,21.978,0,0,0-31.047-1.465q-.766.7-1.465,1.465a26.01,26.01,0,0,0-6.5,18.857,26.01,26.01,0,0,0,6.5,18.857A21.456,21.456,0,0,0,699.226-283.924Z" fill="#1a1818"/>
      <text id="Platform" transform="translate(-139.648 -56.334)" fill="#1a1818" font-size="245.323" font-family="Helvetica"><tspan x="0" y="0">Platform</tspan></text>
    </g>
    <g id="Layer_1" data-name="Layer 1">
      <path id="path22" d="M429.021-1046.235l-87.407-152.22H112.294a56.4,56.4,0,0,0-49.353,28.74L-122.576-846.447a57.139,57.139,0,0,0,0,56.884l70.56,123.084L35.193-817.906,166.4-1046.235Z" fill="#fbaa00"/>
      <path id="path26" d="M718-846.447,532.483-1169.715a57.534,57.534,0,0,0-49.352-28.74H341.614l87.407,152.22,131.21,228.329L429.021-589.577H603.439L718-789.563a58.136,58.136,0,0,0,0-56.884" fill="#e22b25"/>
      <path id="path30" d="M603.241-589.775H166.007L34.8-818.1l-87.21,151.427L62.545-466.493A57.532,57.532,0,0,0,111.9-437.754H482.734a56.4,56.4,0,0,0,49.353-28.739l71.154-123.282Z" fill="#0062af"/>
      <path id="Path_22049" data-name="Path 22049" d="M428.625-589.775H165.808L34.8-818.1l131.21-228.329H428.625L560.231-818.1Zm-131.21-342.3A113.942,113.942,0,0,0,183.25-817.906,113.941,113.941,0,0,0,297.415-703.741,113.941,113.941,0,0,0,411.579-817.906,114.068,114.068,0,0,0,297.415-932.071Z" fill="#dbdcdd"/>
    </g>
  </g>
</svg>
