<svg xmlns="http://www.w3.org/2000/svg" width="3760.148" height="1062.974" viewBox="0 0 3760.148 1062.974">
  <g id="Group_22016" data-name="Group 22016" transform="translate(3428.642 -1391.227)">
    <path id="Path_22050" data-name="Path 22050" d="M-2942.321,1665.93v227.7c0,2.663.053,5.328-.017,7.99-.2,7.461-.216,7.468-7.94,7.656-1.665.041-3.331.01-5,.01q-230.354,0-460.709-.025c-14.139,0-12.578,1.649-12.582-12.982q-.059-230.2-.024-460.4c0-1,0-2,0-3,.063-10.9.063-10.949,10.953-10.95q232.353-.018,464.706-.006c1.666,0,3.332.076,5,.031,3.647-.1,5.619,1.474,5.571,5.281-.037,2.995.039,5.992.039,8.987Q-2942.319,1551.08-2942.321,1665.93Z" fill="#ea3718"/>
    <path id="Path_22051" data-name="Path 22051" d="M-2892.235,1665.385q0-114.84,0-229.681c0-15.681.022-13.959,14.293-13.962q228.341-.049,456.679,0c15.338,0,14.655-1.541,14.656,14.545q.023,229.182,0,458.364c0,16.049.656,14.449-14.738,14.453q-228.339.052-456.678,0c-14.343,0-14.21,1.591-14.21-14.039Q-2892.235,1780.226-2892.235,1665.385Z" fill="#7aae2d"/>
    <path id="Path_22052" data-name="Path 22052" d="M-2406.594,2202.416v227.669c0,2.33.036,4.661-.011,6.99-.172,8.637-.182,8.649-9.026,8.812-2.664.049-5.33.013-7.994.013h-451.652c-2.332,0-4.664.023-6.995-.007-9.817-.126-9.917-.132-9.918-10.042q-.033-233.162-.01-466.322,0-2.994.132-5.988c.13-2.838,1.725-4.136,4.505-4.148,2.331-.01,4.661-.084,6.992-.084q231.323-.006,462.644,0c2,0,4,.118,5.994.03,3.85-.171,5.411,1.721,5.312,5.425-.08,2.993.025,5.991.025,8.986Q-2406.593,2088.082-2406.594,2202.416Z" fill="#ffa700"/>
    <path id="Path_22053" data-name="Path 22053" d="M-2942.312,2201.755v227.718c0,2.33.033,4.661-.01,6.991-.158,8.621-.167,8.626-8.974,8.812-1.665.035-3.331.012-5,.012q-229.371,0-458.743-.019c-15.424,0-13.53,1.191-13.534-13.218q-.069-230.214,0-460.428c0-14.512-1.567-12.536,12.955-12.541q230.371-.077,460.743,0c14.048,0,12.529-1.877,12.539,12.961Q-2942.258,2086.9-2942.312,2201.755Z" fill="#0890d3"/>
    <path id="Path_22054" data-name="Path 22054" d="M-1710.327,1520.476c-3.357,3.142-4.015,6.833-5.295,10.063q-45.614,115.11-91.09,230.272-16.15,40.859-32.273,81.728c-4.17,10.532-4.222,10.559-15.127,10.642-9.326.071-18.691-.5-27.97.168-8.495.614-12.37-3.1-15.369-10.655-15.839-39.908-32.169-79.621-48.295-119.415q-39.376-97.172-78.741-194.346c-1.1-2.723-1.769-5.727-4.459-8.306-2.869,2.212-1.826,5.374-1.839,7.975-.108,20.639-.062,41.278-.062,61.918q0,123.335-.006,246.671c0,15.978-.031,15.993-15.881,16.008-14.657.013-29.316.1-43.971-.062-8.817-.1-9.659-1.094-10.035-9.773-.1-2.326-.044-4.659-.044-6.989q0-197.737,0-395.473c0-17.624.017-17.636,17.451-17.642,26.316-.008,52.632-.045,78.948.029,11.279.031,11.992.5,16.073,11.07q50.715,131.334,101.35,262.7,7.187,18.63,14.452,37.23c.7,1.792,1.185,4.232,3.389,4.579,3.154.5,3.571-2.563,4.388-4.534q12.425-29.977,24.65-60.037,48.552-118.768,97.094-237.54c.756-1.848,1.708-3.627,2.337-5.515,1.974-5.919,6.088-8.043,12.2-8.011,28.314.15,56.63-.031,84.944.124,8.556.047,9.561,1.364,9.944,10.024.1,2.327.046,4.66.046,6.99q0,198.237,0,396.472c0,16.342-.025,16.352-16.538,16.36-15.989.008-31.98.081-47.968-.043-9.935-.077-10.879-.942-10.909-10.9-.107-35.286-.055-70.573-.057-105.859q0-101.865-.039-203.728C-1709.032,1528.871-1708.312,1524.905-1710.327,1520.476Z" fill="#1a1818"/>
    <path id="Path_22055" data-name="Path 22055" d="M76.043,1728.378q0,53.428,0,106.859c0,3,.087,6-.08,8.986-.424,7.58-1.332,8.779-8.855,8.861q-27.978.306-55.962.012c-7.445-.076-8.51-1.391-8.947-8.858-.194-3.319-.087-6.656-.088-9.985q0-107.358-.008-214.717c0-15.995-.032-15.994-15.888-16.03-8.661-.019-17.328.152-25.981-.126-7.078-.227-8.271-1.267-8.4-8.237q-.395-21.463-.012-42.939c.129-7.341,1.363-8.365,9.143-8.543,9.988-.227,19.987,0,29.979-.134,10.1-.137,10.942-.924,11.114-10.724.251-14.3.675-28.567,1.36-42.861,2.656-55.47,51.109-100.167,103.553-98.679,8.655.246,17.321.062,25.983.05a79.9,79.9,0,0,1,16.814,2.085c4.967,1.059,7.661,3.628,7.661,8.814,0,15.978.191,31.959-.054,47.933-.1,6.264-1.475,7.03-7.493,5.065-12.79-4.177-25.641-7.239-39.168-3.918-15.48,3.8-25.836,13.107-30.782,28.352a64.247,64.247,0,0,0-3.567,17.564c-.414,12.636-.4,25.3-.169,37.94.128,6.973,1.373,8.252,8.34,8.289q45.469.242,90.941-.011c7.253-.043,8.323-1.335,8.431-9.257.218-15.976.052-31.957.123-47.936.052-11.793.08-11.881,11.2-15.345q24.8-7.726,49.669-15.216c10.9-3.29,12.464-2.232,12.541,8.94.134,19.307.045,38.615.051,57.923,0,3.329-.053,6.66.031,9.987.252,10.068.939,10.9,10.852,10.991,15.322.142,30.647.047,45.97.056,2.665,0,5.335-.076,7.994.057,7.633.379,8.846,1.265,8.981,8.756q.377,20.964.013,41.941c-.133,7.826-1.469,8.987-9.7,9.108-12.656.186-25.317.064-37.975.075-5.33.005-10.663-.1-15.989.052-8.865.247-10.074,1.138-10.083,9.7q-.072,69.9.226,139.809a70.25,70.25,0,0,0,4.965,26.336c3.331,8.216,9.047,13.887,17.365,16.809,13.084,4.6,26.035,4.421,38.944-1.028,11.663-4.923,12.265-4.459,12.34,8.056.076,12.649-.121,25.3.032,37.949.07,5.7-1.963,9.64-7.58,11.391-30.327,9.454-60.7,11.929-91.047.228-20.6-7.943-33.956-22.925-41.09-43.562a113.215,113.215,0,0,1-6.2-35.252c-.889-52.23-2.17-104.455-1.54-156.7.02-1.664.04-3.334-.072-4.992-.5-7.416-1.431-8.584-9.059-8.693-15.321-.218-30.646-.1-45.97-.1-14.324,0-28.65-.107-42.972.068-8.639.106-9.742,1.162-9.807,9.952-.163,22.3-.073,44.608-.079,66.912Q76.037,1704.41,76.043,1728.378Z" fill="#1a1818"/>
    <path id="Path_22056" data-name="Path 22056" d="M-1759.469,2446.482c-9.328,0-18.656.04-27.984-.01-11.806-.064-11.85-.08-15.727-10.884q-14.842-41.35-29.619-82.725c-1.009-2.819-2.088-5.613-3.134-8.419-1.445-3.879-4.174-5.834-8.379-5.744-2.663.057-5.329-.078-7.994-.078q-69.957-.009-139.916,0c-1.666,0-3.332-.025-5,.022-9.123.256-9.819.636-12.853,9.409-8.487,24.537-16.84,49.119-25.294,73.667-2.167,6.292-4.579,12.5-6.755,18.79-1.369,3.959-3.923,5.906-8.176,5.9-22.319-.034-44.639.128-66.957-.057-6.57-.055-7.615-1.712-5.319-8.176,4.789-13.484,9.92-26.847,14.955-40.243q61.477-163.572,122.982-327.135c5.976-15.89,12.309-31.649,18.026-47.63,2.332-6.521,6.438-8.318,12.889-8.244,21.317.244,42.64.029,63.96.113,10.132.04,10.609.466,14.327,10.333q15.846,42.049,31.635,84.122,61.206,162.613,122.43,325.221c4.185,11.113,3.853,11.685-8.118,11.759C-1739.481,2446.531-1749.475,2446.482-1759.469,2446.482Zm-164.153-170.262c17.307,0,34.614.054,51.921-.017,12.6-.052,13.07-.633,9.077-12.2q-27.18-78.739-54.562-157.408c-1.211-3.473-.986-9.33-5.731-9.19-3.787.111-3.787,5.641-4.955,8.954q-24.39,69.144-48.63,138.34c-2.423,6.9-4.833,13.813-7.111,20.764-3.229,9.856-2.67,10.55,8.071,10.749,2,.037,3.993.012,5.99.012Q-1946.587,2276.227-1923.622,2276.22Z" fill="#1a1818"/>
    <path id="Path_22057" data-name="Path 22057" d="M-217.382,1861.128a162.807,162.807,0,0,1-64.759-10.546c-44.3-16.879-72.415-49.015-84.593-94.312-10.593-39.405-9.91-79.262,3.127-118.073,17.665-52.59,54.1-85.059,108.687-96.411,29.032-6.036,58.3-6.414,87.263-.022,48.614,10.73,82.051,39.939,99.61,86.3,10.5,27.716,13.408,56.741,10.587,86.408-1.487,15.651-3.631,31.075-8.7,45.955-17.95,52.7-54.712,84.473-108.675,96.758A161.48,161.48,0,0,1-217.382,1861.128Zm85.489-162.512a128.488,128.488,0,0,0-4.75-43.269c-7.186-24.657-21.251-43.476-46.417-52.3-12.518-4.389-25.518-4.5-38.52-3.842q-33.855,1.713-54.863,28.484a88.386,88.386,0,0,0-16.213,32.883,157.156,157.156,0,0,0,.844,82.831c8.563,30.263,28.418,49.018,59.565,55.052a99.015,99.015,0,0,0,32.73.958c27.388-3.79,46.834-17.765,58.017-43.014C-133.518,1738.381-131.263,1719.324-131.893,1698.616Z" fill="#1a1818"/>
    <path id="Path_22058" data-name="Path 22058" d="M-645.654,1696c1.055,30.133-4.02,58.067-16.992,84.252-19.837,40.041-51.881,65.232-95.2,75.6-34.966,8.37-70.079,8.285-104.557-2.651-52.371-16.611-83.308-53.079-94.879-106.042-7.129-32.632-6.153-65.477,1.933-97.939,15.3-61.411,63.268-102.8,126.25-109.816,24.675-2.749,49.207-3.151,73.447,2.518,56.931,13.316,90.9,49.864,105.26,105.595A161.672,161.672,0,0,1-645.654,1696Zm-240.266,7.357c-.684,13.129,1.452,28.918,6.631,44.19,7.823,23.065,22.51,39.883,46.024,47.786a95.947,95.947,0,0,0,54.117,2.448c21.692-5.271,37.52-17.693,47.307-38.005,6.93-14.384,9.893-29.636,11.189-45.268,2.085-25.162.5-50.081-10.212-73.33-11.655-25.3-31.777-39.624-59.845-41.829a138.388,138.388,0,0,0-21.957,0c-27.029,2.193-46.759,15.817-59.895,39.283C-883.308,1657.829-886.075,1678.775-885.92,1703.355Z" fill="#1a1818"/>
    <path id="Path_22059" data-name="Path 22059" d="M-698.434,2314.156q-45.453,0-90.907.018a79.75,79.75,0,0,0-8.965.42c-3.15.36-4.865,2.451-4.367,5.54,3.78,23.461,10.062,45.675,31.5,59.848,15.381,10.171,32.534,15.149,50.764,16.379a158.065,158.065,0,0,0,91.976-21.4c1.439-.836,2.81-1.8,4.3-2.541,4.791-2.382,6.309-1.835,6.377,3.19.21,15.636.037,31.276.039,46.915,0,4.166-2.207,6.7-5.725,8.586a135.962,135.962,0,0,1-23.725,10.481c-26.855,8.36-54.481,13.106-82.522,12.571-22.622-.431-45.079-4.182-65.979-13.88-40.4-18.746-63.97-50.985-73.856-93.623-8.411-36.279-8.482-72.8,2.378-108.507,14.1-46.361,42.277-81.02,88.538-98.96,22.86-8.865,46.688-10.066,70.813-7.561,21.149,2.2,41.213,7.834,58.964,19.993,30.412,20.831,46.241,50.76,52.66,86.161,3.928,21.658,4.557,43.626,4.062,65.6-.213,9.44-1.374,10.6-11.415,10.7-16.315.165-32.633.06-48.95.064Q-675.456,2314.159-698.434,2314.156ZM-733,2260.7v-.453h3.99c18.292-.016,36.584.093,54.873-.105,8.089-.087,10.138-1.563,9.879-7.89-.69-16.888-4.283-33.031-15.616-46.326-11.8-13.848-27.385-19.181-45.215-19.428-44-.608-68.591,33.875-75.36,67.9-.732,3.676.868,5.792,4.612,6.063,2.649.193,5.314.223,7.973.226Q-760.432,2260.716-733,2260.7Z" fill="#1a1818"/>
    <path id="Path_22060" data-name="Path 22060" d="M-1198.435,2409.332a6.15,6.15,0,0,0-5.238,2.637c-17.053,20.3-39.3,31.227-64.957,36.023-22.087,4.128-43.925,2.24-65.134-4.372-31.736-9.9-51.526-31.818-60.689-63.534-5.687-19.679-7.118-39.888-7.133-60.238q-.063-84.85-.021-169.7c0-.666-.005-1.332.011-2,.26-10.481.869-11.2,11.591-11.262q25.471-.157,50.945,0c10.509.064,11.326.82,11.34,11.489q.112,80.359.036,160.718c0,11.316-.11,22.632,2.361,33.774.288,1.3.477,2.621.793,3.912,5.716,23.352,17.91,40.886,42.982,45.888,26.154,5.218,48.89-.837,66.375-22.053,13.188-16,17.222-35.116,17.339-55.072.314-53.9.107-107.81.118-161.716,0-16.958.02-16.968,16.91-16.975,15.65-.006,31.3-.1,46.949.064,8.8.091,9.652,1.1,10.028,9.776.1,2.325.044,4.658.044,6.987q0,137.759,0,275.516c0,16.748-.028,16.77-16.375,16.791-15.65.021-31.3.116-46.949-.068-9.393-.111-10.247-1.177-10.589-10.342C-1198.022,2426.994-1197.038,2418.357-1198.435,2409.332Z" fill="#1a1818"/>
    <path id="Path_22061" data-name="Path 22061" d="M-1535.718,2196.348c-4.26-2.464-8.331-1.5-12.21-1.507q-57.444-.123-114.888-.051c-2.664,0-5.331.053-7.992-.033-8.908-.29-9.969-1.093-10.109-9.7q-.313-19.462.018-38.934c.143-8,1.329-8.882,9.54-9.236,1.662-.071,3.33-.035,4.995-.035q108.894,0,217.789,0c14.925,0,14.566.053,15.087,14.933.318,9.116-2.173,16.523-7.621,23.948q-72.925,99.414-145.23,199.282c-2.186,3.012-6.83,6.05-4.457,10.178,1.917,3.337,6.726,1.894,10.282,1.9,41.626.072,83.253.026,124.879.081,4.985.007,9.975.359,14.954.673,4.677.3,7.378,2.637,7.378,7.578q0,21.462.047,42.924c.014,4.933-2.468,7.343-7.306,7.474-2.995.081-5.991.159-8.987.159q-112.89.014-225.781,0c-16.1,0-15.268-.093-16.373-15.859-1-14.284,3.961-25.311,12.275-36.489,46.471-62.479,92.413-125.35,138.492-188.119C-1539,2202.886-1536.516,2200.51-1535.718,2196.348Z" fill="#1a1818"/>
    <path id="Path_22062" data-name="Path 22062" d="M-609.971,1810.185c0-8.985-.2-17.976.065-26.953.21-6.971,1.851-7.99,7.768-4.518a201.549,201.549,0,0,0,33.355,15.779c21.993,7.968,44.365,11.492,67.63,5.981,27.584-6.534,27.031-34.129,14.676-48.434a40.885,40.885,0,0,0-7.445-6.594,121.722,121.722,0,0,0-21.621-12.4c-10.086-4.357-20.267-8.5-30.268-13.04-15.847-7.193-30.82-15.767-42.992-28.539-13.445-14.106-20.1-30.962-21.268-50.331-1.46-24.209,3.411-46.285,19.965-64.917,17.514-19.712,39.6-31.135,65.27-35.865,29.317-5.4,58.39-3.111,87.074,4.2,16.148,4.117,16.054,4.536,16.063,20.955.008,14.31.125,28.622-.083,42.929-.119,8.184-1.619,9.1-8.733,5.142a142.451,142.451,0,0,0-52.741-17.468c-11.4-1.367-22.58-.757-33.468,3.233-21.276,7.8-26.838,33.463-10.711,49.551,4.55,4.539,10.173,7.448,15.727,10.482,12.9,7.044,26.826,11.744,40.175,17.759,16.186,7.294,31.29,16.131,43.98,28.866a73.891,73.891,0,0,1,20.416,37.082c6.462,29.729,1.136,56.981-19.247,80.2-12.343,14.061-28.27,23.13-45.912,29.017-28.707,9.578-58.056,11-87.769,5.937-13.459-2.294-26.85-5.027-39.754-9.61-9.453-3.357-10.057-4.339-10.178-14.49-.095-7.986-.019-15.974-.019-23.961Z" fill="#1a1818"/>
    <path id="Path_22063" data-name="Path 22063" d="M-1201.268,1621.647c-5.088-2.9-9.682-5.451-14.213-8.111-16.42-9.638-34.243-15.339-53.16-15.442-36.785-.2-66.586,13.985-83.872,47.555-17.415,33.821-17.791,69.353-3.67,104.4,11.571,28.714,34.827,43.591,64.606,49.084,29.9,5.515,56.6-3.282,81.861-18.438,2.713-1.628,5.231-5.312,8.7-3.077,2.692,1.735,1.673,5.508,1.686,8.426.068,15.311-.191,30.626.119,45.931.133,6.575-2.477,10.384-8.318,13.191-17.349,8.338-35.751,12.772-54.7,14.785-31.545,3.352-62.62,1.665-91.993-11.84-42.212-19.407-70.124-51.45-81.182-96.592-10.18-41.556-7.088-82.887,10.137-122.156,22.8-51.981,63.071-81.876,119.505-89.771,30.511-4.269,60.428-2.3,89.626,7.966,1.57.553,3.158,1.061,4.7,1.676,11.531,4.59,12.094,5.344,12.137,17.474q.078,21.968-.019,43.936C-1199.337,1613.906-1198.666,1617.314-1201.268,1621.647Z" fill="#1a1818"/>
    <path id="Path_22064" data-name="Path 22064" d="M-1070.2,1586.039c2.915-.363,3.157-3.1,4.253-4.959,21.359-36.155,55.311-46.069,91.268-40.05,7.993,1.338,9.068,2.647,9.157,10.423q.315,27.439.03,54.885c-.079,8.273-1.093,8.8-8.607,5.767a88.189,88.189,0,0,0-32.059-6.609c-24.833-.331-42.553,11.113-54.028,32.677-8.819,16.572-11.534,34.6-11.576,53.086-.113,48.567-.034,97.134-.048,145.7,0,16.224-.026,16.235-16.635,16.241-15.645.005-31.291.1-46.935-.069-8.643-.095-9.5-1.162-9.863-9.931-.082-1.993-.039-3.991-.039-5.987q0-138.715,0-277.43c0-16.183.028-16.2,15.758-16.212,15.313-.015,30.626-.068,45.937.027,11.087.068,11.625.668,11.753,12.094.094,8.315-.016,16.633.092,24.948C-1071.72,1582.488-1072.371,1584.682-1070.2,1586.039Z" fill="#1a1818"/>
    <path id="Path_22065" data-name="Path 22065" d="M-983.322,2181.171c5.487-10.294,11.8-19.894,20.327-27.968a74.8,74.8,0,0,1,42.57-20.187,126.213,126.213,0,0,1,29.916.062c9.146.958,10.913,2.9,10.986,11.966q.221,27.454-.018,54.911c-.068,7.07-1.058,7.629-7.638,4.883-16.158-6.744-32.866-8.9-49.832-4.576-22.1,5.629-34.412,21.63-41.642,42.15-4.911,13.939-6.682,28.48-6.709,43.192-.088,48.589-.022,97.178-.046,145.767-.007,14.376-.2,14.568-14.384,14.61-15.319.045-30.639.092-45.957-.026-11.2-.086-11.995-.849-12.009-11.941q-.094-74.38-.035-148.762,0-66.892.012-133.786c.008-14.54.06-14.572,14.275-14.6,15.319-.037,30.639-.071,45.957.018,11.36.066,12,.693,12.116,11.73.11,10.615.024,21.232.024,31.848Z" fill="#1a1818"/>
    <path id="Path_22066" data-name="Path 22066" d="M-1563.52,1698.833q-.008-69.393.005-138.785c.008-14.75.176-14.89,15.154-14.928q20.982-.054,41.963,0c14.678.039,14.79.138,14.8,15.278q.036,64.9.01,129.8,0,71.887,0,143.776c0,3,.064,5.994-.041,8.986-.324,9.215-1.118,10.117-10.628,10.192q-24.977.2-49.956.008c-10.462-.073-11.251-.831-11.268-11.548Q-1563.593,1770.221-1563.52,1698.833Z" fill="#1a1818"/>
    <path id="Path_22067" data-name="Path 22067" d="M-1571.479,1454.217c.472-24.148,20.02-41.53,45.9-40.815,23.836.659,42.637,19.663,42.344,42.8-.3,23.972-20.777,42.056-46.862,41.4C-1553.852,1497-1571.945,1478.029-1571.479,1454.217Z" fill="#1a1818"/>
  </g>
</svg>
