<svg xmlns="http://www.w3.org/2000/svg" xmlns:xlink="http://www.w3.org/1999/xlink" width="438.273" height="558.486" viewBox="0 0 438.273 558.486">
  <defs>
    <linearGradient id="linear-gradient" x1="76.892" y1="55.336" x2="76.717" y2="59.978" gradientUnits="objectBoundingBox">
      <stop offset="0" stop-color="#d9d8dc"/>
      <stop offset="1" stop-color="#fff" stop-opacity="0.384"/>
    </linearGradient>
    <linearGradient id="linear-gradient-2" x1="115.41" y1="50.266" x2="113.555" y2="54.34" gradientUnits="objectBoundingBox">
      <stop offset="0" stop-color="#8d67af" stop-opacity="0.671"/>
      <stop offset="1" stop-color="#9f8daf"/>
    </linearGradient>
    <linearGradient id="linear-gradient-3" x1="95.852" y1="56.213" x2="95.852" y2="59.372" gradientUnits="objectBoundingBox">
      <stop offset="0" stop-color="#26053d" stop-opacity="0.761"/>
      <stop offset="1" stop-color="#b7b4b4" stop-opacity="0.278"/>
    </linearGradient>
    <linearGradient id="linear-gradient-4" x1="48.825" y1="154.535" x2="50.984" y2="160.243" gradientUnits="objectBoundingBox">
      <stop offset="0" stop-color="#91739f" stop-opacity="0.459"/>
      <stop offset="1" stop-color="#32054f" stop-opacity="0.541"/>
    </linearGradient>
    <linearGradient id="linear-gradient-5" x1="91.623" y1="98.588" x2="86.665" y2="94.475" gradientUnits="objectBoundingBox">
      <stop offset="0" stop-color="#463d49" stop-opacity="0.329"/>
      <stop offset="1" stop-color="#340a50" stop-opacity="0.82"/>
    </linearGradient>
    <linearGradient id="linear-gradient-6" x1="212.065" y1="68.955" x2="209.568" y2="72.732" gradientUnits="objectBoundingBox">
      <stop offset="0" stop-color="#715383" stop-opacity="0.145"/>
      <stop offset="1" stop-color="#f4f4f4" stop-opacity="0.235"/>
    </linearGradient>
    <linearGradient id="linear-gradient-7" x1="409.471" y1="77.225" x2="396.456" y2="76.425" gradientUnits="objectBoundingBox">
      <stop offset="0" stop-color="#a5a1a8" stop-opacity="0.357"/>
      <stop offset="1" stop-color="#370c50" stop-opacity="0.58"/>
    </linearGradient>
  </defs>
  <g id="Group_5" data-name="Group 5" transform="translate(-33.95 4.961)">
    <g id="Group_3" data-name="Group 3" transform="translate(137.874 -4.961)">
      <g id="Group_2" data-name="Group 2">
        <path id="Path_6" data-name="Path 6" d="M171.493-4.861C145.416,4.392,121.02,31.311,96.625,75.055c-36.172,66.456-82.439,160.672-18.507,235.54,29.443,34.49,79.074,54.679,143.007,22.713,51.314-26.078,66.456-100.946,47.108-135.436-38.7-72.345-77.392-90.01-87.486-134.595C174.017,32.994,170.652,10.281,171.493-4.861Z" transform="translate(-46.304 5.702)" fill-rule="evenodd" fill="url(#linear-gradient)"/>
        <path id="Path_7" data-name="Path 7" d="M171.493-4.961c-26.078,9.253-51.314,36.172-74.868,79.916-36.172,66.456-82.439,160.672-18.507,235.54,29.443,34.49,78.233,45.426,105.152,25.236,17.665-13.459,29.443-26.078,36.172-53,7.571-30.284,1.682-69.821-2.524-89.169-5.047-23.554-6.73-48.791-5.047-77.392a.824.824,0,0,1-.841-.841c-14.3-16.824-24.4-31.966-29.443-53C174.017,32.894,170.652,10.181,171.493-4.961Z" transform="translate(-46.304 4.961)" fill-rule="evenodd" fill="url(#linear-gradient-2)"/>
        <path id="Path_8" data-name="Path 8" d="M120.574-3.561c-24.4,19.348-42.061,51.314-53.838,95.9C49.071,159.635,47.388,221.885,53.277,258.9c11.777,70.662,74.868,96.74,138.8,63.932,39.537-20.189,56.362-63.091,55.52-110.2-.841-48.791-95.057-103.47-111.04-143.848C125.621,41.023,120.574,17.469,120.574-3.561Z" transform="translate(-17.257 15.338)" fill-rule="evenodd" fill="url(#linear-gradient-3)"/>
        <path id="Path_9" data-name="Path 9" d="M210.989,34.417c29.443,37.013,35.331,63.091,19.348,77.392-24.4,21.872-84.963,36.172-121.976,10.095-25.236-17.666-34.49-55.52-28.6-113.564-10.095,21.872-19.348,42.9-26.078,65.615a158.513,158.513,0,0,0-5.889,68.98c9.253,17.666,30.284,30.284,64.774,36.172,51.314,9.253,100.1,4.206,132.912-11.777,21.872-10.936,31.966-21.872,31.125-32.807.841-15.983-4.206-31.125-15.142-46.267C251.368,73.113,234.543,55.447,210.989,34.417Z" transform="translate(-46.263 103.543)" fill-rule="evenodd" fill="url(#linear-gradient-4)"/>
        <path id="Path_10" data-name="Path 10" d="M66.469,7.039c0,26.919,6.73,52.155,21.03,76.551,21.03,36.172,45.426,72.345,82.439,101.787,24.4,20.189,44.584,26.078,58.885,19.348-11.777,21.872-25.236,31.966-38.7,31.966-20.189-.841-45.426-9.253-84.963-57.2-26.919-31.966-44.584-62.25-54.679-90.851,1.682-10.936,3.365-22.713,5.047-33.649C58.057,44.052,61.422,28.069,66.469,7.039Z" transform="translate(-15.307 93.907)" fill-rule="evenodd" fill="url(#linear-gradient-5)"/>
        <path id="Path_11" data-name="Path 11" d="M103.418,43.311c2.524,21.872,10.936,57.2,0,79.915C92.482,146.781,42.85,188.842,56.309,225.855s47.108,28.6,68.138,11.777,31.966-44.584,34.49-64.774c2.524-19.348-5.888-57.2-8.412-90.01-1.682-21.872-.841-40.378,3.365-56.361l-6.73-8.412L109.306,7.139C104.259,16.392,101.735,28.169,103.418,43.311Z" transform="translate(10.836 94.648)" fill-rule="evenodd" fill="url(#linear-gradient-6)"/>
        <path id="Path_12" data-name="Path 12" d="M110.23-1.461C97.611,3.586,86.676,13.681,75.74,29.664,58.915,52.377,50.5,66.677,57.233,112.1c4.206,30.284,6.73,58.044,9.253,84.122l53-153.942c-1.682-7.571-3.365-15.142-5.047-21.03C111.912,13.681,111.071,6.951,110.23-1.461Z" transform="translate(17.483 30.904)" fill-rule="evenodd" fill="url(#linear-gradient-7)"/>
        <path id="Path_13" data-name="Path 13" d="M107.7,3.639c-13.459,7.571-23.554,24.4-31.125,47.949-7.571,24.4-14.3,58.044-20.189,101.787,8.412-27.76,13.459-47.949,15.983-60.568C76.575,74.3,77.416,47.382,88.352,29.717A122.794,122.794,0,0,1,107.7,3.639Z" transform="translate(28.425 68.706)" fill="rgba(51,10,76,0.32)" fill-rule="evenodd"/>
        <path id="Path_14" data-name="Path 14" d="M54.986,34.639C76.858,38,88.635,40.528,89.476,43.051c1.682,3.365-2.524,6.73-15.142,5.047A30.639,30.639,0,0,1,54.986,34.639Z" transform="translate(18.048 298.482)" fill="#fff" fill-rule="evenodd"/>
        <path id="Path_15" data-name="Path 15" d="M103.083-1.461A348.175,348.175,0,0,0,71.116,44.806c-9.253,15.983-15.142,28.6-19.348,36.172A195.89,195.89,0,0,0,50.086,107.9a218.9,218.9,0,0,0,3.365,38.7c1.682-27.76,6.73-55.52,15.983-81.6C77.846,38.917,89.623,16.2,103.083-1.461Z" transform="translate(-18.272 30.904)" fill="rgba(237,237,237,0.6)" fill-rule="evenodd"/>
      </g>
    </g>
    <g id="Group_4" data-name="Group 4" transform="translate(33.95 396.879)">
      <path id="Path_16" data-name="Path 16" d="M54.139,150.484H120.6a2.231,2.231,0,0,0,2.524-2.524c6.73-65.615-41.22-60.568-41.22-60.568-33.649,0-47.949,26.078-47.949,58.044S60.028,201.8,91.994,199.274c19.348-1.682,24.4-9.253,27.76-12.618a2.559,2.559,0,0,0,0-3.365l-5.889-5.889a2.559,2.559,0,0,0-3.365,0c-21.872,15.142-57.2,5.047-58.885-24.4A2.231,2.231,0,0,1,54.139,150.484ZM81.9,104.217c12.618,0,21.872,7.571,23.554,26.919a2.231,2.231,0,0,1-2.524,2.524H54.98a2.231,2.231,0,0,1-2.524-2.524C53.3,112.629,69.281,104.217,81.9,104.217ZM151.72,42.808H165.18a2.231,2.231,0,0,1,2.524,2.524V166.467c0,18.507,11.777,15.983,17.666,15.142a2.231,2.231,0,0,1,2.524,2.524v12.618a2.231,2.231,0,0,1-2.524,2.524c-33.649-.841-37.014-15.983-37.014-30.284V45.332C149.2,44.49,150.038,42.808,151.72,42.808Zm63.091,47.949h14.3a2.231,2.231,0,0,1,2.524,2.524V195.909a2.231,2.231,0,0,1-2.524,2.524h-14.3a2.231,2.231,0,0,1-2.524-2.524V93.281A2.231,2.231,0,0,1,214.811,90.757Zm0-29.443h14.3a2.231,2.231,0,0,0,2.524-2.524V45.332a2.231,2.231,0,0,0-2.524-2.524h-14.3a2.231,2.231,0,0,0-2.524,2.524V58.791A2.231,2.231,0,0,0,214.811,61.315ZM369.6,90.757h14.3a2.231,2.231,0,0,1,2.524,2.524V195.909a2.231,2.231,0,0,1-2.524,2.524H369.6a2.231,2.231,0,0,1-2.524-2.524V93.281A2.231,2.231,0,0,1,369.6,90.757Zm102.628-.841v14.3a2.231,2.231,0,0,1-2.524,2.524c-23.554.841-30.284,8.412-30.284,21.03v67.3a2.231,2.231,0,0,1-2.524,2.524h-14.3a2.231,2.231,0,0,1-2.524-2.524V93.281a2.231,2.231,0,0,1,2.524-2.524h14.3a2.231,2.231,0,0,1,2.524,2.524v7.571c3.365-5.047,11.777-11.777,30.284-12.618C471.382,87.392,472.223,88.234,472.223,89.916ZM369.6,61.315h14.3a2.231,2.231,0,0,0,2.524-2.524V45.332a2.231,2.231,0,0,0-2.524-2.524H369.6a2.231,2.231,0,0,0-2.524,2.524V58.791A2.231,2.231,0,0,0,369.6,61.315ZM345.2,194.227l-35.331-50.473a1.577,1.577,0,0,1,0-2.524l31.125-46.267c.841-1.682,0-3.365-1.682-3.365H325.852c-.841,0-1.682,0-1.682.841l-22.713,32.807a2.383,2.383,0,0,1-4.206,0L274.538,92.44c-.841-.841-.841-.841-1.682-.841H259.4c-1.682,0-3.365,2.524-1.682,3.365l31.125,46.267a1.577,1.577,0,0,1,0,2.524l-35.331,50.473c-.841,1.682,0,4.206,1.682,4.206h15.983c.841,0,1.682,0,1.682-.841l24.4-36.172a2.383,2.383,0,0,1,4.206,0l24.4,36.172c.841.841.841.841,1.682.841h15.983c1.682-.841,3.365-2.524,1.682-4.206Z" transform="translate(-33.95 -42.808)" fill="#333"/>
    </g>
  </g>
</svg>
