<svg xmlns="http://www.w3.org/2000/svg" width="387.628" height="522.735" viewBox="0 0 387.628 522.735">
  <g id="Group_22013" data-name="Group 22013" transform="translate(564.699 -35.283)">
    <path id="Path_21897" data-name="Path 21897" d="M-179.344,371.072c-3.173,7.952-6.14,16.054-9.6,23.939-11.689,26.637-28.035,50.282-47.366,71.861-10.97,12.247-23.807,21.825-40.662,24.574-11.7,1.908-22.844-.582-33.853-4.157-11.379-3.694-22.557-8.19-34.145-11.018-19.452-4.748-38.333-.95-56.751,5.971-7,2.632-14.047,5.175-21.166,7.465-20.972,6.747-39.474,1.891-55.564-12.623-24.07-21.712-42.218-47.929-56.663-76.715-15.364-30.618-25.332-62.991-28.5-97.178-3.441-37.142.639-73.009,21.84-104.992,22.191-33.476,53.414-51.681,93.81-53.242,14.245-.551,27.554,4.025,40.812,8.551q14.637,5,29.308,9.888a25.8,25.8,0,0,0,17.116,0c14.788-5.063,29.478-10.548,44.538-14.647,41.423-11.277,78.734-3.07,111.241,25.32,3.366,2.94,6.17,6.536,9.138,9.912,1.412,1.606,2.6,3.412,4.163,5.5-35.335,21.618-53.589,52.355-50.754,94.1C-239.562,325.39-215.949,352.578-179.344,371.072Z"/>
    <path id="Path_21898" data-name="Path 21898" d="M-276.294,35.283c1.441,14.716.024,28.538-5.522,41.623-12.627,29.795-32.791,52.315-63.954,63.324-6.158,2.175-13,2.655-19.589,3.3-6.242.607-6.617.075-6.588-6.121.159-34.164,15.411-60.817,41.858-81.23A100.011,100.011,0,0,1-276.294,35.283Z"/>
    <path id="Path_21899" data-name="Path 21899" d="M-517,522.966c.771,13.658-9.494,23.088-22.341,23.16-13.1.073-23.167-9.454-22.753-23.344.421-14.154,8.65-22.578,22.683-22.845C-526.5,499.692-516.253,509.373-517,522.966Zm-11.695.06c-.489-2.746-.591-5.782-1.612-8.468-1.47-3.867-4.222-6.472-8.846-6.6-4.826-.138-8.6,2.293-9.329,6.425a50.081,50.081,0,0,0,.017,17.291c.744,4.142,4.549,6.533,9.366,6.372,4.617-.155,7.334-2.78,8.814-6.651C-529.316,528.859-529.223,525.991-528.694,523.026Z"/>
    <path id="Path_21900" data-name="Path 21900" d="M-498.653,542.184c-1.772,5.813-6.584,1.477-10.094,2.975V499.226h9.637v16.888c5.329-4.5,10.334-6.873,16.353-4.024,6.8,3.216,10.386,12.609,8.11,21.117-2.544,9.512-6.783,13.514-14.546,12.645C-492.4,545.493-495.415,543.492-498.653,542.184Zm14.453-14.936c-1.52-2.33-2.94-5.677-5.419-7.767-1.084-.913-4.831.1-6.5,1.371-3.572,2.724-4.057,10.291-1.495,14,3.033,4.391,8.545,4.375,11.262-.256C-485.334,532.858-485.152,530.63-484.2,527.248Z"/>
    <path id="Path_21901" data-name="Path 21901" d="M-177.071,512.414c-9.144-4.88-17-7.258-23.525.9-3.8,4.746-3.193,15.44.457,20.017,4.585,5.75,10.973,6.153,21.931,1.381.546,8.45-.579,10.315-9.228,11.139-9.7.924-18.923-.791-24.318-10.2-5.133-8.948-4.716-18.168.849-26.8,6.1-9.455,22.7-11.635,31.365-5.773C-177.849,504.225-178.089,508.223-177.071,512.414Z"/>
    <path id="Path_21902" data-name="Path 21902" d="M-410.547,530.952h-26c1.429,9.357,6.434,10.346,22.026,4.643,1.267,7.891,1.293,8.057-7.11,9.365-4.008.623-8.325,1.346-12.17.5-8.733-1.91-12.8-7.184-13.2-15.357-.417-8.37,3.117-14.624,9.908-17.531,8.035-3.441,16.4-2.183,21.357,4.506C-413.122,520.61-412.462,525.584-410.547,530.952Zm-11.516-6.242c-.17-4.157-2.186-6.332-5.938-6.666-4.693-.418-7.674,1.743-8.96,6.666Z"/>
    <path id="Path_21903" data-name="Path 21903" d="M-270.895,530.732c2.546,9.7,5.1,10.169,22.688,4.92.508,7.991.535,8.189-7.3,9.288-4.146.581-8.664,1.3-12.571.274-10.91-2.87-12.021-7.394-12.827-15-.894-8.429,3.189-15.074,10.1-17.886,7.745-3.15,16.176-1.8,20.983,4.665,2.627,3.533,3.351,8.481,5.28,13.735Zm-.134-5.984h15.106c-.392-4.012-2.211-6.346-6-6.7C-266.61,517.6-269.6,519.757-271.029,524.748Z"/>
    <path id="Path_21904" data-name="Path 21904" d="M-321.49,512.091h9.87l8.1,22.436c2.942-8.1,5.508-15.162,8.13-22.378h10.137c-2.185,5.834-4.278,11.459-6.4,17.073-1.433,3.8-3.14,7.507-4.286,11.385-1.017,3.44-2.835,4.821-6.426,4.447-3.447-.359-7.065.923-8.717-4.139-2.764-8.473-6.3-16.693-9.468-25.037A32.744,32.744,0,0,1-321.49,512.091Z"/>
    <path id="Path_21905" data-name="Path 21905" d="M-357.177,512h10.933v7.8h-10.742c0,5.105-.192,9.712.145,14.28.077,1.041,1.854,2.5,3.077,2.788,2.008.466,4.2.127,6.537.127v7.941c-3.9,0-7.876.395-11.735-.1-5.217-.666-7.9-4.318-8.019-10.039-.1-4.647-.019-9.3-.019-14.263l-4.81-.931V512.31l4.619-.607v-8.3h10.014Z"/>
    <path id="Path_21906" data-name="Path 21906" d="M-377.2,535.755c.61,9.814.188,10.252-9.872,10.246-15.839-.009-23.472-13.273-16.248-27.439,2.818-5.526,12.848-8.65,20.506-7.379,6.069,1.006,6.03,1.238,5.653,10.439-5.777-2.647-11.76-5.152-16.325,1.456-2.564,3.712-1.929,9.562.786,12.435C-389.648,538.745-384.448,538.827-377.2,535.755Z"/>
    <path id="Path_21907" data-name="Path 21907" d="M-466,512.241h9.979c0,11.857.51,23.508-.185,35.087-.437,7.273-5.263,12.074-16.469,10.332v-6.131c6.107-1.066,6.668-1.775,6.673-8.529C-465.995,532.865-466,522.73-466,512.241Z"/>
    <path id="Path_21908" data-name="Path 21908" d="M-329.249,512.3v32.3h-9.418V512.3Z"/>
    <path id="Path_21909" data-name="Path 21909" d="M-222.233,523.328v8.427h-17.382v-8.427Z"/>
    <path id="Path_21910" data-name="Path 21910" d="M-456.414,507.9h-9.211v-8.569h9.211Z"/>
    <path id="Path_21911" data-name="Path 21911" d="M-338.651,499.216h9.391v8.395h-9.391Z"/>
  </g>
</svg>
