<svg xmlns="http://www.w3.org/2000/svg" xmlns:xlink="http://www.w3.org/1999/xlink" width="265.708" height="86.885" viewBox="0 0 265.708 86.885">
  <defs>
    <linearGradient id="linear-gradient" x1="-12.212" y1="10.434" x2="-12.208" y2="10.434" gradientUnits="objectBoundingBox">
      <stop offset="0" stop-color="#3f3e3e"/>
      <stop offset="1" stop-color="#040506"/>
    </linearGradient>
    <linearGradient id="linear-gradient-2" x1="-12.212" y1="11.82" x2="-12.208" y2="11.82" xlink:href="#linear-gradient"/>
    <linearGradient id="linear-gradient-3" x1="-12.212" y1="6.875" x2="-12.208" y2="6.875" gradientUnits="objectBoundingBox">
      <stop offset="0" stop-color="#b60011"/>
      <stop offset="1" stop-color="#db0617"/>
    </linearGradient>
    <linearGradient id="linear-gradient-4" x1="-12.212" y1="7.694" x2="-12.208" y2="7.694" xlink:href="#linear-gradient-3"/>
    <linearGradient id="linear-gradient-5" x1="-12.212" y1="6.055" x2="-12.208" y2="6.055" xlink:href="#linear-gradient-3"/>
  </defs>
  <g id="Group_22021" data-name="Group 22021" transform="translate(-858.35 -258.923)">
    <g id="Group_22019" data-name="Group 22019">
      <path id="Path_21993" data-name="Path 21993" d="M954.2,258.946s5.319-.082,10.8,4.91v12.275h-3.191s.573-11.783-7.611-11.866c-6.865-.069-7.449,11.385-6.547,16.121,1.05,5.51,5.1,9.422,8.874,13.252a47.459,47.459,0,0,1,10.119,14.78c3.369,7.982,3.749,17.173-.58,24.911,0,0-3.847,8.265-11.375,9.166,0,0-11.21,2.785-16.612-7.936l1.9-1.14a5.728,5.728,0,0,1,3.333.486,10.553,10.553,0,0,0,8.009,3.97s10.3-.538,11.312-12.792a21.563,21.563,0,0,0-3.568-12.387l-9.158-10.771c-5.7-6.708-9.37-13.833-9.449-22.811-.048-5.391,1.089-11.348,4.5-15.706A12.193,12.193,0,0,1,954.2,258.946Z" fill="#161615"/>
      <path id="Path_21994" data-name="Path 21994" d="M994.114,258.945s7.406.6,11.474,3.313v13.873h-2.4a33.4,33.4,0,0,0-.736-4.227,11.8,11.8,0,0,0-2.887-4.756c-2.792-2.9-6.915-3.587-10.11-.867-2.686,2.288-3.829,6.524-4.416,9.85,0,0-1.356,9.281-1.773,16.27v15.436s.418,9.074,1.461,16.062c0,0,1.46,10.64,6.674,13.56,0,0,6.154,2.19,10.013-3.234,0,0,2.3-2.087,5.528.313,0,0-3.963,8.846-12.516,8.282-2.68-.177-4.523-.269-7-1.922-5.532-3.693-8.337-10.246-9.863-16.485a107.635,107.635,0,0,1-2.711-23.032c-.178-8.091.224-16.4,2.2-24.275,1.335-5.316,3.573-11.3,7.955-14.871C987.24,260.421,991.162,258.706,994.114,258.945Z" fill="#161615"/>
      <path id="Path_21995" data-name="Path 21995" d="M1042.661,319.392l-6.784-37.68-3.851-22.371c-5.776.275-6.325,6.418-6.325,6.418l-4.584,24.845-4.951,28.422-4.492,24.294c4.675.825,5.042-3.392,5.042-3.392l3.025-15.585c1.009-3.392,3.485-3.575,3.485-3.575H1036.2l3.346,21.362h7.151Zm-9.992-3.759h-11.46l6.6-37.5,6.142,33.463S1034.686,314.992,1032.669,315.633Z" fill="#161615"/>
      <path id="Path_21996" data-name="Path 21996" d="M1120.023,319.391l-6.784-37.679-3.85-22.37c-5.777.275-6.327,6.417-6.327,6.417l-4.584,24.846-4.95,28.421-4.493,24.293c4.676.826,5.043-3.391,5.043-3.391l3.025-15.586c1.008-3.392,3.485-3.574,3.485-3.574h12.973l3.345,21.362h7.152Zm-9.992-3.758H1098.57l6.6-37.5,6.142,33.462S1112.048,314.991,1110.031,315.633Z" fill="#161615"/>
      <path id="Path_21997" data-name="Path 21997" d="M1052.4,259.919H1064v73.112s.241,3.626,3.384,4.23h14.864s.121,4.955-4.108,5.076h-15.952s-4.593-.484-5.318-6.647l-.12-35.529-.121-33.112s.242-2.66-1.691-3.747H1052.4Z" fill="#161615"/>
    </g>
    <g id="Group_22020" data-name="Group 22020">
      <path id="Path_21998" data-name="Path 21998" d="M858.35,312.551V319.2c0,1.121,24.189,3,39.949,6.651h0c7.613-1.765,13.261-3.943,13.261-6.651h0v-6.652c0-2.707-5.648-4.886-13.261-6.651h0c-15.76,3.653-39.949,5.531-39.949,6.651" fill="url(#linear-gradient)"/>
      <path id="Path_21999" data-name="Path 21999" d="M858.35,285.946V292.6c0,1.121,24.189,3,39.949,6.651h0c7.613-1.765,13.261-3.943,13.261-6.651h0v-6.652c0-2.707-5.648-4.886-13.261-6.651h0c-15.76,3.653-39.949,5.531-39.949,6.651" fill="url(#linear-gradient-2)"/>
      <path id="Path_22000" data-name="Path 22000" d="M858.35,299.249V319.2c0-1.663,53.21-4.989,53.21-13.3h0V285.946c0,8.314-53.21,11.64-53.21,13.3" fill="url(#linear-gradient-3)"/>
      <path id="Path_22001" data-name="Path 22001" d="M858.35,272.644V292.6c0-1.663,53.21-4.989,53.21-13.3h0V259.341c0,8.315-53.21,11.64-53.21,13.3" fill="url(#linear-gradient-4)"/>
      <path id="Path_22002" data-name="Path 22002" d="M858.35,325.854v19.954c0-1.663,53.21-4.989,53.21-13.3h0V312.551c0,8.314-53.21,11.64-53.21,13.3" fill="url(#linear-gradient-5)"/>
    </g>
  </g>
</svg>
