<svg xmlns="http://www.w3.org/2000/svg" width="1024" height="1024" viewBox="0 0 1024 1024">
  <g id="Group_22023" data-name="Group 22023" transform="translate(-1748 -385)">
    <path id="Path_22005" data-name="Path 22005" d="M2222,385h7c1.333,1.5,2.667,1.306,4,0h54c1.333,1.306,2.667,1.5,4,0h6c.541,2.625,2.783,1.711,4.267,1.819a477.7,477.7,0,0,1,66.577,9.689q119.169,25.828,214,102.516,105.4,85.524,155.133,211.966a497.753,497.753,0,0,1,33.236,145.267c.1,1.288-.966,3.557,1.789,3.743v6c-1.653,2-1.324,4,0,6v51c-1.264,1.667-1.661,3.333,0,5v6c-2.773.163-1.7,2.444-1.8,3.725-3.137,41.828-11.088,82.74-24.987,122.288q-75.369,214.454-283.023,307.382c-51.018,22.746-104.784,35.491-160.51,39.918-5.223.415-10.59-.065-15.684,1.687h-53c-.683-.97-1.741-.826-2.712-.882a522.551,522.551,0,0,1-53.073-5.873,496.031,496.031,0,0,1-172.492-61.408q-147.365-85.929-215.6-242.552a497.079,497.079,0,0,1-38.466-148.7c-.834-8.2-.52-16.533-2.66-24.59V869c1.188-.807.846-2.073.912-3.186a497.48,497.48,0,0,1,6.278-55.048c11.573-67.252,35.289-129.929,72.066-187.436q86.342-135.006,233.858-198.076a495.512,495.512,0,0,1,157.25-38.414C2219.646,386.74,2221.917,387.79,2222,385Zm274.071,498.98c1.956-.9,2.8-1.365,3.7-1.7,38.527-14.427,61.446-41.786,66.616-82.707,3.825-30.276-4.55-57.06-28.511-77.092-22.4-18.726-48.939-27.2-78.009-27.32-38.657-.165-77.316.112-115.974-.006-4.18-.013-5.222,1.138-5.22,5.248q.108,196.46-.132,392.917c-.006,4.842,1.581,5.631,5.917,5.614q56.737-.22,113.476-.045a143.389,143.389,0,0,0,63.255-13.987c47.659-22.876,72.213-67.261,64.476-119.222-5.985-40.2-30.192-65.435-68.536-77.637C2510.646,885.979,2503.87,885.262,2496.071,883.98Zm-389.645,166.583c-1.431-2.985-1.338-6.167-1.868-9.185-3.472-19.768-11.006-38.284-17.574-57.085Q2037.27,842,1987.472,699.733c-1.149-3.292-2.41-4.744-6.177-4.679q-21.989.376-43.987.013c-4.332-.069-3.993,1.381-2.841,4.551q71.778,197.622,143.359,395.315c1.108,3.062,2.534,4.015,5.691,3.98,14.494-.158,29-.273,43.486.058,4.2.1,5.672-1.505,6.991-5.1Q2179.759,969.2,2225.727,844.6q26.609-72.234,53.3-144.439c1.448-3.9,1.11-5.115-3.4-5.078-13.326.107-26.664.006-39.979-.489-4.377-.163-6.284,1.017-7.763,5.239-12.681,36.2-25.626,72.308-38.51,108.438-14.335,40.2-29.137,80.244-42.909,120.638C2132.715,969.247,2115.159,1008.349,2106.426,1050.563Z" fill="#003f7a"/>
    <path id="Path_22006" data-name="Path 22006" d="M2772,872c-1.324-2-1.653-4,0-6Z" fill="#050605"/>
    <path id="Path_22007" data-name="Path 22007" d="M2772,928c-1.661-1.667-1.264-3.333,0-5Z" fill="#050605"/>
    <path id="Path_22008" data-name="Path 22008" d="M2233,385c-1.333,1.306-2.667,1.5-4,0Z" fill="#050605"/>
    <path id="Path_22009" data-name="Path 22009" d="M2291,385c-1.333,1.5-2.667,1.306-4,0Z" fill="#050605"/>
    <path id="Path_22010" data-name="Path 22010" d="M2496.071,883.98c7.8,1.282,14.575,2,21.059,4.062,38.344,12.2,62.551,37.441,68.536,77.637,7.737,51.961-16.817,96.346-64.476,119.222a143.389,143.389,0,0,1-63.255,13.987q-56.737-.13-113.476.045c-4.336.017-5.923-.772-5.917-5.614q.271-196.458.132-392.917c0-4.11,1.04-5.261,5.22-5.248,38.658.118,77.317-.159,115.974.006,29.07.125,55.612,8.594,78.009,27.32,23.961,20.032,32.336,46.816,28.511,77.092-5.17,40.921-28.089,68.28-66.616,82.707C2498.876,882.615,2498.027,883.076,2496.071,883.98Zm-109.213,98.966h.083q0,34.219.013,68.438c0,2.033-.731,4.429,2.923,4.34,26.288-.637,52.646,1.6,78.863-.888,17.9-1.7,34.35-8.43,47.705-20.7,17.483-16.057,22.792-36.688,20.759-59.876-2.206-25.146-14.27-43.074-37.441-53.3-15.772-6.963-32.519-9.492-49.558-9.876-19.474-.438-38.963-.155-58.442-.419-3.791-.051-5.047.78-5.008,4.842C2386.97,937.985,2386.858,960.466,2386.858,982.946Zm0-179.94V857c0,11.087,0,11.278,11.044,11.045,18.639-.393,37.391,1.728,55.9-1.153,18.836-2.932,35.851-10.329,48.564-25.2,13.26-15.51,16.865-33.85,14.74-53.741-1.966-18.4-10.416-32.406-27.133-40.885-13.033-6.61-27.123-9.007-41.547-9.177-18.99-.223-37.985.148-56.976,0-3.692-.028-4.726.833-4.687,4.627C2386.968,762.678,2386.858,782.843,2386.858,803.006Z" fill="#fbfcfd"/>
    <path id="Path_22011" data-name="Path 22011" d="M2106.426,1050.563c8.733-42.214,26.289-81.316,40.041-121.65,13.772-40.394,28.574-80.436,42.909-120.638,12.884-36.13,25.829-72.238,38.51-108.438,1.479-4.222,3.386-5.4,7.763-5.239,13.315.495,26.653.6,39.979.489,4.507-.037,4.845,1.173,3.4,5.078q-26.772,72.174-53.3,144.439-45.906,124.618-91.733,249.267c-1.319,3.595-2.792,5.2-6.991,5.1-14.489-.331-28.992-.216-43.486-.058-3.157.035-4.583-.918-5.691-3.98q-71.559-197.7-143.359-395.315c-1.152-3.17-1.491-4.62,2.841-4.551q21.99.351,43.987-.013c3.767-.065,5.028,1.387,6.177,4.679q49.666,142.311,99.512,284.56c6.568,18.8,14.1,37.317,17.574,57.085C2105.088,1044.4,2105,1047.578,2106.426,1050.563Z" fill="#fbfcfd"/>
    <path id="Path_22012" data-name="Path 22012" d="M2386.858,982.946c0-22.48.112-44.961-.1-67.439-.039-4.062,1.217-4.893,5.008-4.842,19.479.264,38.968-.019,58.442.419,17.039.384,33.786,2.913,49.558,9.876,23.171,10.231,35.235,28.159,37.441,53.3,2.033,23.188-3.276,43.819-20.759,59.876-13.355,12.265-29.809,18.993-47.705,20.7-26.217,2.493-52.575.251-78.863.888-3.654.089-2.922-2.307-2.923-4.34q-.031-34.218-.013-68.438Z" fill="#003f7a"/>
    <path id="Path_22013" data-name="Path 22013" d="M2386.858,803.006c0-20.163.11-40.328-.1-60.489-.039-3.794.995-4.655,4.687-4.627,18.991.145,37.986-.226,56.976,0,14.424.17,28.514,2.567,41.547,9.177,16.717,8.479,25.167,22.488,27.133,40.885,2.125,19.891-1.48,38.231-14.74,53.741-12.713,14.871-29.728,22.268-48.564,25.2-18.506,2.881-37.258.76-55.9,1.153-11.04.233-11.044.042-11.044-11.045Z" fill="#003f7a"/>
  </g>
</svg>
