<svg xmlns="http://www.w3.org/2000/svg" width="25.881" height="25.867" viewBox="0 0 55.881 55.867"><g data-name="Group 22012"><path data-name="Path 21903" d="M-.001 29.573v-3.275a3.7 3.7 0 0 0 .095-.471 25.829 25.829 0 0 1 3.2-11C8.441 5.679 16.286.686 26.772.053a25.885 25.885 0 0 1 15.459 3.909 27.369 27.369 0 0 1 13.608 22.8 26.048 26.048 0 0 1-3.24 14.269 27.535 27.535 0 0 1-19.791 14.4c-1.066.207-2.153.3-3.231.441h-3.278a2.95 2.95 0 0 0-.421-.089 26.244 26.244 0 0 1-11.055-3.192A27.58 27.58 0 0 1 .439 32.803c-.202-1.068-.294-2.155-.44-3.23Zm19.545-3.542c.379-.118.687-.2.989-.305a5.2 5.2 0 0 1 2.739-.2c.8.166 1.229.515 1.271 1.333a9.468 9.468 0 0 1-.169 2.588c-.444 1.907-.995 3.788-1.528 5.674a21.674 21.674 0 0 0-1.016 5.171 4.235 4.235 0 0 0 2.677 4.22 7.2 7.2 0 0 0 4.492.367c1.546-.364 3.03-.989 4.54-1.507a.372.372 0 0 0 .231-.2c.154-.58.287-1.167.423-1.729-.85.181-1.623.406-2.408.495-2.1.237-3.065-.737-2.683-2.8.308-1.673.77-3.32 1.182-4.975.572-2.283 1.466-4.489 1.549-6.888a4.252 4.252 0 0 0-1.857-3.995 6.606 6.606 0 0 0-4.563-.853 20.618 20.618 0 0 0-5.135 1.578.577.577 0 0 0-.311.32c-.152.53-.268 1.075-.422 1.706Zm10.855-15.325a13.047 13.047 0 0 0-1.484.311 3.871 3.871 0 0 0-2.126 5.819 4.291 4.291 0 0 0 4.424 1.824 4.019 4.019 0 0 0 3.417-4.481 4.254 4.254 0 0 0-4.231-3.473Z" fill="#fff"/><path data-name="Path 21904" d="M19.544 26.031c.151-.631.269-1.176.423-1.712a.577.577 0 0 1 .311-.32 20.618 20.618 0 0 1 5.135-1.578 6.606 6.606 0 0 1 4.563.853 4.252 4.252 0 0 1 1.857 3.995c-.083 2.4-.977 4.6-1.549 6.888-.412 1.655-.874 3.3-1.182 4.975-.382 2.064.583 3.038 2.683 2.8.785-.089 1.558-.314 2.408-.495-.136.563-.27 1.149-.423 1.729a.372.372 0 0 1-.231.2c-1.51.518-2.994 1.143-4.54 1.507a7.2 7.2 0 0 1-4.492-.364 4.235 4.235 0 0 1-2.677-4.22 21.674 21.674 0 0 1 1.016-5.171c.533-1.886 1.084-3.767 1.528-5.674a9.468 9.468 0 0 0 .169-2.588c-.042-.817-.471-1.167-1.271-1.333a5.2 5.2 0 0 0-2.739.2c-.301.103-.609.189-.989.308Z" fill="#fed44d" stroke="#fec81a"/><path data-name="Path 21905" d="M30.395 10.706a4.254 4.254 0 0 1 4.232 3.474 4.019 4.019 0 0 1-3.417 4.481 4.291 4.291 0 0 1-4.424-1.824 3.871 3.871 0 0 1 2.126-5.819 13.047 13.047 0 0 1 1.483-.312Z" fill="#fed44d" stroke="#fec81a"/></g></svg>