<svg id="Group_468" data-name="Group 468" xmlns="http://www.w3.org/2000/svg" width="406.571" height="569.199" viewBox="0 0 406.571 569.199">
  <g id="Group_463" data-name="Group 463" transform="translate(0 0)">
    <g id="Group_12835" data-name="Group 12835">
      <path id="Path_829-2" data-name="Path 829-2" d="M67.871,7.18H348.7a62.825,62.825,0,0,1,62.871,62.779h0V513.6A62.825,62.825,0,0,1,348.7,576.379H67.871A62.825,62.825,0,0,1,5,513.6V69.959A62.825,62.825,0,0,1,67.871,7.18Z" transform="translate(-5 -7.18)" fill="#adb4db"/>
      <path id="Intersection_1" data-name="Intersection 1" d="M5,513.6V390.421c52.178,0,94.479,46.634,94.479,104.163,0,33.1-14.027,62.575-35.858,81.655A62.821,62.821,0,0,1,5,513.6ZM5,173.809V69.96A62.826,62.826,0,0,1,67.871,7.18h86.608a158.278,158.278,0,0,1,2.109,25.85c0,78.891-58.011,142.844-129.569,142.844A118.427,118.427,0,0,1,5,173.809Zm308.555-55.415C284.807,89.1,273.737,46.608,280.926,7.18H348.7a62.825,62.825,0,0,1,62.871,62.78h0v77.008a99.136,99.136,0,0,1-24.609,3.107C360.7,150.077,334.363,139.6,313.555,118.395Z" transform="translate(-5 -7.18)" fill="#d5dbef" opacity="0.3" style="isolation: isolate"/>
    </g>
    <g id="Group_214" data-name="Group 214" transform="translate(0.756 7.644)">
      <g id="Group_213" data-name="Group 213">
        <g id="Group_160" data-name="Group 160" transform="translate(4.533 12.839)">
          <g id="Group_153" data-name="Group 153" transform="translate(4.9 121.52)">
            <path id="Path_697" data-name="Path 697" d="M90.191,134.39v-9.713a1.717,1.717,0,0,0-1.715-1.718h-2.5a1.578,1.578,0,0,1-1.542-1.211,34.335,34.335,0,0,0-4.317-10.492,1.6,1.6,0,0,1,.21-1.985l1.755-1.755a1.72,1.72,0,0,0,0-2.431h0l-6.862-6.862a1.718,1.718,0,0,0-2.43,0h0l-1.755,1.754a1.6,1.6,0,0,1-1.987.209,34.362,34.362,0,0,0-10.5-4.328,1.576,1.576,0,0,1-1.209-1.542V91.825a1.719,1.719,0,0,0-1.718-1.72H45.912a1.72,1.72,0,0,0-1.72,1.72h0v2.489a1.575,1.575,0,0,1-1.209,1.542,34.314,34.314,0,0,0-10.5,4.328,1.6,1.6,0,0,1-1.987-.21l-1.754-1.752a1.72,1.72,0,0,0-2.431,0h0l-6.862,6.862a1.718,1.718,0,0,0,0,2.43v0l1.755,1.754a1.6,1.6,0,0,1,.207,1.985A34.433,34.433,0,0,0,17.1,121.749a1.575,1.575,0,0,1-1.542,1.211H13.062a1.718,1.718,0,0,0-1.718,1.718h0v9.713a1.72,1.72,0,0,0,1.718,1.72h2.5a1.575,1.575,0,0,1,1.542,1.208,34.4,34.4,0,0,0,4.325,10.492,1.6,1.6,0,0,1-.207,1.988l-1.757,1.757a1.72,1.72,0,0,0,0,2.431h0l6.862,6.862a1.72,1.72,0,0,0,2.431,0h0l1.757-1.76a1.6,1.6,0,0,1,1.988-.207A34.394,34.394,0,0,0,42.983,163.2a1.575,1.575,0,0,1,1.209,1.542v2.5a1.72,1.72,0,0,0,1.72,1.718h9.7a1.718,1.718,0,0,0,1.718-1.718h0v-2.5a1.578,1.578,0,0,1,1.211-1.542,34.353,34.353,0,0,0,10.484-4.317,1.6,1.6,0,0,1,1.987.207l1.76,1.762a1.72,1.72,0,0,0,2.431,0h0l6.862-6.862a1.72,1.72,0,0,0,0-2.431h0l-1.76-1.759a1.6,1.6,0,0,1-.209-1.987,34.354,34.354,0,0,0,4.317-10.484,1.576,1.576,0,0,1,1.542-1.211h2.5a1.718,1.718,0,0,0,1.733-1.7ZM50.763,156.9a23.744,23.744,0,1,1,.01,0h-.01Z" transform="translate(-11.344 -90.105)" fill="none" stroke="#d5dbef" stroke-miterlimit="10" stroke-width="0.79"/>
            <path id="Path_698" data-name="Path 698" d="M108.507,149.523v-6.613a1.173,1.173,0,0,0-1.172-1.172h-1.7a1.079,1.079,0,0,1-1.05-.825,23.442,23.442,0,0,0-2.947-7.15,1.092,1.092,0,0,1,.141-1.354l1.2-1.2a1.172,1.172,0,0,0,0-1.657h0L98.3,124.877a1.171,1.171,0,0,0-1.656,0h0l-1.2,1.2a1.1,1.1,0,0,1-1.354.143,23.427,23.427,0,0,0-7.153-2.95,1.078,1.078,0,0,1-.824-1.052v-1.7a1.171,1.171,0,0,0-1.169-1.171H78.336a1.17,1.17,0,0,0-1.172,1.168v1.7a1.079,1.079,0,0,1-.825,1.052,23.424,23.424,0,0,0-7.153,2.949,1.1,1.1,0,0,1-1.354-.143l-1.193-1.193a1.172,1.172,0,0,0-1.657,0h0L60.3,129.556a1.173,1.173,0,0,0,0,1.657h0l1.2,1.2a1.09,1.09,0,0,1,.143,1.354,23.434,23.434,0,0,0-2.947,7.151,1.078,1.078,0,0,1-1.052.824h-1.7a1.172,1.172,0,0,0-1.171,1.171h0v6.615a1.171,1.171,0,0,0,1.171,1.171h1.7a1.079,1.079,0,0,1,1.05.824,23.454,23.454,0,0,0,2.949,7.151,1.088,1.088,0,0,1-.143,1.352l-1.2,1.2a1.172,1.172,0,0,0,0,1.657h0l4.677,4.677a1.172,1.172,0,0,0,1.657,0h0l1.2-1.2a1.09,1.09,0,0,1,1.354-.141,23.475,23.475,0,0,0,7.15,2.944,1.079,1.079,0,0,1,.825,1.05v1.707a1.173,1.173,0,0,0,1.172,1.172h6.613a1.173,1.173,0,0,0,1.172-1.172h0v-1.707a1.077,1.077,0,0,1,.824-1.049,23.479,23.479,0,0,0,7.15-2.945,1.092,1.092,0,0,1,1.354.141l1.2,1.2a1.172,1.172,0,0,0,1.657,0l4.675-4.677a1.17,1.17,0,0,0,0-1.656v0l-1.2-1.2a1.1,1.1,0,0,1-.141-1.354,23.451,23.451,0,0,0,2.947-7.151,1.078,1.078,0,0,1,1.05-.822h1.7a1.173,1.173,0,0,0,1.172-1.172Zm-26.866,14.29A17.594,17.594,0,1,1,99.217,146.2v.011A17.591,17.591,0,0,1,81.641,163.812Z" transform="translate(14.976 -72.385)" fill="#d5dbef"/>
          </g>
          <g id="Group_154" data-name="Group 154" transform="translate(12.353)">
            <circle id="Ellipse_3" data-name="Ellipse 3" cx="3.207" cy="3.207" r="3.207" transform="translate(2.008 32.743)" fill="#929ecf"/>
            <circle id="Ellipse_4" data-name="Ellipse 4" cx="3.207" cy="3.207" r="3.207" transform="translate(119.274 494.306)" fill="#929ecf"/>
            <circle id="Ellipse_5" data-name="Ellipse 5" cx="3.207" cy="3.207" r="3.207" transform="translate(271.648 487.894)" fill="#929ecf"/>
            <circle id="Ellipse_6" data-name="Ellipse 6" cx="2.01" cy="2.01" r="2.01" transform="translate(336.395 364.315)" fill="#929ecf"/>
            <path id="Path_699" data-name="Path 699" d="M230.978,51.466a2,2,0,1,1,2-2,2,2,0,0,1-2,2Z" transform="translate(134.218 -2.966)" fill="#929ecf"/>
            <path id="Path_700" data-name="Path 700" d="M132.794,79.182a2,2,0,1,1,2-2,2,2,0,0,1-2,2Z" transform="translate(64.655 13.829)" fill="#929ecf"/>
            <path id="Path_701" data-name="Path 701" d="M17.989,33.244a2,2,0,1,1,2-2h0A2,2,0,0,1,17.989,33.244Z" transform="translate(-15.985 -14.008)" fill="#929ecf"/>
            <circle id="Ellipse_7" data-name="Ellipse 7" cx="3.207" cy="3.207" r="3.207" transform="translate(0.115 447.274)" fill="#929ecf"/>
            <circle id="Ellipse_8" data-name="Ellipse 8" cx="3.207" cy="3.207" r="3.207" transform="translate(0.115 515.448)" fill="#929ecf"/>
            <circle id="Ellipse_9" data-name="Ellipse 9" cx="3.207" cy="3.207" r="3.207" transform="translate(370.729 107.235)" fill="#929ecf"/>
            <path id="Path_702" data-name="Path 702" d="M123.273,226.352a4.289,4.289,0,1,1,4.291-4.291A4.287,4.287,0,0,1,123.273,226.352Z" transform="translate(56.495 119.698)" fill="#929ecf"/>
            <path id="Path_703" data-name="Path 703" d="M164.8,28.331a4.289,4.289,0,1,1,4.29-4.29h0A4.292,4.292,0,0,1,164.8,28.331Z" transform="translate(85.714 -19.754)" fill="#929ecf"/>
          </g>
          <g id="Group_155" data-name="Group 155" transform="translate(0 114.196)">
            <rect id="Rectangle_20" data-name="Rectangle 20" width="6.653" height="6.653" rx="0.637" fill="#fff"/>
            <rect id="Rectangle_21" data-name="Rectangle 21" width="6.653" height="6.653" rx="0.637" transform="translate(8.899)" fill="#fff"/>
            <rect id="Rectangle_22" data-name="Rectangle 22" width="6.653" height="6.653" rx="0.637" transform="translate(17.798)" fill="#fff"/>
          </g>
          <g id="Group_157" data-name="Group 157" transform="translate(372.533 362.055)">
            <g id="Group_156" data-name="Group 156">
              <rect id="Rectangle_23" data-name="Rectangle 23" width="6.653" height="6.653" rx="0.637" fill="#d5dbef"/>
              <rect id="Rectangle_24" data-name="Rectangle 24" width="6.653" height="6.653" rx="0.637" transform="translate(8.899)" fill="#d5dbef"/>
              <rect id="Rectangle_25" data-name="Rectangle 25" width="6.653" height="6.653" rx="0.637" transform="translate(17.798)" fill="#d5dbef"/>
            </g>
          </g>
          <g id="Group_159" data-name="Group 159" transform="translate(0.142 358.188)">
            <g id="Group_158" data-name="Group 158">
              <rect id="Rectangle_26" data-name="Rectangle 26" width="6.653" height="6.653" rx="0.637" fill="#d5dbef"/>
              <rect id="Rectangle_27" data-name="Rectangle 27" width="6.653" height="6.653" rx="0.637" transform="translate(8.899)" fill="#d5dbef"/>
              <rect id="Rectangle_28" data-name="Rectangle 28" width="6.653" height="6.653" rx="0.637" transform="translate(17.798)" fill="#d5dbef"/>
            </g>
          </g>
        </g>
        <g id="Group_169" data-name="Group 169" transform="translate(113.871 103.316)">
          <g id="Group_161" data-name="Group 161">
            <rect id="Rectangle_29" data-name="Rectangle 29" width="168.542" height="325.589" rx="20.495" fill="#223f93"/>
            <rect id="Rectangle_30" data-name="Rectangle 30" width="162.23" height="318.11" rx="17.952" transform="translate(3.156 2.851)" fill="#fff"/>
            <path id="Path_704" data-name="Path 704" d="M224.356,83.968V366.336a11.991,11.991,0,0,1-11.99,11.992H88.321a11.992,11.992,0,0,1-11.992-11.992V83.968A11.992,11.992,0,0,1,88.321,71.976h20.685a3.033,3.033,0,0,1,2.712,1.673l2.2,4.384a5.923,5.923,0,0,0,5.314,3.291h62.23a5.921,5.921,0,0,0,5.314-3.291l2.2-4.384a3.035,3.035,0,0,1,2.712-1.673h20.685A11.99,11.99,0,0,1,224.356,83.968Z" transform="translate(-66.072 -63.965)" fill="#d5dbef"/>
            <path id="Path_705" data-name="Path 705" d="M158.388,76.2H108.266a2.109,2.109,0,0,1-2.109-2.109v0h0a2.109,2.109,0,0,1,2.107-2.11h50.124a2.11,2.11,0,0,1,2.11,2.11h0A2.11,2.11,0,0,1,158.388,76.2Z" transform="translate(-47.997 -63.965)" fill="#d5dbef"/>
          </g>
          <rect id="Rectangle_31" data-name="Rectangle 31" width="127.401" height="55.249" rx="8.044" transform="translate(19.127 249.312)" fill="none" stroke="#4e79bc" stroke-linecap="round" stroke-linejoin="round" stroke-width="1" stroke-dasharray="2.837"/>
          <rect id="Rectangle_32" data-name="Rectangle 32" width="66.774" height="38.791" rx="5.802" transform="translate(71.889 130.193)" fill="none" stroke="#4e79bc" stroke-linecap="round" stroke-linejoin="round" stroke-width="1" stroke-dasharray="2.837"/>
          <g id="Group_165" data-name="Group 165" transform="translate(19.127 173.287)">
            <rect id="Rectangle_33" data-name="Rectangle 33" width="127.907" height="61.833" rx="6.913" transform="translate(4.637 5.002)" fill="#2e498c"/>
            <path id="Path_706" data-name="Path 706" d="M209.25,181.7v48.224a6.8,6.8,0,0,1-6.8,6.8H88.663a6.8,6.8,0,0,1-6.808-6.792V181.7a6.807,6.807,0,0,1,6.8-6.808h113.78a6.806,6.806,0,0,1,6.813,6.8Z" transform="translate(-81.85 -174.889)" fill="#667fbe"/>
            <rect id="Rectangle_34" data-name="Rectangle 34" width="42.726" height="42.726" rx="4.667" transform="translate(5.886 14.078)" fill="#fff"/>
            <g id="Group_162" data-name="Group 162" transform="translate(52.763 16.577)">
              <path id="Path_707" data-name="Path 707" d="M145.682,188.118H116.159a1.453,1.453,0,0,1-1.453-1.453h0a1.453,1.453,0,0,1,1.453-1.453h29.523a1.453,1.453,0,0,1,1.453,1.453h0A1.453,1.453,0,0,1,145.682,188.118Z" transform="translate(-114.706 -185.211)" fill="#a2b2dc"/>
              <path id="Path_708" data-name="Path 708" d="M132.229,191.732H116.159a1.453,1.453,0,0,1-1.453-1.453h0a1.453,1.453,0,0,1,1.453-1.453h16.069a1.454,1.454,0,0,1,1.455,1.453h0A1.454,1.454,0,0,1,132.229,191.732Z" transform="translate(-114.706 -183.021)" fill="#a2b2dc"/>
              <path id="Path_709" data-name="Path 709" d="M173.329,191.732H129.852a1.454,1.454,0,0,1-1.455-1.453h0a1.454,1.454,0,0,1,1.455-1.453h43.477a1.453,1.453,0,0,1,1.453,1.453h0A1.453,1.453,0,0,1,173.329,191.732Z" transform="translate(-106.41 -183.021)" fill="#a2b2dc"/>
              <path id="Path_710" data-name="Path 710" d="M141.021,195.346H116.159a1.453,1.453,0,0,1-1.453-1.453h0a1.454,1.454,0,0,1,1.453-1.455h24.864a1.454,1.454,0,0,1,1.453,1.455h0a1.453,1.453,0,0,1-1.453,1.453Z" transform="translate(-114.706 -180.832)" fill="#a2b2dc"/>
              <path id="Path_711" data-name="Path 711" d="M150.68,195.346H135.049a1.453,1.453,0,0,1-1.453-1.453h0a1.454,1.454,0,0,1,1.453-1.455H150.68a1.454,1.454,0,0,1,1.453,1.455h0A1.453,1.453,0,0,1,150.68,195.346Z" transform="translate(-103.259 -180.832)" fill="#a2b2dc"/>
              <path id="Path_712" data-name="Path 712" d="M162.357,195.346h-14.4a1.453,1.453,0,0,1-1.453-1.453h0a1.454,1.454,0,0,1,1.453-1.455h14.394a1.454,1.454,0,0,1,1.453,1.455h0A1.454,1.454,0,0,1,162.357,195.346Z" transform="translate(-95.438 -180.832)" fill="#a2b2dc"/>
              <path id="Path_713" data-name="Path 713" d="M181.625,198.959H116.159a1.453,1.453,0,0,1-1.453-1.453h0a1.453,1.453,0,0,1,1.453-1.453h65.466a1.453,1.453,0,0,1,1.453,1.453h0A1.453,1.453,0,0,1,181.625,198.959Z" transform="translate(-114.706 -178.642)" fill="#a2b2dc"/>
              <path id="Path_714" data-name="Path 714" d="M152.189,202.573h-36.03a1.453,1.453,0,0,1-1.453-1.453h0a1.454,1.454,0,0,1,1.453-1.455h36.03a1.456,1.456,0,0,1,1.455,1.455h0A1.454,1.454,0,0,1,152.189,202.573Z" transform="translate(-114.706 -176.452)" fill="#a2b2dc"/>
              <path id="Path_715" data-name="Path 715" d="M165.839,202.573H142.212a1.454,1.454,0,0,1-1.455-1.453h0a1.456,1.456,0,0,1,1.455-1.455h23.627a1.454,1.454,0,0,1,1.453,1.455h0a1.453,1.453,0,0,1-1.453,1.453Z" transform="translate(-98.92 -176.452)" fill="#a2b2dc"/>
              <path id="Path_716" data-name="Path 716" d="M137.332,206.186H116.159a1.453,1.453,0,0,1-1.453-1.453h0a1.453,1.453,0,0,1,1.453-1.453h21.173a1.453,1.453,0,0,1,1.453,1.453h0A1.453,1.453,0,0,1,137.332,206.186Z" transform="translate(-114.706 -174.262)" fill="#a2b2dc"/>
              <path id="Path_717" data-name="Path 717" d="M154.077,206.186H132.908a1.452,1.452,0,0,1-1.453-1.45v0h0a1.453,1.453,0,0,1,1.453-1.453h21.17a1.453,1.453,0,0,1,1.453,1.453h0a1.453,1.453,0,0,1-1.453,1.453Z" transform="translate(-104.557 -174.262)" fill="#a2b2dc"/>
              <path id="Path_718" data-name="Path 718" d="M161.558,206.186H149.274a1.453,1.453,0,0,1-1.453-1.453h0a1.453,1.453,0,0,1,1.453-1.453h12.284a1.453,1.453,0,0,1,1.453,1.453h0A1.453,1.453,0,0,1,161.558,206.186Z" transform="translate(-94.639 -174.262)" fill="#a2b2dc"/>
              <path id="Path_719" data-name="Path 719" d="M145.682,209.8H116.159a1.454,1.454,0,0,1-1.453-1.455h0a1.453,1.453,0,0,1,1.453-1.453h29.523a1.453,1.453,0,0,1,1.453,1.453h0A1.455,1.455,0,0,1,145.682,209.8Z" transform="translate(-114.706 -172.072)" fill="#a2b2dc"/>
              <path id="Path_720" data-name="Path 720" d="M168.064,188.118H138.541a1.454,1.454,0,0,1-1.455-1.453h0a1.454,1.454,0,0,1,1.455-1.453h29.523a1.453,1.453,0,0,1,1.453,1.453h0A1.453,1.453,0,0,1,168.064,188.118Z" transform="translate(-101.144 -185.211)" fill="#a2b2dc"/>
            </g>
            <g id="Group_164" data-name="Group 164">
              <path id="Path_721" data-name="Path 721" d="M209.252,181.7v2.025H81.852V181.7a6.808,6.808,0,0,1,6.808-6.808h113.78a6.806,6.806,0,0,1,6.813,6.8Z" transform="translate(-81.852 -174.889)" fill="#21499a"/>
              <g id="Group_163" data-name="Group 163" transform="translate(100.225 2.998)">
                <path id="Path_722" data-name="Path 722" d="M147.419,178.333a1.579,1.579,0,1,1-1.58-1.577h0A1.579,1.579,0,0,1,147.419,178.333Z" transform="translate(-144.26 -176.756)" fill="#d5dbef"/>
                <path id="Path_723" data-name="Path 723" d="M152.449,178.333a1.579,1.579,0,1,1-1.58-1.577h0A1.579,1.579,0,0,1,152.449,178.333Z" transform="translate(-141.211 -176.756)" fill="#d5dbef"/>
                <path id="Path_724" data-name="Path 724" d="M157.476,178.333a1.579,1.579,0,1,1-1.58-1.577h0A1.577,1.577,0,0,1,157.476,178.333Z" transform="translate(-138.165 -176.756)" fill="#d5dbef"/>
              </g>
            </g>
          </g>
          <g id="Group_167" data-name="Group 167" transform="translate(26.584 130.228)">
            <rect id="Rectangle_35" data-name="Rectangle 35" width="38.756" height="38.756" rx="6.865" fill="none" stroke="#304d9d" stroke-miterlimit="10" stroke-width="0.896"/>
            <g id="Group_166" data-name="Group 166" transform="translate(7.748 13.772)">
              <path id="Path_725" data-name="Path 725" d="M96.9,156.653l-5.584,5.584,5.627,5.627" transform="translate(-91.32 -156.653)" fill="none" stroke="#304d9d" stroke-linecap="round" stroke-linejoin="round" stroke-width="1.672"/>
              <path id="Path_726" data-name="Path 726" d="M102.342,156.653l5.584,5.584-5.627,5.627" transform="translate(-84.667 -156.653)" fill="none" stroke="#304d9d" stroke-linecap="round" stroke-linejoin="round" stroke-width="1.672"/>
              <line id="Line_15" data-name="Line 15" x1="5.23" y2="11.211" transform="translate(9.015 0.001)" fill="none" stroke="#304d9d" stroke-linecap="round" stroke-linejoin="round" stroke-width="1.672"/>
            </g>
          </g>
          <g id="Group_168" data-name="Group 168" transform="translate(19.127 27.885)">
            <rect id="Rectangle_36" data-name="Rectangle 36" width="127.401" height="94.335" rx="7.853" fill="#a2b2dc"/>
            <circle id="Ellipse_10" data-name="Ellipse 10" cx="18.464" cy="18.464" r="18.464" transform="translate(83.135 6.448)" fill="#edf1f9"/>
            <path id="Path_727" data-name="Path 727" d="M156.74,170.653H89.6a7.749,7.749,0,0,1-7.746-7.746V150.493L111.233,99.6a3.989,3.989,0,0,1,6.91,0l22.186,38.423,16.474,28.54A3.917,3.917,0,0,1,156.74,170.653Z" transform="translate(-81.852 -76.321)" fill="#fff"/>
            <path id="Path_728" data-name="Path 728" d="M170.74,162.714H106.532l18.844-32.628,10.15-17.576a3.591,3.591,0,0,1,6.222,0Z" transform="translate(-66.896 -68.377)" fill="#edf1f9"/>
          </g>
        </g>
        <g id="Group_179" data-name="Group 179" transform="translate(271.927 244.943)">
          <g id="Group_171" data-name="Group 171" transform="translate(53.575 142.075)">
            <rect id="Rectangle_37" data-name="Rectangle 37" width="49.499" height="74.388" fill="#244093"/>
            <rect id="Rectangle_38" data-name="Rectangle 38" width="18.952" height="74.388" transform="translate(49.499)" fill="#304d9d"/>
            <g id="Group_170" data-name="Group 170" transform="translate(52.212 2.857)">
              <rect id="Rectangle_39" data-name="Rectangle 39" width="13.916" height="2.374" fill="#a2b2dc"/>
              <rect id="Rectangle_40" data-name="Rectangle 40" width="13.916" height="2.374" transform="translate(0 5.1)" fill="#a2b2dc"/>
              <rect id="Rectangle_41" data-name="Rectangle 41" width="13.916" height="2.374" transform="translate(0 10.2)" fill="#a2b2dc"/>
              <rect id="Rectangle_42" data-name="Rectangle 42" width="13.916" height="2.374" transform="translate(0 15.3)" fill="#a2b2dc"/>
              <rect id="Rectangle_43" data-name="Rectangle 43" width="13.916" height="2.374" transform="translate(0 20.4)" fill="#a2b2dc"/>
              <rect id="Rectangle_44" data-name="Rectangle 44" width="13.916" height="2.374" transform="translate(0 25.5)" fill="#a2b2dc"/>
              <rect id="Rectangle_45" data-name="Rectangle 45" width="13.916" height="2.374" transform="translate(0 30.6)" fill="#a2b2dc"/>
              <rect id="Rectangle_46" data-name="Rectangle 46" width="13.916" height="2.374" transform="translate(0 35.7)" fill="#a2b2dc"/>
              <rect id="Rectangle_47" data-name="Rectangle 47" width="13.916" height="2.374" transform="translate(0 40.8)" fill="#a2b2dc"/>
              <rect id="Rectangle_48" data-name="Rectangle 48" width="13.916" height="2.374" transform="translate(0 45.9)" fill="#a2b2dc"/>
              <rect id="Rectangle_49" data-name="Rectangle 49" width="13.916" height="2.374" transform="translate(0 51)" fill="#a2b2dc"/>
              <rect id="Rectangle_50" data-name="Rectangle 50" width="13.916" height="2.374" transform="translate(0 56.101)" fill="#a2b2dc"/>
              <rect id="Rectangle_51" data-name="Rectangle 51" width="13.916" height="2.374" transform="translate(0 61.201)" fill="#a2b2dc"/>
              <rect id="Rectangle_52" data-name="Rectangle 52" width="13.916" height="2.374" transform="translate(0 66.301)" fill="#a2b2dc"/>
            </g>
          </g>
          <g id="Group_178" data-name="Group 178">
            <path id="Path_729" data-name="Path 729" d="M190,284.423h25.151a13.72,13.72,0,0,0-1.641-10.029s-2.024,1.624-8.089.527a26.949,26.949,0,0,1-4.278,2.99C199.385,278.756,189.318,280.738,190,284.423Z" transform="translate(-144.462 -67.96)" fill="#1d1011"/>
            <path id="Path_730" data-name="Path 730" d="M191.293,238.395c1.625,9.694,9.122,42.494,12.345,61.87a29.543,29.543,0,0,0,10.217-.519c-.292-6.758-.874-22.919-.806-30.008.111-11.979.675-27.775-4.6-36.443l-17.73,1.4c.108.935.206,1.7.292,2.242S191.193,237.939,191.293,238.395Z" transform="translate(-144.003 -92.864)" fill="#052242"/>
            <path id="Path_731" data-name="Path 731" d="M161.663,284.423h25.157a13.727,13.727,0,0,0-1.64-10.029s-2.027,1.624-8.089.527a27.036,27.036,0,0,1-4.28,2.99C171.052,278.756,160.984,280.738,161.663,284.423Z" transform="translate(-161.631 -67.96)" fill="#1d1011"/>
            <path id="Path_732" data-name="Path 732" d="M170.8,301.9a28.829,28.829,0,0,0,9.936.89c1.338-7.789,3.45-24.926,5.351-32.959,2.95-12.488,5.839-29.657,3.832-35.783l-17.442-4.381C172.422,230.218,171.008,282.771,170.8,301.9Z" transform="translate(-156.073 -95.064)" fill="#001c28"/>
            <path id="Path_733" data-name="Path 733" d="M239.6,220.785h0c-.35-3.448-.755-5.965-.755-5.965l-19.485,4.77-16.554,3.771c-6.136,1.368-13.55,3.013-20.086,4.49-7.333,1.665-12.2,7.236-10.595,14.579l1.837,8.907c10.257-.14,58.483-4.762,62.609-6.845C241.233,242.139,242.637,233.817,239.6,220.785Z" transform="translate(-155.456 -104.06)" fill="#001c28"/>
            <path id="Path_734" data-name="Path 734" d="M257.715,221.229h0a26.944,26.944,0,0,0-2.03-7.145l-18.21,5.95L220.92,223.8c-6.135,1.368-13.55,3.013-20.084,4.49-7.334,1.667-12.2,7.236-10.6,14.579l1.839,8.907c10.256-.14,53.127-1.633,62.607-6.845C259.261,242.421,260.748,234.263,257.715,221.229Z" transform="translate(-144.48 -104.506)" fill="#052242"/>
            <g id="Group_172" data-name="Group 172" transform="translate(30.047 87.061)">
              <path id="Path_735" data-name="Path 735" d="M208.986,201.8s8.655-3.911,11.038.01a6.128,6.128,0,0,1-2.55,7.808A202.015,202.015,0,0,1,182.1,222.28a38.438,38.438,0,0,0-1.757-4.492,82.875,82.875,0,0,0,14.084-7.863,89.739,89.739,0,0,1,14.561-8.129Z" transform="translate(-180.34 -200.064)" fill="#de7c7d"/>
            </g>
            <path id="Path_736" data-name="Path 736" d="M202.323,184.313,194.9,213.937s.771,7.49,8.325,3.814,12.578-27.289,12.578-27.289Z" transform="translate(-141.467 -122.546)" fill="#de7c7d"/>
            <path id="Path_737" data-name="Path 737" d="M213.361,207.32c-.925-.222-1.792-.462-2.637-.718s-1.7-.517-2.467-.792a41.65,41.65,0,0,1-10.86-5.319,77.822,77.822,0,0,1,7.261-20.365,2.654,2.654,0,0,0,.18-.315l.189-.316a18.526,18.526,0,0,1,5.162-5.37l.617-.434.878,15.464.154,1.593Z" transform="translate(-139.957 -128.983)" fill="#fff"/>
            <path id="Path_738" data-name="Path 738" d="M209.265,201.6c-.925-.222-1.792-.463-2.637-.716s-1.7-.517-2.467-.792c1.479-10.421,2.818-16.969,2.818-16.969l.758,1.911Z" transform="translate(-135.858 -123.265)" fill="#badfee"/>
            <path id="Path_739" data-name="Path 739" d="M253,182.773c-.18,4.579-.981,11.934-1.677,19.32-.223,2.342-.434,4.7-.617,6.964-.127,1.413-2.258,8.96-2.343,10.31-.379,6.458-3.546,11.29-.548,21.122a15.464,15.464,0,0,1,.9,4.537c0,.675-.875,1.388-1.224,1.572a20.654,20.654,0,0,1-6.723,1.6h-.01a173.977,173.977,0,0,1-18.655.854c-6.448,0-16.124-1.023-17.348-2.648-1.118-1.487-.085-3.65.442-6.637,2.375-13.474,1.53-20.505,1.388-30.229,0-.242-.01-.487-.01-.739-.242-15.006-1.233-27.848-.538-32.479l.617-.432c1.023-.7,2.025-1.32,3-1.869.085-.042.19-.1.3-.169.3-.167.6-.326.887-.485a3.287,3.287,0,0,1,.337-.169,73.659,73.659,0,0,1,7.2-2.838c.231-.074.442-.154.617-.2q2.578-.157,5.6-.072c1.752.053,4.432.284,7.344.665h.011a76.139,76.139,0,0,1,9.75,1.824.489.489,0,0,1,.051.022,20.073,20.073,0,0,1,7.672,5.372A25.929,25.929,0,0,1,253,182.773Z" transform="translate(-135.803 -131.184)" fill="#fff"/>
            <path id="Path_740" data-name="Path 740" d="M234.566,231.964a15.463,15.463,0,0,1,.9,4.537c0,.675-.875,1.388-1.224,1.572a20.654,20.654,0,0,1-6.723,1.6,4.764,4.764,0,0,0,3.366-3.872c0-1.233-1.6-9.591-1.161-14.984s1.32-13.949-.349-20.813-3.249-15.88-3.249-15.88l9.4,5.675s1.212,1.7,2.544,3.756c-.223,2.341-.434,4.7-.617,6.963C237.331,201.945,231.567,222.132,234.566,231.964Z" transform="translate(-122.55 -122.659)" fill="#badfee"/>
            <g id="Group_176" data-name="Group 176" transform="translate(66.24)">
              <path id="Path_741" data-name="Path 741" d="M205.626,153.283s.813,9.833,4.073,10.495,2.467-3.519,2.467-3.519l-.463-4.669Z" transform="translate(-201.211 -141.35)" fill="#052242"/>
              <path id="Path_742" data-name="Path 742" d="M216.607,184.77c-6.385-.76-4-6.964-3.124-8.388.231-.074,1.328-.411,1.413-.463a.033.033,0,0,1,.021-.011,1.729,1.729,0,0,0,.495-.739,15.132,15.132,0,0,0,.318-5.107v-.6c.1-.389.212-.76.3-1.108l3.355-2.637,7.1-5.584s-1.889,9.339-.369,15.226a2.219,2.219,0,0,0,.938,1.416c0,.01.011,0,.011,0a1.722,1.722,0,0,0,.708.252C229.512,177.846,227.084,186.014,216.607,184.77Z" transform="translate(-197.158 -137.2)" fill="#de7c7d"/>
              <path id="Path_743" data-name="Path 743" d="M221.066,163.826a10.6,10.6,0,0,1-6.824,9.1,14.963,14.963,0,0,0,.318-5.1l2.835-2.224Z" transform="translate(-195.99 -134.961)" fill="#bf4c4f"/>
              <path id="Path_744" data-name="Path 744" d="M206.6,157.836s1.476,20.4,6.986,22.135a14.327,14.327,0,0,0,12.058-6.117c1.452-1.953,3.287-2.391,3.886-4.75.973-3.83,2.346-10.9.6-15.156C227.626,147.884,206.832,143.071,206.6,157.836Z" transform="translate(-200.623 -144.504)" fill="#de7c7d"/>
              <path id="Path_745" data-name="Path 745" d="M232.457,151.932a6,6,0,0,0-3.843-5.088c-3.734-1.749-11.494-1-19.495.79-1.876.418-4.229-.732-5.539.177-1.583,1.1,0,6.116,0,6.116,3.083,9.345,14.442,6.307,17.857,5.154.811,2.407.707,5.753,2.73,7.477a6.62,6.62,0,0,0,5.194.673c.252.475,1.193.9,1.388,1.551a33.019,33.019,0,0,1,.53,8.237l.964-.471C232.356,175.838,242.318,152.237,232.457,151.932Z" transform="translate(-202.877 -145.852)" fill="#052242"/>
              <g id="Group_173" data-name="Group 173" transform="translate(6.635 16.297)">
                <path id="Path_746" data-name="Path 746" d="M212,159.437a2.5,2.5,0,1,1-2.91-2.661A2.835,2.835,0,0,1,212,159.437Z" transform="translate(-207.008 -155.531)" fill="none" stroke="#fff" stroke-miterlimit="10" stroke-width="0.501"/>
                <path id="Path_747" data-name="Path 747" d="M216.137,158.663a2.5,2.5,0,1,1-2.91-2.661A2.832,2.832,0,0,1,216.137,158.663Z" transform="translate(-204.499 -156)" fill="none" stroke="#fff" stroke-miterlimit="10" stroke-width="0.501"/>
                <path id="Path_748" data-name="Path 748" d="M210.116,158.569s.291-.474,1.824-.34" transform="translate(-205.125 -154.664)" fill="none" stroke="#fff" stroke-miterlimit="10" stroke-width="0.501"/>
                <line id="Line_16" data-name="Line 16" y1="0.91" x2="5.691" transform="translate(11.703 2.159)" fill="none" stroke="#fff" stroke-miterlimit="10" stroke-width="0.501"/>
              </g>
              <g id="Group_174" data-name="Group 174" transform="translate(22.82 17.089)">
                <path id="Path_749" data-name="Path 749" d="M218.713,165.083c3.919,1.5,5.142-8.144,1.421-8.571-2.822-.324-2.937,3.613-2.937,3.613S216.476,164.226,218.713,165.083Z" transform="translate(-217.086 -156.493)" fill="#de7c7d"/>
              </g>
              <g id="Group_175" data-name="Group 175" transform="translate(24.412 18.563)" opacity="0.5">
                <path id="Path_750" data-name="Path 750" d="M219.4,157.411s-2.313,1.225-.829,4.985" transform="translate(-218.078 -157.411)" fill="none" stroke="#bf4c4f" stroke-miterlimit="10" stroke-width="0.724"/>
                <path id="Path_751" data-name="Path 751" d="M220,158.551a2.047,2.047,0,0,0-1.9,1.413" transform="translate(-218.064 -156.72)" fill="none" stroke="#bf4c4f" stroke-miterlimit="10" stroke-width="0.724"/>
              </g>
            </g>
            <path id="Path_752" data-name="Path 752" d="M249.117,215.356v.01c-1.722,2-8.256,3.454-11.409.691a18.286,18.286,0,0,1-3.2-6.079,188.775,188.775,0,0,1-5.427-18.371l14.626-7.476s1.881,8.438,3.5,16.455c0,0,.013.082.045.223.527,2.568,1.018,5.088,1.4,7.261a1.081,1.081,0,0,1,.029.173A30.771,30.771,0,0,1,249.117,215.356Z" transform="translate(-120.756 -122.657)" fill="#de7c7d"/>
            <path id="Path_753" data-name="Path 753" d="M225.647,188.315a175.834,175.834,0,0,0,5.859,17,23.153,23.153,0,0,0,10.734-1.3,19.769,19.769,0,0,0,6.837-4.441s-2.944-8.274-5.586-14.219c-2.372-5.337-3.795-7.33-4.821-8.386a23.184,23.184,0,0,0-5.809-4.317Z" transform="translate(-122.839 -129.61)" fill="#fff"/>
            <path id="Path_754" data-name="Path 754" d="M242.952,192.767l-8.582-3.7-6.761-17.422s1.233.376,2.872,1.036h0c.03.014.1.039.218.087a.869.869,0,0,1,.125.055c1.458.683,7.116,4.017,11.031,16.13l.095.308c.416,1.4.721,2.518.887,3.1.014.056.032.111.047.173S242.93,192.688,242.952,192.767Z" transform="translate(-121.65 -130.223)" fill="#fff"/>
            <g id="Group_177" data-name="Group 177" transform="translate(73.49 77.717)">
              <path id="Path_755" data-name="Path 755" d="M258.53,209.229v.01c-.125,1.071-.421,1.84-.951,2.113-.085.055-1.285.771-1.368.824a73.224,73.224,0,0,1-9.066,4.688,328.641,328.641,0,0,1-31.658,11.375,37.233,37.233,0,0,0-1.937-4.418,83,83,0,0,0,13.744-8.436c6.822-5.207,16.633-11.532,16.633-11.532l2.478-2.915s8.809-8.105,10.222-6.475c0,0,.013.082.045.225.209.845.909,3.956,1.4,7.261a1.034,1.034,0,0,1,.029.173A30.639,30.639,0,0,1,258.53,209.229Z" transform="translate(-203.659 -194.245)" fill="#de7c7d"/>
              <path id="Path_756" data-name="Path 756" d="M218.3,212.808a5.448,5.448,0,0,1-3.477.668c-.97-.2-1.362-.6-2.08-.728a16.2,16.2,0,0,1-3.576-.825c-.946-.463-1.315-.517-1.283.434s1.9,1.771,2.407,2.036A4.794,4.794,0,0,1,211.5,215.6c.069.106-3.114,1.77-3.968,1.432a2.488,2.488,0,0,0-.109,1.193c.146.427.8.578.851.792s-.154.654-.008,1,.726.342.96.895-.024.564.154,1.142.912.683,1.052.98.066.647.376.853a14.4,14.4,0,0,0,4.216-1.159c1.044-.446,3.835-4.471,6.922-5.833Z" transform="translate(-207.391 -183.729)" fill="#de7c7d"/>
            </g>
            <path id="Path_757" data-name="Path 757" d="M231.68,224.337H209.431v-2.176H231.68a1.089,1.089,0,0,1,1.089,1.089h0A1.088,1.088,0,0,1,231.68,224.337Z" transform="translate(-132.665 -99.612)" fill="#234d72"/>
            <path id="Path_758" data-name="Path 758" d="M241.673,240.1H185.965a1.482,1.482,0,0,1-1.429-1.087l-11.409-41.044a1.426,1.426,0,0,1,.993-1.755,1.388,1.388,0,0,1,.381-.053h53.869a2.8,2.8,0,0,1,2.692,2.048l11.362,40.9a.787.787,0,0,1-.549.968A.765.765,0,0,1,241.673,240.1Z" transform="translate(-154.696 -115.37)" fill="#234d72"/>
            <path id="Path_759" data-name="Path 759" d="M240.417,240.1h-55.7a1.486,1.486,0,0,1-1.433-1.087l-11.409-41.044a1.426,1.426,0,0,1,.994-1.755,1.377,1.377,0,0,1,.379-.053h53.871a2.8,2.8,0,0,1,2.693,2.048l11.361,40.9a.782.782,0,0,1-.752,1Z" transform="translate(-155.457 -115.37)" fill="#3166af"/>
          </g>
        </g>
        <g id="Group_180" data-name="Group 180" transform="translate(7.24 298.141)">
          <path id="Path_760" data-name="Path 760" d="M77.056,213.555l6.451-6.615a17.458,17.458,0,0,1,.575-3.572,16.477,16.477,0,0,1,1.712-3.178,2.353,2.353,0,0,1,1.357,0,6.2,6.2,0,0,1,1.3-.308,3.8,3.8,0,0,1,1.155.368s.965-.066,1.367-.066a.866.866,0,0,1,.532.112,28.522,28.522,0,0,1,2.313-2.393c.753-.6,1.9-1.712,2.248-1.707s.463.57.23,1.172a6.658,6.658,0,0,1-1.256,1.575L92.1,203.4a6.177,6.177,0,0,0,.771-.369c.268-.167,2.062-1.85,2.171-1.909s.911-.6,1.388-.066-3.083,4.779-3.647,5.354a30.907,30.907,0,0,1-3.83,2.219s-3.443,6.193-3.777,6.6S77.056,213.555,77.056,213.555Z" transform="translate(30.668 -168.544)" fill="#dc7c7f"/>
          <path id="Path_761" data-name="Path 761" d="M89.883,192.106s-3.6,20.879-7,21.364c0,0-13.546.546-16.562-15.88C63.7,183.342,74.2,180.3,79.111,181.394S90.936,183.186,89.883,192.106Z" transform="translate(23.913 -177.636)" fill="#dc7c7f"/>
          <path id="Path_762" data-name="Path 762" d="M78.441,203.493s-1.9,2.558-2.563,8.753a20.112,20.112,0,0,1-10.842-1.871,76.7,76.7,0,0,0,3.148-18.228" transform="translate(23.384 -170.998)" fill="#dc7c7f"/>
          <path id="Path_763" data-name="Path 763" d="M75.153,179.23c-7.4,1.635-6.811,6.247-6.811,6.247-3.464.856-4.209,2.287-4.18,8.684s2.343,14.078,3.62,14.7,8.512.655,9.115.435,3.136-6.087,2.545-7.121.031-5.088,1.715-5.242,1.355,2.459,1.355,2.459l1.388-.308,1.07-2.621c9.78.581,12.308-10.564,12.308-10.564C94.927,184.371,82.554,177.6,75.153,179.23Z" transform="translate(22.853 -178.978)" fill="#052242"/>
          <path id="Path_764" data-name="Path 764" d="M21.41,267.189l7.482,1.079-2.478,8.741-8.105-2.044a5.271,5.271,0,0,1,1.06-7.378,5.36,5.36,0,0,1,.62-.4A2.734,2.734,0,0,1,21.41,267.189Z" transform="translate(-5.569 -125.582)" fill="#de7c7d"/>
          <path id="Path_765" data-name="Path 765" d="M74.614,265.98l-11.031-33.4s-3.344-1.192-5.054,0c0,0-11.491,6.18-10.267,23.8a287.746,287.746,0,0,0,4.866,33.465l-29.434-1.087a10.021,10.021,0,0,0-1.282,9.933s36.979,9.946,42.189,10.864c4.233.748,8.868,1.325,11.1-.594C79.658,305.583,74.614,265.98,74.614,265.98Z" transform="translate(-2.912 -146.818)" fill="#030504"/>
          <path id="Path_766" data-name="Path 766" d="M43.106,267.189l7.484,1.079-2.478,8.741-8.105-2.044a5.271,5.271,0,0,1,1.06-7.378,5.359,5.359,0,0,1,.62-.4A2.728,2.728,0,0,1,43.106,267.189Z" transform="translate(7.58 -125.582)" fill="#de7c7d"/>
          <path id="Path_767" data-name="Path 767" d="M44.8,272.622c-.169,1.722,1.338,3.271,1.062,3.7s-5.306,8.87-5.306,8.87,3.8,1.654,3.185,4.042H34.125a7.973,7.973,0,0,1-2.449-5.513,27.922,27.922,0,0,1,2.369-7.044c1.715-3.308,5.614-10.776,5.614-10.776a5.445,5.445,0,0,1,3.207.061,19.421,19.421,0,0,1,4.652,2.081S45.218,268.373,44.8,272.622Z" transform="translate(3.169 -126.434)" fill="#3166af"/>
          <path id="Path_768" data-name="Path 768" d="M115.112,301.743c-2.374-8.862-24.719-46.689-32.277-56.9C67.311,238.1,50.768,232.38,50.768,232.38c-6.843,1.635-10.214,15.417-6.331,24.615,2.663,6.308,19.554,22.18,29.9,31.525l-28.705-.035s-3.384,5.054-.318,9.856c0,0,47.741,10.855,51.931,11.468a94.9,94.9,0,0,0,13.583,0S117.11,309.2,115.112,301.743Z" transform="translate(9.907 -146.618)" fill="#052242"/>
          <path id="Path_769" data-name="Path 769" d="M23.1,272.622c-.169,1.722,1.338,3.271,1.062,3.7s-5.306,8.87-5.306,8.87,3.8,1.654,3.186,4.042H12.428a7.973,7.973,0,0,1-2.449-5.513,27.922,27.922,0,0,1,2.369-7.044c1.715-3.308,5.614-10.776,5.614-10.776a5.445,5.445,0,0,1,3.207.061,19.421,19.421,0,0,1,4.652,2.081S23.519,268.373,23.1,272.622Z" transform="translate(-9.979 -126.434)" fill="#3166af"/>
          <path id="Path_770" data-name="Path 770" d="M123.617,203l-15.4,27.085L97.193,219.092l-9.127,13.585,2.65,1.272-.952.795s21.276,10.363,23.829,8.076,14.43-36.743,14.43-36.743Z" transform="translate(37.339 -164.422)" fill="#dc7c7f"/>
          <path id="Path_771" data-name="Path 771" d="M126.658,222.683s-2.907,12.262-8.72,18.075L103.063,235.1s-6.9,11.61-13.654,20.505c-2.594,3.437-3.456,8.276-6.5,8.91-.19-.066-.369-.124-.557-.172-8.268-2.48-20.463.154-30.526-3.588-11.117-4.139-8.958-6.469-8.958-6.469a143.551,143.551,0,0,0,10.567-25.016,153.9,153.9,0,0,0,3.674-15.083A17.367,17.367,0,0,1,71.725,200.2c.085-.01.154-.029.247-.039,8.427-1.071,30.489,1.534,34.777,3.369S126.658,222.683,126.658,222.683Z" transform="translate(9.846 -166.294)" fill="#3166af"/>
          <path id="Path_772" data-name="Path 772" d="M87.889,222.567s-6.9,11.61-13.654,20.505c-2.594,3.437-3.456,8.276-6.5,8.91,1.336-.474,3.546-7.5,4.338-9.082s2.054-3.152,4.779-8.674,6.406-13.633,6.406-13.633Z" transform="translate(25.017 -153.76)" fill="#487fc1"/>
          <path id="Path_773" data-name="Path 773" d="M62.431,267.342a48.2,48.2,0,0,1,14.839,2.133" transform="translate(21.805 -125.435)" fill="none" stroke="#030504" stroke-miterlimit="10" stroke-width="1.065"/>
          <path id="Path_774" data-name="Path 774" d="M122.051,198.621a14.44,14.44,0,0,0-2.589,1.866l.877-1.68a16.484,16.484,0,0,0,1.579-1.736c.418-.617.2-1.233-.13-1.264a12.854,12.854,0,0,0-2.425,1.734l.177-.337a16.654,16.654,0,0,0,1.579-1.736c.418-.617.2-1.233-.132-1.266a21.012,21.012,0,0,0-3,2.21l-1.3,1.741.981-1.9a8.3,8.3,0,0,0,.861-1.318c.344-.689.1-.9-.095-1.129s-1.99,1.11-2.449,1.644a27.746,27.746,0,0,0-2.027,3.013l-1.5,3.108c-.1-.9-.247-2.441-.353-3.424-.154-1.415-1.434-1.75-1.479-1.062a35.966,35.966,0,0,0-.6,5.912c.154,1.836.462,3.042.583,4.074a8.1,8.1,0,0,1-.957,3.1s4.285,2.661,4.995,1.865a33.359,33.359,0,0,0,2.944-3.755,20.049,20.049,0,0,0,1.678-3.788l1.338-2.86a16.6,16.6,0,0,0,1.575-1.733C122.6,199.275,122.372,198.658,122.051,198.621Z" transform="translate(50.419 -170.011)" fill="#dc7c7f"/>
        </g>
        <g id="Group_184" data-name="Group 184" transform="translate(22.804 279.376)">
          <path id="Path_781" data-name="Path 781" d="M25.5,175.5H75.738a5.829,5.829,0,0,1,5.83,5.83h0V193.2a5.831,5.831,0,0,1-5.088,5.785.84.84,0,0,0-.736.835v6.5a.387.387,0,0,1-.7.225l-5.117-7.156a.846.846,0,0,0-.689-.355H25.5a5.831,5.831,0,0,1-5.83-5.831h0V181.326A5.83,5.83,0,0,1,25.5,175.5Z" transform="translate(-19.67 -175.496)" fill="none" stroke="#fff" stroke-miterlimit="10" stroke-width="0.896"/>
          <g id="Group_183" data-name="Group 183" transform="translate(9.698 9.825)">
            <path id="Path_782" data-name="Path 782" d="M49.786,183.536a1.919,1.919,0,1,0,1.919-1.922,1.919,1.919,0,0,0-1.919,1.922Z" transform="translate(-11.119 -181.614)" fill="none" stroke="#fff" stroke-miterlimit="10" stroke-width="0.896"/>
            <path id="Path_783" data-name="Path 783" d="M43.762,183.536a1.919,1.919,0,1,0,1.919-1.922,1.919,1.919,0,0,0-1.919,1.922Z" transform="translate(-14.769 -181.614)" fill="none" stroke="#fff" stroke-miterlimit="10" stroke-width="0.896"/>
            <path id="Path_784" data-name="Path 784" d="M37.748,183.536a1.919,1.919,0,1,0,1.921-1.922,1.919,1.919,0,0,0-1.921,1.922Z" transform="translate(-18.414 -181.614)" fill="none" stroke="#fff" stroke-miterlimit="10" stroke-width="0.896"/>
            <path id="Path_785" data-name="Path 785" d="M31.728,183.536a1.92,1.92,0,1,0,1.921-1.922,1.92,1.92,0,0,0-1.921,1.922Z" transform="translate(-22.062 -181.614)" fill="none" stroke="#fff" stroke-miterlimit="10" stroke-width="0.896"/>
            <path id="Path_786" data-name="Path 786" d="M25.709,183.536a1.92,1.92,0,1,0,1.919-1.922,1.92,1.92,0,0,0-1.919,1.922Z" transform="translate(-25.709 -181.614)" fill="none" stroke="#fff" stroke-miterlimit="10" stroke-width="0.896"/>
          </g>
        </g>
        <g id="Group_186" data-name="Group 186" transform="translate(252.489 175.289)">
          <path id="Path_787" data-name="Path 787" d="M250.25,132.945H158.671a9.144,9.144,0,0,1-9.144-9.144v0h0a9.146,9.146,0,0,1,9.143-9.146h91.58A9.147,9.147,0,0,1,259.4,123.8v0h0a9.147,9.147,0,0,1-9.146,9.146Z" transform="translate(-149.527 -114.653)" fill="#fff" stroke="#304d9d" stroke-miterlimit="10" stroke-width="0.896"/>
          <g id="Group_185" data-name="Group 185" transform="translate(89.656 3.655)">
            <path id="Path_788" data-name="Path 788" d="M215.08,121.792a4.863,4.863,0,1,1-4.863-4.863,4.863,4.863,0,0,1,4.863,4.863Z" transform="translate(-205.354 -116.929)" fill="none" stroke="#304d9d" stroke-miterlimit="10" stroke-width="1.672"/>
            <line id="Line_17" data-name="Line 17" x2="2.686" y2="2.686" transform="translate(8.299 8.302)" fill="none" stroke="#304d9d" stroke-linecap="round" stroke-miterlimit="10" stroke-width="1.672"/>
          </g>
        </g>
        <g id="Group_209" data-name="Group 209">
          <g id="Group_187" data-name="Group 187" transform="translate(166.105 424.212)">
            <rect id="Rectangle_53" data-name="Rectangle 53" width="37.635" height="37.635" rx="7.4" transform="translate(6.859)" fill="#002b7a"/>
            <rect id="Rectangle_54" data-name="Rectangle 54" width="37.635" height="37.635" rx="7.4" fill="#304d9d"/>
            <path id="Path_789" data-name="Path 789" d="M112.22,264.825l10.8,6.238a1,1,0,0,1,.366,1.367,1.027,1.027,0,0,1-.366.366l-10.8,6.236a1,1,0,0,1-1.365-.363,1.014,1.014,0,0,1-.135-.5V265.689a1,1,0,0,1,1-1A1.012,1.012,0,0,1,112.22,264.825Z" transform="translate(-97.848 -253.109)" fill="#fff"/>
          </g>
          <g id="Group_188" data-name="Group 188" transform="translate(263.804 25.374)">
            <rect id="Rectangle_55" data-name="Rectangle 55" width="49.198" height="49.198" rx="9.673" transform="translate(8.967)" fill="#002b7a"/>
            <rect id="Rectangle_56" data-name="Rectangle 56" width="49.198" height="49.198" rx="9.673" fill="#304d9d"/>
            <path id="Path_790" data-name="Path 790" d="M182.959,37.306a5.911,5.911,0,1,1-5.912-5.912h0A5.911,5.911,0,0,1,182.959,37.306Z" transform="translate(-152.448 -25.236)" fill="#fff"/>
            <path id="Path_791" data-name="Path 791" d="M191.789,52.186v8.727a1.427,1.427,0,0,1-1.428,1.426h-21.79a1.427,1.427,0,0,1-1.428-1.426h0V52.186a12.321,12.321,0,0,1,12.321-12.321h0a12.322,12.322,0,0,1,12.323,12.321Z" transform="translate(-154.867 -20.102)" fill="#fff"/>
          </g>
          <g id="Group_189" data-name="Group 189" transform="translate(294.3 204.752)">
            <path id="Path_792" data-name="Path 792" d="M198.635,133.7H179.293a1.454,1.454,0,0,1-1.455-1.453h0a1.454,1.454,0,0,1,1.455-1.453h19.342a1.453,1.453,0,0,1,1.453,1.453h0A1.453,1.453,0,0,1,198.635,133.7Z" transform="translate(-177.836 -130.797)" fill="#edf1f9"/>
            <path id="Path_793" data-name="Path 793" d="M208.668,133.7h-14a1.453,1.453,0,0,1-1.453-1.453h0a1.453,1.453,0,0,1,1.453-1.453h14a1.453,1.453,0,0,1,1.453,1.453h0a1.451,1.451,0,0,1-1.45,1.453Z" transform="translate(-168.518 -130.797)" fill="#edf1f9"/>
            <path id="Path_794" data-name="Path 794" d="M187.511,137.682h-8.218a1.457,1.457,0,0,1-1.457-1.453v0h0a1.454,1.454,0,0,1,1.455-1.453h8.218a1.454,1.454,0,0,1,1.455,1.453h0a1.456,1.456,0,0,1-1.452,1.458Z" transform="translate(-177.837 -128.389)" fill="#edf1f9"/>
            <path id="Path_795" data-name="Path 795" d="M213.044,137.68H187.451A1.456,1.456,0,0,1,186,136.225h0a1.454,1.454,0,0,1,1.455-1.453h25.593a1.453,1.453,0,0,1,1.453,1.453h0A1.454,1.454,0,0,1,213.044,137.68Z" transform="translate(-172.893 -128.388)" fill="#edf1f9"/>
            <path id="Path_796" data-name="Path 796" d="M204.789,141.664h-25.5a1.456,1.456,0,0,1-1.455-1.455h0a1.454,1.454,0,0,1,1.455-1.453h25.5a1.453,1.453,0,0,1,1.453,1.453h0a1.454,1.454,0,0,1-1.453,1.455Z" transform="translate(-177.836 -125.974)" fill="#edf1f9"/>
            <path id="Path_797" data-name="Path 797" d="M206.487,141.664h-8.218a1.454,1.454,0,0,1-1.453-1.455h0a1.453,1.453,0,0,1,1.453-1.453h8.218a1.453,1.453,0,0,1,1.453,1.453h0A1.454,1.454,0,0,1,206.487,141.664Z" transform="translate(-166.336 -125.974)" fill="#edf1f9"/>
          </g>
          <g id="Group_193" data-name="Group 193" transform="translate(5.401 337.424)">
            <rect id="Rectangle_57" data-name="Rectangle 57" width="50.894" height="28.132" rx="3.67" fill="#002b7a"/>
            <line id="Line_18" data-name="Line 18" x2="46.568" transform="translate(2.163 3.8)" fill="none" stroke="#fff" stroke-linecap="round" stroke-miterlimit="10" stroke-width="0.896"/>
            <circle id="Ellipse_11" data-name="Ellipse 11" cx="0.564" cy="0.564" r="0.564" transform="translate(46.938 1.303)" fill="#fff"/>
            <circle id="Ellipse_12" data-name="Ellipse 12" cx="0.564" cy="0.564" r="0.564" transform="translate(43.996 1.303)" fill="#fff"/>
            <circle id="Ellipse_13" data-name="Ellipse 13" cx="0.564" cy="0.564" r="0.564" transform="translate(41.056 1.303)" fill="#fff"/>
            <g id="Group_192" data-name="Group 192" transform="translate(2.16 6.03)">
              <g id="Group_190" data-name="Group 190">
                <path id="Path_798" data-name="Path 798" d="M18.861,212.842h-7.9a.779.779,0,0,1-.779-.779h0a.779.779,0,0,1,.779-.779h7.9a.779.779,0,0,1,.779.779h0A.779.779,0,0,1,18.861,212.842Z" transform="translate(-10.178 -211.284)" fill="#4a77ba"/>
                <path id="Path_799" data-name="Path 799" d="M18.861,215.081h-7.9a.778.778,0,0,1-.779-.777h0a.779.779,0,0,1,.779-.779h7.9a.779.779,0,0,1,.779.779h0A.778.778,0,0,1,18.861,215.081Z" transform="translate(-10.178 -209.926)" fill="#4a77ba"/>
                <path id="Path_800" data-name="Path 800" d="M18.861,217.323h-7.9a.779.779,0,0,1-.779-.779h0a.779.779,0,0,1,.779-.779h7.9a.779.779,0,0,1,.779.779h0A.779.779,0,0,1,18.861,217.323Z" transform="translate(-10.178 -208.569)" fill="#4a77ba"/>
                <path id="Path_801" data-name="Path 801" d="M18.861,219.565h-7.9a.78.78,0,0,1-.779-.779h0a.779.779,0,0,1,.779-.779h7.9a.779.779,0,0,1,.779.779h0A.78.78,0,0,1,18.861,219.565Z" transform="translate(-10.178 -207.21)" fill="#4a77ba"/>
                <path id="Path_802" data-name="Path 802" d="M18.861,221.8h-7.9a.779.779,0,0,1-.779-.779h0a.778.778,0,0,1,.779-.777h7.9a.778.778,0,0,1,.779.777h0A.779.779,0,0,1,18.861,221.8Z" transform="translate(-10.178 -205.852)" fill="#4a77ba"/>
                <path id="Path_803" data-name="Path 803" d="M18.861,224.045h-7.9a.779.779,0,0,1-.779-.779h0a.779.779,0,0,1,.779-.776h7.9a.779.779,0,0,1,.779.779h0A.779.779,0,0,1,18.861,224.045Z" transform="translate(-10.178 -204.494)" fill="#4a77ba"/>
              </g>
              <g id="Group_191" data-name="Group 191" transform="translate(10.958)">
                <path id="Path_804" data-name="Path 804" d="M51.834,212.842H17.78a.779.779,0,0,1-.779-.779h0a.779.779,0,0,1,.779-.779H51.831a.78.78,0,0,1,.779.779h0A.779.779,0,0,1,51.834,212.842Z" transform="translate(-17.001 -211.284)" fill="#1e4e9e"/>
                <path id="Path_805" data-name="Path 805" d="M51.834,215.081H17.78A.778.778,0,0,1,17,214.3h0a.779.779,0,0,1,.779-.779H51.831a.779.779,0,0,1,.779.779h0A.778.778,0,0,1,51.834,215.081Z" transform="translate(-17.001 -209.926)" fill="#1e4e9e"/>
                <path id="Path_806" data-name="Path 806" d="M51.834,217.323H17.78a.779.779,0,0,1-.779-.779h0a.779.779,0,0,1,.779-.779H51.831a.779.779,0,0,1,.779.779h0A.779.779,0,0,1,51.834,217.323Z" transform="translate(-17.001 -208.569)" fill="#1e4e9e"/>
                <path id="Path_807" data-name="Path 807" d="M51.834,219.565H17.78a.78.78,0,0,1-.779-.779h0a.779.779,0,0,1,.779-.779H51.831a.779.779,0,0,1,.779.779h0A.78.78,0,0,1,51.834,219.565Z" transform="translate(-17.001 -207.21)" fill="#1e4e9e"/>
                <path id="Path_808" data-name="Path 808" d="M51.834,221.8H17.78a.779.779,0,0,1-.779-.779h0a.778.778,0,0,1,.779-.777H51.831a.778.778,0,0,1,.779.777h0A.779.779,0,0,1,51.834,221.8Z" transform="translate(-17.001 -205.852)" fill="#1e4e9e"/>
                <path id="Path_809" data-name="Path 809" d="M51.834,224.045H17.78a.779.779,0,0,1-.779-.779h0a.779.779,0,0,1,.779-.776H51.831a.779.779,0,0,1,.779.779h0A.779.779,0,0,1,51.834,224.045Z" transform="translate(-17.001 -204.494)" fill="#1e4e9e"/>
              </g>
            </g>
          </g>
          <g id="Group_197" data-name="Group 197" transform="translate(335.877 95.807)">
            <circle id="Ellipse_14" data-name="Ellipse 14" cx="30.763" cy="30.763" r="30.763" fill="none" stroke="#d5dbef" stroke-miterlimit="9.995" stroke-width="0.79"/>
            <circle id="Ellipse_15" data-name="Ellipse 15" cx="26.758" cy="26.758" r="26.758" transform="translate(4.021 3.989)" fill="#223f93"/>
            <path id="Path_810" data-name="Path 810" d="M223.972,87.069a2.436,2.436,0,1,1-2.436-2.436,2.436,2.436,0,0,1,2.436,2.436Z" transform="translate(-190.757 -56.325)" fill="#fff"/>
            <path id="Path_811" data-name="Path 811" d="M223.845,91.749h0a.76.76,0,0,1-1.036-.3h0l-7.863-14.2a.762.762,0,0,1,.3-1.036h0a.762.762,0,0,1,1.036.3v0l7.863,14.194a.762.762,0,0,1-.3,1.036Z" transform="translate(-193.332 -61.48)" fill="#fff"/>
            <path id="Path_812" data-name="Path 812" d="M220.942,86.476h0a.771.771,0,0,1,1.079,0l6.808,6.808a.763.763,0,0,1,0,1.078l0,0h0a.759.759,0,0,1-1.074,0l0,0-6.808-6.808a.761.761,0,0,1,0-1.078Z" transform="translate(-189.776 -55.342)" fill="#fff"/>
            <g id="Group_194" data-name="Group 194" transform="translate(6.283 6.252)">
              <line id="Line_19" data-name="Line 19" y1="3.077" transform="translate(24.658)" fill="none" stroke="#fff" stroke-linecap="round" stroke-miterlimit="10" stroke-width="2"/>
              <line id="Line_20" data-name="Line 20" x2="3.077" transform="translate(45.913 24.658)" fill="none" stroke="#fff" stroke-linecap="round" stroke-miterlimit="10" stroke-width="2"/>
              <line id="Line_21" data-name="Line 21" y2="3.077" transform="translate(24.332 45.913)" fill="none" stroke="#fff" stroke-linecap="round" stroke-miterlimit="10" stroke-width="2"/>
              <line id="Line_22" data-name="Line 22" x1="3.077" transform="translate(0 24.332)" fill="none" stroke="#fff" stroke-linecap="round" stroke-miterlimit="10" stroke-width="2"/>
            </g>
            <g id="Group_195" data-name="Group 195" transform="translate(9.484 9.453)" opacity="0.5">
              <line id="Line_23" data-name="Line 23" x1="1.539" y1="2.666" transform="translate(9.19)" fill="none" stroke="#d5dbef" stroke-linecap="round" stroke-miterlimit="10" stroke-width="1"/>
              <line id="Line_24" data-name="Line 24" y1="1.539" x2="2.666" transform="translate(39.926 9.19)" fill="none" stroke="#d5dbef" stroke-linecap="round" stroke-miterlimit="10" stroke-width="1"/>
              <line id="Line_25" data-name="Line 25" x2="1.539" y2="2.666" transform="translate(31.861 39.926)" fill="none" stroke="#d5dbef" stroke-linecap="round" stroke-miterlimit="10" stroke-width="1"/>
              <line id="Line_26" data-name="Line 26" x1="2.666" y2="1.539" transform="translate(0 31.863)" fill="none" stroke="#d5dbef" stroke-linecap="round" stroke-miterlimit="10" stroke-width="1"/>
            </g>
            <g id="Group_196" data-name="Group 196" transform="translate(9.647 9.616)" opacity="0.5">
              <line id="Line_27" data-name="Line 27" x1="2.666" y1="1.539" transform="translate(0 8.742)" fill="none" stroke="#d5dbef" stroke-linecap="round" stroke-miterlimit="10" stroke-width="1"/>
              <line id="Line_28" data-name="Line 28" y1="2.666" x2="1.539" transform="translate(31.982)" fill="none" stroke="#d5dbef" stroke-linecap="round" stroke-miterlimit="10" stroke-width="1"/>
              <line id="Line_29" data-name="Line 29" x2="2.666" y2="1.539" transform="translate(39.598 31.982)" fill="none" stroke="#d5dbef" stroke-linecap="round" stroke-miterlimit="10" stroke-width="1"/>
              <line id="Line_30" data-name="Line 30" x1="1.539" y2="2.666" transform="translate(8.742 39.598)" fill="none" stroke="#d5dbef" stroke-linecap="round" stroke-miterlimit="10" stroke-width="1"/>
            </g>
          </g>
          <g id="Group_200" data-name="Group 200" transform="translate(47.036 32.938)">
            <rect id="Rectangle_58" data-name="Rectangle 58" width="51.919" height="51.919" rx="9.186" transform="translate(4.024 4.497)" fill="#002b7a"/>
            <rect id="Rectangle_59" data-name="Rectangle 59" width="51.919" height="51.919" rx="7.36" fill="#5f71b4" stroke="#d5dbef" stroke-miterlimit="10" stroke-width="1"/>
            <g id="Group_199" data-name="Group 199" transform="translate(14.431 8.071)">
              <g id="Group_198" data-name="Group 198" transform="translate(0.005)">
                <path id="Path_813" data-name="Path 813" d="M64.261,49.239H63.99V46.265a8.852,8.852,0,1,0-17.7-.233c0,.077,0,.154,0,.233v2.974h-.055a2.484,2.484,0,0,0-2.484,2.483v11.21a2.484,2.484,0,0,0,2.484,2.483H64.271a2.486,2.486,0,0,0,2.486-2.484V51.72a2.484,2.484,0,0,0-2.486-2.481ZM48.535,46.265a6.61,6.61,0,1,1,13.22,0v2.974H48.535Z" transform="translate(-43.748 -37.295)" fill="#d5dbef"/>
                <path id="Path_814" data-name="Path 814" d="M54.9,49.411A2.889,2.889,0,1,0,50.557,51.9a.519.519,0,0,1,.263.58l-.5,1.85a1.734,1.734,0,1,0,3.348,0l-.5-1.837a.519.519,0,0,1,.268-.585A2.877,2.877,0,0,0,54.9,49.411Z" transform="translate(-40.49 -31.706)" fill="#5f71b4"/>
              </g>
              <path id="Path_815" data-name="Path 815" d="M65.681,58.056H44.81a1.061,1.061,0,0,1-1.065-1.062v0h0a1.065,1.065,0,0,1,1.065-1.066H65.681a1.066,1.066,0,0,1,1.066,1.066h0A1.065,1.065,0,0,1,65.681,58.056Z" transform="translate(-43.745 -26.005)" fill="#d5dbef"/>
              <path id="Path_816" data-name="Path 816" d="M65.681,60.3H44.81a1.065,1.065,0,0,1-1.065-1.065h0a1.061,1.061,0,0,1,1.062-1.065H65.681a1.065,1.065,0,0,1,1.066,1.065h0A1.065,1.065,0,0,1,65.681,60.3Z" transform="translate(-43.745 -24.642)" fill="#d5dbef"/>
            </g>
          </g>
          <g id="Group_207" data-name="Group 207" transform="translate(221.405)">
            <g id="Group_201" data-name="Group 201">
              <path id="Rectangle_60" data-name="Rectangle 60" d="M145.5,13.408h13.2a8.686,8.686,0,0,1,8.687,8.687V35.289a8.685,8.685,0,0,1-8.685,8.685H145.5a8.686,8.686,0,0,1-8.685-8.687V22.095A8.685,8.685,0,0,1,145.5,13.408Z" transform="translate(-134.444 -10.761)" fill="#002b7a"/>
              <rect id="Rectangle_61" data-name="Rectangle 61" width="30.566" height="30.566" rx="4.332" fill="#5f71b4" stroke="#d5dbef" stroke-miterlimit="10" stroke-width="1"/>
            </g>
            <g id="Group_206" data-name="Group 206" transform="translate(6.157 6.162)">
              <g id="Group_202" data-name="Group 202" transform="translate(2.003)">
                <path id="Path_817" data-name="Path 817" d="M141.368,33.852a.874.874,0,0,1-.259-.035.946.946,0,0,1-.655-1.166l0,0,4.625-16.362a.946.946,0,1,1,1.821.512l-4.625,16.363A.944.944,0,0,1,141.368,33.852Z" transform="translate(-140.419 -15.597)" fill="#fff"/>
              </g>
              <g id="Group_203" data-name="Group 203" transform="translate(9.734)">
                <path id="Path_818" data-name="Path 818" d="M146.179,33.852a.871.871,0,0,1-.257-.035.945.945,0,0,1-.654-1.166v0l4.625-16.362a.947.947,0,1,1,1.823.512l-4.625,16.363A.948.948,0,0,1,146.179,33.852Z" transform="translate(-145.233 -15.597)" fill="#fff"/>
              </g>
              <g id="Group_204" data-name="Group 204" transform="translate(0 4.466)">
                <path id="Path_819" data-name="Path 819" d="M156.48,20.271H140.116a.947.947,0,0,1,0-1.893H156.48a.947.947,0,0,1,0,1.893Z" transform="translate(-139.172 -18.378)" fill="#fff"/>
              </g>
              <g id="Group_205" data-name="Group 205" transform="translate(0 11.939)">
                <path id="Path_820" data-name="Path 820" d="M156.48,24.924H140.116a.947.947,0,0,1,0-1.893H156.48a.947.947,0,0,1,0,1.893Z" transform="translate(-139.172 -23.031)" fill="#fff"/>
              </g>
            </g>
          </g>
          <g id="Group_208" data-name="Group 208" transform="translate(34.422 252.386)">
            <path id="Path_821" data-name="Path 821" d="M40.038,161.122H28.2a1.3,1.3,0,0,1-1.3-1.3h0a1.3,1.3,0,0,1,1.3-1.3H40.038a1.3,1.3,0,0,1,1.3,1.3h0A1.3,1.3,0,0,1,40.038,161.122Z" transform="translate(-26.904 -158.527)" fill="#edf1f9"/>
            <path id="Path_822" data-name="Path 822" d="M51.957,164.709H28.2a1.3,1.3,0,0,1-1.3-1.3h0a1.3,1.3,0,0,1,1.3-1.3H51.957a1.3,1.3,0,0,1,1.3,1.3h0a1.3,1.3,0,0,1-1.3,1.3Z" transform="translate(-26.904 -156.353)" fill="#edf1f9"/>
            <path id="Path_823" data-name="Path 823" d="M31.009,168.3H28.2a1.3,1.3,0,0,1-1.3-1.3h0a1.3,1.3,0,0,1,1.3-1.3h2.806a1.3,1.3,0,0,1,1.3,1.3h0A1.3,1.3,0,0,1,31.009,168.3Z" transform="translate(-26.904 -154.18)" fill="#edf1f9"/>
            <path id="Path_824" data-name="Path 824" d="M49.235,168.3H32.693a1.3,1.3,0,0,1-1.3-1.3h0a1.3,1.3,0,0,1,1.3-1.3H49.235a1.3,1.3,0,0,1,1.3,1.3h0A1.3,1.3,0,0,1,49.235,168.3Z" transform="translate(-24.181 -154.18)" fill="#edf1f9"/>
            <path id="Path_825" data-name="Path 825" d="M45.7,161.122H38.526a1.3,1.3,0,0,1-1.3-1.3h0a1.3,1.3,0,0,1,1.3-1.3H45.7a1.3,1.3,0,0,1,1.3,1.3h0A1.3,1.3,0,0,1,45.7,161.122Z" transform="translate(-20.647 -158.527)" fill="#edf1f9"/>
          </g>
          <path id="Path_826" data-name="Path 826" d="M11.229,278.836a1.6,1.6,0,0,0-.816.223,1.711,1.711,0,0,0-3.4.379,1.306,1.306,0,1,0-.472,2.57,1.373,1.373,0,0,0,.231.021H11.23a1.6,1.6,0,0,0,.01-3.194h-.01Z" transform="translate(-5.471 178.923)" fill="#fff"/>
        </g>
        <line id="Line_31" data-name="Line 31" x2="397.321" transform="translate(3.099 461.406)" fill="none" stroke="#fff" stroke-linecap="round" stroke-miterlimit="10" stroke-width="1.114"/>
      </g>
    </g>
  </g>
  <g id="ABOUT_US" data-name="ABOUT US" transform="translate(68 510.32)" style="isolation: isolate">
    <text id="MOBLIE_APPLICATION" data-name="MOBLIE APPLICATION" transform="translate(0 23)" fill="#0a2a59" font-size="25" font-family="Arial-BoldMT, Arial" font-weight="700" style="isolation: isolate"><tspan x="0" y="0">MOBILE APPLICATION</tspan></text>
  </g>
</svg>
