<svg id="Group_466" data-name="Group 466" xmlns="http://www.w3.org/2000/svg" width="406.571" height="569.199" viewBox="0 0 406.571 569.199">
  <g id="Group_464" data-name="Group 464">
    <g id="Group_12836" data-name="Group 12836">
      <path id="Path_829-2" data-name="Path 829-2" d="M67.871,7.18H348.7a62.825,62.825,0,0,1,62.871,62.779h0V513.6A62.825,62.825,0,0,1,348.7,576.379H67.871A62.825,62.825,0,0,1,5,513.6V69.959A62.825,62.825,0,0,1,67.871,7.18Z" transform="translate(-5 -7.18)" fill="#adb4db"/>
      <path id="Intersection_1" data-name="Intersection 1" d="M411.571,69.862V193.042c-52.178,0-94.479-46.633-94.479-104.165,0-33.1,14.027-62.575,35.858-81.653A62.818,62.818,0,0,1,411.571,69.862Zm0,339.791V513.5A62.825,62.825,0,0,1,348.7,576.282H262.092a158.248,158.248,0,0,1-2.109-25.85c0-78.891,58.011-142.844,129.569-142.844A118.573,118.573,0,0,1,411.571,409.653ZM103.016,465.067c28.748,29.295,39.819,71.787,32.629,111.215H67.871A62.825,62.825,0,0,1,5,513.5H5v-77.01a99.135,99.135,0,0,1,24.609-3.105C55.876,433.387,82.208,443.859,103.016,465.067Z" transform="translate(-5 -7.083)" fill="#d5dbef" opacity="0.3" style="isolation: isolate"/>
    </g>
    <g id="ABOUT_US-2" data-name="ABOUT US-2" transform="translate(75.285 511.199)" style="isolation: isolate">
      <text id="WEB_DEVELOPMENT" data-name="WEB DEVELOPMENT" transform="translate(-0.016 22.121)" fill="#0a2a59" font-size="25" font-family="Arial-BoldMT, Arial" font-weight="700" style="isolation: isolate"><tspan x="0" y="0">WEB DEVELOPMENT</tspan></text>
    </g>
    <g id="Group_335" data-name="Group 335" transform="translate(17.556 137.812)">
      <g id="Group_334" data-name="Group 334">
        <ellipse id="Ellipse_19" data-name="Ellipse 19" cx="181.702" cy="14.25" rx="181.702" ry="14.25" transform="translate(0.246 284.868)" fill="#9bbde4"/>
        <g id="Group_218" data-name="Group 218" transform="translate(310.599 151.542)">
          <g id="Group_216" data-name="Group 216">
            <path id="Path_830" data-name="Path 830" d="M200.938,311.371s-16.5-48.308,11.892-82.81,35.163-49.726,36.395-51.327C243.683,226,227.952,258,217.96,270.252S200.938,311.371,200.938,311.371Z" transform="translate(-196.172 -177.234)" fill="#b3c643"/>
            <path id="Path_831" data-name="Path 831" d="M199.73,311.371a89.185,89.185,0,0,1,18.729-73.251c28.389-34.5,28.321-59.284,29.558-60.886C242.474,226,226.744,258,216.751,270.252S199.73,311.371,199.73,311.371Z" transform="translate(-194.964 -177.234)" fill="#9caf26"/>
          </g>
          <g id="Group_217" data-name="Group 217" transform="translate(6.515 41.553)">
            <path id="Path_832" data-name="Path 832" d="M200.3,298.479s-2.8-41.448,26.8-62.631,38.129-31.737,39.433-32.739c-14.63,37.188-33.743,59.061-44.182,66.6S200.3,298.479,200.3,298.479Z" transform="translate(-200.229 -203.107)" fill="#b3c643"/>
            <path id="Path_833" data-name="Path 833" d="M200.273,298.48a72.686,72.686,0,0,1,30.16-53.683c29.595-21.184,34.766-40.687,36.07-41.689-14.63,37.188-33.743,59.061-44.182,66.6S200.273,298.48,200.273,298.48Z" transform="translate(-200.202 -203.108)" fill="#9caf26"/>
          </g>
        </g>
        <g id="Group_240" data-name="Group 240">
          <g id="Group_221" data-name="Group 221" transform="translate(20.142 41.972)">
            <g id="Group_220" data-name="Group 220">
              <g id="Group_219" data-name="Group 219">
                <path id="Path_834" data-name="Path 834" d="M109.378,261.487h-8.945a5.623,5.623,0,0,1-5.622-5.608v-7.935a62.444,62.444,0,0,1-12.56-3.418l-4.012,6.93a5.626,5.626,0,0,1-7.678,2.054l-7.747-4.461a5.607,5.607,0,0,1-2.057-7.651l4.1-7.068a63.161,63.161,0,0,1-9-9.191L48.631,229.3a5.627,5.627,0,0,1-7.678-2.051l-4.473-7.728a5.606,5.606,0,0,1,2.057-7.651l7.436-4.283a62.154,62.154,0,0,1-3.079-12.249H34.1a5.62,5.62,0,0,1-5.622-5.606v-8.923A5.62,5.62,0,0,1,34.1,175.2h9.115A62.237,62.237,0,0,1,46.6,163.306l-8.052-4.636a5.607,5.607,0,0,1-2.057-7.651l4.473-7.728a5.632,5.632,0,0,1,7.68-2.051l8.293,4.776a63.017,63.017,0,0,1,8.7-8.48l-4.861-8.4a5.607,5.607,0,0,1,2.057-7.651l7.733-4.5a5.637,5.637,0,0,1,7.678,2.052l4.93,8.518A62.568,62.568,0,0,1,94.813,124.5v-9.883a5.618,5.618,0,0,1,5.621-5.606h8.945A5.618,5.618,0,0,1,115,114.613V124.5a62.568,62.568,0,0,1,11.643,3.063l4.93-8.518a5.629,5.629,0,0,1,7.678-2.052l7.747,4.46a5.609,5.609,0,0,1,2.057,7.652l-4.861,8.4a63.28,63.28,0,0,1,8.7,8.478l8.292-4.775a5.63,5.63,0,0,1,7.678,2.051l4.473,7.728a5.6,5.6,0,0,1-2.057,7.651l-8.052,4.636a62.066,62.066,0,0,1,3.384,11.892h9.117a5.62,5.62,0,0,1,5.621,5.606v8.924a5.62,5.62,0,0,1-5.621,5.606h-8.8a62.3,62.3,0,0,1-3.079,12.249l7.437,4.283a5.607,5.607,0,0,1,2.057,7.651l-4.473,7.726a5.636,5.636,0,0,1-7.68,2.052l-7.22-4.158a63.156,63.156,0,0,1-9,9.191l4.1,7.068a5.6,5.6,0,0,1-2.057,7.651l-7.746,4.46a5.628,5.628,0,0,1-7.68-2.052l-4.01-6.931a62.464,62.464,0,0,1-12.562,3.419v7.94a5.621,5.621,0,0,1-5.6,5.642ZM81.847,243.374l.371.146a61.647,61.647,0,0,0,13.126,3.57l.392.061v8.728a4.7,4.7,0,0,0,4.7,4.686h8.945a4.7,4.7,0,0,0,4.7-4.686v-8.728l.392-.061a61.551,61.551,0,0,0,13.126-3.57l.371-.146,4.408,7.617a4.7,4.7,0,0,0,6.413,1.715l7.746-4.461a4.682,4.682,0,0,0,1.722-6.4l0,0-4.481-7.742.3-.247a62,62,0,0,0,9.413-9.609l.247-.315,7.914,4.558a4.709,4.709,0,0,0,6.413-1.715l4.473-7.728a4.685,4.685,0,0,0-1.715-6.4l0,0-8.11-4.67.135-.365a61.078,61.078,0,0,0,3.22-12.811l.056-.4h9.6a4.7,4.7,0,0,0,4.7-4.685v-8.923a4.7,4.7,0,0,0-4.7-4.688H165.82l-.066-.382a61.137,61.137,0,0,0-3.54-12.454l-.149-.373,8.746-5.035a4.685,4.685,0,0,0,1.718-6.4v0l-4.473-7.728a4.7,4.7,0,0,0-6.413-1.714l-8.966,5.16-.251-.3a62.148,62.148,0,0,0-9.125-8.9l-.312-.247,5.258-9.085a4.684,4.684,0,0,0-1.717-6.4l0,0-7.746-4.461a4.7,4.7,0,0,0-6.413,1.717l-5.322,9.193-.368-.137a61.506,61.506,0,0,0-12.217-3.214l-.392-.061V114.6a4.7,4.7,0,0,0-4.7-4.688h-8.944a4.7,4.7,0,0,0-4.7,4.688v10.675l-.392.061a61.519,61.519,0,0,0-12.215,3.214l-.368.137-5.322-9.193a4.7,4.7,0,0,0-6.413-1.717l-7.746,4.461a4.684,4.684,0,0,0-1.722,6.4l0,0,5.261,9.09-.312.247a62,62,0,0,0-9.125,8.9l-.251.3-8.966-5.16a4.7,4.7,0,0,0-6.413,1.714l-4.473,7.726a4.686,4.686,0,0,0,1.717,6.4l0,0,8.745,5.035-.149.373a61.166,61.166,0,0,0-3.54,12.454l-.066.384H34.1a4.7,4.7,0,0,0-4.7,4.686v8.923a4.7,4.7,0,0,0,4.7,4.685h9.6l.056.4a61.155,61.155,0,0,0,3.222,12.811l.135.366L39,212.642a4.685,4.685,0,0,0-1.718,6.4h0l4.473,7.728a4.7,4.7,0,0,0,6.413,1.715l7.914-4.556.247.315a62.145,62.145,0,0,0,9.413,9.609l.3.247-4.481,7.741a4.682,4.682,0,0,0,1.714,6.4l0,0,7.746,4.46A4.7,4.7,0,0,0,77.44,251Zm23.059-22.848a34.31,34.31,0,1,1,34.4-34.31,34.328,34.328,0,0,1-34.4,34.31Zm0-67.7a33.388,33.388,0,1,0,33.475,33.388,33.406,33.406,0,0,0-33.475-33.388Z" transform="translate(-28.474 -109.007)" fill="#fff"/>
              </g>
            </g>
          </g>
          <g id="Group_223" data-name="Group 223" transform="translate(248.747 66.331)">
            <g id="Group_222" data-name="Group 222">
              <path id="Path_835" data-name="Path 835" d="M202.453,208.6h-4.929a3.3,3.3,0,0,1-3.3-3.3v-4.2a34.616,34.616,0,0,1-6.623-1.8l-2.123,3.665a3.308,3.308,0,0,1-4.514,1.208l-4.273-2.457a3.3,3.3,0,0,1-1.211-4.5l2.166-3.736a34.844,34.844,0,0,1-4.742-4.844l-3.825,2.2a3.312,3.312,0,0,1-4.513-1.208L162.1,185.37a3.294,3.294,0,0,1,1.209-4.5l3.947-2.274a34.585,34.585,0,0,1-1.622-6.45h-4.669a3.3,3.3,0,0,1-3.3-3.3v-4.916a3.3,3.3,0,0,1,3.3-3.3h4.852a34.294,34.294,0,0,1,1.781-6.257l-4.275-2.465a3.3,3.3,0,0,1-1.209-4.5l2.465-4.256a3.306,3.306,0,0,1,4.513-1.208l4.42,2.545a35.1,35.1,0,0,1,4.572-4.449l-2.6-4.489a3.291,3.291,0,0,1,1.2-4.5l.006,0,4.275-2.46a3.311,3.311,0,0,1,4.514,1.208l2.629,4.542a34.789,34.789,0,0,1,6.116-1.6v-5.271a3.3,3.3,0,0,1,3.305-3.3h4.929a3.3,3.3,0,0,1,3.3,3.3v5.271a34.789,34.789,0,0,1,6.116,1.6l2.629-4.542a3.312,3.312,0,0,1,4.513-1.208l4.275,2.46a3.289,3.289,0,0,1,1.214,4.492l-.006.01-2.587,4.474a35.1,35.1,0,0,1,4.572,4.449l4.42-2.544a3.307,3.307,0,0,1,4.513,1.206l2.464,4.256a3.291,3.291,0,0,1-1.2,4.5l-.01,0-4.275,2.467a34.406,34.406,0,0,1,1.781,6.255h4.85a3.3,3.3,0,0,1,3.305,3.3v4.916a3.3,3.3,0,0,1-3.305,3.3h-4.669a34.207,34.207,0,0,1-1.62,6.45l3.947,2.274a3.289,3.289,0,0,1,1.216,4.492l-.006.01-2.464,4.259a3.313,3.313,0,0,1-4.513,1.206l-3.825-2.2a34.856,34.856,0,0,1-4.744,4.844l2.165,3.737a3.289,3.289,0,0,1-1.2,4.5l-.01,0-4.275,2.457a3.313,3.313,0,0,1-4.513-1.206l-2.121-3.666a34.624,34.624,0,0,1-6.623,1.8V205.3a3.3,3.3,0,0,1-3.315,3.294ZM187.2,198.154l.369.145a33.607,33.607,0,0,0,7.19,1.958l.392.061V205.3a2.38,2.38,0,0,0,2.378,2.375h4.929a2.379,2.379,0,0,0,2.383-2.37v-4.982l.392-.061a33.659,33.659,0,0,0,7.188-1.956l.369-.146,2.518,4.352a2.389,2.389,0,0,0,3.254.87l4.275-2.46a2.371,2.371,0,0,0,.872-3.241l0,0-2.557-4.418.3-.247a34.012,34.012,0,0,0,5.155-5.266l.247-.315,4.516,2.6a2.385,2.385,0,0,0,3.252-.87l2.465-4.257a2.373,2.373,0,0,0-.87-3.242l0,0-4.622-2.669.136-.355a33.583,33.583,0,0,0,1.765-7.02l.055-.4h5.47a2.379,2.379,0,0,0,2.382-2.375v-4.916a2.381,2.381,0,0,0-2.382-2.375h-5.624l-.067-.384a33.585,33.585,0,0,0-1.937-6.824l-.149-.371,4.974-2.865a2.373,2.373,0,0,0,.874-3.241l0,0-2.465-4.256a2.385,2.385,0,0,0-3.252-.869l-5.093,2.931-.251-.3a33.875,33.875,0,0,0-5-4.869l-.312-.247,2.985-5.16a2.371,2.371,0,0,0-.866-3.241l0,0-4.275-2.459a2.391,2.391,0,0,0-3.255.87l-3.027,5.218-.368-.138a33.656,33.656,0,0,0-6.687-1.76l-.392-.061v-6.048a2.382,2.382,0,0,0-2.382-2.377h-4.929a2.381,2.381,0,0,0-2.38,2.377v6.048l-.392.061a33.657,33.657,0,0,0-6.69,1.76l-.366.138-3.029-5.218a2.383,2.383,0,0,0-3.252-.87l-4.275,2.459a2.373,2.373,0,0,0-.875,3.241l0,0,2.987,5.16-.31.247a33.873,33.873,0,0,0-5,4.869l-.249.3-5.091-2.931a2.385,2.385,0,0,0-3.252.869l-2.464,4.256a2.376,2.376,0,0,0,.87,3.244l4.975,2.865-.149.371a33.6,33.6,0,0,0-1.938,6.822l-.066.382h-5.626a2.379,2.379,0,0,0-2.38,2.377v4.916a2.379,2.379,0,0,0,2.38,2.375h5.472l.055.4a33.481,33.481,0,0,0,1.763,7.02l.135.355-4.62,2.669a2.376,2.376,0,0,0-.87,3.244l2.464,4.257a2.387,2.387,0,0,0,3.252.87l4.518-2.6.247.315a34,34,0,0,0,5.154,5.266l.3.247-2.558,4.418a2.375,2.375,0,0,0,.874,3.242l4.275,2.459a2.383,2.383,0,0,0,3.252-.869Zm12.793-12.125a19.111,19.111,0,1,1,19.161-19.111A19.122,19.122,0,0,1,199.989,186.029Zm0-37.3a18.192,18.192,0,1,0,0-.006Z" transform="translate(-157.659 -124.175)" fill="#fff"/>
            </g>
          </g>
          <g id="Group_226" data-name="Group 226" transform="translate(225.921 5.823)">
            <g id="Group_224" data-name="Group 224">
              <path id="Path_836" data-name="Path 836" d="M152.539,96.463a4.983,4.983,0,1,1,5-4.983A4.986,4.986,0,0,1,152.539,96.463Zm0-9.061a4.07,4.07,0,1,0,4.081,4.07A4.073,4.073,0,0,0,152.539,87.4Z" transform="translate(-147.567 -86.498)" fill="#fff"/>
            </g>
            <g id="Group_225" data-name="Group 225" transform="translate(4.513 9.504)">
              <path id="Path_837" data-name="Path 837" d="M183.086,149.881h-.931V128.96a7.694,7.694,0,0,0-7.7-7.677H159a8.622,8.622,0,0,1-8.622-8.6V92.416h.925v20.267a7.7,7.7,0,0,0,7.7,7.678h15.472a8.617,8.617,0,0,1,8.621,8.6Z" transform="translate(-150.377 -92.416)" fill="#fff"/>
            </g>
          </g>
          <g id="Group_236" data-name="Group 236">
            <g id="Group_227" data-name="Group 227" transform="translate(68.754 6.888)">
              <path id="Path_838" data-name="Path 838" d="M61.172,97.124a4.982,4.982,0,1,1,5.006-4.982A4.983,4.983,0,0,1,61.172,97.124Zm0-9.059a4.069,4.069,0,1,0,4.081,4.068A4.069,4.069,0,0,0,61.172,88.065Z" transform="translate(-56.203 -87.161)" fill="#fff"/>
            </g>
            <g id="Group_228" data-name="Group 228" transform="translate(105.308 22.387)">
              <path id="Path_839" data-name="Path 839" d="M82.585,106.775a4.982,4.982,0,1,1,5-4.982A4.986,4.986,0,0,1,82.585,106.775Zm0-9.059a4.069,4.069,0,1,0,4.079,4.07A4.07,4.07,0,0,0,82.585,97.716Z" transform="translate(-77.613 -96.812)" fill="#fff"/>
            </g>
            <g id="Group_229" data-name="Group 229" transform="translate(187.348)">
              <path id="Path_840" data-name="Path 840" d="M130.638,92.835a4.982,4.982,0,1,1,5-4.982A4.986,4.986,0,0,1,130.638,92.835Zm0-9.059a4.069,4.069,0,1,0,4.079,4.07A4.074,4.074,0,0,0,130.638,83.776Z" transform="translate(-125.666 -82.872)" fill="#fff"/>
            </g>
            <g id="Group_230" data-name="Group 230" transform="translate(213.163 63.434)">
              <path id="Path_841" data-name="Path 841" d="M144.529,129.744a3.687,3.687,0,1,1,3.7-3.687A3.69,3.69,0,0,1,144.529,129.744Zm0-6.694a3,3,0,1,0,3.014,3,3.007,3.007,0,0,0-3.014-3Z" transform="translate(-140.843 -122.371)" fill="#fff"/>
            </g>
            <g id="Group_231" data-name="Group 231" transform="translate(0 49.726)">
              <path id="Path_842" data-name="Path 842" d="M20.9,123.8a4.982,4.982,0,1,1,5-4.982A4.985,4.985,0,0,1,20.9,123.8Zm0-9.059a4.07,4.07,0,1,0,4.079,4.07A4.071,4.071,0,0,0,20.9,114.739Z" transform="translate(-15.932 -113.835)" fill="#fff"/>
            </g>
            <g id="Group_232" data-name="Group 232" transform="translate(356.177 56.361)">
              <path id="Path_843" data-name="Path 843" d="M229.523,127.93a4.982,4.982,0,1,1,5-4.982A4.984,4.984,0,0,1,229.523,127.93Zm0-9.061a4.07,4.07,0,1,0,4.081,4.07,4.073,4.073,0,0,0-4.081-4.07Z" transform="translate(-224.553 -117.967)" fill="#fff"/>
            </g>
            <g id="Group_233" data-name="Group 233" transform="translate(341.388 96.609)">
              <path id="Path_844" data-name="Path 844" d="M220.314,152.991a4.982,4.982,0,1,1,5-4.982A4.983,4.983,0,0,1,220.314,152.991Zm0-9.059A4.069,4.069,0,1,0,224.394,148,4.069,4.069,0,0,0,220.314,143.932Z" transform="translate(-215.344 -143.028)" fill="#fff"/>
            </g>
            <g id="Group_234" data-name="Group 234" transform="translate(11.937 94.706)">
              <path id="Path_845" data-name="Path 845" d="M26.407,147.933a3.045,3.045,0,1,1,3.053-3.045A3.046,3.046,0,0,1,26.407,147.933Zm0-5.526A2.491,2.491,0,1,0,28.9,144.9h0a2.492,2.492,0,0,0-2.494-2.491Z" transform="translate(-23.365 -141.843)" fill="#fff"/>
            </g>
            <g id="Group_235" data-name="Group 235" transform="translate(37.392 16.391)">
              <path id="Path_846" data-name="Path 846" d="M40.14,150.546h-.925V129.623a8.621,8.621,0,0,1,8.621-8.6H63.308a7.7,7.7,0,0,0,7.7-7.675V93.078h.922v20.271a8.617,8.617,0,0,1-8.621,8.6H47.837a7.7,7.7,0,0,0-7.7,7.678Z" transform="translate(-39.215 -93.078)" fill="#fff"/>
            </g>
          </g>
          <g id="Group_239" data-name="Group 239" transform="translate(147.747 26.661)">
            <g id="Group_237" data-name="Group 237" transform="translate(15.056)">
              <path id="Path_847" data-name="Path 847" d="M116.575,109.436a4.982,4.982,0,1,1,5-4.982A4.982,4.982,0,0,1,116.575,109.436Zm0-9.058a4.07,4.07,0,1,0,4.079,4.07A4.071,4.071,0,0,0,116.575,100.379Z" transform="translate(-111.605 -99.473)" fill="#fff"/>
            </g>
            <g id="Group_238" data-name="Group 238" transform="translate(0 9.504)">
              <path id="Path_848" data-name="Path 848" d="M114.095,134.263H102.23v-.922h11.865a7.7,7.7,0,0,0,7.7-7.678V105.391h.923V125.66A8.619,8.619,0,0,1,114.095,134.263Z" transform="translate(-102.23 -105.391)" fill="#fff"/>
            </g>
          </g>
        </g>
        <g id="Group_333" data-name="Group 333" transform="translate(8.698 26.474)">
          <g id="Group_264" data-name="Group 264" transform="translate(4.643 94.341)">
            <g id="Group_262" data-name="Group 262" transform="translate(32.795)">
              <path id="Rectangle_62" data-name="Rectangle 62" d="M58.118,158.1H297.112c7.432,0,13.458,5.541,13.458,12.376V301.349c0,6.835-6.026,12.374-13.458,12.374H58.118c-7.432,0-13.458-5.539-13.458-12.374V170.477C44.66,163.642,50.686,158.1,58.118,158.1Z" transform="translate(-44.66 -158.101)" fill="#0e2470"/>
              <rect id="Rectangle_63" data-name="Rectangle 63" width="260.369" height="130.28" transform="translate(2.771 11.516)" fill="#d1eef8"/>
              <rect id="Rectangle_64" data-name="Rectangle 64" width="122.053" height="130.28" transform="translate(2.771 11.516)" fill="#fef3f3"/>
              <g id="Group_247" data-name="Group 247" transform="translate(16.51 35.453)">
                <g id="Group_241" data-name="Group 241">
                  <rect id="Rectangle_65" data-name="Rectangle 65" width="77.127" height="1.843" fill="#cde2e5"/>
                </g>
                <g id="Group_242" data-name="Group 242" transform="translate(0 6.676)">
                  <rect id="Rectangle_66" data-name="Rectangle 66" width="93.798" height="2.032" fill="#cde2e5"/>
                </g>
                <g id="Group_243" data-name="Group 243" transform="translate(0 13.448)">
                  <rect id="Rectangle_67" data-name="Rectangle 67" width="61.732" height="2.032" fill="#cde2e5"/>
                  <rect id="Rectangle_68" data-name="Rectangle 68" width="24.212" height="2.032" transform="translate(69.584)" fill="#cde2e5"/>
                  <line id="Line_32" data-name="Line 32" x1="93.798" transform="translate(0 2.032)" fill="none"/>
                </g>
                <g id="Group_244" data-name="Group 244" transform="translate(0 20.218)">
                  <rect id="Rectangle_69" data-name="Rectangle 69" width="93.798" height="2.032" fill="#cde2e5"/>
                </g>
                <g id="Group_245" data-name="Group 245" transform="translate(0 26.99)">
                  <rect id="Rectangle_70" data-name="Rectangle 70" width="93.798" height="2.032" fill="#cde2e5"/>
                </g>
                <g id="Group_246" data-name="Group 246" transform="translate(0 33.76)">
                  <rect id="Rectangle_71" data-name="Rectangle 71" width="70.551" height="2.032" transform="translate(23.247)" fill="#cde2e5"/>
                  <rect id="Rectangle_72" data-name="Rectangle 72" width="16.165" height="2.032" fill="#cde2e5"/>
                </g>
              </g>
              <g id="Group_254" data-name="Group 254" transform="translate(16.51 83.332)">
                <g id="Group_248" data-name="Group 248">
                  <rect id="Rectangle_73" data-name="Rectangle 73" width="77.127" height="1.843" fill="#cde2e5"/>
                </g>
                <g id="Group_249" data-name="Group 249" transform="translate(0 6.676)">
                  <rect id="Rectangle_74" data-name="Rectangle 74" width="93.798" height="2.032" fill="#cde2e5"/>
                </g>
                <g id="Group_250" data-name="Group 250" transform="translate(0 13.448)">
                  <rect id="Rectangle_75" data-name="Rectangle 75" width="24.52" height="2.032" transform="translate(69.275)" fill="#cde2e5"/>
                  <rect id="Rectangle_76" data-name="Rectangle 76" width="14.626" height="2.032" fill="#cde2e5"/>
                  <rect id="Rectangle_77" data-name="Rectangle 77" width="37.871" height="2.032" transform="translate(22.939)" fill="#cde2e5"/>
                </g>
                <g id="Group_251" data-name="Group 251" transform="translate(0 20.218)">
                  <rect id="Rectangle_78" data-name="Rectangle 78" width="93.798" height="2.032" fill="#cde2e5"/>
                </g>
                <g id="Group_252" data-name="Group 252" transform="translate(0 26.99)">
                  <rect id="Rectangle_79" data-name="Rectangle 79" width="77.743" height="2.032" fill="#cde2e5"/>
                  <rect id="Rectangle_80" data-name="Rectangle 80" width="9.127" height="2.032" transform="translate(84.671)" fill="#cde2e5"/>
                </g>
                <g id="Group_253" data-name="Group 253" transform="translate(0 33.76)">
                  <rect id="Rectangle_81" data-name="Rectangle 81" width="93.798" height="2.032" fill="#cde2e5"/>
                </g>
              </g>
              <g id="Group_261" data-name="Group 261" transform="translate(155.571 83.332)">
                <g id="Group_255" data-name="Group 255">
                  <rect id="Rectangle_82" data-name="Rectangle 82" width="77.127" height="1.843" fill="#cde2e5"/>
                </g>
                <g id="Group_256" data-name="Group 256" transform="translate(0 6.676)">
                  <rect id="Rectangle_83" data-name="Rectangle 83" width="61.776" height="2.032" transform="translate(32.021)" fill="#cde2e5"/>
                  <rect id="Rectangle_84" data-name="Rectangle 84" width="23.553" height="2.032" fill="#cde2e5"/>
                </g>
                <g id="Group_257" data-name="Group 257" transform="translate(0 13.448)">
                  <rect id="Rectangle_85" data-name="Rectangle 85" width="93.798" height="2.032" fill="#cde2e5"/>
                </g>
                <g id="Group_258" data-name="Group 258" transform="translate(0 20.218)">
                  <rect id="Rectangle_86" data-name="Rectangle 86" width="42.489" height="2.032" fill="#cde2e5"/>
                  <rect id="Rectangle_87" data-name="Rectangle 87" width="43.148" height="2.032" transform="translate(50.647)" fill="#cde2e5"/>
                </g>
                <g id="Group_259" data-name="Group 259" transform="translate(0 26.99)">
                  <rect id="Rectangle_88" data-name="Rectangle 88" width="93.798" height="2.032" fill="#cde2e5"/>
                </g>
                <g id="Group_260" data-name="Group 260" transform="translate(0 33.76)">
                  <rect id="Rectangle_89" data-name="Rectangle 89" width="65.471" height="2.032" transform="translate(28.325)" fill="#cde2e5"/>
                  <rect id="Rectangle_90" data-name="Rectangle 90" width="20.475" height="2.032" fill="#cde2e5"/>
                </g>
              </g>
            </g>
            <g id="Group_263" data-name="Group 263" transform="translate(0 154.595)">
              <path id="Rectangle_91" data-name="Rectangle 91" d="M24.242,254.364H355.734c0,11.948-10.356,21.632-23.132,21.632H47.374c-12.776,0-23.132-9.684-23.132-21.632Z" transform="translate(-24.237 -254.364)" fill="#0e2470"/>
              <path id="Path_849" data-name="Path 849" d="M355.694,261.305c.014-.265.041-.533.041-.793v-6.148H24.239v6.148c0,.268.027.533.043.793Z" transform="translate(-24.239 -254.364)" fill="#042e87"/>
            </g>
            <path id="Path_850" data-name="Path 850" d="M37.492,263.2a2.888,2.888,0,1,1-2.892-2.878h0a2.882,2.882,0,0,1,2.888,2.876Z" transform="translate(-19.708 -96.157)" fill="#070809"/>
            <path id="Path_851" data-name="Path 851" d="M43.89,263.2A2.886,2.886,0,1,1,41,260.324h0A2.882,2.882,0,0,1,43.89,263.2Z" transform="translate(-15.829 -96.157)" fill="#070809"/>
            <rect id="Rectangle_92" data-name="Rectangle 92" width="14.779" height="4.299" transform="translate(301.515 164.608)" fill="#070809"/>
          </g>
          <g id="Group_279" data-name="Group 279" transform="translate(87.966 84.86)">
            <g id="Group_267" data-name="Group 267" transform="translate(0.003)">
              <g id="Group_265" data-name="Group 265">
                <path id="Path_852" data-name="Path 852" d="M73.565,345.858a1.228,1.228,0,0,1-1.229-1.225V153.424a1.229,1.229,0,0,1,2.459,0V344.632A1.229,1.229,0,0,1,73.565,345.858Z" transform="translate(-72.336 -152.197)" fill="#ed5348"/>
              </g>
              <g id="Group_266" data-name="Group 266" transform="translate(28.071)">
                <path id="Path_853" data-name="Path 853" d="M91.044,345.858a1.227,1.227,0,0,1-1.229-1.225V153.424a1.229,1.229,0,0,1,2.457,0V344.632A1.227,1.227,0,0,1,91.044,345.858Z" transform="translate(-89.815 -152.197)" fill="#ed5348"/>
              </g>
            </g>
            <g id="Group_278" data-name="Group 278" transform="translate(0 14.198)">
              <g id="Group_268" data-name="Group 268" transform="translate(0.005)">
                <path id="Path_854" data-name="Path 854" d="M101.636,163.49H73.564a1.226,1.226,0,1,1,0-2.452h28.071a1.226,1.226,0,1,1,0,2.452Z" transform="translate(-72.337 -161.038)" fill="#ed5348"/>
              </g>
              <g id="Group_269" data-name="Group 269" transform="translate(0.005 18.181)">
                <path id="Path_855" data-name="Path 855" d="M101.636,174.811H73.564a1.226,1.226,0,1,1,0-2.452h28.071a1.226,1.226,0,1,1,0,2.452Z" transform="translate(-72.337 -172.359)" fill="#ed5348"/>
              </g>
              <g id="Group_270" data-name="Group 270" transform="translate(0 36.362)">
                <path id="Path_856" data-name="Path 856" d="M101.638,186.131H73.566a1.225,1.225,0,1,1-.008-2.451h28.079a1.225,1.225,0,1,1,.01,2.451h-.008Z" transform="translate(-72.334 -183.68)" fill="#ed5348"/>
              </g>
              <g id="Group_271" data-name="Group 271" transform="translate(0 54.544)">
                <path id="Path_857" data-name="Path 857" d="M101.638,197.452H73.566A1.225,1.225,0,1,1,73.558,195h28.079a1.225,1.225,0,1,1,.01,2.451h-.008Z" transform="translate(-72.334 -195.001)" fill="#ed5348"/>
              </g>
              <g id="Group_272" data-name="Group 272" transform="translate(0 72.72)">
                <path id="Path_858" data-name="Path 858" d="M101.638,208.771H73.566a1.226,1.226,0,1,1-.008-2.452h28.079a1.226,1.226,0,1,1,.01,2.452h-.008Z" transform="translate(-72.334 -206.319)" fill="#ed5348"/>
              </g>
              <g id="Group_273" data-name="Group 273" transform="translate(0 90.906)">
                <path id="Path_859" data-name="Path 859" d="M101.638,220.1H73.566a1.226,1.226,0,1,1-.008-2.452h28.079a1.226,1.226,0,1,1,.01,2.452h-.008Z" transform="translate(-72.334 -217.643)" fill="#ed5348"/>
              </g>
              <g id="Group_274" data-name="Group 274" transform="translate(0 109.087)">
                <path id="Path_860" data-name="Path 860" d="M101.638,231.416H73.566a1.226,1.226,0,1,1-.008-2.452h28.079a1.226,1.226,0,1,1,.01,2.452h-.008Z" transform="translate(-72.334 -228.964)" fill="#ed5348"/>
              </g>
              <g id="Group_275" data-name="Group 275" transform="translate(0 127.268)">
                <path id="Path_861" data-name="Path 861" d="M101.638,242.736H73.566a1.225,1.225,0,1,1-.008-2.451h28.079a1.225,1.225,0,1,1,.01,2.451h-.008Z" transform="translate(-72.334 -240.285)" fill="#ed5348"/>
              </g>
              <g id="Group_276" data-name="Group 276" transform="translate(0 145.448)">
                <path id="Path_862" data-name="Path 862" d="M101.638,254.057H73.566a1.226,1.226,0,1,1-.008-2.452h28.079a1.226,1.226,0,1,1,.01,2.452h-.008Z" transform="translate(-72.334 -251.605)" fill="#ed5348"/>
              </g>
              <g id="Group_277" data-name="Group 277" transform="translate(0 163.629)">
                <path id="Path_863" data-name="Path 863" d="M101.638,265.378H73.566a1.226,1.226,0,1,1-.008-2.452h28.079a1.226,1.226,0,1,1,.01,2.452h-.008Z" transform="translate(-72.334 -262.926)" fill="#ed5348"/>
              </g>
            </g>
          </g>
          <g id="Group_297" data-name="Group 297" transform="translate(152.014)">
            <g id="Group_280" data-name="Group 280" transform="translate(33.043 123.822)">
              <path id="Path_864" data-name="Path 864" d="M129.68,177.465l-.577,3.308s-4.07-2.06-4.229-2.653a12.02,12.02,0,0,0,.654-1.662Z" transform="translate(-122.532 -176.458)" fill="#f8986f"/>
              <path id="Path_865" data-name="Path 865" d="M125.878,183.215s7.147,5.48,8.727,6.652,4.288-2.3,1.59-4.6-4.606-5.219-4.529-6.565c-.507-1.439-2.105.159-2.581.4a2.941,2.941,0,0,1-2.817-2.456,10.772,10.772,0,0,0-2.851,4S123.416,181.33,125.878,183.215Z" transform="translate(-123.415 -176.346)" fill="#ed5348"/>
              <path id="Path_866" data-name="Path 866" d="M135.91,188.1c-1.588-1.174-9.583-7.273-9.583-7.273a13.436,13.436,0,0,1-2.346-2.409,12.824,12.824,0,0,0-.565,1.156s0,.687,2.462,2.573c0,0,7.145,5.48,8.727,6.654a1.533,1.533,0,0,0,2.081-.535A.914.914,0,0,1,135.91,188.1Z" transform="translate(-123.416 -175.273)" fill="#d6d5d5"/>
            </g>
            <g id="Group_281" data-name="Group 281" transform="translate(15.55 123.822)">
              <path id="Path_867" data-name="Path 867" d="M116.744,177.465l.577,3.308s4.07-2.06,4.229-2.653a11.831,11.831,0,0,1-.655-1.662Z" transform="translate(-109.967 -176.458)" fill="#f8986f"/>
              <path id="Path_868" data-name="Path 868" d="M123.986,183.215s-7.147,5.48-8.727,6.652-4.288-2.3-1.588-4.6,4.608-5.219,4.529-6.565c.507-1.439,2.1.159,2.581.4a2.94,2.94,0,0,0,2.817-2.456,10.772,10.772,0,0,1,2.851,4S126.446,181.33,123.986,183.215Z" transform="translate(-112.524 -176.346)" fill="#ed5348"/>
              <path id="Path_869" data-name="Path 869" d="M113.709,188.1c1.588-1.174,9.581-7.273,9.581-7.273a13.482,13.482,0,0,0,2.345-2.409,12.414,12.414,0,0,1,.565,1.156s0,.687-2.462,2.573c0,0-7.147,5.48-8.728,6.654a1.528,1.528,0,0,1-2.08-.535A.91.91,0,0,0,113.709,188.1Z" transform="translate(-112.278 -175.273)" fill="#d6d5d5"/>
            </g>
            <path id="Path_870" data-name="Path 870" d="M146.6,158.6c-1.521-3.591-8.42-3.535-8.42-3.535l-8.984.422s-.031.153-.074.4c-.042-.249-.072-.4-.072-.4l-8.985-.422s-7.269-.162-8.789,3.429,7.853,31.527,8.789,32.373a34.234,34.234,0,0,0,4.537-1.057s-3.6-20.818-5.4-25.785c1.8-2.746,9-2.391,9.846-2.669a.344.344,0,0,0,.072-.051.4.4,0,0,0,.074.051c.848.273,8.215-.337,10.013,2.409-1.8,4.964-5.568,26.041-5.568,26.041a34.112,34.112,0,0,0,4.537,1.058C139.118,190.013,148.121,162.181,146.6,158.6Z" transform="translate(-97.832 -65.601)" fill="#121e54"/>
            <g id="Group_293" data-name="Group 293" transform="translate(16.435 42.38)">
              <g id="Group_282" data-name="Group 282" transform="translate(0 23.979)">
                <path id="Path_871" data-name="Path 871" d="M115.6,140.677s-4.606,9.637-1.376,17.243,6.52,8.134,6.52,8.134l1.07-6.631s-7.42-3.978-1.916-14.768A4.346,4.346,0,0,0,115.6,140.677Z" transform="translate(-113.075 -140.677)" fill="#f8986f"/>
                <path id="Path_872" data-name="Path 872" d="M132.258,140.677s4.606,9.637,1.376,17.243-6.52,8.134-6.52,8.134l-1.07-6.631s7.418-3.978,1.916-14.768A4.346,4.346,0,0,1,132.258,140.677Z" transform="translate(-105.216 -140.677)" fill="#f8986f"/>
              </g>
              <g id="Group_283" data-name="Group 283" transform="translate(0.097 15.509)">
                <path id="Path_873" data-name="Path 873" d="M113.135,146.47a11.727,11.727,0,0,1,6.056,3.541A55.431,55.431,0,0,1,125,135.655s-6.976.069-8.905,5.232A24.688,24.688,0,0,1,113.135,146.47Z" transform="translate(-113.135 -135.25)" fill="#ed5348"/>
                <path id="Path_874" data-name="Path 874" d="M135.668,146.487a11.729,11.729,0,0,0-6.058,3.543,55.363,55.363,0,0,0-5.814-14.357,9.06,9.06,0,0,1,8.483,4.176C134.522,143.816,135.668,146.487,135.668,146.487Z" transform="translate(-106.674 -135.263)" fill="#ed5348"/>
                <path id="Path_875" data-name="Path 875" d="M125.449,135.474s-7.087-.906-8.386,3.763,1.169,20.341,1.169,20.341h14.174s3.251-13.864,1.884-20.483C133.577,135.474,127.922,135.5,125.449,135.474Z" transform="translate(-110.984 -135.403)" fill="#ed5348"/>
              </g>
              <g id="Group_292" data-name="Group 292" transform="translate(9.089)">
                <path id="Path_876" data-name="Path 876" d="M120.922,133.027a11.328,11.328,0,0,1-.143,4.256c-.336,1.068-.7,3.218,2.525,3.239,2.581.016,3.061-.983,3.112-2.272,0-.122-.3-.984-.406-1.4a15.21,15.21,0,0,1-.239-3.883C124.4,132.879,120.922,133.027,120.922,133.027Z" transform="translate(-117.624 -121.388)" fill="#f7a89b"/>
                <g id="Group_291" data-name="Group 291">
                  <path id="Path_877" data-name="Path 877" d="M128.865,132.735a4.809,4.809,0,1,1-4.71-5.772A5.322,5.322,0,0,1,128.865,132.735Z" transform="translate(-118.364 -125.009)" fill="#f7a89b"/>
                  <g id="Group_284" data-name="Group 284" transform="translate(0 6.922)">
                    <path id="Path_878" data-name="Path 878" d="M125.156,130.592s.483-.89,1.184-.376-.284,2.545-.726,2.576-.673-.681-.647-.85S125.156,130.592,125.156,130.592Z" transform="translate(-114.959 -130.056)" fill="#f7a89b"/>
                    <path id="Path_879" data-name="Path 879" d="M120.163,130.592s-.485-.89-1.185-.376.287,2.545.727,2.576.673-.681.646-.85S120.163,130.592,120.163,130.592Z" transform="translate(-118.734 -130.056)" fill="#f7a89b"/>
                  </g>
                  <g id="Group_289" data-name="Group 289" transform="translate(2.926 6.373)">
                    <g id="Group_286" data-name="Group 286" transform="translate(4.153)">
                      <g id="Group_285" data-name="Group 285" transform="translate(0.372 0.956)">
                        <path id="Path_880" data-name="Path 880" d="M123.989,130.692a.312.312,0,1,1-.3-.382A.355.355,0,0,1,123.989,130.692Z" transform="translate(-123.374 -130.31)" fill="#121e54"/>
                        <path id="Path_881" data-name="Path 881" d="M123.7,130.692a.107.107,0,0,1-.124.084.106.106,0,0,1-.084-.124.1.1,0,0,1,.1-.085.115.115,0,0,1,.1.124Z" transform="translate(-123.304 -130.154)" fill="#fff"/>
                      </g>
                      <path id="Path_882" data-name="Path 882" d="M124.918,130.591a2.173,2.173,0,0,0-1.171-.856c-.686-.132-.713.424-.454.482A6.211,6.211,0,0,1,124.918,130.591Z" transform="translate(-123.142 -129.714)" fill="#121e54"/>
                    </g>
                    <g id="Group_288" data-name="Group 288">
                      <g id="Group_287" data-name="Group 287" transform="translate(0.79 0.956)">
                        <path id="Path_883" data-name="Path 883" d="M121.049,130.692a.312.312,0,1,0,.3-.382A.355.355,0,0,0,121.049,130.692Z" transform="translate(-121.048 -130.31)" fill="#121e54"/>
                        <path id="Path_884" data-name="Path 884" d="M121.184,130.692a.106.106,0,1,0,.207-.04.105.105,0,0,0-.1-.085.114.114,0,0,0-.1.124Z" transform="translate(-120.966 -130.154)" fill="#fff"/>
                      </g>
                      <path id="Path_885" data-name="Path 885" d="M120.556,130.591a2.173,2.173,0,0,1,1.171-.856c.686-.132.713.424.454.482A6.21,6.21,0,0,0,120.556,130.591Z" transform="translate(-120.556 -129.714)" fill="#121e54"/>
                    </g>
                  </g>
                  <g id="Group_290" data-name="Group 290" transform="translate(0.003)">
                    <path id="Path_886" data-name="Path 886" d="M129.387,129.245c-.483-1.021-.859-1.037-.859-1.037s0-2.891-3.45-2.407c-2.529.642-2.59,1.664-5.091,2.333a2.967,2.967,0,0,1-1.086.161,2.936,2.936,0,0,0,1.221,1.021c-.662.19-1.386-.5-1.386-.5a1.955,1.955,0,0,0,.859,1.575,6.354,6.354,0,0,0-.05,2.3,4.907,4.907,0,0,1,.562,1.559c.109.787-.082,1.455.08,2.367a9.365,9.365,0,0,0,1.885,3.409,4.319,4.319,0,0,0,4.238.679c1.535-.43,2.276-3.069,2.571-3.737a18.748,18.748,0,0,0,.215-2.924,6.745,6.745,0,0,1,.456-1.368A5.591,5.591,0,0,0,129.387,129.245Zm-.78,3.5a7.151,7.151,0,0,0-.05.89,9.982,9.982,0,0,1-.021,1.386c-.141.711-.8,2.2-2.064,1.556a7.146,7.146,0,0,0-4.612-.071c-1.1.376-.97-1.31-1.184-1.935a2.273,2.273,0,0,1,0-1.349c.051-.382.7-.89.7-2,1.219.275,4.31.729,5.878-1.225a3.121,3.121,0,0,0,1.264,2.261c.026.039.051.072.079.106a1.526,1.526,0,0,1,.013.373Z" transform="translate(-118.736 -125.746)" fill="#121e54"/>
                    <path id="Path_887" data-name="Path 887" d="M121.243,132.743a19.556,19.556,0,0,0,3.654,0C123.93,134.052,122.38,134.7,121.243,132.743Z" transform="translate(-117.217 -121.506)" fill="#fff"/>
                  </g>
                </g>
              </g>
            </g>
            <g id="Group_296" data-name="Group 296">
              <g id="Group_294" data-name="Group 294" transform="translate(2.191)">
                <path id="Rectangle_93" data-name="Rectangle 93" d="M115.236,137.278h36.325a11.027,11.027,0,0,1,11.033,11.02v8.8a11.027,11.027,0,0,1-11.033,11.02H115.236a11.025,11.025,0,0,1-11.031-11.02v-8.8A11.025,11.025,0,0,1,115.236,137.278Z" transform="translate(-104.205 -76.378)" fill="#7b7ab8"/>
                <g id="JAVA" transform="translate(12.889 69.155)" style="isolation: isolate">
                  <text id="JAVA-2" data-name="JAVA" transform="translate(0 2)" fill="#fff" font-size="2" font-family="Montserrat-SemiBold, Montserrat" font-weight="600" style="isolation: isolate"><tspan x="0" y="0">JAVA</tspan></text>
                </g>
                <g id="C_" data-name="C " transform="translate(116.676)" style="isolation: isolate">
                  <text id="C_2" data-name="C++" transform="translate(0 16)" fill="#fff" font-size="17" font-family="Montserrat-SemiBold, Montserrat" font-weight="600" style="isolation: isolate"><tspan x="0" y="0">C++</tspan></text>
                </g>
              </g>
              <g id="Group_295" data-name="Group 295" transform="translate(0 74.496)">
                <path id="Path_888" data-name="Path 888" d="M141.477,145.744a7.577,7.577,0,0,1,2.189,4.553c-.053,2.313-2.806,3.735-3.758,3.024a2.338,2.338,0,0,1,.106-3.692c1.07-.769,1.31-.988,1.31-.988Z" transform="translate(-80.895 -145.744)" fill="#f7a89b"/>
                <path id="Path_889" data-name="Path 889" d="M105.032,145.744a7.579,7.579,0,0,0-2.191,4.553c.055,2.313,2.807,3.735,3.76,3.024a2.34,2.34,0,0,0-.106-3.692c-1.068-.769-1.31-.988-1.31-.988Z" transform="translate(-102.841 -145.744)" fill="#f7a89b"/>
              </g>
            </g>
          </g>
          <g id="Group_309" data-name="Group 309" transform="translate(181.333 116.526)">
            <g id="Group_308" data-name="Group 308">
              <path id="Rectangle_94" data-name="Rectangle 94" d="M161.661,171.915h39.6a12.02,12.02,0,0,1,12.027,12.013v9.588a12.021,12.021,0,0,1-12.027,12.014h-39.6a12.021,12.021,0,0,1-12.027-12.014v-9.588A12.02,12.02,0,0,1,161.661,171.915Z" transform="translate(-103.805 -171.915)" fill="#ed5348"/>
              <g id="HTML" transform="translate(53.131 6.404)" style="isolation: isolate">
                <text id="HTML-2" data-name="HTML" transform="translate(0 6)" fill="#fff" font-size="6" font-family="Montserrat-SemiBold, Montserrat" font-weight="600" style="isolation: isolate"><tspan x="0" y="0">HTML</tspan></text>
              </g>
              <g id="Group_307" data-name="Group 307" transform="translate(0 21.707)">
                <g id="Group_298" data-name="Group 298" transform="translate(10.634)">
                  <path id="Path_890" data-name="Path 890" d="M129.726,197.756a7.5,7.5,0,0,0,.711-3.538c3.083-.257,5.449-.308,5.449-.308A4.93,4.93,0,0,0,137.274,198,10.309,10.309,0,0,1,129.726,197.756Z" transform="translate(-126.503 -180.294)" fill="#f8986f"/>
                  <path id="Path_891" data-name="Path 891" d="M135.5,186.9a3.989,3.989,0,0,1,1.959,2.358,5.443,5.443,0,0,1,.308,2.563c.051.257,1.028,2.358,1.028,2.358l-.713.461s-.257,1.958-.308,2.512-.711-.615-1.388,1.384c-2.056,1.742-5.449.308-5.449.308a35.358,35.358,0,0,1-1.959-6.972C128.51,188.592,131.953,184.747,135.5,186.9Z" transform="translate(-126.983 -184.92)" fill="#f8986f"/>
                  <path id="Path_892" data-name="Path 892" d="M130.145,187.578s1.388-2.807,5.859-2,5.934.032,6.056,1.209-2.236,1.712-2.236,1.712c.535,1.068-1.5,2.807-2.158,2.769a4.854,4.854,0,0,0-.5,1.5,4.716,4.716,0,0,0,.193,1.577H136.7s-.463-1.808-1.31-1.269-.231,2.115-.193,2.961a3.226,3.226,0,0,1-6.283,1.039C127.91,195,126.328,188.962,130.145,187.578Z" transform="translate(-127.719 -185.431)" fill="#28211a"/>
                </g>
                <g id="Group_305" data-name="Group 305" transform="translate(0 17.182)">
                  <g id="Group_303" data-name="Group 303" transform="translate(0.266)">
                    <g id="Group_300" data-name="Group 300" transform="translate(21.213 86.756)">
                      <g id="Group_299" data-name="Group 299">
                        <path id="Path_893" data-name="Path 893" d="M134.674,250.52l.228,3.05h2.643v-3.419Z" transform="translate(-134.349 -250.151)" fill="#f3bb83"/>
                        <path id="Path_894" data-name="Path 894" d="M134.5,251.217s-.063,4.212,0,4.995c2.561.042,6.445.124,6.568,0s.355-3.239-1.818-2.846c-1.156.027-1.209-2.155-1.209-2.155Z" transform="translate(-134.472 -249.509)" fill="#ed5348"/>
                        <path id="Path_895" data-name="Path 895" d="M134.474,253.535c0,.575.008,1.054.026,1.267,2.562.042,6.445.125,6.568,0a2.983,2.983,0,0,0,.022-1.267Z" transform="translate(-134.47 -248.1)" fill="#efefef"/>
                      </g>
                    </g>
                    <g id="Group_302" data-name="Group 302" transform="translate(6.851 86.756)">
                      <g id="Group_301" data-name="Group 301">
                        <path id="Path_896" data-name="Path 896" d="M130.567,250.52l-.228,3.05H127.7v-3.419Z" transform="translate(-124.216 -250.151)" fill="#f3bb83"/>
                        <path id="Path_897" data-name="Path 897" d="M132.175,251.217s.063,4.212,0,4.995c-2.562.042-6.445.124-6.57,0s-.355-3.239,1.82-2.846c1.156.027,1.208-2.155,1.208-2.155Z" transform="translate(-125.528 -249.509)" fill="#ed5348"/>
                        <path id="Path_898" data-name="Path 898" d="M125.58,253.56a2.934,2.934,0,0,0,.029,1.229c.124.125,4.007.042,6.568,0,.016-.209.024-.67.027-1.229Z" transform="translate(-125.529 -248.085)" fill="#efefef"/>
                      </g>
                    </g>
                    <path id="Path_899" data-name="Path 899" d="M144.555,241.072c-.125-11.99-1.212-26.155-1.212-26.155h-7.8l-7.773.861s-1.119,13.305-1.248,25.294,1.054,31.294,1.054,31.294h4.4s1.983-18.191,1.6-26.287a92.471,92.471,0,0,1,1.959-19.05,92.471,92.471,0,0,1,1.959,19.05c-.373,8.1,1.6,26.287,1.6,26.287h4.4S144.677,253.062,144.555,241.072Z" transform="translate(-118.085 -184.746)" fill="#121e54"/>
                    <path id="Path_900" data-name="Path 900" d="M121.263,215.518s7.554-9.209,15.869-13.153a3.077,3.077,0,0,1,1.987,2.835c-.2.247-10.208,10.357-10.208,10.357S123.911,219.208,121.263,215.518Z" transform="translate(-121.263 -192.352)" fill="#ea3835"/>
                    <path id="Path_901" data-name="Path 901" d="M132.143,196.13a36.3,36.3,0,0,0,7.065,0,30.3,30.3,0,0,0,7.786.768s-.631,8.7-.569,9.625c-1.052,2.719-1.7,14.463-1.206,17.182s-1.734,4.078-3.594,4.575a83.621,83.621,0,0,1-13.631,0c-.745-.247-1.983-4.575-1.734-10.261a45.766,45.766,0,0,0-.642-10.045s.456-8.256.27-9.556C129.912,196.933,132.143,196.13,132.143,196.13Z" transform="translate(-118.625 -196.13)" fill="#ed5348"/>
                  </g>
                  <g id="Group_304" data-name="Group 304" transform="translate(0 2.285)">
                    <path id="Path_902" data-name="Path 902" d="M128.622,197.553s-6.533,15.615-7.339,18.6a2.85,2.85,0,0,0,4.678,3.026,56.016,56.016,0,0,0,2.924-7.889S131.283,199.663,128.622,197.553Z" transform="translate(-121.097 -197.553)" fill="#ed5348"/>
                  </g>
                </g>
                <g id="Group_306" data-name="Group 306" transform="translate(26.769 9.545)">
                  <path id="Path_903" data-name="Path 903" d="M157.57,197.72a5.324,5.324,0,0,0,1.424-1.731,14.21,14.21,0,0,0,.821-2.268s1.734.011,2.717.011c1.1,0,3.594-2.741,4.75-2.313s.077,3.077-2.08,5.038a35.057,35.057,0,0,1-5.166,3.692Z" transform="translate(-125.766 -191.375)" fill="#f8986f"/>
                  <path id="Path_904" data-name="Path 904" d="M139.629,197.456s13.161,7.118,15.674,5.993,13.683-8.242,13.683-8.242a5.545,5.545,0,0,1,4.01,2.827c-8.4,13.506-11.8,13.431-15.186,15.046s-15.319-3.795-19.249-5.6C136.282,202.517,139.629,197.456,139.629,197.456Z" transform="translate(-137.766 -189.052)" fill="#ed5348"/>
                </g>
              </g>
            </g>
          </g>
          <g id="Group_319" data-name="Group 319" transform="translate(55.301 44.059)">
            <g id="Group_317" data-name="Group 317">
              <g id="Group_315" data-name="Group 315" transform="translate(9.073)">
                <g id="Group_310" data-name="Group 310" transform="translate(17.886 14.248)">
                  <path id="Path_905" data-name="Path 905" d="M70.716,148.633s-1.98-9.631.243-12.191,4.757,1.863,5.489,3.666,1.974,7.164,1.974,7.164Z" transform="translate(-69.903 -135.663)" fill="#b3c643"/>
                </g>
                <g id="Group_314" data-name="Group 314">
                  <g id="Group_311" data-name="Group 311" transform="translate(7.656 31.311)">
                    <path id="Path_906" data-name="Path 906" d="M85.161,174.658a12.114,12.114,0,0,0,.067,3.605c.357,1.087,8.851,3.984,10.367,4.166s1.815-1.657.178-2.833a40.971,40.971,0,0,1-6.666-5.838C88.668,172.769,85.161,174.658,85.161,174.658Z" transform="translate(-50.49 -129.815)" fill="#9eb638"/>
                    <path id="Path_907" data-name="Path 907" d="M96.9,179.43c-.106.355-.406.565-.936.5-1.41-.178-9.369-2.871-10.773-4.124.022.4-.416,1.031-.324,1.307.357,1.087,9.372,3.944,10.888,4.126C96.787,181.365,97.219,180.329,96.9,179.43Z" transform="translate(-50.611 -128.4)" fill="#dfe0e9"/>
                    <path id="Path_908" data-name="Path 908" d="M63.885,148.638a7.566,7.566,0,0,0,3.363,8.786c5.333,3.764,21.478,8.349,21.512,9.666.156,6.228,9.048,24.361,9.048,24.361l4.758-1.319s-6.9-23.886-7.571-27.212S72.374,148.7,72.374,148.7l-3.3-2.337S65.042,145.644,63.885,148.638Z" transform="translate(-63.533 -146.288)" fill="#121e54"/>
                  </g>
                  <path id="Path_909" data-name="Path 909" d="M76.777,133.568a19.783,19.783,0,0,0-9.193-1.15c-4.718.686-7.837,18.425-8.325,23.025l-.493,4.6s-.1,1.569,5.505-1.667a13.738,13.738,0,0,1,10.983-1.2s6.666-15.869,6.713-17.153S76.777,133.568,76.777,133.568Z" transform="translate(-58.766 -123.457)" fill="#9eb638"/>
                  <g id="Group_312" data-name="Group 312" transform="translate(14.594)">
                    <path id="Path_910" data-name="Path 910" d="M79.074,136.772s5.843,1.152,5.708-1.592-3.607-4.336-3.607-4.336c1.351-.8-.8-3.236-2.618-2.439,0-1.59-4.052-3.04-4.208,1.007-1.547-1.322-3.141.153-3.522,2.354a35.915,35.915,0,0,0-.251,5.741Z" transform="translate(-66.217 -126.791)" fill="#28211a"/>
                    <path id="Path_911" data-name="Path 911" d="M78.961,130.03a11.872,11.872,0,0,1,2.634,2.931c.581,1.266-1.142,2.481-1.192,3.218s.32,1.469.21,1.675-.954.064-1.089.029a20.562,20.562,0,0,1-3.029,2.227c-1.068.392-1.5-.8-1.688-1.079s-3.186,2-3.464,2.613-2.642-1.309-3.138-2.345a3.455,3.455,0,0,1,.959-4.23c.278-.177,2.191-.711,2.629-.915s1.731-.668,1.813-.724-.6-1.874.252-2.46,1.212.877,1.172,1.452a1.118,1.118,0,0,1-.3.768l.461.426a5.533,5.533,0,0,1,1.213-1.59C76.922,131.737,79.305,133.218,78.961,130.03Z" transform="translate(-67.853 -124.829)" fill="#f8986f"/>
                  </g>
                  <g id="Group_313" data-name="Group 313" transform="translate(0.253 33.084)">
                    <path id="Path_912" data-name="Path 912" d="M73.415,179.53a12.142,12.142,0,0,0-.739,3.53c.111,1.14,7.742,5.847,9.18,6.361s2.138-1.214.811-2.721a40.932,40.932,0,0,1-5.2-7.171C77.247,178.463,73.415,179.53,73.415,179.53Z" transform="translate(-50.59 -128.204)" fill="#9eb638"/>
                    <path id="Path_913" data-name="Path 913" d="M82.765,187.627A47.271,47.271,0,0,1,72.9,180.9a1.234,1.234,0,0,0-.485,1.116c.111,1.14,8.158,5.973,9.6,6.486a1.125,1.125,0,0,0,1.423-.711,1.068,1.068,0,0,0,.05-.223A.712.712,0,0,1,82.765,187.627Z" transform="translate(-50.75 -127.085)" fill="#dfe0e9"/>
                    <path id="Path_914" data-name="Path 914" d="M59.589,150.664s-2.35,7.418,1.781,12.469,17.251,8.2,17.2,9.519c-.308,7.14,2.81,26.389,2.81,26.389h4.874s-.357-23.783-.108-27.165-13.322-15.9-13.322-15.9l-.323-8.5S62.984,146.6,59.589,150.664Z" transform="translate(-58.924 -147.392)" fill="#121e54"/>
                  </g>
                </g>
              </g>
              <g id="Group_316" data-name="Group 316" transform="translate(0 8.961)">
                <path id="Path_915" data-name="Path 915" d="M68.771,163.713a3.615,3.615,0,0,1-1.781-.022c-.072-.021-.143-.042-.207-.064a2.071,2.071,0,0,1-.954-.763c-.022-.034-5.984-12.947-6.265-13.615-.342-.8,7.262-8.7,7.262-8.7l-5.011-3.568s-9.771,10.32-8.6,13.127c.949,2.284,8.971,14.412,8.971,14.412.488.747,2.57,5.065,4.934,6.077s2.849-.8,2-1.972a5.981,5.981,0,0,1-1.672-3.024,1.016,1.016,0,0,1,.686-.434c.516-.09,1.51-.178,1.926-.829S70.292,163.339,68.771,163.713Z" transform="translate(-53.117 -129.577)" fill="#f8986f"/>
                <path id="Path_916" data-name="Path 916" d="M57.708,139.837s6.324-7.261,9.715-7.46,1.983,4.7,1.2,6.48-3.764,6.406-3.764,6.406Z" transform="translate(-50.334 -132.371)" fill="#b3c643"/>
              </g>
            </g>
            <path id="Rectangle_95" data-name="Rectangle 95" d="M66.908,138.434h27.26a5.785,5.785,0,0,1,5.788,5.781V163.3a5.784,5.784,0,0,1-5.788,5.781H66.908a5.783,5.783,0,0,1-5.786-5.781V144.215A5.784,5.784,0,0,1,66.908,138.434Z" transform="translate(-48.265 -119.736)" fill="#fef3f3"/>
            <g id="Group_318" data-name="Group 318" transform="translate(24.384 21.781)">
              <path id="Path_917" data-name="Path 917" d="M84.2,148.294c0,4.376-7.948,15.34-7.948,15.34S68.3,152.67,68.3,148.294a7.948,7.948,0,0,1,15.9,0Z" transform="translate(-68.3 -140.354)" fill="#ed5348"/>
              <ellipse id="Ellipse_20" data-name="Ellipse 20" cx="3.648" cy="3.639" rx="3.648" ry="3.639" transform="translate(4.3 3.999)" fill="#fef3f3"/>
            </g>
            <path id="Path_918" data-name="Path 918" d="M86.187,147.916a7.348,7.348,0,0,1,2.126,4.42c-.053,2.247-2.725,3.623-3.652,2.931a2.271,2.271,0,0,1-.307-3.2,2.34,2.34,0,0,1,.41-.387c1.037-.747,1.274-.959,1.274-.959Z" transform="translate(-34.503 -113.99)" fill="#f8986f"/>
            <path id="Path_919" data-name="Path 919" d="M66.35,154.856a3.615,3.615,0,0,1-1.781-.022c-.072-.021-.143-.042-.207-.064a2.063,2.063,0,0,1-.954-.763c0-.01-.459-.986-1.115-2.407H57.109c1.494,2.313,2.659,4.07,2.659,4.07.488.745,2.568,5.064,4.932,6.075s2.849-.8,2-1.971a5.985,5.985,0,0,1-1.672-3.026,1.019,1.019,0,0,1,.686-.434c.516-.09,1.51-.178,1.926-.827S67.872,154.482,66.35,154.856Z" transform="translate(-50.697 -111.758)" fill="#f8986f"/>
          </g>
          <path id="Path_920" data-name="Path 920" d="M222.167,239.733h-4.93a31.874,31.874,0,0,0-1.852-6.514l4.357-2.509a2.669,2.669,0,0,0,.984-3.646l0,0-2.316-4.009a2.673,2.673,0,0,0-3.649-.983l-.008,0-4.479,2.578A32.481,32.481,0,0,0,205.5,220l2.626-4.535a2.667,2.667,0,0,0-.976-3.646l0,0-4.02-2.313a2.672,2.672,0,0,0-3.652.968l0,.008-2.659,4.6a32.025,32.025,0,0,0-6.389-1.68v-5.338a2.669,2.669,0,0,0-2.671-2.669H183.1a2.671,2.671,0,0,0-2.672,2.669V213.4a31.994,31.994,0,0,0-6.385,1.68l-2.659-4.6a2.673,2.673,0,0,0-3.649-.981l-.008,0-4.021,2.313a2.667,2.667,0,0,0-.981,3.644l0,0L165.353,220a32.483,32.483,0,0,0-4.77,4.649l-4.477-2.578a2.673,2.673,0,0,0-3.652.97l0,.008-2.316,4.009a2.669,2.669,0,0,0,.976,3.647l0,0,4.359,2.509a31.876,31.876,0,0,0-1.852,6.514h-4.932a2.669,2.669,0,0,0-2.671,2.669v4.625a2.669,2.669,0,0,0,2.671,2.669h4.775a32.02,32.02,0,0,0,1.685,6.7l-4.033,2.321a2.668,2.668,0,0,0-.981,3.646l0,0,2.316,4.008a2.671,2.671,0,0,0,3.647.983l.01,0,3.919-2.261a32.418,32.418,0,0,0,4.919,5.025l-2.224,3.842a2.667,2.667,0,0,0,.976,3.646l0,0,4.02,2.313a2.672,2.672,0,0,0,3.652-.968l0-.008,2.186-3.774a32.057,32.057,0,0,0,6.862,1.866v4.326a2.669,2.669,0,0,0,2.671,2.669h4.643a2.669,2.669,0,0,0,2.671-2.669v-4.326a32.058,32.058,0,0,0,6.862-1.866l2.186,3.774a2.671,2.671,0,0,0,3.647.981l.01,0,4.02-2.313a2.667,2.667,0,0,0,.981-3.646l0,0-2.223-3.842a32.347,32.347,0,0,0,4.919-5.025l3.919,2.261a2.673,2.673,0,0,0,3.652-.97l0-.008,2.316-4.008a2.665,2.665,0,0,0-.978-3.646l0,0-4.033-2.321a31.82,31.82,0,0,0,1.683-6.7h4.775a2.67,2.67,0,0,0,2.671-2.669V242.4A2.67,2.67,0,0,0,222.167,239.733Zm-36.746,23.054a17.563,17.563,0,1,1,17.608-17.564,17.573,17.573,0,0,1-17.608,17.564Z" transform="translate(75.336 -35.102)" fill="#0b4d9d"/>
          <g id="Group_330" data-name="Group 330" transform="translate(274.208 133.34)">
            <g id="Group_329" data-name="Group 329">
              <g id="Group_328" data-name="Group 328">
                <g id="Group_321" data-name="Group 321">
                  <path id="Path_921" data-name="Path 921" d="M201.178,213.179s-1.521,23.465-1.649,32.065.825,31.87.825,31.87h2.979s3.676-15.3,3.424-20.105a61.227,61.227,0,0,0-1.269-9.233l3.36-17.648s2.79,18.406,4.275,19.8a21.047,21.047,0,0,1,4.026,7.969c.508,2.276,6.411,17.577,6.411,17.577l3.058-.013s-1.616-14.783-2.5-19.588-4.437-6.584-4.945-8.094-.729-19.227-1.11-21.629,3.013-9.013-1.424-13.564S201.178,213.179,201.178,213.179Z" transform="translate(-166.453 -165.224)" fill="#f8986f"/>
                  <path id="Path_922" data-name="Path 922" d="M219.376,243.348c-.247-4.325-.837-15.586-1.094-17.2-.379-2.4,3.013-9.013-1.424-13.564s-15.469.6-15.469.6-1.934,20.955-2.219,30.07a13.96,13.96,0,0,0,8.844,1.185l1.046-14.311a97.192,97.192,0,0,0,1.781,14.9C213.743,245.343,217.395,245.145,219.376,243.348Z" transform="translate(-166.663 -165.225)" fill="#121e54"/>
                  <path id="Path_923" data-name="Path 923" d="M199.882,199.015c-.6-.336-9.633-8.2-13.5-11.288h0l-.095-.075a1.963,1.963,0,0,1-.625-.978s-.1-2.924-.087-3.726-.856-.755-1.086.2c-.138.572-.442,1.779-.675,2.69a5.778,5.778,0,0,1-2.645-1.877c-1.021-.92-2.786-.654-2.072,1.678s4.553,3.93,5.207,4.466h0c3.562,3.914,11.149,12.846,13.209,13.975,2.539,1.392,14.915,2.764,14.915,2.764l.711-5.16S200.61,199.42,199.882,199.015Z" transform="translate(-178.929 -182.385)" fill="#f8986f"/>
                  <path id="Path_924" data-name="Path 924" d="M197.5,192.979s19.623,3.591,22.191,4.161.666,12.141.381,11.952a59.632,59.632,0,0,0,.371,11.823c.57,3.32-3.027,4.208-4.365,4.587s-11.126-.074-12.172,0c-2.671.193-2.671-4.555-1.627-9.294a22.943,22.943,0,0,0-1.153-12.572L194.96,201.1S196.266,196.393,197.5,192.979Z" transform="translate(-169.214 -175.965)" fill="#7397ce"/>
                  <g id="Group_320" data-name="Group 320" transform="translate(31.345 3.114)">
                    <path id="Path_925" data-name="Path 925" d="M202.917,192.982s-5.814-3.059-4.18-5.26a4.88,4.88,0,0,1,4.121-1.958c-.673-1.413,4.723-2.15,5.786-.488.88-1.32,3.976.732,3.523,3.318,2.015-.244,5.544,3.9.178,9.207-1.587,1.567-2.786.488-2.786.488Z" transform="translate(-198.447 -184.323)" fill="#28211a"/>
                    <path id="Path_926" data-name="Path 926" d="M205.938,187.848a11.861,11.861,0,0,0-3.809.98c-1.185.728-.429,2.687-.8,3.326s-1.081,1.041-1.1,1.274.756.578.891.625a20.665,20.665,0,0,0,1.269,3.514c.676.919,1.7.164,2,.035a10.321,10.321,0,0,1,1.015,4.164c-.109.663,3.564.479,4.518-.148a3.356,3.356,0,0,0,1.445-2.37c-.128-.3-2.643-3.609-2.9-4.013s.058-1.524.021-1.616,1.539-1.222,1.158-2.179-1.49.056-1.781.557a1.119,1.119,0,0,0-.178.8l-.615.1a5.5,5.5,0,0,0-.124-1.99C206.684,190.39,204.984,188.877,205.938,187.848Z" transform="translate(-197.367 -182.188)" fill="#f8986f"/>
                  </g>
                </g>
                <g id="Group_324" data-name="Group 324" transform="translate(23.892 110.219)">
                  <g id="Group_323" data-name="Group 323">
                    <g id="Group_322" data-name="Group 322" transform="translate(0.013)">
                      <path id="Path_927" data-name="Path 927" d="M203.5,251.06a1.959,1.959,0,0,1,1.926.668c.429.366,1.728-.559,1.728-.559a6.014,6.014,0,0,1,1.07,5.428,67.411,67.411,0,0,1-14.261,0c-.488-.328.164-3.01,3.462-2.971A10,10,0,0,0,203.5,251.06Z" transform="translate(-193.814 -251.016)" fill="#2c4194"/>
                    </g>
                    <path id="Path_928" data-name="Path 928" d="M194.317,253.623a.276.276,0,0,1-.088-.112c-.482.692-.517,1.423-.279,1.575a67.411,67.411,0,0,0,14.261,0,4.722,4.722,0,0,0,.287-1.45A67.615,67.615,0,0,1,194.317,253.623Z" transform="translate(-193.806 -249.503)" fill="#dfe0e9"/>
                  </g>
                </g>
                <g id="Group_327" data-name="Group 327" transform="translate(51.672 108.511)">
                  <g id="Group_326" data-name="Group 326">
                    <g id="Group_325" data-name="Group 325">
                      <path id="Path_929" data-name="Path 929" d="M219.879,252.266a2.73,2.73,0,0,0-1.959-2.2c-1.645-.308-1.588-.061-2.444,1.28s-4.034,3.638-4.359,5.425,5.276,1.407,7.232.7,1.834-.7,2.08-1.434A13.872,13.872,0,0,0,219.879,252.266Z" transform="translate(-211.104 -249.952)" fill="#2c4194"/>
                    </g>
                    <path id="Path_930" data-name="Path 930" d="M218.352,254.251c-1.641.588-5.852.952-6.968,0a2.612,2.612,0,0,0-.265.721c-.324,1.789,5.277,1.407,7.233.7s1.832-.7,2.078-1.434a3.649,3.649,0,0,0-.035-1.314C220.191,253.549,220.2,253.585,218.352,254.251Z" transform="translate(-211.102 -248.149)" fill="#dfe0e9"/>
                  </g>
                </g>
              </g>
            </g>
            <path id="Path_931" data-name="Path 931" d="M209.067,208.311c-.713.178-13.293.5-18.485.87h-.125a2.081,2.081,0,0,1-1.18-.313s-2.166-2.184-2.727-2.814-1.2.022-.7.922c.3.533.933,1.691,1.4,2.557a6.08,6.08,0,0,1-3.384.427c-1.445.014-2.616,1.473-.4,2.767s6.323-.2,7.209-.247h0c5.539.491,17.775,2.007,20.173,1.423,2.952-.728,13.487-8.454,13.487-8.454l-3.136-4.49S209.924,208.109,209.067,208.311Z" transform="translate(-176.926 -171.129)" fill="#f8986f"/>
          </g>
          <path id="Path_932" data-name="Path 932" d="M205.378,203.8s5.39-5.929,6.7-7.082,1.426-1.405,1.768-.89,4.18,3.422,3.082,7.394-7.217,7.538-7.217,7.538Z" transform="translate(111.307 -41.053)" fill="#7397ce"/>
          <path id="Path_933" data-name="Path 933" d="M83.4,243.836H79.865a22.89,22.89,0,0,0-1.325-4.67l3.122-1.8a1.912,1.912,0,0,0,.707-2.611l0,0L80.7,231.885a1.921,1.921,0,0,0-2.621-.7l-3.207,1.848a23.135,23.135,0,0,0-3.419-3.332l1.882-3.252a1.912,1.912,0,0,0-.7-2.615h0l-2.881-1.661a1.924,1.924,0,0,0-2.623.7l-1.908,3.292a23.127,23.127,0,0,0-4.577-1.2v-3.824a1.919,1.919,0,0,0-1.919-1.914H55.4a1.916,1.916,0,0,0-1.919,1.914v3.824a23.113,23.113,0,0,0-4.579,1.2l-1.906-3.292a1.922,1.922,0,0,0-2.621-.7l-2.883,1.661a1.909,1.909,0,0,0-.7,2.611l0,0,1.881,3.252a23.135,23.135,0,0,0-3.419,3.332l-3.207-1.848a1.92,1.92,0,0,0-2.621.7l-1.664,2.876a1.911,1.911,0,0,0,.7,2.613l0,0,3.124,1.8a22.935,22.935,0,0,0-1.325,4.672H30.725a1.915,1.915,0,0,0-1.919,1.913v3.321a1.917,1.917,0,0,0,1.919,1.914h3.421a22.925,22.925,0,0,0,1.208,4.805l-2.891,1.665a1.909,1.909,0,0,0-.705,2.611l0,0,1.664,2.875a1.922,1.922,0,0,0,2.623.7l2.814-1.62a23.155,23.155,0,0,0,3.527,3.6l-1.6,2.754a1.913,1.913,0,0,0,.7,2.615l0,0,2.881,1.661a1.925,1.925,0,0,0,2.623-.7l1.566-2.706a23.007,23.007,0,0,0,4.917,1.338v3.1a1.917,1.917,0,0,0,1.921,1.914H58.72a1.916,1.916,0,0,0,1.918-1.914v-3.1a23.01,23.01,0,0,0,4.921-1.338l1.566,2.706a1.923,1.923,0,0,0,2.621.7L72.628,271a1.91,1.91,0,0,0,.705-2.611l0,0-1.6-2.754a23.3,23.3,0,0,0,3.527-3.6l2.814,1.62a1.922,1.922,0,0,0,2.623-.7l1.664-2.875a1.913,1.913,0,0,0-.7-2.613l0,0L78.761,255.8a22.926,22.926,0,0,0,1.208-4.805H83.39a1.918,1.918,0,0,0,1.919-1.914v-3.32A1.919,1.919,0,0,0,83.4,243.836ZM57.057,260.155A12.745,12.745,0,1,1,69.834,247.41a12.752,12.752,0,0,1-12.777,12.745h0Z" transform="translate(-16.829 -26.721)" fill="#0b4d9d"/>
          <g id="Group_331" data-name="Group 331" transform="translate(43.843 235.421)">
            <path id="Rectangle_96" data-name="Rectangle 96" d="M57.535,245.948H99.4a8.883,8.883,0,0,1,8.887,8.878v29.3a8.883,8.883,0,0,1-8.887,8.878H57.535a8.883,8.883,0,0,1-8.887-8.878v-29.3A8.883,8.883,0,0,1,57.535,245.948Z" transform="translate(-48.648 -245.948)" fill="#f8ae21"/>
            <g id="JS" transform="translate(21.892 5.088)" style="isolation: isolate">
              <text id="JS-2" data-name="JS" transform="translate(0 9)" fill="#fff" font-size="9" font-family="Montserrat-SemiBold, Montserrat" font-weight="600" style="isolation: isolate"><tspan x="0" y="0">JS</tspan></text>
            </g>
          </g>
          <g id="Group_332" data-name="Group 332" transform="translate(0 119.714)">
            <path id="Rectangle_97" data-name="Rectangle 97" d="M30.235,173.9H72.1a8.883,8.883,0,0,1,8.887,8.878v29.3a8.882,8.882,0,0,1-8.887,8.876H30.235a8.882,8.882,0,0,1-8.887-8.876v-29.3A8.883,8.883,0,0,1,30.235,173.9Z" transform="translate(-21.348 -173.9)" fill="#9eb638"/>
            <g id="PHP" transform="translate(10.859 9.964)" style="isolation: isolate">
              <text id="PHP-2" data-name="PHP" transform="translate(0 10)" fill="#fff" font-size="10" font-family="Montserrat-SemiBold, Montserrat" font-weight="600" style="isolation: isolate"><tspan x="0" y="0">PHP</tspan></text>
            </g>
          </g>
        </g>
      </g>
    </g>
  </g>
</svg>
