<svg xmlns="http://www.w3.org/2000/svg" width="394.088" height="308.354" viewBox="0 0 394.088 308.354">
  <g id="Group_22015" data-name="Group 22015" transform="translate(-20.565 -48.649)">
    <path id="Path_21915" data-name="Path 21915" d="M366.318,164.7c.812,12.5,3.4,24.835,1.844,36.618-3.168,23.94-19.39,38.479-44.5,43.626-19.012,3.9-36.756-.695-54-7.847-11.971-4.966-23.577-10.832-35.217-16.56-3.04-1.5-4.763-1.27-7.228,1.194-6.826,6.826-13.864,13.472-21.178,19.769-19.573,16.85-42.581,21.071-67.388,17.055a123.93,123.93,0,0,1-23.042-6.286c-31.33-11.6-45.941-36.286-51.438-67.571a65.221,65.221,0,0,1-.592-18.844C65.119,153.093,72.646,144,83.364,137.32a157.333,157.333,0,0,1,54.615-21.141c9.9-1.853,15.814-5.937,20.261-15.614,18.8-40.92,67.311-61.122,114.275-47.878a98.5,98.5,0,0,1,51.924,34.5c6.506,8.236,12.964,16.511,19.457,24.757,12.155,15.436,18.174,33.486,22.422,52.755M172.59,108.245c20.941-3.475,41.87-7.059,64-6.3,3.629,1.14,7.355,2.04,10.866,3.47,7.459,3.036,14.487,6.74,18,14.671,4.25,9.582,4.756,19.718,2.877,29.713-1.884,10.022-5.085,19.8-8.185,30.193-6.688,9.666-13.376,19.332-20.679,29.275l-2.752,3.306c15.477,7.191,30.3,14.347,45.343,20.993,15.9,7.023,32.218,7.193,48.554,1.384,16.072-5.715,28.066-15.71,30.767-33.345,1.185-7.739.11-15.88-.392-23.81-1.135-17.94-7.1-34.363-16.3-49.695a265.475,265.475,0,0,0-36.655-47.133A84.486,84.486,0,0,0,286.1,64.152C268.188,55.041,248.831,54,229.28,58.028c-25.537,5.259-47.29,16.572-61.394,39.609-2.351,3.84-4.468,7.822-7.36,12.912,4.754-.934,7.966-1.565,12.064-2.3M67.137,188.17c5.136,17.846,17.074,28.967,34.567,34.142a120.045,120.045,0,0,0,60.584,2.034c26.337-5.778,49.385-18.693,70.873-34.35,16.662-12.14,27.8-28.529,32.253-48.9,2.3-10.5.062-20.059-8.858-26.836-7.546-5.734-16.22-9.229-25.85-9.25-25.889-.056-51.121,5.035-76.272,10.388-22.458,4.78-44.544,10.6-65,21.739C67.825,148.9,61.525,166.137,67.137,188.17Z" fill="#5a743b"/>
    <path id="Path_21916" data-name="Path 21916" d="M393.514,280.391a58.748,58.748,0,0,1,5.865.942c5.93,1.545,11.033,4.351,12.476,10.838,1.5,6.758-.087,12.6-6.7,16.232,8.37,5.273,10.8,10.421,8.867,18.561-1.652,6.954-7.206,11.694-15.853,12.054-11.263.469-22.561.115-34.014.115v-6.654l5.98-1.718c0-13.248.152-26.387-.212-39.511-.041-1.481-3-2.88-4.6-4.317l-1.008.77v-7.36c9.544,0,19.144,0,29.193.048M391.361,330.2c.827,0,1.656.029,2.481-.018,5.992-.335,9.043-3.2,8.918-8.354-.131-5.357-3.045-8.231-8.9-8.483-3.742-.161-7.495-.031-11.449-.031V330.2h8.952m4.237-39.827-13.115-.867v15.453c3.6,0,6.9.162,10.176-.043,3.52-.22,6.6-1.541,7.432-5.4C400.877,295.844,400.268,292.529,395.6,290.371Z" fill="#5b753d"/>
    <path id="Path_21917" data-name="Path 21917" d="M315.2,289.5a43.971,43.971,0,0,0-5.722-2.141v-6.581c10.5,0,20.819-.74,30.985.2,11.029,1.019,18.7,8.936,19.88,19.8a74.9,74.9,0,0,1-.433,20.32c-1.652,9.807-8.345,16.459-18,17.564-10.623,1.216-21.494.277-32.5.277v-6.666c5.761.164,6.451-3.149,6.288-7.984-.386-11.46-.2-22.939-.5-34.792m21.842,40.64c6.315-.719,9.994-4.52,11.073-10.477a73.38,73.38,0,0,0,.779-12.9c.02-13.765-7.355-19.481-21.1-16.453v39.877C330.852,330.184,333.5,330.184,337.046,330.139Z" fill="#5b743d"/>
    <path id="Path_21918" data-name="Path 21918" d="M236.62,357c-6.078-.664-11.713-1.355-18.055-2.133,1.156-3.878,1.888-6.338,2.657-8.919,6.16.556,12.369,4.946,17.668-.465,1.779-1.817,1.981-5.178,3.189-8.656-3.753,1.4-6.133,2.755-8.664,3.161-8.768,1.4-16.4-2.983-18.059-11.768a53.575,53.575,0,0,1,.015-20.592c2.795-13.128,17.223-17.117,26.131-8.206,2.981-5.36,7.931-6.583,18.223-4.41v6.668c-5.826-.049-6.279,3.509-6.1,8.214.333,8.969.175,17.961.075,26.941-.13,11.644-5.107,17.589-17.076,20.165m5.074-42.323c0-1.165-.072-2.336.011-3.495.277-3.872-1.969-5.866-5.279-6.844a6.956,6.956,0,0,0-8.3,2.931c-3.053,4.408-3.191,16.336-.233,20.67,2.237,3.278,5.473,3.585,8.879,2.677,3.193-.851,5.146-2.853,4.951-6.509C241.572,321.288,241.693,318.452,241.694,314.68Z" fill="#a5b554"/>
    <path id="Path_21919" data-name="Path 21919" d="M52.719,319.835H50.757c-11.084,0-11.084,0-13.306,9.8,1.419,2.617,2.737,4.257,3.213,6.113.664,2.589-.552,4-3.5,3.9-4.5-.157-9.006.1-13.493-.14-1.128-.059-3.147-1.388-3.1-2.022a13.128,13.128,0,0,1,1.781-5.447c.964-1.684,3.028-2.855,3.658-4.595,5.155-14.234,10.352-28.465,14.945-42.885,1.633-5.13,5.008-4.142,8.551-4.386s5.643.45,6.926,4.415c4.612,14.24,9.629,28.353,14.755,42.418.717,1.968,3.248,3.21,4.3,5.137,1.071,1.962,1.354,4.355,2.134,7.094H56.258l2.394-8.542,1.866,0c-2.88-3.357.284-10.356-7.8-10.858m-2.893-22.7-1.359-2.956c-1.795,5.848-3.367,10.97-5.039,16.415H53.993C52.572,306.037,51.289,301.929,49.826,297.13Z" fill="#a5b553"/>
    <path id="Path_21920" data-name="Path 21920" d="M177.925,329.406c1.593,2.742,6.235,3.052,4.661,7.314-.41,1.113-1.628,2.7-2.524,2.738-6.455.235-12.923.126-19.7.126V332.42c5.153-.214,5.818-3.526,5.589-8.014-.338-6.625-.087-13.279-.087-20.017l-6.223-1.9v-6.7H176.6c.269,1.59.509,3.011.734,4.339,3.052-1.7,5.85-4.027,9.044-4.88,9.351-2.5,16.968,3.27,17.461,13.157.364,7.3.072,14.626.072,22.2l5.641,1.9V339.1H187.283v-6.559l4.729-1.892c0-6.677.156-13.325-.053-19.961-.147-4.642-3.015-7.066-7.526-6.612-4.039.408-6.848,2-6.616,6.915C178.1,316.969,177.89,322.972,177.925,329.406Z" fill="#a5b452"/>
    <path id="Path_21921" data-name="Path 21921" d="M123.609,307.452a76.236,76.236,0,0,1-6.9-5.694c7.646-7.992,23.574-9.583,31.084-2.878,2.663,2.378,4.44,6.6,5.032,10.242.844,5.188.109,10.617.274,15.937.087,2.819-1.477,6.33,3.164,7.706.792.235.57,3.886.911,6.753-5.88-.865-11.819,2.929-15.362-2.378-4.849,1.073-9.223,2.683-13.656,2.867a11.455,11.455,0,0,1-12.112-9.064c-1.446-7.191.86-12.5,7.657-14.808,5.236-1.776,10.934-2.192,16.683-3.26,1.7-6.691-1.492-10.4-8.777-8.959-2.679.531-5.134,2.191-8,3.536m16.1,21.462c.56-2.725,1.12-5.449,1.891-9.194-4.306.545-7.457.54-10.342,1.413a4.944,4.944,0,0,0-3.074,7.214c.777,1.593,3.777,2.578,5.91,2.875C135.642,331.438,137.41,330.077,139.707,328.914Z" fill="#a5b452"/>
    <path id="Path_21922" data-name="Path 21922" d="M265.321,331.491c-3.766-6.192-4.015-12.674-3.166-19.169,1.495-11.431,10.054-18.018,22.174-17.454,10.37.483,18.082,8.217,18.658,19.035a39.886,39.886,0,0,1-.552,10.9c-1.768,7.687-6.377,13.34-14.385,14.884-8.835,1.7-16.964.291-22.729-8.2m23.462-3.284c3.394-5.509,2.918-11.484,1.691-17.367-.839-4.027-3.325-6.864-7.942-6.861s-7.239,2.8-7.853,6.877a40.174,40.174,0,0,0-.18,12.8C275.832,331.127,281.846,333.143,288.783,328.207Z" fill="#a5b553"/>
    <path id="Path_21923" data-name="Path 21923" d="M106.207,306c-4.987.281-6.834,2.7-6.575,7.229a99.674,99.674,0,0,1-.008,11.975c-.248,3.917.3,6.964,5.237,7.043v7H82.224v-6.742c5.346-.317,5.519-4.032,5.25-8.352a103.317,103.317,0,0,1,.006-13.47c.311-4.5-.329-7.92-6.013-7.911v-7H98.462c.318,1.564.6,2.941,1,4.908,3.106-4.54,6.8-6.908,12.021-5.46C113.132,303.272,111.97,305.832,106.207,306Z" fill="#a5b553"/>
    <path id="Path_21924" data-name="Path 21924" d="M235.812,101.678c-21.352-.492-42.281,3.092-63.572,6.226a57.231,57.231,0,0,1,25.188-29.485A106.8,106.8,0,0,1,255.838,63.7c19.337.658,35.368,7.783,48.345,21.289,9.28,9.657,17.212,20.639,25.459,31.252,16.854,21.688,28.547,45.42,26.175,73.8a61.492,61.492,0,0,1-5.67,21.311c-9.931,20.445-43.547,24.578-59.687,17.9-16.723-6.919-33.577-13.522-50.373-20.263,6.688-9.666,13.376-19.332,20.781-29.088,3.045-.028,5.381-.073,7.7.114,17.841,1.446,30.292-18.775,28.965-33.7-.637-7.172-3.737-14.448-7.072-20.989-7.026-13.778-17.4-24.338-32.889-28.525C249.593,94.648,242.273,96.517,235.812,101.678Z" fill="#dde175"/>
    <path id="Path_21925" data-name="Path 21925" d="M239.779,209.129c17.1,6.6,33.958,13.205,50.681,20.124,16.14,6.677,49.756,2.544,59.687-17.9a61.492,61.492,0,0,0,5.67-21.311c2.372-28.384-9.321-52.116-26.175-73.8-8.247-10.613-16.179-21.6-25.459-31.252C291.206,71.479,275.175,64.354,255.838,63.7a106.8,106.8,0,0,0-58.41,14.723A60.04,60.04,0,0,0,171.8,107.958a106.815,106.815,0,0,1-11.271,2.591c2.892-5.09,5.009-9.072,7.36-12.912,14.1-23.037,35.857-34.35,61.394-39.609C248.831,54,268.188,55.041,286.1,64.152a84.486,84.486,0,0,1,21.935,16.815A265.475,265.475,0,0,1,344.689,128.1c9.2,15.332,15.168,31.755,16.3,49.695.5,7.93,1.577,16.071.392,23.81-2.7,17.635-14.7,27.63-30.767,33.345-16.336,5.809-32.653,5.639-48.554-1.384-15.046-6.646-29.866-13.8-45.343-20.993A45.247,45.247,0,0,1,239.779,209.129Z" fill="#a2b24f"/>
    <path id="Path_21926" data-name="Path 21926" d="M67.037,187.773c-5.512-21.636.788-38.871,22.4-50.637,20.452-11.135,42.538-16.959,65-21.739,25.151-5.353,50.383-10.444,76.272-10.388,9.63.021,18.3,3.516,25.85,9.25,8.92,6.777,11.156,16.334,8.858,26.836-4.457,20.372-15.591,36.761-32.253,48.9-21.488,15.657-44.536,28.572-70.873,34.35a120.045,120.045,0,0,1-60.584-2.034c-17.493-5.175-29.431-16.3-34.667-34.539m68.567-61.3c-16.156,3.545-31.628,8.684-45.078,18.778C82.3,151.421,75.7,158.817,74.1,169.269c-3.513,22.932,14.39,42.074,29.006,47.634,19.524,7.426,39.568,6.205,59.358,2.237,24.717-4.956,46.1-17.622,66.6-31.75,11.732-8.087,21.023-18.461,26.478-31.705a81.619,81.619,0,0,0,5.246-19.1c1.374-9.408-6.859-19.379-18.121-23.59-9.948-3.721-20.353-3.746-30.538-2.792-11.11,1.04-22.065,3.731-34.022,5.828A67.8,67.8,0,0,0,135.6,126.468Z" fill="#a2b24f"/>
    <path id="Path_21927" data-name="Path 21927" d="M236.2,101.811a22.323,22.323,0,0,1,21.369-5.006c15.493,4.187,25.863,14.747,32.889,28.525,3.335,6.541,6.435,13.817,7.072,20.989,1.327,14.922-11.124,35.143-28.965,33.7-2.317-.187-4.653-.142-7.46-.371,2.145-10.05,5.346-19.824,7.23-29.846,1.879-9.995,1.373-20.131-2.877-29.713-3.517-7.931-10.545-11.635-18-14.671C243.944,103.985,240.218,103.085,236.2,101.811Z" fill="#a3b34f"/>
    <path id="Path_21928" data-name="Path 21928" d="M390.89,330.2h-8.481V313.312c3.954,0,7.707-.13,11.449.031,5.857.252,8.771,3.126,8.9,8.483.125,5.153-2.926,8.019-8.918,8.354C393.017,330.227,392.188,330.194,390.89,330.2Z" fill="#f8f9f7"/>
    <path id="Path_21929" data-name="Path 21929" d="M395.983,290.553c4.285,1.976,4.894,5.291,4.108,8.959-.828,3.861-3.912,5.182-7.432,5.4-3.279.2-6.58.043-10.176.043V289.5C386.9,289.8,391.251,290.084,395.983,290.553Z" fill="#fbfbfa"/>
    <path id="Path_21930" data-name="Path 21930" d="M336.6,330.161c-3.1.023-5.749.023-8.805.023V290.307c13.747-3.028,21.122,2.688,21.1,16.453a73.38,73.38,0,0,1-.779,12.9C347.04,325.619,343.361,329.42,336.6,330.161Z" fill="#fafbf9"/>
    <path id="Path_21931" data-name="Path 21931" d="M241.694,315.151c0,3.3-.122,6.137.029,8.959.195,3.656-1.758,5.658-4.951,6.509-3.406.908-6.642.6-8.879-2.677-2.958-4.334-2.82-16.262.233-20.67a6.956,6.956,0,0,1,8.3-2.931c3.31.978,5.556,2.972,5.279,6.844C241.622,312.344,241.694,313.515,241.694,315.151Z" fill="#fcfcf8"/>
    <path id="Path_21932" data-name="Path 21932" d="M49.916,297.475c1.373,4.454,2.656,8.562,4.077,13.114H43.428c1.672-5.445,3.244-10.567,5.039-16.415C49.146,295.65,49.486,296.39,49.916,297.475Z" fill="#fafbf5"/>
    <path id="Path_21933" data-name="Path 21933" d="M139.394,329.166c-1.984.911-3.752,2.272-5.3,2.056-2.133-.3-5.133-1.282-5.91-2.875a4.944,4.944,0,0,1,3.074-7.214c2.885-.873,6.036-.868,10.342-1.413C140.827,323.465,140.267,326.189,139.394,329.166Z" fill="#fcfcf9"/>
    <path id="Path_21934" data-name="Path 21934" d="M288.531,328.512c-6.685,4.631-12.7,2.615-14.032-4.853a40.174,40.174,0,0,1,.18-12.8c.614-4.08,3.239-6.873,7.853-6.877s7.1,2.834,7.942,6.861C291.7,316.723,292.177,322.7,288.531,328.512Z" fill="#fdfefc"/>
    <path id="Path_21935" data-name="Path 21935" d="M179.039,115.9c11.023-1.972,21.978-4.663,33.088-5.7,10.185-.954,20.59-.929,30.538,2.792,11.262,4.211,19.5,14.182,18.121,23.59a81.619,81.619,0,0,1-5.246,19.1c-5.455,13.244-14.746,23.618-26.478,31.705-20.5,14.128-41.882,26.794-66.6,31.75-19.79,3.968-39.834,5.189-59.358-2.237-14.616-5.56-32.519-24.7-29.006-47.634,1.6-10.452,8.2-17.848,16.427-24.023,13.45-10.094,28.922-15.233,45.062-18.27-13.16,11.316-21.868,24.551-22.9,42.048-.266,4.512,1.718,7.486,5.485,9.815,17.347,10.727,35.887,16.467,56.5,14.205,16.364-1.8,31.133-7.3,42.794-19.248,8.987-9.209,9.774-18.491,3.392-29.537C211.5,128.058,197.454,118.754,179.039,115.9Z" fill="#dce074"/>
    <path id="Path_21936" data-name="Path 21936" d="M178.572,115.965c18.882,2.789,32.925,12.093,42.286,28.294,6.382,11.046,5.6,20.328-3.392,29.537-11.661,11.951-26.43,17.452-42.794,19.248-20.61,2.262-39.15-3.478-56.5-14.205-3.767-2.329-5.751-5.3-5.485-9.815,1.03-17.5,9.738-30.732,23.109-41.782C148.741,118.307,162.795,114.758,178.572,115.965Z" fill="#603514"/>
  </g>
</svg>
