<svg xmlns="http://www.w3.org/2000/svg" width="1265.035" height="332.807" viewBox="0 0 1265.035 332.807">
  <g id="Group_22018" data-name="Group 22018" transform="translate(547.533 -329.089)">
    <path id="Path_21980" data-name="Path 21980" d="M-478.015,621.362c-9.9-5.79-17.7-14.007-25.279-22.369-22.175-24.454-37.4-52.576-42.354-85.438-4.736-31.384-.265-62.034,10.219-91.809a175.534,175.534,0,0,1,50.282-74.42c5.2-4.583,9.862-9.211,10.932-16.653.492-3.425,1.316-.339,1.863.4-.75.846-.529,1.479.429,1.949l.187.265-.139.293c-.255,6.314.7,12.631.655,18.863-.137,17.644,1.388,35.225,1.266,52.859-.18,26.157-.043,52.315-.037,78.473a36.973,36.973,0,0,0,.08,4.494c2.04,16.593,1.111,33.265.653,49.857-.425,15.376-1.7,30.743-1.856,46.148-1.181.771-.873,2.035-.995,3.131C-473.385,598.845-474.552,610.3-478.015,621.362Z" fill="#11aa50"/>
    <path id="Path_21981" data-name="Path 21981" d="M-471.114,584.274c.157-15.4,1.431-30.772,1.856-46.148.458-16.592,1.387-33.264-.653-49.857a36.973,36.973,0,0,1-.08-4.494c-.006-26.158-.143-52.316.037-78.473.122-17.634-1.4-35.215-1.266-52.859.048-6.232-.91-12.549-.655-18.863.145.082.37.13.423.252,7.474,17.274,22.747,28.407,33.754,42.895,23.047,30.336,36.995,64.352,39.663,102.447,3.506,50.062-12.493,93.135-48.28,128.563-3.883,3.845-8.412,7.038-12.64,10.534-5.071-.658-6.427-4.956-7.872-8.682C-469.968,601.49-471.045,592.944-471.114,584.274Z" fill="#13924f"/>
    <path id="Path_21982" data-name="Path 21982" d="M408.473,438.812c17.624-.286,35.3-2.184,52.839,1.036,33.645,6.177,56.19,32.132,57.6,66.285,1.834,44.492-25.8,77.093-70.008,82.962-21.117,2.8-42.257.816-63.386,1.015-5.829.055-11.664-.216-17.491-.087-2.994.066-3.358-1.2-2.663-3.631,1.056-3.69,2.414-6.322,7.159-6.8,9.333-.944,11.177-3.159,12.086-12.623.444-4.631.425-9.318.428-13.98q.03-44.736-.048-89.47c-.022-9.276-2.329-11.963-11.484-13.95-2.438-.529-4.972-.713-7.334-1.46-1.736-.549-4.9,1.433-5.03-2.213-.109-3.188,4.159-7.854,6.869-7.8,9.659.193,19.315.5,28.974.7C400.81,438.88,404.642,438.812,408.473,438.812Zm84.579,76.218c.143-43.956-29.222-69.691-76.664-65.7-4.068.343-6.857,1.951-6.937,6.746-.584,35.13-.695,70.257.067,105.386.015.663.151,1.322.209,1.986.539,6.1,3.7,10.391,9.442,12.268,22.083,7.211,50.574,4.4,65.73-23.569C491.158,540.6,493.022,527.994,493.052,515.03Z" fill="#24343f"/>
    <path id="Path_21983" data-name="Path 21983" d="M626.623,504.534c4.469,1.72,8.606,3.013,12.482,4.854,24.187,11.487,29.822,40.934,11.459,60.55-11.291,12.061-25.827,17.817-41.9,20.052-16.591,2.306-33.257.8-49.892.745-7.99-.028-15.981-.475-23.969-.4-3.6.033-3.718-1.286-2.886-4.182,1.16-4.037,3.422-5.756,7.736-6.15,11.515-1.054,13.162-2.808,13.561-14.108,1.233-34.961.594-69.939.618-104.91.005-7.553-2.355-9.873-9.937-11.149-3.282-.552-6.55-1.253-9.854-1.572-2.4-.233-2.765-1.287-2.076-3.265,1.367-3.922,2.824-6.53,8.269-6.395,20.636.514,41.292.3,61.941.195,8.384-.041,16.66.542,24.571,3.435,13.119,4.8,21.51,13.55,22.653,28.077,1.087,13.8-5.326,23.573-16.554,30.727C631.035,502.187,629.1,503.146,626.623,504.534Zm-49.559,35.617h.533c0,7.826-.325,15.669.085,23.474.48,9.136,4.662,13.585,13.716,14.938a79.2,79.2,0,0,0,13.454.649c16.312-.376,27.574-9.4,30.059-23.835,3.086-17.932-4-31.345-19.8-37.439-11.324-4.369-23.165-4.078-35-3.833-2.73.057-3.109,1.76-3.082,4.052C577.118,525.488,577.064,532.82,577.064,540.151Zm.64-62.69h-.6c0,7.155.066,14.311-.035,21.465-.036,2.553.444,4.081,3.488,4.1,8.151.042,16.308.564,24.446-.153,6.364-.56,11.917-2.833,15.789-8.284,9.977-14.045,3.5-35.543-12.565-41.617-7.953-3.007-16.239-3.082-24.589-2.987-4.259.049-6.027,1.842-5.967,6.02C577.779,463.154,577.7,470.308,577.7,477.461Z" fill="#24343f"/>
    <path id="Path_21984" data-name="Path 21984" d="M-310.325,545.976c0,7.664-.132,15.332.033,22.993.22,10.259.544,10.925,10.784,12.461,4.578.686,4.883,2.827,4.327,6.33-.311,1.964-1.2,2.8-3.345,2.694a422.853,422.853,0,0,0-44.47.007c-2.437.13-3.45-.769-3.368-3,.079-2.139-1.021-4.911,2.564-5.474,1.476-.233,2.935-.586,4.4-.9,7.7-1.68,9.174-3.381,9.371-11.043.439-17.16.525-34.32.538-51.486,0-6.145-2.179-9.733-7.786-11.637-2.512-.853-4.958-1.9-7.442-2.84-1.577-.6-3.439-1.141-3.127-3.246.272-1.841,1.928-2.6,3.658-2.9a191.549,191.549,0,0,0,21.9-4.9c1.911-.567,3.836-1.094,5.729-1.715,6.913-2.266,6.8-2.283,6.461,5.306-.112,2.491-1.97,5.864.838,7.338,2.428,1.274,4.278-1.871,6.258-3.2a79.343,79.343,0,0,1,18.081-9.435c13.558-4.7,25.092-1.2,33.339,10.51,2.4,3.4,3.956,3.867,7.335,1.265a72.6,72.6,0,0,1,22.743-12.2c16.1-4.992,31.2,2.18,37.393,17.816,2.872,7.249,3.511,14.856,3.46,22.564q-.124,19-.228,37.995c-.041,7.857,1.272,9.568,8.8,11.427a25.319,25.319,0,0,0,4.893.941c3.019.128,3.607,1.741,3.013,4.275-.509,2.173-.359,4.552-3.978,4.369-14.485-.733-28.985-.585-43.478-.094-1.977.067-3.445-.332-3.194-2.6.224-2.031-1.541-5.136,2.149-5.648,13.565-1.882,11.881-6.037,12.217-16.872a356.856,356.856,0,0,0-.426-38.973c-1.2-15.318-13.366-24.173-28.339-20.508a44.657,44.657,0,0,0-7.076,2.373c-9.362,4.046-9.222,4.436-9,14.625.338,15.658.138,31.327.2,46.991.034,8.851.62,9.632,9.542,11.48,3.8.788,7.253,1.324,5.764,6.709-.56,2.023-1.362,2.778-3.373,2.691-14.825-.639-29.653-.517-44.477.037-2.146.08-3.159-.822-3.18-2.828-.022-2.069-.717-4.459,2-5.564a8.542,8.542,0,0,1,.985-.153c12.491-3.323,12.462-3.325,13.082-16.379a326.187,326.187,0,0,0-.108-38.966c-1.3-18.1-14.188-26.614-31.349-20.659-1.1.381-2.177.819-3.266,1.227-7.779,2.911-12.34,7.527-11.239,16.831.855,7.231.171,14.644.171,21.977Z" fill="#24343f"/>
    <path id="Path_21985" data-name="Path 21985" d="M212.62,491.375c3.438,11.648-2.647,18.924-14.335,17.674-2.966-.318-4.944-.828-4.141,3.623,4.609,25.565-10.868,45.572-37.132,48.35-2.319.246-4.651.418-6.951.788-3.617.58-6.416,2.429-6.632,6.312-.206,3.7,2.418,5.774,5.657,6.7,6.3,1.8,12.888,1.355,19.331,2.1,6.779.782,13.616,1.159,20.353,2.2,17.886,2.761,26.732,16.934,21.676,34.349A42.835,42.835,0,0,1,195.773,635c-17.674,14.373-37.758,19.247-59.9,13.9-11-2.654-19.6-9.006-23.99-19.963-3.5-8.755-2.053-15.317,4.788-21.714a129.854,129.854,0,0,1,14.511-11.43c1.338-.935,2.588-2,3.856-2.981-1-1.962-2.83-2.091-4.228-2.872a22.351,22.351,0,0,1-9.036-8.367c-3.047-5.381-2.6-7.156,2.677-10.436,3.672-2.283,7.339-4.572,10.981-6.9,2.916-1.865,2.778-3.041-.545-4.574-17.563-8.1-24.957-25.267-18.886-43.42a33.35,33.35,0,0,1,16.527-19.2c15.089-8.122,30.719-10.442,47.081-3.987a49.712,49.712,0,0,0,11.98,3.336C199.075,497.342,206.23,496.992,212.62,491.375Zm-50.4,147.482c8.822-.38,17.505-1.613,24.592-7.793,6.179-5.387,8.536-12.3,6.962-20.237-1.467-7.393-7.006-10.994-13.77-12.961-10.533-3.064-21.362-3.521-32.189-2.81-7.317.481-17.057,9.424-18.706,16.265-1.9,7.876,1.532,15.616,9.271,21.044C145.519,637.371,153.7,638.488,162.221,638.857Zm13.838-110.014c-.042-8.423-1.17-15.279-5.372-21.214-5.278-7.456-12.868-9.715-21.527-8.571-7.166.947-11.814,5.555-13.78,12.2-3.266,11.033-2.187,21.83,4.355,31.529,4.915,7.286,12.229,10.2,20.835,8.892,8.825-1.336,12.644-7.73,14.513-15.742A31.151,31.151,0,0,0,176.059,528.843Z" fill="#24343f"/>
    <path id="Path_21986" data-name="Path 21986" d="M12.853,505.862c6.567-5.039,11.99-9.124,18.114-12.176,23.486-11.7,45.252.225,48.062,26.416,1.693,15.784.522,31.632.949,47.446.3,11.1.512,11.788,11.4,13.48,4.672.726,5.658,2.675,4.9,6.947-.517,2.921-1.573,3.884-4.558,3.677a308.879,308.879,0,0,0-42.948.039c-2.616.183-4.8-.015-4.668-3.389.11-2.744-1.3-5.889,3.468-6.8,11.325-2.172,11.407-2.393,11.343-13.849-.074-13.489.516-26.987-.615-40.465-1.348-16.052-12.968-24.528-28.8-20.8a55.264,55.264,0,0,0-7.045,2.456c-6.528,2.509-9.413,7.117-9.207,14.271.435,15.152.355,30.319.6,45.478.175,11.054.289,11.436,11.264,12.747,4.727.565,4.677,2.749,4.258,6.317-.379,3.22-1.691,4.075-4.865,3.875a383.333,383.333,0,0,0-42.959-.064c-2.293.113-4.945.823-4.754-3.007.145-2.924-1.329-6.627,3.655-7.112,1.648-.161,3.258-.68,4.9-.909,4.4-.613,6.366-3.411,6.5-7.534.627-19.152.84-38.31.417-57.472a5.684,5.684,0,0,0-3.226-5.192,65.846,65.846,0,0,0-11.458-4.848c-1.793-.6-3.564-1.583-3.4-3.769a4.082,4.082,0,0,1,3.664-3.6c11.126-2.064,22.143-4.452,32.837-8.307,3.352-1.209,3,2.216,2.991,4.088C13.648,497.4,13.211,501,12.853,505.862Z" fill="#24343f"/>
    <path id="Path_21987" data-name="Path 21987" d="M-42.769,539.09c.51,47.182-48.687,63.231-77.653,48.046-15.081-7.906-22.028-21.3-24.186-37.37-2.685-20,1.913-37.877,19.6-49.537,18.33-12.083,38.349-15.562,58.549-4.823C-49.316,504.518-42.971,520.358-42.769,539.09ZM-64.445,546.8c-.227-5.473-.4-10.642-1.607-15.691-2.875-12.078-8.072-22.637-19.86-28.414-16.077-7.878-31.728-.582-36.118,16.718-2.725,10.738-2.192,21.507.434,32.137,2.575,10.426,7.3,19.679,16.617,25.806,16.668,10.957,34.887,3.443,39.072-15.98C-64.846,556.452-64.741,551.47-64.445,546.8Z" fill="#24343f"/>
    <path id="Path_21988" data-name="Path 21988" d="M230.648,540.731c-.559-32.645,25.177-50.466,54.455-51.359,27.537-.84,47.508,19.752,47.982,48.31.564,33.925-22.381,53.707-52.66,54.936C250.474,593.834,231.045,572.924,230.648,540.731Zm80.664,5.245c-.1-2.16-.069-4.841-.37-7.484-1.327-11.673-4.65-22.571-13.628-30.783-7.929-7.253-17.381-9.963-27.752-6.745-10.469,3.25-14.68,11.836-16.545,21.857a66.817,66.817,0,0,0,1.187,28.744c2.616,10.419,7.312,19.7,16.652,25.8,16.907,11.051,35.264,3.268,39.2-16.477A86.271,86.271,0,0,0,311.312,545.976Z" fill="#24343f"/>
    <path id="Path_21989" data-name="Path 21989" d="M-471.114,584.274c.069,8.67,1.146,17.216,4.287,25.315,1.445,3.726,2.8,8.024,7.872,8.682-3.491,9.188-4.237,18.96-6.021,28.508-.788,4.214-1.371,8.473-1.888,12.731-.286,2.358-1.8,2.413-3.559,2.381-1.814-.033-3.294-.415-3.527-2.608q-2.018-18.963-4.065-37.922c3.463-11.059,4.63-22.516,5.906-33.956C-471.987,586.309-472.3,585.045-471.114,584.274Z" fill="#b7c4c1"/>
    <path id="Path_21990" data-name="Path 21990" d="M717.5,571.578a18.948,18.948,0,0,1-19.021,18.976A19.114,19.114,0,1,1,717.5,571.578Zm-36.5-.292a17.354,17.354,0,1,0,34.7.01,17.236,17.236,0,0,0-17.065-17.216A17.433,17.433,0,0,0,681,571.286Z" fill="#24343f"/>
    <path id="Path_21991" data-name="Path 21991" d="M-471.923,333.022c-.958-.47-1.179-1.1-.429-1.949Z" fill="#13924f"/>
    <path id="Path_21992" data-name="Path 21992" d="M691.166,571.379a47.4,47.4,0,0,1,.063-6.477c.26-1.895-1.563-5.069,1.536-5.448,3.987-.486,8.576-1.318,11.728,2.28,2.163,2.468,2.517,6.421.131,8.227-4.134,3.128-2.021,5.663-.7,8.741.619,1.44,2.774,3.607.905,4.487-2.6,1.225-2.694-2.125-3.626-3.642a34.792,34.792,0,0,1-2.289-4.966c-.631-1.525-1.819-1.714-3.249-1.637-2.2.117-1.5,1.773-1.561,2.938-.093,1.825-.008,3.658-.039,5.486-.017.977.053,2.159-1.391,2.107-1.274-.046-1.518-1.026-1.513-2.119C691.178,578.03,691.169,574.7,691.166,571.379Zm3.072-5.417c-.3,2.6-.287,4.772,3.339,4.391,2.724-.287,5.436-.167,5.466-4.057.029-3.744-2.4-4.026-5.276-4.314C694.384,561.645,693.75,563.259,694.238,565.962Z" fill="#24343f"/>
  </g>
</svg>
