<svg xmlns="http://www.w3.org/2000/svg" width="448.82" height="208.378" viewBox="0 0 448.82 208.378">
  <g id="Group_22017" data-name="Group 22017" transform="translate(-443.213 -100.08)">
    <path id="Path_21967" data-name="Path 21967" d="M787.053,203.229c0-8.485.016-16.97-.012-25.454-.007-2.093-.172-3.994,2.947-3.872,6.147.24,12.352-.218,18.446.432,18.159,1.938,28.641,17.131,25.065,35.8-2.728,14.244-11.4,21.644-25.88,22.019-5.653.147-11.313.088-16.962.312-2.868.114-3.7-1.011-3.657-3.788C787.145,220.2,787.053,211.714,787.053,203.229Zm11.284-.3c0,4.995-.02,9.991.014,14.986.008,1.275-.252,2.648,1.452,3.321,5.622,2.221,16.924-1.024,19.81-6.187,4.206-7.522,4.27-15.425-.073-22.841-4.1-7-11.3-7.391-18.483-7.377-2.31.005-2.767,1.147-2.742,3.112C798.378,192.936,798.336,197.932,798.337,202.927Z" fill="#f86b36"/>
    <path id="Path_21968" data-name="Path 21968" d="M844.708,203.146c0-8.318.117-16.638-.058-24.952-.065-3.1.6-4.564,4.074-4.317,5.293.376,10.609-.117,15.912.841,12.753,2.3,16.779,16.509,8.83,23.69-1.682,1.519-1.08,2.108.445,3.257,7.235,5.453,9.386,11.21,7.135,18.4-2.406,7.688-8.067,11.816-16.92,12.1-5.318.17-10.651-.064-15.965.169-2.954.13-3.577-.981-3.519-3.739C844.821,220.116,844.707,211.63,844.708,203.146Zm11.021,11.229c1.684,2.393-2.758,7.625,4.033,7.464,7.095-.169,10.785-2.316,10.935-6.738.165-4.914-4.273-8.079-10.949-8.2C853,206.783,857.368,211.948,855.729,214.375Zm2.288-29.6c-4.426.806-1.311,5.188-1.941,7.971-.579,2.562.037,4.572,3.517,4.108,3.858-.515,6.683-1.892,6.644-6.372C866.2,186.674,863.744,184.666,858.017,184.776Z" fill="#f86b36"/>
    <path id="Path_21969" data-name="Path 21969" d="M515.79,203.285a30.567,30.567,0,0,1,30.651-30.9c17.842-.123,31.67,13.43,31.594,30.967-.074,17.293-13.908,30.757-31.445,30.607C529.211,233.806,515.752,220.4,515.79,203.285Zm31.088,24.783c14.209-.035,24.986-10.8,24.976-24.949a24.953,24.953,0,1,0-49.9.5C522.035,217.451,532.9,228.1,546.878,228.068Z" fill="#101010"/>
    <path id="Path_21970" data-name="Path 21970" d="M665.9,211.187c-5.165,0-10.345.241-15.49-.076-4.076-.25-4.409,1.48-3.515,4.717,1.689,6.118,5.41,10.463,11.543,11.94,6.523,1.57,12.58.111,17.409-4.927a12.345,12.345,0,0,0,2.122-2.766c1.307-2.532,2.82-1.306,4.488-.5,2.325,1.118.96,2.342.233,3.555-5.505,9.173-17.942,13.009-28.631,8.84-9.777-3.813-15.436-15.235-13.073-26.391,2.31-10.908,11.8-18,23.436-17.528A22.2,22.2,0,0,1,685.4,207.317c.48,3.229-.34,4.077-3.508,3.934C676.574,211.012,671.234,211.186,665.9,211.187Zm-2.916-4.88c4.32,0,8.645-.11,12.96.038,2.941.1,3.418-.775,2.241-3.441a16.7,16.7,0,0,0-15.16-9.53,16.213,16.213,0,0,0-14.988,9.707c-.915,2.216-.891,3.352,1.986,3.26C654.342,206.2,658.666,206.306,662.987,206.307Z" fill="#101010"/>
    <path id="Path_21971" data-name="Path 21971" d="M534.96,256.813c8.608,1.829,16.358,2.1,24.1.326,1.844-.423,2.333.164,1.991,2.04C557.607,278.1,550.242,295,535.876,308.458,541.6,291.327,542.093,274.339,534.96,256.813Z" fill="#f86b36"/>
    <path id="Path_21972" data-name="Path 21972" d="M443.213,191.914c17.054,5.37,33.91,5.718,51.256-1.392-1.987,9.007-2.282,17.351.258,26.377C474.588,213.841,457.283,206.534,443.213,191.914Z" fill="#f86b36"/>
    <path id="Path_21973" data-name="Path 21973" d="M559.206,100.08c-4.211,16.742-5.1,33.221,2.088,50-8.425-1.546-16.176-2.1-23.9-.273-1.8.426-2.57-.239-2.231-2.029C538.6,129.638,545.344,113.15,559.206,100.08Z" fill="#f86b36"/>
    <path id="Path_21974" data-name="Path 21974" d="M705.938,196.48c2.992-3.259,5.551-5.523,8.752-6.926,10.913-4.783,22.145,1.2,23.154,13,.777,9.087.291,18.28.482,27.423.045,2.155-.988,2.371-2.735,2.423-2.082.062-2.957-.49-2.888-2.78.16-5.318.067-10.644.042-15.966-.011-2.494.024-5-.18-7.479-.687-8.371-3.621-12.172-9.8-12.894-6.752-.79-13.567,3.725-15.738,10.475a25.337,25.337,0,0,0-1.052,7.879c.01,5.987-.125,11.977.009,17.961.051,2.262-.776,2.884-2.872,2.8-1.834-.073-3.1-.113-3.073-2.62.117-12.639.094-25.281.014-37.921-.014-2.184.725-2.909,2.876-2.844,1.9.057,3.308.18,3.031,2.638C705.822,192.907,705.938,194.192,705.938,196.48Z" fill="#101010"/>
    <path id="Path_21975" data-name="Path 21975" d="M759.3,213.5c0-5.156-.2-10.322.071-15.463.171-3.262-.825-4.5-4.1-4.056-1.75.237-3.585.547-3.545-2.507.042-3.133,2.034-2.587,3.668-2.359,3.5.487,4.2-1.15,3.957-4.205-.227-2.809.078-5.658-.086-8.475-.145-2.48.5-3.5,3.27-3.493,2.959.007,2.643,1.687,2.618,3.532-.025,1.829.157,3.676-.039,5.484-.533,4.9.077,8.54,6.483,7.13,2.006-.442,2.477.769,2.506,2.611.035,2.182-1.162,2.611-2.822,2.3-5.463-1.032-6.463,1.514-6.252,6.464.4,9.463.1,18.954.128,28.434.005,1.87.34,3.552-2.607,3.547-2.7,0-3.384-.927-3.3-3.477C759.424,223.816,759.3,218.656,759.3,213.5Z" fill="#101010"/>
    <path id="Path_21976" data-name="Path 21976" d="M597.1,194.284c3.649-3.515,6.962-6.949,12.179-6.146,1.319.2,3.56.194,3.136,2.1-.32,1.437-.91,3.5-3.361,3.7-7.919.67-11.358,4.156-11.854,12.634-.436,7.449-.356,14.931-.4,22.4-.013,2.021-.016,3.518-2.782,3.448-2.277-.057-3.19-.566-3.166-3.068.12-12.45.077-24.9.026-37.352-.008-1.961.313-3.056,2.7-3.01,2.231.043,3.54.45,3.221,3.005A10.879,10.879,0,0,0,597.1,194.284Z" fill="#101010"/>
    <path id="Path_21977" data-name="Path 21977" d="M626.891,210.586c0,5.826.041,11.652-.023,17.478-.022,1.936.984,4.342-2.785,4.4-3.54.057-3.071-1.948-3.066-4.128q.039-17.727.013-35.455c0-1.938-.553-3.88,2.767-3.936,3.534-.059,3.114,1.968,3.1,4.159C626.872,198.934,626.891,204.76,626.891,210.586Z" fill="#101010"/>
    <path id="Path_21978" data-name="Path 21978" d="M628.725,175.829c-.33,2.792-1.858,4.676-4.719,4.759a4.613,4.613,0,0,1-.378-9.217C626.507,171.13,628.125,173.016,628.725,175.829Z" fill="#101010"/>
    <path id="Path_21979" data-name="Path 21979" d="M891.95,183.016c.082,1.45.387,2.743-1.214,3.949-1.3.98-2.4-1.55-3.275.251-.048.1.087.289.137.436a10.956,10.956,0,0,0-1.665-2.9c-1.5-1.376-1.51-2.39-.362-4.119s2.11-3.122,4.418-2.517C892.834,178.862,891.843,181.162,891.95,183.016Z" fill="#101010"/>
  </g>
</svg>
