<svg xmlns="http://www.w3.org/2000/svg" width="409.331" height="181.825" viewBox="0 0 409.331 181.825">
  <g id="Group_22016" data-name="Group 22016" transform="translate(-11.454 -212.163)">
    <path id="Path_21937" data-name="Path 21937" d="M137.7,220.329c4.241-3.967,8.964-7.12,14.825-8a14.113,14.113,0,0,1,11.907,3.878,23.2,23.2,0,0,1,7.357,14.717c1.335,10.151-1.169,19.72-4.716,29.045a163.616,163.616,0,0,1-7.454,16.9c-3.542,6.86-7.548,13.483-11.461,20.145a5.8,5.8,0,0,1-2.525,1.991c-6.4,2.985-12.834,5.882-19.257,8.812-.152.069-.287.177-.689.431l17.444-4.484.368.483c-1.123,1.673-2.2,3.383-3.379,5.013-3.91,5.389-7.938,10.7-11.755,16.15-1.373,1.963-3.3,2.994-5.232,4.079-8.129,4.559-14.311,10.854-17.753,19.814.018-4.069,4.488-23.44,10.471-41.075a319.639,319.639,0,0,1,16.53-39.147c6.291-12.7,13.069-25.109,21.442-36.594l-.3-.308a19.612,19.612,0,0,0-1.607,1.447,143.064,143.064,0,0,0-17.525,23.742c-3.9,6.739-7.75,13.528-11.213,20.5A178.5,178.5,0,0,0,109,315.708c-1.888,7.885-3.755,15.784-5.251,23.749-.967,5.151-1.326,10.425-1.805,15.657a102.066,102.066,0,0,0-.64,11.737c.188,7.777.629,15.559,3,23.062.365,1.152-.092,1.532-1.474,1.753-.637-2.573-1.416-5.127-1.879-7.738-.692-3.9-1.16-7.844-1.679-12.017-.093-5.232-.447-10.222-.309-15.2a59.9,59.9,0,0,0-1.48-15.342c-1.128-4.847-2.391-9.662-3.609-14.614-.829-2.664-2.482-5.013-1.751-8.033.372-1.844.708-3.552,1.062-5.372.232-.544.445-.976.792-1.68,1.384,2.471,2.63,4.7,3.906,7.036.737,1.587,1.444,3.06,2.15,4.534l.288-.106c-.571-1.65-1.142-3.3-1.734-5.086-1.106-3.2-2.191-6.272-3.336-9.455a7.167,7.167,0,0,1-.053-2.172c.366-1.5.878-2.958,1.392-4.536.383-.886.706-1.67,1.1-2.635.7,1.07,1.27,1.936,1.861,2.917,1.187,2.338,2.351,4.559,3.515,6.781l.375-.147c-.794-2.549-1.588-5.1-2.41-7.767-.635-1.563-1.241-3.007-1.851-4.581a15.626,15.626,0,0,1-.071-1.886c.1-1.131.276-2.255.472-3.5.58-1.95,1.108-3.788,1.7-5.735.717-2.506,1.374-4.9,2.138-7.365.794-1.941,1.483-3.814,2.237-5.792.745-1.935,1.426-3.765,2.2-5.672.572-1.382,1.052-2.688,1.642-4.036.908-1.707,1.707-3.373,2.581-5.133,1.185-2.385,2.295-4.677,3.507-7.027,1.359-2.278,2.618-4.5,3.965-6.788.919-1.486,1.749-2.9,2.636-4.417.807-1.159,1.555-2.215,2.392-3.345,1.522-2.044,2.955-4.014,4.485-6.04,1.584-1.814,3.07-3.574,4.655-5.391,1.392-1.372,2.685-2.687,3.978-4m17.292,10.407" fill="#003b57"/>
    <path id="Path_21938" data-name="Path 21938" d="M137.539,220.325a39.9,39.9,0,0,1-3.976,3.994c-.705.035-1.154.018-1.6.018q-52.729,0-105.459,0c-.45,0-.9-.008-1.35.02-3.44.215-6.268,1.489-8.088,4.73-.525,1.6-.956,3.128-1.427,4.788-.066.922-.116,1.708-.115,2.493q.027,19.56.071,39.119c0,.841.067,1.683.077,2.681-.026,1.879-.027,3.6-.048,5.474,0,2.611.024,5.071.02,7.689-.015,1.85,0,3.541-.011,5.391s-.016,3.552-.028,5.408c-.011,2.3-.011,4.446-.024,6.748-.012,1.63-.01,3.1-.014,4.733-.009,1.739-.013,3.32-.02,5.06.006,2.014-.07,3.875.045,5.723.151,2.424.723,2.9,3.148,2.9q36.435.006,72.871-.015a13.156,13.156,0,0,0,2.287-.4c1.2,4.83,2.466,9.645,3.594,14.492a59.9,59.9,0,0,1,1.48,15.342c-.138,4.976.216,9.966.3,15.059q-36.606.147-73.1.034a18.59,18.59,0,0,1-5.989-1.016c-4.557-1.6-7.243-5.029-8.327-9.666a19.81,19.81,0,0,1-.362-4.474q-.027-61.4-.036-122.8c-.007-7.175,6.432-13.634,13.584-13.6C62.485,220.4,99.933,220.318,137.539,220.325Z" fill="#1080cc"/>
    <path id="Path_21939" data-name="Path 21939" d="M267.291,390.42c.908-.18,1.682-.31,2.426-.538.969-.3,1.659.091,1.747.98a1.792,1.792,0,0,1-.954,1.41,29.664,29.664,0,0,1-12.18,1.628,31.61,31.61,0,0,1-12.418-3.2,33.7,33.7,0,0,1-9.362-7.51q-4.562-5.029-9.449-9.758a8.293,8.293,0,0,0-3.394-1.61,36.046,36.046,0,0,1-14.211-7.678c-5.88-5.314-10.205-11.616-11.745-19.528a35.384,35.384,0,0,1,3.925-25.01A34.272,34.272,0,0,1,216.113,305.7a36.855,36.855,0,0,1,13.153-3.769,37.614,37.614,0,0,1,18.727,2.72,35.131,35.131,0,0,1,18.363,47.6c-4.743,9.773-12.416,16.46-23.153,19.24-.628.162-1.252.338-2.043.552,4.8,5.566,8.863,11.569,14.888,15.641,3.29,2.223,6.947,3.661,11.243,2.743m-9.256-63.079c-.3-1.136-.572-2.28-.9-3.408a27.652,27.652,0,0,0-9.429-14.6c-5.258-4.087-11.311-5.33-17.924-4.36-9.241,1.355-15.222,6.853-18.763,15.03-4.18,9.652-4.152,19.767-1.667,29.826a26.9,26.9,0,0,0,10.993,16.36,24.108,24.108,0,0,0,30.348-3.632c5.606-6.22,8.01-13.787,8.116-22.039C258.864,336.223,258.368,331.918,258.035,327.341Z" fill="#003b57"/>
    <path id="Path_21940" data-name="Path 21940" d="M170.85,331.951c4,2.968,8.21,5.535,11.746,8.824,6.586,6.128,7.128,16.954,1.693,24.126-5.381,7.1-12.557,9.178-21.013,7.388a80.182,80.182,0,0,1-8.706-2.53c-1.627-.542-2.616-.024-3.634,1.2a3.06,3.06,0,0,1-2.057.745c-.211.01-.676-1.018-.682-1.574-.054-5-.044-10.008-.019-15.012,0-.715-.3-1.636.934-1.815,1.363-.2,1.33.783,1.572,1.639.681,2.4,1,5.035,2.211,7.14,3.027,5.245,7.928,7.852,13.924,7.94,4.273.063,8.275-1.191,11.008-4.784,3.038-3.993,3.24-9.3-.077-13.9-2.785-3.868-6.852-6.219-10.679-8.839-3.646-2.5-7.372-4.879-10.97-7.441a17.531,17.531,0,0,1-7.126-11.581c-.946-5.146-.418-10.043,2.717-14.419a17.313,17.313,0,0,1,12.085-7.111c4.771-.733,9.225.352,13.7,1.673.7.207,1.406.381,2.1.587a1.723,1.723,0,0,0,2.239-.9c.282-.472,1.087-.632,1.655-.932.267.529.758,1.054.766,1.587.064,4.273.047,8.546.026,12.819,0,.731.25,1.657-1.007,1.736-1.169.073-1.4-.577-1.726-1.566a30.111,30.111,0,0,0-2.7-6.607c-2.18-3.5-5.765-5.127-9.724-5.569-4.041-.451-7.921.133-11.143,3.078-3.574,3.267-3.659,8.521-1.394,12.478,2.221,3.882,5.9,6.22,9.468,8.634C167.57,329.993,169.18,330.907,170.85,331.951Z" fill="#003b57"/>
    <path id="Path_21941" data-name="Path 21941" d="M317.259,363.721a10.975,10.975,0,0,1,1.01-2.249,1.925,1.925,0,0,1,1.454-.66,1.4,1.4,0,0,1,.845,1.088c-.27,3.06-.628,6.114-1.033,9.16-.039.29-.553.588-.907.743a2.649,2.649,0,0,1-1,.047q-20.321,0-40.643,0c-1.054,0-2.205.085-1.841-1.51a1.707,1.707,0,0,1,1-1.126c5.128-1,5.553-2.87,5.614-7.832.158-12.984.053-25.971.053-38.956,0-3.992.015-7.983-.005-11.974q-.03-5.916-5.992-6.1c-.942-.028-1.782.039-1.782-1.35s.815-1.361,1.771-1.359q9.951.012,19.9.006c.8,0,1.6-.072,1.635,1.137.028,1.014-.273,1.382-1.357,1.628-4.261.964-4.869,2.267-4.989,7.277-.23,9.664-.067,19.337-.068,29.006,0,6.183-.032,12.367.014,18.55a23.005,23.005,0,0,0,.433,5.263,5.163,5.163,0,0,0,5.062,3.814c5.249.2,10.554.7,15.758-.593A7.465,7.465,0,0,0,317.259,363.721Z" fill="#003b57"/>
    <path id="Path_21942" data-name="Path 21942" d="M399.895,352.582a43.512,43.512,0,0,1-4.384,1c-1.432.18-1.827.927-1.61,2.177,1.716,9.872,9.4,13.267,17.665,9.619a18.439,18.439,0,0,0,7.679-6.859c1.482.813,2.015,1.8,1.064,3.3-1.287,2.029-2.414,4.172-3.836,6.1-2.359,3.193-5.962,4.057-9.626,4.462-4.527.5-8.992.3-12.9-2.526-3.72-2.691-5.527-6.511-6.353-10.891-1.675-8.887.521-16.671,6.786-23.218,4.212-4.4,9.529-5.361,15.315-4.562,2.224.307,4.348.766,6.026,2.574,2.715,2.926,2.8,6.306.04,9.278a31.356,31.356,0,0,1-15.87,9.549m7.632-14.77c-2.413-2.526-5.419-3.552-8.759-.768-4.016,3.349-4.839,8.109-5.142,12.98-.022.359.924,1.179,1.252,1.1,4.235-1.039,8.559-1.95,11.853-5.146A6.191,6.191,0,0,0,407.527,337.812Z" fill="#003b57"/>
    <path id="Path_21943" data-name="Path 21943" d="M375.9,365.378c1.1-.874,2.107-1.679,3.116-2.476.481-.381.938-.976,1.472-1.06a2.861,2.861,0,0,1,1.838.524c.184.121.108,1.087-.161,1.375-3.683,3.926-7.65,7.487-13.173,8.528a13,13,0,0,1-4.669.084c-3.041-.563-4.645-2.58-4.835-6.032q-.357-6.47-.355-12.957c.006-5.218.151-10.438.333-15.655.054-1.565-.489-2.123-2.022-1.991-1.172.1-2.361.025-3.542.013-.734-.007-1.5.071-1.542-1.045a1.376,1.376,0,0,1,1.287-1.629c4.5-.784,7.314-3.632,9.2-7.579a17.258,17.258,0,0,1,.98-2.486,2.865,2.865,0,0,1,1.776-.979c.226-.037.856.884.877,1.386.1,2.3.11,4.613.026,6.916-.05,1.352.478,1.766,1.771,1.729,2.416-.07,4.838.037,7.255-.036,1.444-.043,1.8.6,1.828,1.93.032,1.414-.477,1.87-1.857,1.822-2.416-.085-4.839.036-7.255-.043-1.336-.045-1.751.452-1.741,1.759.047,6.355.022,12.712.016,19.068,0,2.225-.132,4.456-.013,6.675.257,4.822,3.42,4.81,6.6,3.606A24.619,24.619,0,0,0,375.9,365.378Z" fill="#003b57"/>
    <path id="Path_21944" data-name="Path 21944" d="M329.14,336.433c-2.172.479-2.747.136-2.371-1.455a1.89,1.89,0,0,1,1.181-1.139c4.022-.981,8.056-1.916,12.107-2.765,1.812-.379,2.163,0,2.164,1.89.007,9.333-.013,18.667.02,28a41.529,41.529,0,0,0,.365,4.852c.207,1.694,1.758,2.828,3.93,2.978a7.064,7.064,0,0,1,2.166.1c.523.226.82.976,1.217,1.494-.416.258-.831.74-1.25.743-6.184.048-12.37.029-18.555.039-.849,0-1.391-.2-1.384-1.215.008-1.067.656-1.162,1.451-1.141,4.589.123,4.842-1.084,4.918-5.236.135-7.42.039-14.844.038-22.266,0-4.125-1.156-5.218-5.178-4.91C329.735,336.423,329.51,336.419,329.14,336.433Z" fill="#003b57"/>
    <path id="Path_21945" data-name="Path 21945" d="M337.839,322.378a4.915,4.915,0,0,1-5.381-2.347,3.459,3.459,0,0,1,4.237-5.22,4.737,4.737,0,0,1,3.135,3.8A3.166,3.166,0,0,1,337.839,322.378Z" fill="#003b57"/>
    <path id="Path_21946" data-name="Path 21946" d="M15.675,233.739a37.6,37.6,0,0,1,1.514-4.583c1.162.084,2.1.258,3.047.259q52.527.021,105.054.026c1.226,0,2.451.22,3.677.337-1.433,1.971-2.866,3.941-4.543,5.985-36.339.072-72.434.071-108.538-.079C15.809,234.936,15.742,234.337,15.675,233.739Z" fill="#8ed3f3"/>
    <path id="Path_21947" data-name="Path 21947" d="M115.484,250.372c-1.11,2.291-2.22,4.583-3.56,6.968-32.16.089-64.089.083-96.022-.08,0-2.411,0-4.666.157-6.919,3.751,0,7.346.008,10.942.009Z" fill="#75c3ec"/>
    <path id="Path_21948" data-name="Path 21948" d="M115.586,250.313q-44.394.078-88.585.037c-3.6,0-7.191,0-10.95-.166a45.727,45.727,0,0,1,0-6.592q51.859,0,103.408.005C118.2,245.816,116.945,248.035,115.586,250.313Z" fill="#7cc8ee"/>
    <path id="Path_21949" data-name="Path 21949" d="M93.879,326.757a7.081,7.081,0,0,1-2.272.525q-36.435.031-72.871.015c-2.425,0-3-.479-3.148-2.9a43.988,43.988,0,0,1,.1-5.711c1.372-.039,2.6.165,3.826.165q36.291.027,72.581.012C91.4,321.744,93.05,324.093,93.879,326.757Z" fill="#1d89d0"/>
    <path id="Path_21950" data-name="Path 21950" d="M15.64,283.491c0-1.722,0-3.444.172-5.321,29.28-.146,58.392-.138,87.5-.13-.658,2.4-1.315,4.792-2.188,7.3-27.7.111-55.184.1-82.667.135C16.942,285.475,15.772,285.308,15.64,283.491Z" fill="#50abe0"/>
    <path id="Path_21951" data-name="Path 21951" d="M129.064,229.723c-1.323-.062-2.548-.281-3.774-.282q-52.527-.027-105.054-.026a20.1,20.1,0,0,1-2.954-.338c1.6-3.231,4.428-4.5,7.868-4.72.449-.028.9-.02,1.35-.02q52.729,0,105.459,0c.45,0,.9.017,1.505.039C132.134,226.149,130.648,227.909,129.064,229.723Z" fill="#96d8f6"/>
    <path id="Path_21952" data-name="Path 21952" d="M103.422,277.973c-29.218.059-58.33.051-87.585.04a12.165,12.165,0,0,1-.246-2.526q-.045-19.559-.071-39.119c0-.785.049-1.571.115-2.493a13.393,13.393,0,0,1,.239,1.961c.007,1.213.015,2.124.015,3.192,0,1.625,0,3.093.011,4.561,0,2.146-.008,4.291,0,6.594.005,2.411,0,4.666,0,7.237,0,1.9,0,3.485,0,5.226,0,1.4,0,2.642,0,4.044a24.836,24.836,0,0,0,.061,3.859c.084.516.769,1.089,1.316,1.332a4.84,4.84,0,0,0,1.833.069q41.151,0,82.3.015c1.4,0,2.794.209,4.191.32C104.9,274.159,104.216,276.032,103.422,277.973Z" fill="#59b0e3"/>
    <path id="Path_21953" data-name="Path 21953" d="M15.591,308.72c0-2.144,0-4.288.159-6.587,27.036-.151,53.91-.147,80.785-.144-.454,1.476-.966,2.937-1.332,4.434-.158.647-.013,1.369-.115,2.176Q55.23,308.779,15.591,308.72Z" fill="#3297d7"/>
    <path id="Path_21954" data-name="Path 21954" d="M16.054,243.592a21.846,21.846,0,0,1-.011-4.563q51.452-.233,102.576-.14c1.17,0,2.34.21,3.51.322-.829,1.414-1.659,2.828-2.578,4.314C85.044,243.6,50.627,243.6,16.054,243.592Z" fill="#86cef1"/>
    <path id="Path_21955" data-name="Path 21955" d="M105.659,272.181c-1.462-.007-2.859-.215-4.256-.216q-41.149-.028-82.3-.015a4.84,4.84,0,0,1-1.833-.069c-.547-.243-1.232-.816-1.316-1.332a14.305,14.305,0,0,1,.094-3.854c11.231-.151,22.3-.15,33.376-.144q29.171.015,58.342.034C107.085,268.416,106.4,270.246,105.659,272.181Z" fill="#60b5e5"/>
    <path id="Path_21956" data-name="Path 21956" d="M15.62,283.642c.152,1.666,1.322,1.833,2.841,1.831,27.483-.032,54.967-.024,82.607-.024a36.031,36.031,0,0,1-1.636,5.624c-28.061.11-55.914.105-83.766.1C15.644,288.713,15.622,286.253,15.62,283.642Z" fill="#46a4dd"/>
    <path id="Path_21957" data-name="Path 21957" d="M15.9,262.49c0-1.585-.009-3.169-.005-4.913,31.939-.154,63.868-.148,95.953-.143a29.141,29.141,0,0,1-2.512,5.037C78.012,262.5,46.957,262.5,15.9,262.49Z" fill="#6bbce8"/>
    <path id="Path_21958" data-name="Path 21958" d="M96.6,301.887c-26.935.1-53.809.1-80.832.088a29.408,29.408,0,0,1,.012-5.248c27.914-.15,55.665-.146,83.415-.142.607,1.444,1.213,2.888,1.742,4.525a8.075,8.075,0,0,1-1.4.943l-1.838-2.8C97.3,300.217,96.978,301,96.6,301.887Z" fill="#399bd9"/>
    <path id="Path_21959" data-name="Path 21959" d="M99.187,296.455c-27.747.126-55.5.122-83.395.113a52.175,52.175,0,0,1-.152-5.237c27.878-.153,55.731-.148,83.74-.144.012,1.127-.166,2.251-.264,3.382A15.626,15.626,0,0,0,99.187,296.455Z" fill="#42a2dc"/>
    <path id="Path_21960" data-name="Path 21960" d="M92.128,318.724q-36.345.205-72.618.124c-1.227,0-2.454-.2-3.822-.324a26.915,26.915,0,0,1,.028-4.911c25.925-.154,51.69-.152,77.455-.15C92.836,315.172,92.5,316.88,92.128,318.724Z" fill="#258fd3"/>
    <path id="Path_21961" data-name="Path 21961" d="M93.19,313.352c-25.784.109-51.549.107-77.468.1a40.681,40.681,0,0,1-.145-4.577c26.477-.159,52.939-.159,79.57-.164,1.254,3.064,2.339,6.133,3.344,9.375a2.541,2.541,0,0,1-.633.506l-3.876-6.923C93.635,312.376,93.422,312.808,93.19,313.352Z" fill="#2a92d4"/>
    <path id="Path_21962" data-name="Path 21962" d="M15.9,262.646c31.062-.149,62.117-.143,93.333-.134a27.752,27.752,0,0,1-1.372,4q-29.307.1-58.433.042c-11.072-.006-22.145-.007-33.372-.015A30.267,30.267,0,0,1,15.9,262.646Z" fill="#67bae7"/>
    <path id="Path_21963" data-name="Path 21963" d="M122.187,239.108c-1.228-.009-2.4-.218-3.568-.219q-51.207-.027-102.567-.017a15.976,15.976,0,0,1-.168-2.886q54.159-.228,108.451-.15C123.742,236.893,122.994,237.949,122.187,239.108Z" fill="#89d0f2"/>
    <path id="Path_21964" data-name="Path 21964" d="M99.558,302.169a8.954,8.954,0,0,1,1.4-.94c.9,2.476,1.694,5.025,2.488,7.574l-.375.147C101.909,306.728,100.745,304.507,99.558,302.169Z" fill="#2a92d4"/>
    <path id="Path_21965" data-name="Path 21965" d="M97.888,318.708a1.5,1.5,0,0,1,.624-.484c.672,1.612,1.243,3.262,1.814,4.912l-.288.106C99.332,321.768,98.625,320.3,97.888,318.708Z" fill="#1080cc"/>
    <path id="Path_21966" data-name="Path 21966" d="M155.029,230.711"/>
  </g>
</svg>
