<svg xmlns="http://www.w3.org/2000/svg" width="276.534" height="273.927" viewBox="0 0 276.534 273.927">
  <g id="Group_22014" data-name="Group 22014" transform="translate(-78.438 -162.392)">
    <path id="Path_21912" data-name="Path 21912" d="M289.26,219.54l17.665,17.644c-8,3.969-15.7,7.784-23.395,11.608-21.213,10.542-42.408,21.12-63.67,31.562a6.245,6.245,0,0,1-4.793.308q-42.641-21.039-85.144-42.357c-.626-.312-1.21-.709-2.794-1.646a26.723,26.723,0,0,0,3.579-2.5q30.06-29.975,60.057-60.011c15.639-15.632,37.507-15.677,53.072-.1C258.927,189.14,274,204.253,289.26,219.54Z" fill="#85b4f8"/>
    <path id="Path_21913" data-name="Path 21913" d="M172.491,411.193q-42.018-42.481-83.679-84.6a35.6,35.6,0,0,1,.212-50.45c3.728-3.736,7.525-7.406,11.161-11.23,1.347-1.417,2.4-1.8,4.283-.853q46.346,23.343,92.724,46.619a4.343,4.343,0,0,1,2.155,3.065c.109,40.539.093,81.079.093,122.576C188.774,429.2,181.376,419.558,172.491,411.193Z" fill="#3d8af5"/>
    <path id="Path_21914" data-name="Path 21914" d="M304.7,367.1c-22.425,22.375-44.664,44.575-66.941,66.738a19.841,19.841,0,0,1-3.474,2.14c-.12-1.388-.279-2.369-.279-3.351q-.018-58.851-.063-117.7c0-2.337.617-3.608,2.786-4.687q45.876-22.822,91.636-45.878c2.23-1.125,3.525-.971,5.214.848,3.672,3.953,7.615,7.653,11.4,11.5,13.154,13.35,13.374,35.729.3,49.187C331.915,339.665,318.359,353.255,304.7,367.1Z" fill="#1656b7"/>
  </g>
</svg>
