<svg xmlns="http://www.w3.org/2000/svg" width="800.909" height="898.567" viewBox="0 0 800.909 898.567">
  <g id="Group_22024" data-name="Group 22024" transform="translate(-772.782 -17.504)">
    <path id="Path_22014" data-name="Path 22014" d="M929.028,404.927c-26.414-13.7-52.149-28.554-77.088-44.784,8.357-4.19,9.2-13.44,13.645-20.265l16.8,6.744c5.057,3.367,10.373,6.4,15.127,10.151,22.473,17.725,44.7,26.5,66.678-.659.333-.41.944-.588,1.394-.914,77.921-56.416,155.57-113.219,233.948-168.99,20.221-14.391,38.463-32.072,62.233-41.205.165,13.393.091,26.794.544,40.174,1.069,31.7-13,53.879-40.452,69.437Q1120.7,311.952,1020.429,370.848c-14.408,8.508-31.3,13.027-43.184,25.749-9.3-2.923-19.217-4.062-27.637-9.576-6.6-4.318-11.115-2.426-14.119,4.66C933.574,396.2,931.2,400.518,929.028,404.927Z" transform="translate(186.823 300.917)" fill="#48a3fd"/>
    <path id="Path_22015" data-name="Path 22015" d="M1089.285,68.963c11.9,15.154,16.276,32.835,16.313,51.595q.252,129.124-.037,258.248c-.114,32.284-12.923,59.676-39.955,77.168-41.192,26.659-83.99,50.832-127.5,73.63-5.47-11,6.66-20.49,2.712-31.36,32.66-19.146,65.008-38.856,98.075-57.277,28.376-15.809,40.523-39.048,40.217-71.292-.733-77.605-.41-155.227-.017-232.843.081-16.36-1.287-32.193-7.04-47.542C1081.479,85.636,1079.8,72.568,1089.285,68.963Z" transform="translate(386.78 121.449)" fill="#4ccbfe"/>
    <path id="Path_22016" data-name="Path 22016" d="M797.5,416.175c-.148-79.907-.954-159.824-.1-239.721.319-30.184,14.368-55.741,40.049-71.8C872.413,82.8,908.9,63.373,944.729,42.9c.665,11.781-8.32,21.663-6.609,33.648C915,93.339,889.405,106,864.692,120.068c-27.956,15.924-41.35,38.8-41.051,71.174.591,63.8.037,127.6-.047,191.4-9.109.581-10.309,8.185-13.1,14.533C807.361,404.284,806.9,413.319,797.5,416.175Z" transform="translate(57.193 59.937)" fill="#4772fe"/>
    <path id="Path_22017" data-name="Path 22017" d="M772.964,308.215c0-15.638.383-31.289-.161-46.911-.276-7.943,2.093-10.665,10.258-10.319,15.611.655,31.316-.5,46.894.467,29.922,1.855,41.386,24.052,25.234,49.313-3.625,5.672-.346,6.273,2.194,8.83,9.647,9.714,12.154,20.984,6.875,33.736-5.127,12.4-15.927,17.389-27.929,18.158-18.363,1.176-36.844.313-55.26.853-6.979.2-8.323-2.8-8.2-8.891C773.166,338.379,772.964,323.295,772.964,308.215ZM812.106,342c7.853,0,13.454.306,19.012-.074,7.258-.5,13.672-3.562,14.361-11.418.759-8.669-5.729-13.424-13.168-14.828-7.583-1.431-15.645-.158-23.343-1.193-12.123-1.63-15.507,2.154-15.974,15.03C792.255,349.823,806.357,339.87,812.106,342Zm1.6-46.551c4.459,0,8.921.087,13.38-.02,7.886-.192,15.329-2.235,15.084-11.673-.219-8.441-6.367-12.611-14.687-12.839-8.914-.242-17.839-.03-26.753-.262-4.647-.121-6.556,1.233-7.335,6.384C790.884,293.642,792.738,295.6,813.7,295.446Z" transform="translate(0 550.975)" fill="#0c0c0c"/>
    <path id="Path_22018" data-name="Path 22018" d="M1086.63,196.72c3.948,10.873-8.182,20.359-2.712,31.363-40.133,23.9-78.691,50.714-122.359,68.14-31.2,12.449-59.981,5.373-86.677-13.353,2.171-4.405,4.546-8.726,6.461-13.242,3-7.086,7.523-8.978,14.119-4.66,8.42,5.514,18.333,6.653,27.63,9.58,22.274,1.744,40.832-7.99,59.3-18.645C1017,235.939,1051.869,216.42,1086.63,196.72Z" transform="translate(240.968 422.971)" fill="#4bbdfd"/>
    <path id="Path_22019" data-name="Path 22019" d="M987.113,267.064c-6.727,9.3-12.372,13.857-24.569,6.845-15.251-8.77-35.627-2.581-45.405,10.188-10.2,13.33-10.249,35.469-.1,48.614,10.2,13.212,30.026,17.026,47.341,9.64,4.244-1.811,7.4-8.5,12.95-4.741,4.012,2.718,8.531,6.69,9.761,10.981,1.381,4.832-4.825,6.737-8.478,8.975-25.3,15.483-62.172,9.294-78.932-13.115-16.777-22.432-14.015-59.36,5.884-78.66C926.866,245.136,961.559,245.31,987.113,267.064Z" transform="translate(273.535 549.943)" fill="#0c0c0c"/>
    <path id="Path_22020" data-name="Path 22020" d="M1032.277,302.581c0,8.941-.622,17.936.141,26.81,1.274,14.795-10.873,13.494-15.836,9.664-5.927-4.576-7.833-3.972-13.5-.86a37.16,37.16,0,0,1-46.9-9.076c-11.827-14.623-11.935-40.147-.232-54.7,10.887-13.541,31.121-18.1,47.082-10.5,4.4,2.1,6.66,7.591,12.96-.581,5.41-7.019,16.1.319,16.253,10.746C1032.388,283.58,1032.28,293.082,1032.277,302.581Zm-42.156-24.69c-13.427-.134-23.124,9.422-23.319,22.973-.2,13.649,9.123,23.507,22.483,23.786,13.158.276,23.175-9.536,23.417-22.936C1012.939,288.429,1003.074,278.019,990.121,277.891Z" transform="translate(411.756 572.915)" fill="#0c0c0c"/>
    <path id="Path_22021" data-name="Path 22021" d="M937.275,360.243c-29.321,10.148-34.468-17.674-51.061-28.756-3.494,6.189-2,12.849-1.784,18.965.279,7.987-1.031,12.029-10.7,12.106-10.047.077-8.867-5.531-8.857-11.727.047-29.112.108-58.227-.044-87.34-.033-7.066-.722-12.671,9.889-12.523,10.981.155,9.536,6.593,9.536,13.242v48.816c16.078-12.61,21.979-37.348,48.114-26.73-7.876,8.972-15.255,18.387-23.729,26.69-6.321,6.2-5.531,10.255.292,16.115C918.606,338.836,927.466,349.377,937.275,360.243Z" transform="translate(217.19 550.998)" fill="#0c0c0c"/>
    <path id="Path_22022" data-name="Path 22022" d="M941.039,292.647c9.607-6.919,18.612-10.174,28.921-9.039,12.513,1.384,20.816,7.863,24.569,19.563,5.591,17.422,2.574,35.49,2.933,53.285.165,8.276-6.777,5.245-11.166,5.776-4.819.585-8.73.151-8.515-6.606.363-11.159.195-22.345.03-33.514s-3.659-20.255-16.75-20.507c-13.188-.252-19.022,8.1-19.821,20.107a254.969,254.969,0,0,0-.067,30.15c.393,7.54-1.263,10.873-9.869,10.726-8.229-.144-10.326-2.863-10.222-10.709q.585-45.241-.01-90.495c-.117-8.2,2.671-10.181,10.544-10.443,9.15-.309,9.808,4.083,9.516,11.115C940.747,271.431,941.039,280.836,941.039,292.647Z" transform="translate(349.978 550.902)" fill="#0c0c0c"/>
    <path id="Path_22023" data-name="Path 22023" d="M931.758,31.971q65.441,37.544,130.88,75.092c1.125,9.449-8.128,16.246-6.593,25.8q-8.356-3.427-16.717-6.851c-20.483-15.8-43.463-27.059-67.179-36.988-3.192-7.12-10.265-9.358-16.243-13.044C943.925,68.6,930.263,63.727,920.73,52.642,926.866,47.065,927.255,38.422,931.758,31.971Z" transform="translate(349.175 34.144)" fill="#48a3fd"/>
    <path id="Path_22024" data-name="Path 22024" d="M895.8,301.378c-.041,23.911-17.789,41.266-41.625,40.7-23.151-.548-39.962-17.772-39.9-40.886.057-23.013,17.2-40.506,40.036-40.866C877.861,259.954,895.835,277.739,895.8,301.378Zm-40.57,22.3c12.473-.087,21.518-9.949,21.078-22.983-.44-13.118-9.966-22.63-22.338-22-14.025.716-19.257,10.03-19.963,22.311C833.242,314.307,842.614,323.773,855.228,323.682Z" transform="translate(97.919 573.077)" fill="#0c0c0c"/>
    <path id="Path_22025" data-name="Path 22025" d="M988.167,300.164c0-8.928-.111-17.862.027-26.79.165-10.954,9.539-17.143,15.96-9.627,5.937,6.952,8.283,3.118,12.883.971,23.326-10.9,45.966,2.036,48.134,27.993,1.018,12.2-.071,24.559.531,36.813.38,7.668-1.509,10.692-9.963,10.6-8.652-.084-10.181-3.706-9.9-11.105.4-10.588.222-21.212-.161-31.8-.4-10.877-5.339-18.165-17.17-18.47-12.124-.313-19.015,6.482-20.134,17.879a210.454,210.454,0,0,0-.289,33.447c.544,8.783-3.424,9.882-10.809,9.976-7.55.094-9.59-2.681-9.237-9.754C988.537,320.278,988.167,310.211,988.167,300.164Z" transform="translate(507.944 573.359)" fill="#0c0c0c"/>
    <path id="Path_22026" data-name="Path 22026" d="M797.427,177.546c9.4-2.856,9.859-11.891,12.99-19,2.792-6.347,3.992-13.951,13.1-14.533.087,18.914-.38,37.848.42,56.729.766,18.077,5.541,34.952,20.036,47.468l-.141-.141q1.7,1.648,3.4,3.3c2.661,8.589,13.292,9.217,16.875,16.891-7.917,4.607-10.007,12.107-10.191,20.55C811.224,269.241,794.212,235.744,797.427,177.546Z" transform="translate(57.268 298.566)" fill="#487efe"/>
    <path id="Path_22027" data-name="Path 22027" d="M839.161,114.375c-1.71-11.982,7.275-21.864,6.609-33.645,30.55-18.964,60.916-38.252,93.4-53.859,6.7,10.981-6.3,20.4-2.476,31.152C905.87,79.726,872.463,96.96,839.161,114.375Z" transform="translate(156.152 22.107)" fill="#487efe"/>
    <path id="Path_22028" data-name="Path 22028" d="M868.541,80.13c-3.824-10.752,9.177-20.171,2.476-31.152C899.74,28.9,929.383,11.741,966.65,19.342c3.179.645,6.176,2.171,9.26,3.286,1.472,9.748-8.054,16.76-6.6,26.508q-3.271.126-6.535.239c-17.741-8.525-33.322-.336-48.789,6.75C898.416,63.262,885.136,74.844,868.541,80.13Z" transform="translate(224.306 0)" fill="#4786fe"/>
    <path id="Path_22029" data-name="Path 22029" d="M885.449,260.041c3.884,1.139,10.073,2.14,15.429,4.805,3.6,1.791,11.367,3.256,7.056,9.99-2.812,4.385-5.366,9.953-14.354,7.184-19.5-6-31.588,1.872-32.368,18.639-.8,17.251,12.936,28.581,30.124,22.019,10.121-3.864,16.542-.709,18.81,6.213,2.655,8.1-7.258,9.546-12.789,11.713-16.287,6.391-35.688,1.946-46.071-10.467-11.942-14.277-13.024-30.728-6.011-47.223C852.191,266.644,866.579,261.1,885.449,260.041Z" transform="translate(160.82 572.415)" fill="#0c0c0c"/>
    <path id="Path_22030" data-name="Path 22030" d="M898.134,45.537c-1.458-9.748,8.068-16.76,6.6-26.508,29.885,8.961,54.394,27.909,80.717,43.487-4.5,6.451-4.892,15.094-11.015,20.668-6.992-.027-12.214-4.187-18.03-7.3C937.095,65.553,919.424,52.049,898.134,45.537Z" transform="translate(295.486 3.599)" fill="#4898fe"/>
    <path id="Path_22031" data-name="Path 22031" d="M813.974,201.535c.185-8.444,2.275-15.944,10.191-20.55l13.424,3.468,60.475,36.894c-9.486,3.7-9.828,13.424-13.7,20.816C859.92,230.318,836.766,216.239,813.974,201.535Z" transform="translate(97.218 385.834)" fill="#498bfe"/>
    <path id="Path_22032" data-name="Path 22032" d="M823.743,306.486c0,15.094-.37,30.2.155,45.277.272,7.853-1.956,10.665-10.222,10.658-8.027-.01-8.985-3.437-8.928-10.07q.368-45.276-.02-90.558c-.074-7.513,1.482-10.978,10.063-10.8,7.933.168,9.15,3.649,9.035,10.208C823.564,276.3,823.743,291.392,823.743,306.486Z" transform="translate(75.391 551.054)" fill="#0c0c0c"/>
    <path id="Path_22033" data-name="Path 22033" d="M961.122,80.121c-1.535-9.556,7.718-16.354,6.593-25.8,23.638,13.5,50.22,23.161,64.252,49.206-9.486,3.605-7.806,16.673-17.231,20.329q-6.875-7.611-13.743-15.208a69.431,69.431,0,0,0-32.865-22.177Z" transform="translate(444.098 86.888)" fill="#4bbdfd"/>
    <path id="Path_22034" data-name="Path 22034" d="M834.922,213.813c3.874-7.392,4.217-17.113,13.7-20.816,1.112.02,2.221.054,3.333.1l53.792,33.514c-4.445,6.824-5.289,16.075-13.645,20.265A456.249,456.249,0,0,1,834.922,213.813Z" transform="translate(146.658 414.184)" fill="#4898fe"/>
    <path id="Path_22035" data-name="Path 22035" d="M997.015,299.17c0,10.064-.276,20.137.1,30.187.242,6.552-.628,10.389-8.827,9.993-7.177-.349-11.347-1.079-11.075-9.953.591-19.552.645-39.149-.023-58.694-.306-8.931,3.8-9.67,10.95-9.939,7.863-.3,9.338,3.058,9,9.9C996.659,280.141,997.015,289.664,997.015,299.17Z" transform="translate(482.383 574.079)" fill="#0c0c0c"/>
    <path id="Path_22036" data-name="Path 22036" d="M986.411,250.971c8.847.255,12.873,4.7,12.849,11.468-.027,6.979-4.738,11.387-11.824,10.947-5.934-.37-10.255-3.82-10.507-10.571C976.647,255.265,981.082,252.087,986.411,250.971Z" transform="translate(481.781 551.009)" fill="#0c0c0c"/>
    <path id="Path_22037" data-name="Path 22037" d="M1240.381,196.918c-23.769,9.133-42.011,26.814-62.233,41.205C1099.77,293.894,1022.121,350.7,944.2,407.114c-.45.326-1.062.5-1.394.914-21.975,27.163-44.206,18.383-66.678.659-4.755-3.75-10.07-6.784-15.127-10.151.03-5.669,3.575-9.116,7.745-12.117,28.3-20.369,56.89-40.352,84.759-61.292,9.284-6.976,22.8-10.285,25.124-24.589,5.571-.2,11.216-1.089,16.7-.477,12.355,1.374,17.923-3.2,16.1-15.93-.47-3.283.39-6.767-.154-10.027-2.792-16.659,3.239-22.63,20.678-21.222,43.362,3.5,74.359-14.707,90.605-55.956,18.844-.78,29.3-16.381,43.685-24.972,25.426-15.184,45.778-38.12,74.134-48.943Q1240.377,159.964,1240.381,196.918Z" transform="translate(208.205 249.004)" fill="#4898fe"/>
    <path id="Path_22038" data-name="Path 22038" d="M1028.209,220.307c-2.322,14.307-15.84,17.617-25.124,24.593-27.869,20.94-56.46,40.923-84.759,61.292-4.17,3-7.715,6.448-7.745,12.117l-16.8-6.744q-26.9-16.759-53.792-33.514C867.148,249,901.284,229.292,934.153,207.9c1.233-.8,3.266-.38,4.926-.531,3.2,22.785,20.661,9.849,31.531,11.821,12.624,2.285,8.921-8.888,10.225-16.008,2.184-11.9-9.462-30.772,15.49-32.177,1.22-.071,2.06-6.875,3.074-10.541,6.472.037,12.97.2,18.76-3.464.225,16.438.662,32.875.585,49.313C1018.71,213.482,1019.036,219.7,1028.209,220.307Z" transform="translate(158.624 329.231)" fill="#498bfe"/>
    <path id="Path_22039" data-name="Path 22039" d="M1173.755,320.89q0-36.955,0-73.909.01-35.281.02-70.562.01-33.613.027-67.219c2.124-13.209-1.458-25.893-3.545-38.719q6.875,7.616,13.75,15.228c5.753,15.349,7.12,31.182,7.04,47.542-.393,77.615-.716,155.237.017,232.843.306,32.244-11.841,55.482-40.217,71.292-33.067,18.42-65.415,38.131-98.075,57.277-34.76,19.7-69.625,39.216-104.234,59.178-18.471,10.655-37.029,20.389-59.3,18.645,11.9-12.725,28.783-17.244,43.191-25.752q100.128-59.116,201.426-116.233c27.449-15.557,41.521-37.737,40.452-69.437C1173.845,347.684,1173.919,334.284,1173.755,320.89Z" transform="translate(274.831 125.032)" fill="#163da3"/>
    <path id="Path_22040" data-name="Path 22040" d="M1017.023,60.3c16.6-5.285,29.875-16.868,45.449-24,15.467-7.086,31.047-15.275,48.785-6.75-9.375,3.572-19.421,5.961-28.01,10.893Q967.9,106.734,853.09,173.941c-11.613,6.8-21.663,15.927-24.462,30.352-10.49,14.556-5.568,31.226-6.462,47.1q.036,21.844.081,43.688.045,25.206.094,50.412.036,15.115.064,30.231l-.044,46.766-.181,74.178c-2.114,10.433,4.14,19.973,3.242,30.278-14.5-12.516-19.27-29.391-20.036-47.468-.8-18.881-.333-37.815-.42-56.729.081-63.8.635-127.6.044-191.4-.3-32.375,13.094-55.25,41.051-71.174,24.713-14.072,50.311-26.73,73.428-43.52C952.791,99.239,986.2,82,1017.023,60.3Z" transform="translate(75.824 19.828)" fill="#224cd2"/>
    <path id="Path_22041" data-name="Path 22041" d="M811.968,201.9c2.8-14.425,12.849-23.554,24.462-30.352q114.81-67.211,230.158-133.5c8.589-4.933,18.635-7.322,28.01-10.893q3.271-.116,6.539-.239c21.29,6.512,38.961,20.016,58.268,30.349,5.816,3.111,11.038,7.271,18.03,7.3,9.519,11.088,23.181,15.961,35.164,23.343,5.978,3.686,13.051,5.924,16.243,13.047-2.52,6.384-8.387,6.28-13.84,7.56q-141.337,33.174-282.619,66.554C892.345,184.46,852.824,196.184,811.968,201.9Z" transform="translate(92.484 22.218)" fill="#454efe"/>
    <path id="Path_22042" data-name="Path 22042" d="M816.782,149.9c40.856-5.719,80.377-17.442,120.413-26.834q141.337-33.154,282.619-66.554c5.453-1.28,11.32-1.176,13.84-7.56,23.716,9.926,46.7,21.189,67.179,36.985-.45,7.879-7.493,7.9-12.291,9.109-37.707,9.5-75.387,19.237-113.421,27.254-14,2.95-27.684,9.008-42.536,7.463-6.243-21.619-23.208-6.75-34.811-9.546-10.8-2.6-7.137,8.189-7.91,14.012-1.216,9.207,4.284,21.545-2.792,27.029-7.9,6.129-20.708,3.441-30.748,1.351-8.605-1.794-4.3-11.277-4.442-17.2-.595-25.987-.339-25.355-25.513-26.044-12.04-.329-17.416,2.349-16.109,15.483.927,9.294-.632,18.837-1.078,28.269q-10.484.141-20.974.279c-14.647,2.07-29.9-3.965-44.159,3.29-6.062.39-12.338-.108-18.148,1.314-38.581,9.435-77.064,19.284-115.581,29C811.214,181.126,806.292,164.456,816.782,149.9Z" transform="translate(87.67 74.221)" fill="#4557fe"/>
    <path id="Path_22043" data-name="Path 22043" d="M906.634,103.785c14.852,1.546,28.534-4.513,42.536-7.463C987.2,88.3,1024.883,78.567,1062.59,69.068c4.8-1.21,11.841-1.23,12.291-9.109q8.357,3.427,16.717,6.851,3.5,3.175,7,6.347c-2.016,5.08-7.3,9.62-5.756,15.2,4.264,15.369-5.118,19.65-16.834,22.4-28.974,6.787-58.029,13.232-86.926,20.329-7.137,1.754-15.93,1.922-18.877,11.23-10.662-2.964-21.371-4.963-32.593-4.916C904.114,137.527,904.114,137.316,906.634,103.785Z" transform="translate(313.622 100.199)" fill="#4666fe"/>
    <path id="Path_22044" data-name="Path 22044" d="M813.6,227.126c.9-10.305-5.356-19.845-3.246-30.278,24.583-8.528,43.954-24.23,60.438-43.907,22.92,3.454,43.423,16.391,67.044,17.086-.611,8.914-7.661,13.451-13.592,17.909-20.7,15.557-41.887,30.47-63,45.469-6.34,4.506-13.188,8.377-14.082,17.234l-13.424-3.468c-3.582-7.674-14.213-8.3-16.875-16.891q-1.7-1.643-3.4-3.3Z" transform="translate(87.645 319.647)" fill="#4772fe"/>
    <path id="Path_22045" data-name="Path 22045" d="M810.972,174.977q1.7,1.648,3.4,3.3Q812.672,176.625,810.972,174.977Z" transform="translate(90.133 371.655)" fill="#224cd2"/>
    <path id="Path_22046" data-name="Path 22046" d="M821,238.639c.894-8.857,7.742-12.728,14.082-17.234,21.115-15,42.3-29.912,63-45.469,5.931-4.459,12.98-8.995,13.592-17.909l9.13.06c.148,8.239,2.466,13.847,12.6,12.547,6.028-.773,12.241-.131,18.373-.124,34.065.023,34.065.023,32.116,34.445-1.66.151-3.693-.272-4.926.531-32.869,21.391-67,41.094-94.161,70.149-1.112-.047-2.221-.081-3.333-.1Z" transform="translate(113.806 331.648)" fill="#487efe"/>
    <path id="Path_22047" data-name="Path 22047" d="M924.874,133.038c2.947-9.308,11.74-9.476,18.877-11.23,28.9-7.1,57.952-13.541,86.926-20.329,11.717-2.745,21.1-7.026,16.834-22.4-1.546-5.578,3.74-10.117,5.756-15.2a69.425,69.425,0,0,1,32.869,22.177c2.08,12.805,5.662,25.49,3.538,38.7-4.57-.225-8.646.625-12.167,4.019-17.839,17.194-40.6,23.554-63.873,28.776-16.1,3.612-32.183,7.308-48.275,10.967C954.833,153.313,942.064,140.656,924.874,133.038Z" transform="translate(358.955 109.469)" fill="#4772fe"/>
    <path id="Path_22048" data-name="Path 22048" d="M1100.2,119.925c17.19,7.617,29.958,20.275,40.486,35.486,4.442,11.885,8.165,23.917,7.56,36.837.48,12.96-3.844,24.868-8.047,36.807-12.675,10.927-15.437,22.066-2.238,35.09,4.059,4.009,5.672,10.494,8.407,15.843,2.254,14.418,1.408,28.89.763,43.359-16.243,41.249-47.24,59.457-90.6,55.956-17.439-1.408-23.47,4.563-20.678,21.222.544,3.259-.316,6.744.154,10.027,1.818,12.728-3.75,17.3-16.1,15.93-5.48-.612-11.125.272-16.7.477-9.173-.615-9.5-6.828-9.466-13.995.077-16.438-.359-32.875-.585-49.313q.01-26.879.027-53.762c-2.637-17.983,6.173-23.39,22.594-20.782a36.381,36.381,0,0,0,9.946.017c8.286-1.008,10.682,3.642,10.884,10.692-.958,46.722-5.743,35.271,33.964,36.9,14.348.588,25.1-5.9,31.706-18.057,7-12.886,6.334-25.755-4.193-37.082-7.886-9.986-18.292-13.111-30.779-12.832-23.309.521-46.635.134-69.955.124-43.439-.013-43.439-.013-41.074,44.38-13.021,6.895-27.076,1.435-40.513,3.394-.541-11.606-1.656-23.218-1.458-34.811.195-11.441-4.714-14.979-15.265-12.322-7.681-.2-15.359-.554-23.04-.581-23.474-.091-23.474-.04-24.946-22.913-2.517-17.123,5.235-21.145,21.585-20.477,33.511,1.364,67.166-.709,100.663.833,17.332.8,22.852-4.412,20.873-21.209-.944-8.014-4.23-19.62,1.993-24.018,9.522-6.73,22.745-3.276,34.125-2.14,9.9.988,3.569,11.2,6.293,16.649-1.938,30.422-1.938,30.422,28.165,30.268,2.214-.01,4.432.054,6.646-.037,26.437-1.089,40.244-21.485,31.864-47.045-8.474-14.5-20.584-21.5-37.889-21.011-26.216.736-52.465.165-78.7.151-30.92-.013-30.617-.007-31.269,30.268-.128,5.974,4.99,17.839-6.609,16.68-11.878-1.186-28.39,10.715-35.563-9.25a456.712,456.712,0,0,0-.007-80.918c.45-9.432,2.01-18.975,1.082-28.269C913,73.354,918.372,70.676,930.412,71c25.174.689,24.918.057,25.513,26.044.138,5.921-4.163,15.4,4.442,17.2,10.04,2.09,22.845,4.778,30.748-1.351,7.076-5.484,1.576-17.822,2.792-27.029.773-5.823-2.886-16.616,7.91-14.012,11.6,2.8,28.568-12.073,34.811,9.546-2.52,33.531-2.52,33.742,30.98,33.608C1078.831,114.962,1089.54,116.961,1100.2,119.925Z" transform="translate(183.628 122.582)" fill="#f9fbfe"/>
    <path id="Path_22049" data-name="Path 22049" d="M936.778,152.2c4.2-11.939,8.528-23.847,8.047-36.807,14.869,1.764,28.682-3.619,42.425-7.476,12.839-3.6,17.855-.783,17.644,12.53-.071,4.553-2.9,11.243,3.232,13.289,4.839,1.613,8.82-3.37,13.024-6.028,13.491-8.531,24.227-21.417,40.4-25.695q-.01,35.281-.02,70.562c-28.356,10.823-48.708,33.759-74.134,48.943-14.385,8.592-24.841,24.193-43.685,24.972.642-14.469,1.489-28.941-.763-43.359,20.423-7.6,27.583-27.432,39.424-42.909,2.54-3.323,7.241-6.771,4.052-11.616-3.33-5.057-9.247-3.33-13.823-2.456C960.7,148.422,949.328,153.684,936.778,152.2Z" transform="translate(387.05 199.442)" fill="#498bfe"/>
    <path id="Path_22050" data-name="Path 22050" d="M913.795,226.652c1.949-34.421,1.949-34.421-32.116-34.445-6.132-.007-12.345-.648-18.373.124-10.134,1.3-12.452-4.308-12.6-12.547,1.979-29.949,1.979-29.949,21.165-30.953,22.926.178,45.852.454,68.778.517,30.97.084,30.97.017,33.467,30.4-1.015,3.666-1.855,10.47-3.074,10.541-24.952,1.4-13.306,20.278-15.49,32.177-1.3,7.12,2.4,18.292-10.225,16.008C934.456,236.5,916.993,249.437,913.795,226.652Z" transform="translate(183.908 309.949)" fill="#f9fbfe"/>
    <path id="Path_22051" data-name="Path 22051" d="M959.249,198.228c-2.5-30.382-2.5-30.315-33.467-30.4-22.926-.064-45.852-.339-68.778-.517,2.09-8.6,10.121-7.47,16-9.284,9.422-2.91,19.66-3.441,27.613-10.275,13.437-1.959,27.492,3.5,40.513-3.394L978.035,141q-.015,26.884-.027,53.762C972.219,198.426,965.72,198.265,959.249,198.228Z" transform="translate(198.775 291.47)" fill="#48a3fd"/>
    <path id="Path_22052" data-name="Path 22052" d="M1061.21,149.247c-16.176,4.277-26.911,17.163-40.4,25.695-4.2,2.658-8.185,7.641-13.024,6.028-6.136-2.046-3.3-8.736-3.232-13.289.211-13.313-4.8-16.132-17.644-12.53-13.743,3.857-27.556,9.24-42.425,7.476.6-12.92-3.118-24.952-7.56-36.837,16.092-3.659,32.173-7.355,48.275-10.967,23.269-5.222,46.034-11.582,63.873-28.776,3.521-3.394,7.6-4.244,12.167-4.019Q1061.222,115.636,1061.21,149.247Z" transform="translate(387.392 152.204)" fill="#487efe"/>
    <path id="Path_22053" data-name="Path 22053" d="M1008.79,133.612c7.174,19.966,23.686,8.064,35.563,9.25,11.6,1.159,6.482-10.705,6.609-16.68.652-30.275.349-30.281,31.269-30.268,26.236.013,52.485.585,78.7-.151,17.3-.487,29.415,6.515,37.889,21.011l-66.675,16.814c-2.725-5.447,3.609-15.661-6.293-16.649-11.38-1.136-24.6-4.59-34.125,2.14-6.223,4.4-2.937,16-1.993,24.018,1.979,16.8-3.541,22.005-20.873,21.209-33.5-1.542-67.152.531-100.663-.833-16.35-.669-24.1,3.353-21.585,20.477-12.406-1.132-24.085,2.581-36.064,4.9-33.655,6.509-66.056,18.692-100.387,22.056q-.03-15.116-.067-30.231Q909.443,157.141,1008.79,133.612Z" transform="translate(88.066 184.646)" fill="#487efe"/>
    <path id="Path_22054" data-name="Path 22054" d="M1008.856,163.847q-99.347,23.533-198.694,47.062-.04-25.206-.094-50.412c43.4-17.9,89.369-25.611,135.151-34.058,46.917-1.24,46.917-1.24,42.66-43.231q10.489-.141,20.974-.279A457.061,457.061,0,0,1,1008.856,163.847Z" transform="translate(88 154.411)" fill="#4772fe"/>
    <path id="Path_22055" data-name="Path 22055" d="M810.147,149.094c34.33-3.363,66.732-15.547,100.387-22.056,11.979-2.318,23.659-6.031,36.064-4.9,1.472,22.872,1.472,22.822,24.946,22.913,7.681.027,15.359.38,23.04.581-1.425,9.116-9.67,8.279-15.524,9.8-19.307,5.03-38.96,8.746-58.237,13.874-33.7,8.965-68.772,12.779-101.119,26.82l-9.6-.269Z" transform="translate(88.083 246.456)" fill="#4786fe"/>
    <path id="Path_22056" data-name="Path 22056" d="M945.273,123.933c-45.782,8.447-91.751,16.162-135.151,34.058q-.036-21.844-.077-43.688c38.517-9.714,77-19.563,115.581-29,5.81-1.421,12.086-.924,18.148-1.314Q944.525,103.965,945.273,123.933Z" transform="translate(87.946 156.917)" fill="#4666fe"/>
    <path id="Path_22057" data-name="Path 22057" d="M810.233,143.932q4.8.131,9.6.269c13.5,15.712,34.865,18.148,50.65,30C854,193.88,834.631,209.582,810.048,218.11Q810.144,181.019,810.233,143.932Z" transform="translate(87.953 298.385)" fill="#4666fe"/>
    <path id="Path_22058" data-name="Path 22058" d="M851.343,126.529q-.746-19.969-1.5-39.942c14.26-7.254,29.512-1.22,44.159-3.29C898.26,125.289,898.26,125.289,851.343,126.529Z" transform="translate(181.876 154.321)" fill="#f9fbfe"/>
    <path id="Path_22059" data-name="Path 22059" d="M863.611,210.072c-15.786-11.854-37.149-14.291-50.65-30,32.344-14.042,67.417-17.856,101.116-26.82,19.277-5.128,38.93-8.844,58.237-13.874,5.854-1.522,14.1-.685,15.524-9.8,10.551-2.658,15.46.88,15.265,12.322-.2,11.592.917,23.2,1.458,34.811-7.953,6.834-18.192,7.365-27.613,10.275-5.877,1.814-13.908.682-16,9.284-19.186,1-19.186,1-21.165,30.953l-9.13-.06C907.034,226.462,886.531,213.526,863.611,210.072Z" transform="translate(94.828 262.516)" fill="#4898fe"/>
    <path id="Path_22060" data-name="Path 22060" d="M919.517,169.916l-36.907,3.357c-2.365-44.394-2.365-44.394,41.074-44.38,23.319.01,46.645.4,69.955-.124,12.486-.279,22.892,2.846,30.775,12.836-18.437,13.014-41.088,11.811-61.473,18.239-.2-7.049-2.6-11.7-10.884-10.692a36.381,36.381,0,0,1-9.946-.017C925.689,146.526,916.879,151.932,919.517,169.916Z" transform="translate(257.293 262.556)" fill="#4898fe"/>
    <path id="Path_22061" data-name="Path 22061" d="M906.427,150.815c20.385-6.428,43.036-5.225,61.473-18.239,10.531,11.324,11.2,24.193,4.2,37.079-6.6,12.157-17.358,18.645-31.706,18.057C900.684,186.086,905.469,197.537,906.427,150.815Z" transform="translate(313.806 271.583)" fill="#48a3fd"/>
    <path id="Path_22062" data-name="Path 22062" d="M906.436,118.814,973.111,102c8.38,25.56-5.427,45.956-31.864,47.045-2.214.091-4.432.027-6.646.037C904.5,149.236,904.5,149.236,906.436,118.814Z" transform="translate(313.776 199.42)" fill="#4786fe"/>
    <path id="Path_22063" data-name="Path 22063" d="M944.442,121.9c12.55,1.489,23.92-3.773,35.825-6.048,4.576-.874,10.494-2.6,13.823,2.456,3.189,4.845-1.512,8.293-4.052,11.616-11.841,15.477-19,35.308-39.424,42.909-2.739-5.349-4.351-11.834-8.41-15.843C929.005,143.965,931.767,132.826,944.442,121.9Z" transform="translate(379.387 229.739)" fill="#4898fe"/>
  </g>
</svg>
