<svg xmlns="http://www.w3.org/2000/svg" width="246.643" height="405.38" viewBox="0 0 246.643 405.38">
  <g id="Group_22011" data-name="Group 22011" transform="translate(-158.984 -637.192)">
    <path id="Path_21873" data-name="Path 21873" d="M158.984,759.487l2.082-.093c3.7-1.46,7.481-2.76,11.1-4.4q55.6-25.234,111.158-50.566l.656.486q-.169,64.439-.338,128.882c-28.11-14.191-54.3-31.72-81.589-47.338q-21.565-12.341-43.072-24.774Z" transform="translate(0 81.22)" fill="#2c2c2c"/>
    <path id="Path_21874" data-name="Path 21874" d="M278.447,914.688c.329-4.5-2.857-7.311-5.125-10.526Q219.7,828.168,166.061,752.193c-1.676-2.378-3.087-4.944-4.624-7.421l1.57-1.718q53.264,31.276,106.533,62.54c3.729,2.186,7.556,4.2,11.336,6.3q.007,47.024.011,94.044l-.243,6.308-.011,2.442Z" transform="translate(2.963 127.884)" fill="#7a7a7a"/>
    <path id="Path_21875" data-name="Path 21875" d="M282.187,783.741q-55.576,25.294-111.158,50.566c-3.621,1.643-7.4,2.943-11.1,4.4,17.026-32.23,37.064-62.672,55.51-94.062,19.579-33.31,39.647-66.329,59.6-99.416,1.55-2.572,2.014-6.551,6.372-6.461l1.406,4.67Q282.5,713.59,282.187,783.741Z" transform="translate(1.139 1.906)" fill="#7a7a7a"/>
    <path id="Path_21876" data-name="Path 21876" d="M215.3,782.3q.315-70.149.629-140.3l3.979-2.042c10.972,17.889,22.067,35.706,32.9,53.686q38.218,63.462,76.2,127.072c2.378,3.977,4.308,8.225,6.445,12.349-2.663,1.855-5.109,1.51-8.055.124q-25.5-11.986-51.193-23.544c-20.042-9.04-40.157-17.914-60.241-26.858Z" transform="translate(68.029 3.344)" fill="#272727"/>
    <path id="Path_21877" data-name="Path 21877" d="M215.78,704.646c20.084,8.945,40.2,17.819,60.241,26.858q25.682,11.582,51.193,23.544c2.945,1.387,5.392,1.731,8.055-.124.155,3.093,5.412,5.533-1.082,9.289-38.8,22.445-77.188,45.62-115.736,68.51a11.459,11.459,0,0,1-3.01.8Q215.611,769.086,215.78,704.646Z" transform="translate(68.203 81.486)" fill="#121212"/>
    <path id="Path_21878" data-name="Path 21878" d="M215.541,905.973q-.007-47.021-.011-94.044l116.765-68.9,1.716,1.6c-2.928,4.615-5.67,9.36-8.812,13.822Q273.63,831.7,221.935,904.851a7.446,7.446,0,0,1-1.674,1.309Q217.9,906.064,215.541,905.973Z" transform="translate(68.309 127.849)" fill="#2f2f2e"/>
    <path id="Path_21879" data-name="Path 21879" d="M220.331,643.3l-3.979,2.042q-.7-2.335-1.407-4.67l1.921-3.484Z" transform="translate(67.603 0)" fill="#121212"/>
    <path id="Path_21880" data-name="Path 21880" d="M215.668,816.823q2.361.093,4.721.188c-.991,2.581-1.753,5.352-4.964,6.121Q215.548,819.978,215.668,816.823Z" transform="translate(68.182 216.998)" fill="#272727"/>
    <path id="Path_21881" data-name="Path 21881" d="M162.7,745.676c-.8-.883-3.244-1.126-1.93-2.8.945-1.2,2.632-.364,3.5,1.08Z" transform="translate(1.699 126.979)" fill="#7a7a7a"/>
  </g>
</svg>
