<svg xmlns="http://www.w3.org/2000/svg" width="501.072" height="429.631" viewBox="0 0 501.072 429.631">
  <g id="_6ly2gH.tif" data-name="6ly2gH.tif" transform="translate(-61.603 -145.828)">
    <g id="Group_22012" data-name="Group 22012">
      <path id="Path_21882" data-name="Path 21882" d="M387.249,473.079c-29.841-15.864-59.081-32.8-88.521-49.374-8.606-4.845-11.615-12.579-11.841-21.748-.216-8.745.041-17.5-.1-26.25-.042-2.583.764-3.969,3.11-5.275,10.757-5.987,21.389-12.2,32.01-18.432,3.89-2.282,3.1.8,3.116,2.633.073,8.941.23,17.887-.02,26.821-.268,9.591,4.348,16.431,12.112,21.03,14.179,8.4,28.525,16.541,43.077,24.276,6.928,3.682,14.625,4.442,21.851.349q23.483-13.3,46.727-27.017c6.732-4,9.708-10.544,9.783-18.177.159-16.359.3-32.725-.034-49.078-.238-11.66-8.03-18.1-17.5-23.241-12.155-6.6-24.138-13.518-36.195-20.3-9.789-5.506-19.143-4.26-28.6,1.225-21.139,12.265-42.408,24.309-63.672,36.36-26.2,14.849-52.525,29.483-78.641,44.48-10.716,6.153-20.488,4.228-30.493-1.527-19.377-11.145-38.885-22.062-58.352-33.05-6.6-3.727-13.447-7.069-19.813-11.157a21.213,21.213,0,0,1-10.168-18.659q-.046-46.227.025-92.453c.03-9.346,4.646-16.064,12.778-20.624,26.446-14.827,52.823-29.775,79.276-44.59,9.986-5.593,19.506-3.983,29.124,1.632,22.9,13.369,45.774,26.821,69.134,39.359,13.165,7.066,20.289,16.408,18.952,31.7-.594,6.8-.137,13.688-.08,20.536.02,2.387-.207,4.337-2.7,5.718-10.774,5.98-21.442,12.147-32.169,18.212-.778.44-1.6,1.12-2.958.426,0-8.151-.505-16.529.113-24.823,1.039-13.963-5.374-22.821-17.356-29.053-11.76-6.116-23.15-12.942-34.709-19.444-10.249-5.765-19.931-6.23-30.441.55-12.4,8-25.64,14.7-38.629,21.756-8.728,4.742-12.788,12.125-12.9,21.719-.167,14.646.093,29.3-.089,43.942-.138,11.125,4.6,19.282,14.169,24.738,13.669,7.793,27.278,15.7,41.11,23.194,7.709,4.177,15.879,5.117,23.947.511,18.428-10.519,36.818-21.1,55.267-31.586,17.139-9.739,34.362-19.328,51.493-29.082,13.329-7.589,26.553-15.364,39.862-22.99,8.537-4.892,17.057-5.4,25.915-.364q40.527,23.022,81.265,45.678c9.325,5.184,12.349,13.547,12.408,23.274.176,28.914.092,57.83.049,86.745-.017,10.864-5.161,18.626-14.623,23.867-22.546,12.485-45.02,25.1-67.54,37.631-6.046,3.365-12.153,6.622-18.232,9.928Z" fill="#594897"/>
      <path id="Path_21883" data-name="Path 21883" d="M562.167,496.1a3.979,3.979,0,0,0,.508.071v48.222l-.607-.159Z" fill="#4f4c4b"/>
      <path id="Path_21884" data-name="Path 21884" d="M345.928,549.434c6.128,5.831,13.11,9,21.494,8.327,6.4-.516,13.453-3.827,14.877-10.029a40.947,40.947,0,0,0,.567-9.612c0-.528.15-1.172-.451-1.348-.643-.187-.874.536-1.23.919a25.517,25.517,0,0,1-12.9,7.371c-19.25,4.843-37.826-8.175-40.369-27.87-2.206-17.083,9.883-32.445,23.6-35.905,11.16-2.815,21.768-1.276,31.359,6.137.459-3.911,2.856-4.812,6.446-4.529,3.867.3,7.779.117,11.669.045,1.562-.03,2.283.231,2.281,2.105-.029,20.967.527,41.945-.324,62.9-.329,8.1-5.11,14.527-11.614,19.053-14.243,9.911-29.5,10.948-45.388,4.008a46.391,46.391,0,0,1-10.691-7.007c-.718-.587-1.108-.989-.291-1.911C338.654,557.911,342.271,553.665,345.928,549.434ZM382.8,513.276c-.439-2.753.8-5.6-.494-8.3-2.69-5.63-7.784-7.658-13.385-8.668a17.861,17.861,0,0,0-18.08,7.737,17.224,17.224,0,0,0,.415,18.022c4.669,6.925,12.024,9.512,20.352,7.016,8.936-2.677,11.375-5.931,11.3-15.091A4.757,4.757,0,0,0,382.8,513.276Z" fill="#1b1a1a"/>
      <path id="Path_21885" data-name="Path 21885" d="M81.668,539.162c0,10.771-.075,21.072.055,31.371.03,2.413-.435,3.334-3.1,3.2-4.988-.244-10-.129-15-.036-1.574.029-2.018-.436-2.016-2.006q.066-44.166-.009-88.333c0-1.785.567-2.141,2.212-2.1,4.257.111,8.522.134,12.777-.007,1.857-.061,2.619.563,2.873,2.354a45.3,45.3,0,0,0,1.252,4.9c9.145-6.863,19.143-10.309,30.524-8.231a28.033,28.033,0,0,1,16.678,9.844c9.724,11.625,10.13,32.121,1.316,43.631-5.715,7.465-13.623,10.664-22.571,11.946A31.863,31.863,0,0,1,81.668,539.162Zm.453-26.058c0,1.844.1,3.7-.022,5.532a8.443,8.443,0,0,0,2.718,6.6c4.39,4.641,9.778,5.632,15.856,4.8a16.635,16.635,0,0,0,13.557-12.2c1.615-5.788-1.178-14.535-5.77-17.8-5.115-3.638-10.734-4.165-16.608-2.3-7.192,2.285-9.731,5.789-9.731,13.152Z" fill="#1b1a1a"/>
      <path id="Path_21886" data-name="Path 21886" d="M486.188,511.09c-.051,13.426-4.763,22.969-15.073,29.313-6.592,4.057-14.01,5.511-21.685,5.316-9.8-.25-18.754-3.014-25.8-10.14-5.184-5.24-7.729-11.692-8.408-19.093-.985-10.733,1.958-19.9,9.809-27.351,5.261-4.993,11.8-7.6,18.8-8.871A38.217,38.217,0,0,1,468.1,483.5C480.085,489.441,485.692,499.486,486.188,511.09ZM450.7,496.621c-8.207-.786-15.6,6.764-15.494,15.824.09,7.625,4.792,17.262,14.861,17.2,9.255-.057,15.244-6.732,15.348-16.538S459.476,496.632,450.7,496.621Z" fill="#1b1a1a"/>
      <path id="Path_21887" data-name="Path 21887" d="M213.541,512.72c.139,12.314-5.1,21.733-15.444,28.213-6.015,3.77-12.856,5.07-19.9,5.1-9.21.042-17.663-2.263-24.983-8.144-5.618-4.513-8.57-10.471-10.02-17.33-1.97-9.32-.687-18.194,4.644-26.1,5.343-7.92,13.472-11.881,22.628-13.669,8.272-1.616,16.533-1.047,24.174,2.629C206.832,489.291,213.307,499.069,213.541,512.72Zm-20.559,1.365c.137-6.9-1.788-11.537-6.289-15.084-6.787-5.348-17.683-3.086-21.594,4.58a19.332,19.332,0,0,0-1.751,13.749c2.326,9.377,9.469,14.269,19.376,11.585C189.516,527.074,192.982,521.253,192.982,514.085Z" fill="#1b1a1a"/>
      <path id="Path_21888" data-name="Path 21888" d="M562.167,496.1l-.1,48.134c-5.926.02-11.854-.047-17.776.109-1.945.051-2.239-.658-2.229-2.366.068-11.537.035-23.076.035-34.614,0-5.784-1.6-8.8-5.32-10.043-4.659-1.561-10.731.21-13.522,4.165a27.534,27.534,0,0,0-5.176,16.337c.036,8.122-.042,16.246.05,24.368.019,1.689-.384,2.19-2.129,2.148-5.275-.124-10.557-.108-15.833-.008-1.729.032-2.189-.557-2.184-2.214q.081-28.536.024-57.073c0-1.514.334-2.142,1.987-2.109,4.721.1,9.446.074,14.168.009,1.433-.019,2.217.313,2.391,1.9.246,2.246.729,4.466,1.194,7.183a39.59,39.59,0,0,1,7.17-7.231c8.551-6.22,25.634-7.144,33.316,2.2A15.193,15.193,0,0,1,562.167,496.1Z" fill="#1b1a1a"/>
      <path id="Path_21889" data-name="Path 21889" d="M267.352,573.769c2.815-6.113,5.46-11.867,8.115-17.616,2.093-4.534,4.138-9.091,6.339-13.572.639-1.3.114-2.17-.4-3.21q-12.048-24.3-24.065-48.622c-1-2.031-1.878-4.126-2.906-6.144-.6-1.179-.456-1.659.961-1.654,6.577.028,13.155.014,19.733.011,1.336,0,1.75.834,2.254,1.954,4.955,11.024,10,22.006,15.031,33a6.139,6.139,0,0,0,.511.7c2.1-4.4,4.187-8.612,6.14-12.89,3.239-7.1,6.4-14.233,9.573-21.358a2.08,2.08,0,0,1,2.25-1.449c4.815.107,9.635.084,14.451.022,1.722-.022,2.009.458,1.3,2.026q-8.556,18.854-17,37.757-10.491,23.534-20.837,47.131c-1.222,2.8-2.6,4.276-6.02,4.014C277.75,573.483,272.675,573.769,267.352,573.769Z" fill="#1b1b1b"/>
      <path id="Path_21890" data-name="Path 21890" d="M225.69,488.971c0-17.543.035-35.087-.047-52.63-.009-2.094.411-2.85,2.684-2.766,5.088.189,10.19.14,15.282.015,1.761-.043,2.138.508,2.136,2.176q-.069,53.184.013,106.369c0,1.981-.749,2.212-2.406,2.184-5.093-.086-10.192-.129-15.282.017-1.984.058-2.432-.549-2.424-2.457C225.72,524.243,225.69,506.607,225.69,488.971Z" fill="#191919"/>
    </g>
  </g>
</svg>
