<svg xmlns="http://www.w3.org/2000/svg" width="915.576" height="380.006" viewBox="0 0 915.576 380.006">
  <g id="Group_22013" data-name="Group 22013" transform="translate(-767.345 -115.866)">
    <path id="Path_21891" data-name="Path 21891" d="M1437.427,298.283c0-34.942.05-67.727-.052-100.511-.016-5.008-.575-8.739,6.937-8.8,7.7-.063,8.592,3.008,8.555,9.383-.218,37.252-.03,74.506-.246,111.758-.019,3.352,2.431,9.467-2.608,9.735-6.609.351-14.38,3.859-19.819-4.836-15.961-25.519-32.587-50.622-48.943-75.9-4.974-7.685-9.96-15.363-14.831-23.113-.878-1.4-1.765-2.263-3.444-2.136-1.747.133-1.592,1.4-1.443,2.537,2.853,21.716.569,43.526,1.185,65.283.31,10.931-.226,21.888.16,32.814.272,7.739-5.044,5.335-9.009,5.743-4.419.455-6.949-.174-6.914-5.916.246-39.617.164-79.236.008-118.853-.018-4.5,1.275-5.941,5.935-6.379,9.729-.915,15.925,1.713,21.45,10.851,19.24,31.822,39.7,62.909,59.712,94.263C1434.639,295.117,1435.432,295.886,1437.427,298.283Z" fill="#161616"/>
    <path id="Path_21892" data-name="Path 21892" d="M1657.2,373.975H806.694v-1.911h850.538Q1657.218,373.019,1657.2,373.975Z" fill="#3d3d3d"/>
    <path id="Path_21893" data-name="Path 21893" d="M1481.766,254.143c0-19.491.184-38.984-.129-58.469-.081-5.018,1.08-6.515,6.278-6.412,17.728.352,35.475.466,53.2-.027,6.442-.179,6.933,2.417,7.151,7.713.247,5.987-2.222,6.69-7.255,6.554-12.11-.327-24.243.139-36.35-.232-5.627-.172-8.043,1.3-7.8,7.337.393,9.729.329,19.5-.041,29.227-.21,5.508,1.844,7.169,7.179,7.025,11.52-.309,23.062.168,34.578-.195,4.81-.152,6.367,1.35,5.879,5.983-.409,3.872,1.321,8.553-5.55,8.4-11.817-.27-23.652.116-35.465-.253-5.061-.158-6.7,1.421-6.558,6.464.3,10.621.251,21.264-.053,31.887-.149,5.2,1.236,7.2,6.929,7.013,13.582-.441,27.2.16,40.782-.22,5.593-.156,7.147,1.715,6.907,7.043-.2,4.522.062,7.61-6.32,7.457-19.2-.46-38.424-.32-57.634-.064-4.736.063-5.887-1.407-5.83-5.986C1481.908,294.306,1481.767,274.224,1481.766,254.143Z" fill="#161616"/>
    <path id="Path_21894" data-name="Path 21894" d="M1618.57,262.473c0,16.532-.323,33.074.158,49.592.193,6.641-1.719,8.244-8.34,8.465-7.5.25-7.826-2.972-7.79-8.82.2-33.359-.061-66.72.192-100.077.047-6.193-.936-9.116-8.086-8.44-7.907.749-15.964-.21-23.911.291-5.957.376-5.9-2.841-5.744-7.028.149-3.9-.524-7.3,5.655-7.227q39.444.48,78.9-.024c6.077-.073,6.373,2.7,6.607,7.508.271,5.558-1.441,7.145-6.925,6.806-7.948-.493-15.964.182-23.922-.224-5.407-.275-7.076,1.39-6.96,6.928.366,17.41.135,34.832.135,52.25Z" fill="#161616"/>
    <path id="Path_21895" data-name="Path 21895" d="M1207.144,301.345c-12.468,12.991-27.28,19.582-45.721,18.936-20.917-.733-41.881-.3-62.82-.057-5.322.061-10.552-3.313-15.907-.365a9.592,9.592,0,0,1-.018-1.323l3.654-3.816c4.123-.385,8.933,1.716,11.826-3.171,2.921-4.934,7.608-6.021,12.758-5.569,5.269.462,7.686-1.5,6.947-6.877,2.985-.139,5.8-.6,7.148-3.8,6.149-.8,9.157-9.018,16.508-6.987q.844,3.2,1.687,6.406c-.9,11.886-.574,12.247,8.422,9.427,2.122,12.786,6.941,15.857,19.536,12.448l1.919,1.344.461-.682-2.352-.694c9.275-1.963,13.613-9.506,18.852-16.4-2.875-1.97-6.367-4.057-8.943-2.86-8.6,3.995-18.542-4.532-26.511,3.243-.471.46-1.7.145-2.574.191,5.191-10.719,12.1-20.581,15.989-31.95,3.848-2.694,8.209-5.354,12.712-4.968,11.656,1,23.833-3.439,34.972,3.093-3.451,12.483-13.213,21.4-18.92,32.087C1199.888,303.8,1205.2,292.227,1207.144,301.345Zm-25.164,14.811.574-.412-.481-.507-.726.691Z" fill="#003c7d"/>
    <path id="Path_21896" data-name="Path 21896" d="M1086.332,314.72q-1.827,1.908-3.656,3.815l-9.088-.493c-.666-.868-1.345-.872-2.039-.034l-4.743-1.757c-.336-2.834-1.114-5.4-4.038-6.67-1.23-3.415-3.978-3.863-7.081-3.62a15.285,15.285,0,0,1-1.7-.1c-6.2-3.34-5.624-14.823-16.1-13.27-1.519.226-1.6-2.043-1.12-3.539.514-1.6,1.578-4.026-1.257-3.687-2.007.24-4.945-1.867-6.216,1.361-.852,2.164-1.354,4.466-2.012,6.706a70.429,70.429,0,0,1-12.434-28.3q-.308-.834-.616-1.668-.449-1.845-.9-3.69c2.02.232,4.487-.2,5.986.81,7.094,4.763,7.916.515,8.007-5.168a67.014,67.014,0,0,0-4.2-23.952c-3.326-9.282-8.176-18.195-8.291-28.433,3.559-.584,6.9-2.42,10.664-1.811,2.322,5.408,4.446,10.912,7.008,16.2,5.1,10.543,7.142,22.4,13.952,32.2.971,5.87,1.076,12.106,6.785,15.969.794,5.6,2.065,10.962,7.157,14.435,2.129,7.947,6.129,14.682,12.78,19.7C1076.213,305.909,1081.806,309.848,1086.332,314.72Z" fill="#168fc1"/>
    <path id="Path_21897" data-name="Path 21897" d="M919.089,288.43a1.6,1.6,0,0,1-.344,1.379q-.813.906-1.628,1.811l-.057.036c-4.009-.017-3.556,2.8-3.439,5.4l.01-.011c-1.736.57-1.859,2-1.856,3.49-6.713,10.471-16.934,16.215-28.188,20.226-21.676,7.725-44.287,6.047-66.715,6.122-3.7.013-4.548-1.9-4.445-4.972l3.914-6.426c3.883-3.835,4.819-9.448,7.92-13.571,2.846-3.785,1.452-10.417,7.839-11.7,3.059,5.834-1.022,11.393-.666,17.138s-5.159,12.637-1.062,16.588c4.12,3.973,11.777,1.264,17.863,1.279,19.547.048,34.218-8.108,42.652-26.236q.942-1.582,1.888-3.163c4.925-3.689,6.589-9.249,8.446-14.7,6.15-5.289,7.845-12.964,10.62-20.025,2.276-5.791,2.654-10.133-5.982-6.833-3.562,1.362-5.731-2.294-8.629-3.432,5.75-11.093,10.634-22.72,19.691-31.767,1.52-.107,3.013-.272,3.823-1.848,6.335-1.907,3.869,7.375,8.967,7.041q-.063,5.332-.125,10.664a24.529,24.529,0,0,0-7.132,17.717c-1.3.254-2.821.258-2.662,2.22a.821.821,0,0,0,.558.559c1.96.147,1.969-1.367,2.214-2.67l7.1-3.631c-1.881,8.2-4.955,16.238-3.5,24.909l-.008.072c-4.4.159-1.534,3.295-2.071,5.036q-.348.915-.7,1.831-.379.993-.765,1.987l.01-.007a3.3,3.3,0,0,0-1.987,3.381l-.014.017Z" fill="#007db6"/>
    <path id="Path_21898" data-name="Path 21898" d="M1177.753,471.64c5.319-13.919,10.489-25.687,14.232-37.891,2.3-7.482,7.429-5.43,11.934-5.259,5.649.215,2.685,4.935,2.735,7.453.287,14.455.081,28.919.184,43.379.025,3.526.15,6.03-4.853,6.055-5.21.026-4.725-2.829-4.708-6.171.059-11.168.022-22.336.022-35.866-5.309,13.587-9.787,25.207-14.421,36.766-.872,2.175-.645,5.2-4.708,5.218-4.12.021-4.72-2.6-5.79-5.361-4.189-10.8-8.441-21.575-14.18-32.029,0,10.005.1,20.01-.056,30.013-.047,3.092,1.79,7.183-4.426,7.4-6.65.233-5.134-4.039-5.149-7.58-.059-14.166-.093-28.333.051-42.5.029-2.806-1.656-7.213,3.929-6.882,3.98.235,8.427-1.839,10.539,4.678C1167.107,445.463,1172.29,457.484,1177.753,471.64Z" fill="#161616"/>
    <path id="Path_21899" data-name="Path 21899" d="M1401.123,471.191c3.678-14,6.736-25.554,9.732-37.12.736-2.838.864-5.733,5.119-5.831,4.573-.1,5,2.681,5.81,6.065a288.005,288.005,0,0,0,9.908,33.884c2.465-11.565,5.367-23.062,7.195-34.726.8-5.089,3.182-5.58,7.042-5.1,5.548.691,2.445,4.613,1.985,6.739-3.168,14.637-6.8,29.172-10.053,43.792-.825,3.706-1.283,6.316-6.329,6.52-5.712.23-5.217-3.916-6.03-6.8-2.943-10.452-5.464-21.022-8.615-33.395-4.966,10.608-6.1,20.683-9.232,30.089a42.158,42.158,0,0,0-1.774,6.814c-.632,4.1-3.729,2.858-6.163,3.061-2.682.224-4.172-.58-4.84-3.669-3.419-15.8-7.232-31.515-10.648-47.316-.4-1.856-3.2-5.505,1.963-5.835,3.648-.234,6.521-.419,7.337,4.919C1395.344,445.142,1398.177,456.849,1401.123,471.191Z" fill="#161616"/>
    <path id="Path_21900" data-name="Path 21900" d="M1032.746,123.342c4.728.371,9.579-.3,14.117,1.671-8.33,2.166-6.97,6.329-2.141,10.963,2.686,2.578,4.662,6.111,8.739,6.975q.237,2.586.465,5.175c1.5,9.6-3.357,15.074-11.331,11.479-6.157-2.776-11.21-1.044-16.958-.275-6.811.911-14.019,1.5-18.72-5.6-3.39-5.121-7.7-4.6-12.27-1.672-4.313-2.239-7.822-5.068-7.757-10.527A93.278,93.278,0,0,1,1032.746,123.342Z" fill="#00346e"/>
    <path id="Path_21901" data-name="Path 21901" d="M968.89,466.006c0-10.818.088-21.637-.051-32.453-.044-3.374.184-5.426,4.579-5.383,4.049.039,5.038,1.54,5,5.159-.136,14.782,0,29.568-.261,44.348-.043,2.489,2.235,6.461-2.222,7.371-3.752.766-7.216.429-9.714-3.853-5.943-10.187-12.484-20.027-18.8-30-.723-1.141-1.532-2.227-3.757-5.445,0,12.671-.086,22.83.044,32.985.05,3.938-.05,6.751-5.473,6.616-5.329-.133-4.51-3.33-4.515-6.518-.023-14.487-.161-28.977.038-43.461.033-2.383-2.334-6.438,2.653-6.943,3.412-.346,6.69-.723,9.1,3.307,6.955,11.651,14.4,23.01,21.65,34.483Z" fill="#161616"/>
    <path id="Path_21902" data-name="Path 21902" d="M1252.847,242.015c-8.3,14.528-17.312,28.555-28.705,40.915q-1.668.791-3.336,1.585c-2.122-5.752-3.339-11.594-1.773-17.715-.548-4.208,3.323-6.768,3.938-10.542q6.177-13.285,12.359-26.569c3.811-1.769,3.418-5.866,4.879-8.916,4.026-8.409,7.075-17.3,12.518-25,3.368,7.335,9.913,2.16,14.743,3.738-1.825,8.69-6.746,15.984-10.69,23.723C1253.778,229.122,1250.3,234.949,1252.847,242.015Z" fill="#007db6"/>
    <path id="Path_21903" data-name="Path 21903" d="M1122.563,217.408c3.368,12.937,7.506,25.69,9.361,38.99l-.515.452a2.94,2.94,0,0,0-1.051-.545c-.6-1.735-1.335-1.562-2.151-.146a9.076,9.076,0,0,1-1.345-.161c.661-4.676-1.223-8.774-3.817-12.239-3.075-4.108-6.96-7.611-10.494-11.377-5.518,7.012-16.19.181-21.42,7.962l-1.764-5.374c2.779-2.751.657-3.209-1.673-3.57a8.341,8.341,0,0,0-1.461-.183q-5.493-20.314-10.988-40.629c4.346-3.021,11.768,1.973,14.4-5.517q.69.051,1.376.128l2.083-.02c1.423.736,1.675,2.088,1.839,3.487,1.673,5.85,2.882,11.883,5.109,17.514C1105.433,219.8,1108.305,221.048,1122.563,217.408Z" fill="#168fc1"/>
    <path id="Path_21904" data-name="Path 21904" d="M1391.267,136.18q-7.211,16.4-14.424,32.8c-.817,1.856-1.4,4.308-4.007,3.943-1.876-.262-2.329-2.309-3.067-3.964-4.879-10.947-9.9-21.833-16.7-32.766,0,8.424.405,16.876-.182,25.259-.269,3.842,2.76,10.961-2.711,11.033-6.128.08-2.746-7.038-2.933-10.785-.543-10.894-.285-21.832-.167-32.752.029-2.643-1.351-6.243,3.3-6.873,4.007-.543,5.75,1.666,7.179,5.015,4.852,11.377,9.925,22.66,15.623,35.589,5.182-11.5,9.794-21.778,14.449-32.036a55.83,55.83,0,0,1,3.549-7.073c1.292-2.021,3.62-1.789,5.659-1.472,2.319.36,2.308,2.288,2.309,4.09.012,14.462.005,28.924.056,43.386.007,2.093-.689,3.326-2.908,3.543-3.063.3-3.245-1.585-3.236-3.883.044-10.875.02-21.75.02-32.626Z" fill="#222"/>
    <path id="Path_21905" data-name="Path 21905" d="M843.056,485.2c-6.417-.636-14.177-2.274-18.583-10.129-1.221-2.178-4.073-5.7-.128-7.271,2.328-.925,6.705-2.66,8.3,3.028,1.985,7.069,8.2,7.686,14.412,7.082,3.7-.36,6.9-1.937,7.791-5.93,1-4.451-1.261-7.422-5.232-9.029-4.872-1.972-9.944-3.465-14.762-5.551-6.338-2.745-11.037-6.912-10.367-14.7.655-7.606,5.527-11.055,12.351-13.021,10.995-3.167,21.936.273,26.075,8.643.991,2,3.082,4.929.2,6.032-2.347.9-6.343,2.423-8.223-1.814a16.051,16.051,0,0,0-.963-2.43c-3.293-4.972-8.289-5.239-13.39-4.329a7.426,7.426,0,0,0-6.565,7.235c-.339,5.714,4.152,7.234,8.283,8.9,2.715,1.1,5.513,1.985,8.247,3.035,11.447,4.392,15.111,9.377,13.662,18.524C863.057,480.461,855.232,485.194,843.056,485.2Z" fill="#161616"/>
    <path id="Path_21906" data-name="Path 21906" d="M1619.272,455.878c0-2.654-.322-5.356.064-7.952.956-6.432-3.217-17.3,1.961-18.523,10.666-2.516,22.992-3.686,33.413,3.017,6.032,3.879,7.692,10.379,6.581,17.17-1.075,6.564-4.9,11.283-11.7,12.843-3.115.714-6.428,1.725-9.482,1.322-8.632-1.14-12.767,1.476-10.924,10.745.394,1.985-.115,4.133.089,6.177.349,3.5-1.11,4.649-4.547,4.593-3.344-.054-5.6-.263-5.44-4.639.293-8.241.085-16.5.085-24.754Zm9.805-12.117c.583,7.246-2.682,14.146,7.871,13.219,10.662-.936,14.907-2.987,15.107-10.474.19-7.107-4.69-10.306-13.6-11.244C1629.276,434.3,1627.912,438.521,1629.077,443.761Z" fill="#161616"/>
    <path id="Path_21907" data-name="Path 21907" d="M875.089,456.861c0-7.685-.017-15.371.009-23.057.009-2.659-.339-5.581,3.808-5.47,7.673.206,15.477-.487,22.992.69,10.575,1.656,15.785,8.663,15.325,18.337-.428,9.006-6.362,14.883-16.551,16.462-5.132.8-12.029-2.466-15.006,1.767-2.382,3.388-.8,9.728-.554,14.737.194,4.005-1.5,4.9-5.189,4.979-4.194.088-4.926-1.9-4.872-5.388C875.172,472.234,875.089,464.547,875.089,456.861Zm10.119-10.776c-1.005,6.64-1.179,11.943,8.7,10.9,9.861-1.037,13.953-3.256,13.9-10.727-.052-7.08-4.9-9.944-13.91-11.008C884.082,434.1,884.263,439.434,885.208,446.085Z" fill="#161616"/>
    <path id="Path_21908" data-name="Path 21908" d="M1561.2,484.448c6.772-17.709,13.532-34.907,19.83-52.271,1.194-3.293,2.805-3.911,5.71-3.878,2.822.033,4.59.39,5.81,3.77,5.87,16.258,12.262,32.328,18.38,48.5.6,1.587,2.692,4.244-1.172,4.472-2.969.176-6.678,1.583-8.333-2.761-1.413-3.708-.687-9.689-4.562-10.668-5.835-1.474-12.29-.414-18.477-.6-5.089-.156-4.683,4.558-5.036,6.892C1572.254,485.177,1568.329,486.342,1561.2,484.448Zm25.528-44.177c-2.352,6.7-3.5,11.439-5.626,15.694-3.261,6.537-1.79,8.263,5.493,8.117,6.712-.135,9.382-1.017,5.8-8.081C1590.242,451.757,1589.1,447,1586.731,440.271Z" fill="#161616"/>
    <path id="Path_21909" data-name="Path 21909" d="M818.332,484.417c-6.676,1.956-11.422,1.2-12.1-6.627-.531-6.139-4.146-7.6-9.648-6.855a33.818,33.818,0,0,1-7.962.012c-5.055-.53-8.607.7-9.206,6.447-.751,7.194-4.65,9.517-12.072,6.985,6.705-17.8,13.486-35.565,20.032-53.412,1.192-3.251,3.537-2.388,5.723-2.649,3.106-.37,4.523.918,5.645,4C805.068,449.686,811.72,466.936,818.332,484.417Zm-24.7-41.9c-3.721,6.885-7.564,13.467-8.178,21.02h15.543Z" fill="#161616"/>
    <path id="Path_21910" data-name="Path 21910" d="M992.262,455.137c.849-7.629-4.142-20.117,1.932-25.39,5.284-4.587,17.46-1.255,26.59-1.408,1.772-.03,3.546.049,5.317.005,2.267-.056,3.028,1.105,3.044,3.24.017,2.3-.226,4.01-3.229,3.951-6.2-.12-12.434.336-18.6-.129-6.823-.514-5.163,4.184-4.882,7.542.277,3.3-2.981,9.015,4.754,8.5,4.411-.292,8.858-.046,13.289-.049,2.636,0,5.308-.574,5.177,3.778-.137,4.55-3.212,3.212-5.561,3.36a31.478,31.478,0,0,1-7.078-.023c-8.636-1.443-11.538,1.389-11.077,10.629.363,7.286,1.8,9.982,9.224,8.988,4.643-.62,9.438-.075,14.164-.132,2.252-.028,3.878.121,3.94,3.168.062,3.1-.99,4.112-4.025,4.071-9.451-.127-18.91-.229-28.356.032-4.316.12-4.737-2.016-4.669-5.433C992.366,472.168,992.262,464.493,992.262,455.137Z" fill="#161616"/>
    <path id="Path_21911" data-name="Path 21911" d="M1508.738,445.747c5.272-1.523,9.894-4.469,15.473-2.652,8.27,2.694,11.817,8.924,11.631,21.478-.175,11.81-3.816,17.813-12.15,20.068a12.037,12.037,0,0,1-8.625-.4c-3.129-1.479-5.655-3.544-9.323.513-1.9,2.1-6.421,1.182-6.3-4.572.353-16.841.252-33.7.016-50.54-.056-4.016,1.286-4.933,5.021-4.977s4.423,1.495,4.308,4.713C1508.6,434.68,1508.738,440,1508.738,445.747Zm-.026,18.007c0,2.354-.166,4.722.033,7.06.472,5.513,4.009,7.544,9.073,7.2,8.733-.6,8.89-7.286,8.947-13.52.058-6.474.367-13.674-8.655-14.77-4.95-.6-8.619,1.618-9.352,6.976A51.7,51.7,0,0,0,1508.712,463.754Z" fill="#161616"/>
    <path id="Path_21912" data-name="Path 21912" d="M1213.281,429.179c7.69-2.755,11.078.137,13,7.1,3.193,11.567,7.137,22.927,11.44,36.508,4.736-14.129,8.769-26.23,12.865-38.309.65-1.92,1.126-4.771,2.491-5.379,2.246-1,5.52-1.375,7.691-.448,2.948,1.258.622,3.928-.075,5.9-5.4,15.231-10.937,30.41-16.207,45.683-1.085,3.145-2.212,5.3-6,5.02-2.662-.2-5.386.219-6.552-3.105Q1222.635,455.648,1213.281,429.179Z" fill="#161616"/>
    <path id="Path_21913" data-name="Path 21913" d="M1279.293,457.135c.143,3.245-.044,6.545.5,9.721.964,5.623,3.97,10.019,9.912,11,6.286,1.034,12.391-.214,14.135-7.291,1.428-5.792,5.83-4.256,8.191-3.325,3.76,1.482,1.185,4.954.061,7.383-3.268,7.064-12.245,11.337-21.681,10.558a21.981,21.981,0,0,1-19.7-16.4,51.093,51.093,0,0,1,.178-24.549c2.241-9.1,11.09-15.505,21.111-15.9,9.753-.382,17.885,4.26,20.7,11.98.755,2.074,2.458,5.328-.491,6.03-2.358.562-6.847,2.485-8.023-2.376-1.9-7.843-7.7-9.428-14.229-8.267-7,1.244-9.957,6.666-10.372,13.462-.161,2.647-.026,5.311-.026,7.967Z" fill="#161616"/>
    <path id="Path_21914" data-name="Path 21914" d="M1014.84,203.028c.115,10.238,4.965,19.151,8.291,28.433a67.014,67.014,0,0,1,4.2,23.952c-.091,5.683-.913,9.931-8.007,5.168-1.5-1.007-3.966-.578-5.986-.81-1.59-.667-1.773-2.13-2.014-3.559.552-12.281-4.212-24.3-.407-36.949,1.9-6.32-7.562-17.646-13.893-19.741-2.264-6.379-5.155-12.6-5.011-19.591,1.263-.169,1.517,3.95,3.548.764,1.823-2.861,3.862-5.585,5.8-8.366-.005.005.624.075.624.075l.63-.054c.273,7.816,6.208,13.146,8.778,19.954C1011.015,196.368,1011.62,200.118,1014.84,203.028Z" fill="#41a8cf"/>
    <path id="Path_21915" data-name="Path 21915" d="M1309.768,142.684c-.267,6.951-4.019,12.564-7.469,18.13-6.216,10.028-10.322,21.4-18.873,29.953-1.861-2.784-3.728-5.553-7.636-5.484q2.043-7.071,4.084-14.14c2.014-1.28,4.005-2.835,4.506-5.157,2.544-11.784,10.176-23.3,2.2-35.733l.031-.047a3.418,3.418,0,0,0,1.858-3.478c.5-2.411,2.985-4.337,1.749-7.17l.331-.34,4.871.463a32.915,32.915,0,0,1,.076,3.5c-.585,7.354-.292,13.659,10.084,12.578C1310.588,135.233,1309.443,139.7,1309.768,142.684Z" fill="#b4dceb"/>
    <path id="Path_21916" data-name="Path 21916" d="M1462.84,467.445c3.793,10.938,9.319,13.3,18.646,8.019,2.925-1.656,4.793-1.95,6.616.8,1.72,2.6-.755,3.675-2.208,4.853-7.148,5.793-18.851,5.355-26.065-.867-7.617-6.569-8.9-19.538-2.875-29.129a18.2,18.2,0,0,1,23.071-6.973c6.753,2.9,12.229,14.034,10.465,20.729-.921,3.5-3.534,2.484-5.639,2.52C1477.6,467.521,1470.35,467.445,1462.84,467.445Zm18.049-7.518c-.05-5.713-1.885-9.861-7.813-10.2-6.759-.381-9.091,4.1-9.9,10.2Z" fill="#161616"/>
    <path id="Path_21917" data-name="Path 21917" d="M1178.186,169.26c7.941-25.876,24.445-42.65,51.425-48.289,2.051.406,4.015.433,5.584-1.271l5.21-.548q2.711.267,5.421.53-.066,1.667-.13,3.333l-3.441.168c-2.357-.023-3.541,1.159-3.6,3.5a12.415,12.415,0,0,1-1.657.115c-7.293-1.286-8.931,7.454-14.639,8.411-7.344,1.232-9.958,6.294-12.3,12.282-1.421,3.633-1.808,8.3-6.826,9.446-4.684-6.976-7.271-1.9-10.8,1.495-4.984,4.791-6.945,12.634-14.682,14.624a2.071,2.071,0,0,1-.018-1.694Q1177.966,170.309,1178.186,169.26Z" fill="#168fc1"/>
    <path id="Path_21918" data-name="Path 21918" d="M1162.314,220.745c3.628-12.982,7.127-26,10.993-38.913.771-2.575.505-6.1,3.995-7.347,2.927.967,2,2.924,1.407,4.956-.58,1.993-.746,5.3,1.381,5.189,7.151-.362,7.889,5.6,10.715,9.558-1.123,11.86-7.887,22.242-8.951,34.117a5.605,5.605,0,0,1-1-.039C1172.415,231.312,1167.562,225.542,1162.314,220.745Z" fill="#76bfdb"/>
    <path id="Path_21919" data-name="Path 21919" d="M988.061,167.733c-3.348-3.107-5.654-.986-8.13,1.432-11.865,11.584-22.05,24.621-32.573,37.368.224-6.208,3.6-11.529,4.921-17.409,1.089-4.829,1.43-9.583-5.807-9.506q4.121-5.067,8.237-10.136l12.269-12.561c3.037-2.22,3.57-6.637,7.271-8.276,4.715-1.509,7.786-.6,9.212,4.846.947,3.613,3.226,6.878,4.908,10.3Q988.214,165.761,988.061,167.733Z" fill="#76bfdb"/>
    <path id="Path_21920" data-name="Path 21920" d="M868.994,185.028c14.8-23.838,32.806-44.371,58.694-56.767l2.176.593c-4.983,8.574-15.678,11.563-20.188,20.6-10.963,11.676-18.359,25.783-26.767,39.2-5.492-2.686-8.8-.819-10.255,4.91-.428,1.685-1.769,2.159-3.253,2.442C870.35,192.307,870.743,188.627,868.994,185.028Z" fill="#168fc1"/>
    <path id="Path_21921" data-name="Path 21921" d="M1058.6,128.832c9.663-2.778,18.623,1.287,26.153,5.512,11.039,6.192,19.739,15.654,20.636,29.681-2.614-.091-5.287.152-7.664-1.32-4.818-2.982-6.746-1.425-6.759,4,0,1.624-1.169,3.245-1.8,4.866-5.272-7.307-5.764-17.914-15.369-22.231.182-1.7.6-3.433-.575-4.98C1069.638,137.976,1063.546,133.944,1058.6,128.832Z" fill="#b4dceb"/>
    <path id="Path_21922" data-name="Path 21922" d="M1162.314,220.745c5.248,4.8,10.1,10.567,18.536,7.518-1.851,7.175-4.711,13.765-9.594,19.552-6.182,7.326-11.9,15.041-17.82,22.588l-.057.063L1140.912,283a5.7,5.7,0,0,1-1.538-.259l-2.056-8.668c8,1.562,11.3-2.51,12.8-11.608C1152.488,248.151,1155.245,233.768,1162.314,220.745Z" fill="#b4dceb"/>
    <path id="Path_21923" data-name="Path 21923" d="M1052.075,460.553q0-5.316,0-10.632c0-13.248.005-13.279-13.256-14.356-2.383-.194-4.564.2-4.56-3.518,0-3.486,1.7-3.753,4.372-3.739q18.18.094,36.361,0c2.721-.015,4.433.352,4.322,3.789-.115,3.588-2.262,3.269-4.71,3.453-13.218.993-13.211,1.041-13.205,14.433.005,10.041-.138,20.086.075,30.123.078,3.671-.762,5.159-4.81,5.236-4.3.081-4.753-1.827-4.646-5.3C1052.218,473.553,1052.075,467.051,1052.075,460.553Z" fill="#161616"/>
    <path id="Path_21924" data-name="Path 21924" d="M832.1,290.217c-6.387,1.284-4.993,7.916-7.839,11.7-3.1,4.123-4.037,9.736-7.921,13.567-.476-4.606-.826-8.906,1.9-13.376a10.21,10.21,0,0,0-.627-12.127c4.919-16.928,10.44-33.637,18-49.61,1.113-2.351,1.671-5.124,4.887-5.632.269,2.347.891,4.954-.67,6.866-4.543,5.566-2.543,10.314,1.361,14.992q-.891,5.31-1.776,10.625C841.047,276.18,831.917,281.721,832.1,290.217Z" fill="#b4dceb"/>
    <path id="Path_21925" data-name="Path 21925" d="M841.192,256.6c-3.906-4.679-5.906-9.427-1.363-14.993,1.561-1.912.939-4.519.67-6.866,3.953-18.439,16.447-32.411,25.382-48.239.461-.816,2.05-1,3.114-1.473,1.748,3.6,1.355,7.279.405,10.978a281.588,281.588,0,0,0-23.369,53.667C845.133,252.566,844.1,255.188,841.192,256.6Z" fill="#76bfdb"/>
    <path id="Path_21926" data-name="Path 21926" d="M1499.905,135.657c10.739.154,17.5,7.532,17.482,19.081-.016,11.8-7.71,19.558-19.3,19.448-9.733-.092-17.16-8.255-17.011-18.7C1481.254,143.13,1488.5,135.493,1499.905,135.657Zm10.866,19.1c-.063-8.619-4.352-13.74-11.558-13.8-7.186-.057-12.083,5.97-11.9,14.64.176,8.089,5.068,13.323,12.358,13.222C1506.936,168.718,1510.836,163.774,1510.771,154.753Z" fill="#222"/>
    <path id="Path_21927" data-name="Path 21927" d="M1586.075,154.567c.172,11.589-6.988,19.4-18.031,19.659-10.308.246-18.186-7.729-18.288-18.513-.114-11.97,7.34-19.859,18.846-19.948C1579.373,135.682,1585.9,142.705,1586.075,154.567Zm-6.341.3c-.06-8.67-4.352-13.883-11.428-13.882-7.439,0-12.047,5.617-11.887,14.487.15,8.335,4.86,13.553,12.058,13.36S1579.794,163.544,1579.734,154.871Z" fill="#222"/>
    <path id="Path_21928" data-name="Path 21928" d="M1122.563,217.408c-14.258,3.64-17.13,2.388-22.514-11.228-2.227-5.631-3.436-11.664-5.11-17.513,7.38-1.343,14.687-2.293,20.636,3.912A90.988,90.988,0,0,1,1122.563,217.408Z" fill="#41a8cf"/>
    <path id="Path_21929" data-name="Path 21929" d="M1032.746,123.342a93.292,93.292,0,0,0-45.858,18.19c-6.817-4.142-11.5-11.383-19.705-13.509l-9.112-3.392q-.081-.636-.142-1.273Z" fill="#76bfdb"/>
    <path id="Path_21930" data-name="Path 21930" d="M1595,156.331c-1.967-4.519,4.479-12.6-5.495-15.318-1.3-.355-1.212-3.524.042-3.614,7.012-.5,4.882-5.926,5.806-9.8,1.414-5.925,5.3-8.911,11.4-9.211,2.02-.1,3.769.321,4.076,2.38.3,2.028-.873,3-3.19,3.019-4.871.038-6.291,3.086-6.612,7.572-.328,4.584,1.784,5.606,5.706,5.461a2.32,2.32,0,0,1,2.551,2.82c-.188.862-1.579,2.151-2.34,2.095-7.5-.557-5.755,4.805-5.816,8.906-.088,5.9-.027,11.8-.009,17.707.007,2.448.112,4.971-3.452,4.783-3.1-.165-2.672-2.5-2.671-4.541Z" fill="#222"/>
    <path id="Path_21931" data-name="Path 21931" d="M1275.788,185.283c3.91-.069,5.777,2.7,7.638,5.484-8.533,18.071-17.113,36.114-30.579,51.248-2.547-7.066.931-12.893,3.933-18.784,3.944-7.739,8.865-15.033,10.688-23.723q2.542-5.329,5.089-10.659Q1274.171,187.066,1275.788,185.283Z" fill="#76bfdb"/>
    <path id="Path_21932" data-name="Path 21932" d="M1536.093,135.483a37.094,37.094,0,0,1,5.095,1.077c1.792.631,3.042,2.083,2.553,4.077-.61,2.487-2.391,1.86-4.162,1.207-3.909-1.44-8.063-1.832-9.795,2.731-1.978,5.208,2.891,6.173,6.191,7.846,6.118,3.1,11.721,6.642,8.5,14.888-2.16,5.534-10.681,8.237-17.69,6.2-2.88-.838-5.255-2.011-4.05-5.407,1.238-3.486,3.516-.5,5.038-.132,4.223,1.026,8.852,2.2,10.674-2.754,1.862-5.061-3.333-6.15-6.579-7.737-5.667-2.77-10.671-6.1-8.849-13.334C1524.627,137.767,1529.973,135.888,1536.093,135.483Z" fill="#222"/>
    <path id="Path_21933" data-name="Path 21933" d="M1115.575,192.579c-5.949-6.205-13.256-5.255-20.636-3.912-.163-1.4-.415-2.752-1.839-3.487l-1.78-1.792-2.153-11.814c.634-1.622,1.8-3.243,1.8-4.867.013-5.427,1.941-6.984,6.759-4,2.377,1.472,5.05,1.229,7.664,1.32A91.612,91.612,0,0,1,1115.575,192.579Z" fill="#76bfdb"/>
    <path id="Path_21934" data-name="Path 21934" d="M1682.819,457.648c0,7.648-.114,15.3.054,22.943.071,3.216-.629,4.764-4.311,4.713-3.6-.049-5.2-.761-5.148-4.86q.336-23.82-.006-47.648c-.061-4.289,1.955-4.451,5.321-4.573,3.829-.139,4.249,1.587,4.186,4.718-.163,8.233-.055,16.471-.055,24.707Z" fill="#161616"/>
    <path id="Path_21935" data-name="Path 21935" d="M1190.805,194.189c-2.826-3.96-3.564-9.921-10.715-9.559-2.127.107-1.961-3.2-1.381-5.189.591-2.032,1.52-3.989-1.407-4.956a2.322,2.322,0,0,1,.459-1.434c7.732-1.988,9.693-9.831,14.677-14.622,3.527-3.39,6.114-8.471,10.8-1.5Q1197.019,175.562,1190.805,194.189Z" fill="#41a8cf"/>
    <path id="Path_21936" data-name="Path 21936" d="M1621.29,126.371c.98.361,2.384.854,2.375.878-2.94,8.859,6.771,8.041,9.425,12.521.435.734-.707,2.341-2.108,2.194-5.063-.529-8.581,1.114-6.739,6.651,2.219,6.671-6.517,17.218,6.878,19.964,1.291.265,2.1.9,2.093,2.322s-.948,1.954-2.062,2.5c-5,2.459-12.037-1.011-12.677-6.827-.607-5.527-.263-11.159-.343-16.744-.025-1.765.509-4.793-.184-5.107-13.347-6.056,4.554-10.809.7-16.4C1618.631,128.295,1620.345,127.07,1621.29,126.371Z" fill="#222"/>
    <path id="Path_21937" data-name="Path 21937" d="M1424.986,155.439c.036-12.773,9.768-21.609,21.668-19.619,2.963.495,6.594,1.228,5.552,5.153-1.009,3.8-3.805.643-5.753.317-5.531-.925-9.93.742-12.84,5.552-3.318,5.486-3.465,11.295-.046,16.671,2.975,4.677,7.657,6.041,13.115,4.891,1.9-.4,4.6-3.4,5.584.694.737,3.072-2.131,3.576-4.423,4.294C1435.688,177.2,1424.948,168.789,1424.986,155.439Z" fill="#222"/>
    <path id="Path_21938" data-name="Path 21938" d="M946.47,179.616c7.239-.075,6.9,4.679,5.809,9.508-1.325,5.88-4.7,11.2-4.921,17.409l-.01.014c-2.883,2.348-3.8,5.431-3.373,9.016q-.423,1.584-.843,3.169c-.862.094-1.729.186-2.6.278L938.521,219l-.048-.039c-.731-3.969-4.765-8.009,1.068-11.749,1.571-1.008,1.449-4.579-.2-6.438-1.837-2.075-4.159-1.6-6.062.361-1.352,1.394-2.69.236-4.035.051C934.2,193.364,939.129,185.53,946.47,179.616Z" fill="#41a8cf"/>
    <path id="Path_21939" data-name="Path 21939" d="M1463.7,136.705c3.883,6.852,7.489-.454,11.518-.7,2.319-.142,4.253.512,4.377,3.153.1,2.134-1.338,3.094-3.429,3.053-8.238-.163-9.369,5.715-9.747,11.841-.327,5.294-.107,10.623-.107,15.937,0,2.169-.973,3.283-3.208,3.09-1.624-.14-2.847-.827-2.849-2.643-.012-10.331-.013-20.663.057-30.993C1460.328,137.762,1461.387,136.793,1463.7,136.705Z" fill="#222"/>
    <path id="Path_21940" data-name="Path 21940" d="M1314.165,322.32c-6.417-.5-9.262-4.662-9.782-10.4-.5-5.555,5.223-11.044,10.724-10.356,5.907.738,10.027,4.367,9.855,10.409C1324.782,318.267,1320.877,322.066,1314.165,322.32Z" fill="#161616"/>
    <path id="Path_21941" data-name="Path 21941" d="M929.586,234.925q.063-5.333.123-10.664c1.846-3.54,4.63-5.535,8.764-5.3l.048.039,1.729,1.745.363,5.759A211.8,211.8,0,0,1,926.17,274.03c-1.458-8.672,1.616-16.707,3.5-24.91C933.477,244.367,929.369,239.658,929.586,234.925Z" fill="#41a8cf"/>
    <path id="Path_21942" data-name="Path 21942" d="M997.022,199.522c6.331,2.1,15.793,13.421,13.893,19.741-3.8,12.649.959,24.668.407,36.949A253.059,253.059,0,0,1,997.022,199.522Z" fill="#76bfdb"/>
    <path id="Path_21943" data-name="Path 21943" d="M1309.768,142.684c-.325-2.987.82-7.451-4.184-6.929-10.376,1.081-10.669-5.224-10.084-12.578a32.915,32.915,0,0,0-.076-3.5c6.759-1.873,12.433,3.629,19.491,2.53,4.064-.633,4.458,12.109.094,17.7A6.588,6.588,0,0,1,1309.768,142.684Z" fill="#ebe9e9"/>
    <path id="Path_21944" data-name="Path 21944" d="M1351.04,462.854c-.013,9.444.013,18.888-.033,28.332-.01,2.216.656,4.939-3.267,4.667-3.292-.228-2.632-2.568-2.636-4.464q-.069-29.226-.036-58.454c0-2.328-.427-4.852,3.38-4.621,3.374.2,2.561,2.6,2.573,4.437C1351.087,442.785,1351.053,452.819,1351.04,462.854Z" fill="#161616"/>
    <path id="Path_21945" data-name="Path 21945" d="M1107.1,462.107c0-9.724-.052-19.45.051-29.173.019-1.749-1.1-4.336,2.321-4.6,3.643-.281,3.506,2.168,3.508,4.577q.024,29.165.037,58.33c0,2.377.182,4.865-3.49,4.6-3.407-.244-2.367-2.793-2.384-4.564C1107.053,481.557,1107.1,471.832,1107.1,462.107Z" fill="#161616"/>
    <path id="Path_21946" data-name="Path 21946" d="M1219.033,266.8c-1.566,6.121-.349,11.963,1.774,17.716-6.529,2.515-10.6,6.864-10.641,14.223l-3.021,2.6c-1.946-9.117-7.257,2.461-10.376-2.353,5.707-10.683,15.469-19.6,18.919-32.087Z" fill="#0062a2"/>
    <path id="Path_21947" data-name="Path 21947" d="M1645.946,149.73c-6.033-.673-9.49-4.148-9.3-10.96.2-6.923,5.166-9.216,10.616-9.332,5.934-.126,10.211,3.526,9.9,9.874C1656.86,145.564,1653.474,149.74,1645.946,149.73Zm6.115-10.836c-.7-4.058-2.976-5.681-6.319-5.128-2.177.359-4.656,1.329-3.75,4.283.858,2.8.66,7.3,5.356,6.424C1650.2,143.94,1650.85,140.387,1652.061,138.894Z" fill="#41a8cf"/>
    <path id="Path_21948" data-name="Path 21948" d="M1058.6,128.832c4.942,5.112,11.034,9.144,14.621,15.531-1.32-.508-3.049-.653-3.888-1.592A31.554,31.554,0,0,0,1059,135.387c-7.957-3.464,1.094,8.276-5.546,7.565-4.073-.865-6.049-4.4-8.735-6.976-4.829-4.634-6.189-8.8,2.141-10.963C1051.264,124.792,1054.548,128,1058.6,128.832Z" fill="#004a8b"/>
    <path id="Path_21949" data-name="Path 21949" d="M1416.881,154.79c0,4.4.072,8.8-.03,13.2-.051,2.157.832,5.139-3,5.031-2.882-.081-2.961-2.3-2.967-4.4-.028-9.387,0-18.774-.074-28.161-.016-2.029.51-3.45,2.723-3.652,2.886-.263,3.4,1.622,3.4,3.907v14.08Z" fill="#161616"/>
    <path id="Path_21950" data-name="Path 21950" d="M1027.285,293.431c.658-2.24,1.16-4.542,2.012-6.706,1.271-3.228,4.209-1.121,6.216-1.361,2.835-.339,1.771,2.082,1.257,3.687-.479,1.5-.4,3.765,1.12,3.539,10.475-1.553,9.894,9.93,16.1,13.27l-7.282.24-5.073-.232c-.073-2.582-.151-5.161-3.726-5.272l-7.767-3.3Z" fill="#007db6"/>
    <path id="Path_21951" data-name="Path 21951" d="M988.061,167.733q.155-1.971.308-3.942c2.614-1.952,1.077-7.969,6.773-6.907a8.738,8.738,0,0,0,1.6.177c-1.217,5.921,4.858,9.639,4.624,15.264-1.944,2.785-3.983,5.509-5.806,8.37-2.031,3.186-2.285-.933-3.548-.764Q990.037,173.832,988.061,167.733Z" fill="#168fc1"/>
    <path id="Path_21952" data-name="Path 21952" d="M1030.141,297.3l7.767,3.3a5.363,5.363,0,0,0,3.726,5.272q2.536.115,5.075.23c3.275,10.147,11.051,11.4,20.1,10.153q2.371.877,4.743,1.76,1.02.018,2.039.031l9.088.493a9.923,9.923,0,0,0,.02,1.324C1060.857,322.387,1041.715,318.64,1030.141,297.3Z" fill="#206490"/>
    <path id="Path_21953" data-name="Path 21953" d="M1230.563,319.271c-1.527-3.7.581-7.239-2.041-10.017-5.537,1.542-.182,8.075-5.455,10.3.027-4.535-3.821-10.971-.785-12.206,5.1-2.074,11.924-.9,14.192,6.592,3.9-.821,3.2-4.908,5.754-6.549C1242.078,315.222,1235.27,316.041,1230.563,319.271Z" fill="#206490"/>
    <path id="Path_21954" data-name="Path 21954" d="M817.61,289.982a10.21,10.21,0,0,1,.627,12.127c-2.723,4.47-2.373,8.77-1.9,13.376q-1.956,3.219-3.913,6.43c-3.862-.363-4.587-3.736-3.331-5.785C814.064,308.024,810.409,297.231,817.61,289.982Z" fill="#ebe9e9"/>
    <path id="Path_21955" data-name="Path 21955" d="M1245.826,119.682q-2.711-.264-5.421-.53c3.406-2.554,7.34-1.219,11.035-1.4,9.588-.483,19.219.612,28.786-1.441,3.558-.764,7.709-.936,10.327,2.912l-.331.34Z" fill="#b4dceb"/>
    <path id="Path_21956" data-name="Path 21956" d="M915.678,474.4c3.23.7,5.479,2.244,5.219,5.881-.263,3.683-2.777,5.043-6.013,4.848a4.891,4.891,0,0,1-4.79-5.256C910.148,476.55,912.283,474.653,915.678,474.4Z" fill="#222"/>
    <path id="Path_21957" data-name="Path 21957" d="M1137.318,274.073q1.028,4.334,2.057,8.669c-4.091-1.547-7.894-3.336-7.317-8.771-.618-4.706-3.618-9.351-.372-14.159l1.917,3.627q1.065,2.589,2.131,5.18c-.1,2.008-.229,4.026,1.614,5.461Z" fill="#206490"/>
    <path id="Path_21958" data-name="Path 21958" d="M1210.166,298.739c.041-7.359,4.112-11.708,10.641-14.223q1.666-.795,3.335-1.586A60.2,60.2,0,0,1,1210.166,298.739Z" fill="#206490"/>
    <path id="Path_21959" data-name="Path 21959" d="M1418.117,123.837a4.026,4.026,0,0,1-4.014,3.805c-2.31.113-4.066-1.308-4.074-3.56-.008-2.512,1.537-4.435,4.329-4.267C1416.643,119.953,1417.861,121.567,1418.117,123.837Z" fill="#3d3d3d"/>
    <path id="Path_21960" data-name="Path 21960" d="M957.929,123.358c.041.425.088.849.144,1.274l-16.053.178q.054-.744.137-1.484Z" fill="#168fc1"/>
    <path id="Path_21961" data-name="Path 21961" d="M940.613,226.5q-.181-2.88-.362-5.759.105-.873.285-1.733c.867-.092,1.734-.184,2.6-.278C943.731,221.787,944.548,224.912,940.613,226.5Z" fill="#76bfdb"/>
    <path id="Path_21962" data-name="Path 21962" d="M943.975,215.563c-.428-3.585.49-6.668,3.373-9.016C947.258,209.938,947.442,213.432,943.975,215.563Z" fill="#76bfdb"/>
    <path id="Path_21963" data-name="Path 21963" d="M1235.195,119.7c-1.569,1.7-3.533,1.677-5.584,1.271C1230.765,117.443,1232.615,116.967,1235.195,119.7Z" fill="#b4dceb"/>
    <path id="Path_21964" data-name="Path 21964" d="M913.621,297.06c-.117-2.6-.57-5.421,3.439-5.4C917.052,294.181,917.214,296.813,913.621,297.06Z" fill="#41a8cf"/>
    <path id="Path_21965" data-name="Path 21965" d="M924.092,279.137c.537-1.741-2.324-4.877,2.071-5.036C926.48,276.193,926.237,278.056,924.092,279.137Z" fill="#41a8cf"/>
    <path id="Path_21966" data-name="Path 21966" d="M1133.6,263.439q-.959-1.813-1.915-3.627-.14-1.48-.283-2.96l.519-.454A8.772,8.772,0,0,1,1133.6,263.439Z" fill="#168fc1"/>
    <path id="Path_21967" data-name="Path 21967" d="M1137.348,274.08c-1.843-1.435-1.71-3.453-1.614-5.461C1137.695,270.019,1137.6,272.027,1137.348,274.08Z" fill="#b4dceb"/>
    <path id="Path_21968" data-name="Path 21968" d="M942.157,123.326c-.055.494-.1.988-.138,1.485l-3.309.676-1.759-.287-.544-.623A6.369,6.369,0,0,1,942.157,123.326Z" fill="#76bfdb"/>
    <path id="Path_21969" data-name="Path 21969" d="M931.088,126.367q2.661-.892,5.32-1.788l.542.619a2.9,2.9,0,0,0-.372,1.248l-3.183.9-1.743-.343Z" fill="#76bfdb"/>
    <path id="Path_21970" data-name="Path 21970" d="M929.864,128.855l-2.176-.594,3.4-1.892.561.637a2.667,2.667,0,0,0-.319,1.347A13.8,13.8,0,0,0,929.864,128.855Z" fill="#76bfdb"/>
    <path id="Path_21971" data-name="Path 21971" d="M920.655,286.329a3.3,3.3,0,0,1,1.987-3.381A2.987,2.987,0,0,1,920.655,286.329Z" fill="#41a8cf"/>
    <path id="Path_21972" data-name="Path 21972" d="M911.775,300.539c0-1.493.12-2.92,1.856-3.49A3.28,3.28,0,0,1,911.775,300.539Z" fill="#41a8cf"/>
    <path id="Path_21973" data-name="Path 21973" d="M919.089,288.43l1.552-2.084Z" fill="#41a8cf"/>
    <path id="Path_21974" data-name="Path 21974" d="M922.632,282.955q.384-.993.765-1.987Q923.012,281.961,922.632,282.955Z" fill="#41a8cf"/>
    <path id="Path_21975" data-name="Path 21975" d="M917.117,291.62q.814-.9,1.628-1.811Q917.931,290.713,917.117,291.62Z" fill="#41a8cf"/>
    <path id="Path_21976" data-name="Path 21976" d="M1178.186,169.26q-.222,1.05-.448,2.1C1176.781,170.423,1177.009,169.74,1178.186,169.26Z" fill="#76bfdb"/>
    <path id="Path_21977" data-name="Path 21977" d="M1014.235,263.461q.309.834.616,1.668Z" fill="#41a8cf"/>
    <path id="Path_21978" data-name="Path 21978" d="M1091.131,240.344c5.23-7.781,15.9-.95,21.42-7.962,3.534,3.766,7.419,7.269,10.494,11.377,2.594,3.465,4.478,7.563,3.816,12.242-3.515.568-8.478-.525-8.677,4.833-.207,5.561-1.975,11.424,1.393,16.744q.994,5.287,1.989,10.574c-.149,2.314,1.042,3.456,3.25,3.709l.195,3.438c-1.352,3.2-4.163,3.665-7.148,3.8-4.424-4.723-6.834-11.04-12.034-15.146.2-2.431-.925-4.441-2.061-6.448a5.83,5.83,0,0,0-3.5-5.5c-.1-1.465-.308-2.877-1.863-3.589l-1.743-5.153C1098.023,254.855,1091.023,248.456,1091.131,240.344Z" fill="#007db6"/>
    <path id="Path_21979" data-name="Path 21979" d="M1219.033,266.8l-3.345.1c-11.138-6.532-23.315-2.092-34.971-3.093-4.5-.386-8.864,2.274-12.715,4.967-1.3-5.587,3.345-9.329,4.414-14.183,1.415-5.472,6.5-8.252,9.318-12.688,4.792-.385,7.629,2.652,10.059,6.044,2.32,3.239,6.179,5.306,8.954,3.6,9.318-5.735,15.855-1.657,22.226,4.709C1222.356,260.032,1218.485,262.592,1219.033,266.8Z" fill="#004a8b"/>
    <path id="Path_21980" data-name="Path 21980" d="M1105.829,283.955c5.2,4.106,7.61,10.423,12.034,15.146.739,5.377-1.678,7.341-6.947,6.879-5.15-.452-9.837.635-12.758,5.569-2.893,4.887-7.7,2.786-11.826,3.171-4.526-4.872-10.119-8.811-13.146-15,.687-3.516.9-3.743,2-2.706,2.736,2.578,5.42,3.147,9.426,2.785C1095.27,298.835,1100.891,292.064,1105.829,283.955Z" fill="#00346e"/>
    <path id="Path_21981" data-name="Path 21981" d="M1152.016,300.729c.875-.046,2.1.269,2.574-.191,7.969-7.775,17.915.752,26.511-3.243,2.576-1.2,6.068.89,8.943,2.86-5.239,6.9-9.577,14.442-18.852,16.4l-.028.032c-12.595,3.409-17.414.338-19.536-12.448q-.1-1.068-.2-2.137A2.454,2.454,0,0,1,1152.016,300.729Z" fill="#00346e"/>
    <path id="Path_21982" data-name="Path 21982" d="M1152.016,300.729a2.443,2.443,0,0,0-.591,1.281c-5.178.314-4.84-5.579-8.219-7.293q-.843-3.2-1.69-6.407.775-1.783,1.554-3.569c9.518-.373,8.059-8.661,10.309-14.275l.056-.063c3.6.687,4.776-2.639,7.108-4.044,5.022-3.027,4.347-11.548,11.867-11.763-1.063,4.853-5.708,8.6-4.408,14.182C1164.114,280.148,1157.207,290.01,1152.016,300.729Z" fill="#007db6"/>
    <path id="Path_21983" data-name="Path 21983" d="M1143.073,284.742q-.78,1.783-1.557,3.568c-7.348-2.03-10.356,6.184-16.505,6.988q-.1-1.717-.194-3.438.1-1.807.2-3.614c5.879,1.348,9.995-5.074,15.9-3.6Z" fill="#004a8b"/>
    <path id="Path_21984" data-name="Path 21984" d="M1143.206,294.717c3.379,1.714,3.041,7.607,8.219,7.293q.1,1.065.2,2.134C1142.632,306.964,1142.308,306.6,1143.206,294.717Z" fill="#004a8b"/>
    <path id="Path_21985" data-name="Path 21985" d="M1171.192,316.56l2.352.694-.461.682-1.919-1.344Z" fill="#00346e"/>
    <path id="Path_21986" data-name="Path 21986" d="M1181.98,316.156l-.633-.228.726-.691.481.507Z" fill="#00346e"/>
    <path id="Path_21987" data-name="Path 21987" d="M1091.131,240.344c-.108,8.112,6.892,14.511,5.532,22.925-10.126-3.794-20.661-3.8-31.263-3.558-5.071.114-9.259,1.531-12.156,5.879-5.7-3.865-5.809-10.1-6.778-15.974.967-8.693-.211-17.081-5.092-24.4-2.788-4.178-.036-6.4,1.655-9.376,1.667-2.932,3.674-4.627,7.128-3.186,3.985,1.664,8.175,1.141,12.227.9,5.73-.34,9.533,1.635,11.929,6.948a18.622,18.622,0,0,0,11.92,10.71,8.341,8.341,0,0,1,1.461.183,3.724,3.724,0,0,0,1.673,3.57Z" fill="#005a9b"/>
    <path id="Path_21988" data-name="Path 21988" d="M1086.233,231.217a18.622,18.622,0,0,1-11.92-10.71c-2.4-5.313-6.2-7.288-11.929-6.948-4.052.24-8.242.763-12.227-.9-3.454-1.441-5.461.254-7.128,3.186-1.691,2.973-4.443,5.2-1.655,9.376,4.881,7.315,6.059,15.7,5.092,24.4-6.812-9.791-8.85-21.652-13.954-32.195-2.562-5.292-4.686-10.8-7.008-16.2q0-1.753-.01-3.508c10.994.4,21.868,2.293,32.958,1.929,7.2-.235,12-2.983,15.143-9.181q.824.084,1.65.131Q1080.739,210.9,1086.233,231.217Z" fill="#0062a2"/>
    <path id="Path_21989" data-name="Path 21989" d="M1105.829,283.955c-4.938,8.109-10.559,14.88-21.213,15.845-4.006.362-6.69-.207-9.426-2.785-1.1-1.037-1.317-.81-2,2.706-6.651-5.016-10.651-11.751-12.775-19.7,1.989-4.268,5.834-4.967,9.69-4.162,6.982,1.456,13.849-.118,20.746.037,5.67.127,8.384-1.591,7.56-7.473,1.555.712,1.76,2.124,1.862,3.59-.206,2.705-.305,5.342,3.5,5.5C1104.9,279.514,1106.028,281.524,1105.829,283.955Z" fill="#003c7d"/>
    <path id="Path_21990" data-name="Path 21990" d="M1098.407,268.421c.824,5.882-1.89,7.6-7.56,7.473-6.9-.155-13.764,1.419-20.746-.037-3.856-.8-7.7-.106-9.69,4.162-5.1-3.469-6.368-8.832-7.162-14.431,2.892-4.346,7.08-5.763,12.151-5.877,10.6-.239,21.137-.236,31.263,3.558Q1097.536,265.844,1098.407,268.421Z" fill="#004a8b"/>
    <path id="Path_21991" data-name="Path 21991" d="M1066.806,316.251c-9.046,1.252-16.822-.006-20.1-10.153q3.638-.117,7.28-.238a15.285,15.285,0,0,0,1.7.1c.594,4.655,4.327,3.182,7.081,3.62C1065.692,310.851,1066.47,313.417,1066.806,316.251Z" fill="#0062a2"/>
    <path id="Path_21992" data-name="Path 21992" d="M1025.493,197.71q.006,1.753.011,3.507c-3.761-.609-7.105,1.227-10.664,1.811-3.22-2.91-3.825-6.66-3.45-10.723,4.287-.516,8.315.622,12.319,1.919A3.886,3.886,0,0,1,1025.493,197.71Z" fill="#007db6"/>
    <path id="Path_21993" data-name="Path 21993" d="M1062.768,309.581c-2.754-.438-6.487,1.035-7.081-3.62C1058.79,305.718,1061.538,306.166,1062.768,309.581Z" fill="#007db6"/>
    <path id="Path_21994" data-name="Path 21994" d="M1073.588,318.042q-1.018-.014-2.039-.031C1072.243,317.17,1072.922,317.174,1073.588,318.042Z" fill="#0062a2"/>
    <path id="Path_21995" data-name="Path 21995" d="M832.1,290.217c-.183-8.5,8.947-14.037,7.314-23,3.295.012,4.13-2.659,5.418-4.892,3.309-5.742,6.668-11.455,10.008-17.179,6.314,10.724,22.53,14.145,32.2,6.47,2.579-2.047,4.541-2.207,7.061-.644l-7.016,14.1c-4.147,1.7-3.628,5.388-3.772,8.8-2.258.19-3.449,1.377-3.443,3.681a11.873,11.873,0,0,0-1.737,7.03c-.149,15.89,1.661,17.934,12.757,14.4-8.436,18.127-23.107,26.283-42.654,26.235-6.086-.015-13.743,2.694-17.863-1.279-4.1-3.951,1.417-10.857,1.062-16.588S835.159,296.051,832.1,290.217Z" fill="#00346e"/>
    <path id="Path_21996" data-name="Path 21996" d="M894.1,250.977c-2.52-1.563-4.482-1.4-7.061.644-9.669,7.675-25.885,4.254-32.2-6.467,5.606-14.832,13.831-28.342,21.379-42.194,3.005.252,5.634,2.086,9.032-.409,10.128-7.438,21.168-.92,31.543-.2,4.632.321-4.015,8.217-.008,12.7a4.366,4.366,0,0,0,.7.525l-.569,3.493c-9.057,9.047-13.941,20.674-19.688,31.767Z" fill="#003c7d"/>
    <path id="Path_21997" data-name="Path 21997" d="M894.1,250.977l3.133-.142c2.9,1.138,5.064,4.794,8.626,3.432,8.636-3.3,8.258,1.042,5.982,6.833-2.775,7.061-4.47,14.736-10.62,20.025q-7.068-8.027-14.137-16.051Z" fill="#005a9b"/>
    <path id="Path_21998" data-name="Path 21998" d="M887.084,265.074q7.068,8.025,14.137,16.051c-1.857,5.449-3.521,11.009-8.449,14.7,1.187-10.783.871-11.127-10.267-11.2q-2.187-.015-4.373-.038a11.873,11.873,0,0,1,1.737-7.03c2.368-.089,3.58-1.256,3.443-3.681C883.456,270.462,882.937,266.77,887.084,265.074Z" fill="#004a8b"/>
    <path id="Path_21999" data-name="Path 21999" d="M938.473,218.959c-4.134-.233-6.918,1.762-8.764,5.3-5.1.334-2.63-8.948-8.966-7.041l-.027-.038q-.113-1.916-.225-3.832a31.119,31.119,0,0,1,8.754-12.166c1.347.185,2.685,1.343,4.037-.051,1.9-1.962,4.225-2.436,6.062-.361,1.646,1.859,1.768,5.43.2,6.438C933.708,210.95,937.742,214.99,938.473,218.959Z" fill="#168fc1"/>
    <path id="Path_22000" data-name="Path 22000" d="M878.132,284.582q2.187.02,4.373.038c11.138.073,11.454.417,10.267,11.2q-.94,1.586-1.885,3.166C879.793,302.516,877.983,300.472,878.132,284.582Z" fill="#003c7d"/>
    <path id="Path_22001" data-name="Path 22001" d="M929.586,234.925c-.217,4.733,3.891,9.442.081,14.195l-7.1,3.631-.11-.11A24.528,24.528,0,0,1,929.586,234.925Z" fill="#168fc1"/>
    <path id="Path_22002" data-name="Path 22002" d="M922.564,252.751c-.245,1.3-.254,2.817-2.214,2.67a.821.821,0,0,1-.558-.559c-.159-1.962,1.364-1.966,2.662-2.22Z" fill="#168fc1"/>
    <path id="Path_22003" data-name="Path 22003" d="M916.921,219.068q.285-1.746.568-3.494a6.222,6.222,0,0,0,1.466-.122l1.76,1.73.028.038C919.934,218.8,918.441,218.961,916.921,219.068Z" fill="#168fc1"/>
    <path id="Path_22004" data-name="Path 22004" d="M996.738,157.062a8.783,8.783,0,0,1-1.594-.178q-.247-2.412-.5-4.825c4.568-2.933,8.88-3.449,12.27,1.672,4.7,7.1,11.909,6.51,18.72,5.6,5.748-.769,10.8-2.5,16.958.275,7.974,3.6,12.835-1.876,11.331-11.481,4.463,2.111,4.7,7.1,7.209,10.55-1.754,5.477,5.359,7.445,4.922,12.4-16.975,1.794-34.161-2.252-51.059,1.812l-.213-.177C1011.061,164.858,1008.287,155.91,996.738,157.062Z" fill="#003c7d"/>
    <path id="Path_22005" data-name="Path 22005" d="M1061.135,158.674c-2.5-3.448-2.746-8.439-7.209-10.55q-.23-2.586-.465-5.173c6.636.712-2.415-11.028,5.542-7.564a31.554,31.554,0,0,1,10.334,7.384c.839.939,2.568,1.084,3.888,1.592,1.177,1.546.757,3.276.574,4.979C1074.13,158.618,1067.445,158.392,1061.135,158.674Z" fill="#005a9b"/>
    <path id="Path_22006" data-name="Path 22006" d="M994.647,152.059q.249,2.412.5,4.825c-5.7-1.062-4.161,4.955-6.775,6.907-1.682-3.422-3.961-6.687-4.908-10.3-1.426-5.444-4.5-6.355-9.212-4.848,2.429-3.583,6.521-8.109.145-10.613-5.329-2.094-5.729-6.048-7.209-10.008,8.2,2.127,12.886,9.368,19.7,13.51C986.825,146.991,990.334,149.82,994.647,152.059Z" fill="#206490"/>
    <path id="Path_22007" data-name="Path 22007" d="M1237,126.8a12.581,12.581,0,0,0,1.656-.116c2.345.011,3.519-1.182,3.6-3.5l3.442-.167c10.2.034,20.44.6,30.589-.1,6.293-.437,8.571,2,9.108,7.528l-2.12,3.786c-4.873-.487-7.726,1.835-9.214,6.356-1.718,5.224-2.4,10.8-6.145,15.333a4.148,4.148,0,0,0,1.015,6.209q-1.295,4.377-2.588,8.753c-5.265,3.356-6.249,9.1-8.045,14.392-3.084,2.849-4.416,6.625-5.57,10.5-5.443,7.7-8.492,16.594-12.518,25-1.461,3.05-1.068,7.147-4.882,8.915-3.349-1.006-7.489-1.088-9.913-3.168-15.529-13.316-12.341-9.407-25.215-1.556-4.731,2.886-8.415,3.546-13,1.1,6.451-8.773,11.4-18.594,16.713-27.934,8.266-14.518,17.586-28.484,24.86-43.665C1233.09,145.454,1236.193,136.6,1237,126.8Z" fill="#0062a2"/>
    <path id="Path_22008" data-name="Path 22008" d="M1187.2,226.068c4.587,2.442,8.271,1.782,13-1.1,12.874-7.851,9.686-11.76,25.215,1.556,2.424,2.08,6.564,2.162,9.913,3.168q-6.177,13.285-12.356,26.57c-6.369-6.366-12.906-10.444-22.224-4.709-2.775,1.708-6.634-.359-8.954-3.6-2.43-3.392-5.267-6.429-10.058-6.042q.094-5.172.188-10.347A13.283,13.283,0,0,0,1187.2,226.068Z" fill="#005a9b"/>
    <path id="Path_22009" data-name="Path 22009" d="M1252.727,195.77c1.154-3.871,2.486-7.647,5.57-10.5,4.333,2.867,10.757-2.591,14.262,3.575q-2.547,5.329-5.091,10.659C1262.64,197.93,1256.095,203.1,1252.727,195.77Z" fill="#168fc1"/>
    <path id="Path_22010" data-name="Path 22010" d="M1061.135,158.674c6.31-.282,12.995-.056,12.664-9.332,9.606,4.317,10.1,14.924,15.37,22.231q1.074,5.908,2.151,11.816-.151.906-.3,1.81c-.458-.051-.916-.094-1.377-.125-2.085-4.759-3.15-10.553-6.589-13.94-2.539-2.5-7.338,1.014-11.011,2.591-.826.354-2.682-1.69-4.063-2.63l-1.925-.018C1066.494,166.119,1059.381,164.151,1061.135,158.674Z" fill="#206490"/>
    <path id="Path_22011" data-name="Path 22011" d="M1067.977,171.1c1.382.939,3.238,2.983,4.064,2.629,3.673-1.577,8.472-5.092,11.011-2.591,3.439,3.387,4.5,9.181,6.589,13.94-2.628,7.487-10.05,2.493-14.4,5.514q-.827-.048-1.651-.13-.764-.922-1.525-1.849C1073.133,182.205,1067.26,177.418,1067.977,171.1Z" fill="#007db6"/>
    <path id="Path_22012" data-name="Path 22012" d="M1119.577,277.578c-3.368-5.32-1.6-11.183-1.393-16.744.2-5.358,5.162-4.265,8.677-4.833a9.665,9.665,0,0,0,1.349.159l2.148.145a2.94,2.94,0,0,1,1.051.545c.091.989.186,1.975.279,2.962-3.248,4.808-.248,9.453.37,14.16l-2.917,3.732C1126.052,270.132,1122.745,279.156,1119.577,277.578Z" fill="#0062a2"/>
    <path id="Path_22013" data-name="Path 22013" d="M1089.367,234.97a3.724,3.724,0,0,1-1.673-3.57C1090.024,231.761,1092.146,232.219,1089.367,234.97Z" fill="#007db6"/>
    <path id="Path_22014" data-name="Path 22014" d="M1130.358,256.3l-2.148-.145C1129.023,254.743,1129.755,254.57,1130.358,256.3Z" fill="#206490"/>
    <path id="Path_22015" data-name="Path 22015" d="M1091.018,185.2q.15-.9.3-1.81l1.78,1.791Z" fill="#41a8cf"/>
    <path id="Path_22016" data-name="Path 22016" d="M1023.709,194.224c-4-1.3-8.032-2.435-12.319-1.919-2.569-6.809-8.5-12.139-8.779-19.952,4.153-3.162,8.06,2.123,12.174.359l.212.176c.1,7.752,7.668,12.121,8.808,19.4Q1023.757,193.257,1023.709,194.224Z" fill="#0062a2"/>
    <path id="Path_22017" data-name="Path 22017" d="M1014.785,172.712c-4.114,1.764-8.021-3.521-12.174-.359l-.628.051s-.629-.07-.624-.075c.24-5.629-5.835-9.347-4.618-15.268C1008.287,155.91,1011.061,164.858,1014.785,172.712Z" fill="#004a8b"/>
    <path id="Path_22018" data-name="Path 22018" d="M1266.342,170.882q1.294-4.376,2.587-8.752l14.345-27.9q1.06-1.893,2.118-3.785a4.414,4.414,0,0,1,1.192-.193c7.972,12.435.34,23.949-2.2,35.733-.5,2.322-2.492,3.877-4.51,5.156C1275.416,168.065,1270.825,172.272,1266.342,170.882Z" fill="#76bfdb"/>
    <path id="Path_22019" data-name="Path 22019" d="M1266.342,170.882c4.483,1.39,9.074-2.817,13.528.26q-2.036,7.071-4.08,14.141-1.62,1.783-3.233,3.566c-3.5-6.166-9.927-.708-14.26-3.575C1260.093,179.983,1261.077,174.238,1266.342,170.882Z" fill="#41a8cf"/>
    <path id="Path_22020" data-name="Path 22020" d="M1286.584,130.253a4.414,4.414,0,0,0-1.192.193c-.535-5.533-2.813-7.966-9.106-7.529-10.149.7-20.388.133-30.589.1q.063-1.668.129-3.334l44.4-.124c1.236,2.833-1.251,4.759-1.749,7.171a3.483,3.483,0,0,0-1.858,3.477Z" fill="#206490"/>
    <path id="Path_22021" data-name="Path 22021" d="M1286.615,130.206a3.483,3.483,0,0,1,1.858-3.477A3.418,3.418,0,0,1,1286.615,130.206Z" fill="#76bfdb"/>
    <path id="Path_22022" data-name="Path 22022" d="M1187.2,226.068a13.271,13.271,0,0,1-5.275,5.493q-.036-1.629-.068-3.256c1.064-11.875,7.828-22.257,8.951-34.117q6.214-18.627,12.43-37.255c5.019-1.148,5.406-5.812,6.827-9.445,2.34-5.988,4.954-11.05,12.3-12.282,5.708-.957,7.346-9.7,14.639-8.411-.806,9.808-3.909,18.659-8.229,27.674-7.274,15.181-16.594,29.147-24.86,43.665C1198.592,207.474,1193.648,217.295,1187.2,226.068Z" fill="#007db6"/>
    <path id="Path_22023" data-name="Path 22023" d="M1242.255,123.183c-.08,2.315-1.254,3.508-3.6,3.5C1238.714,124.342,1239.9,123.16,1242.255,123.183Z" fill="#007db6"/>
    <path id="Path_22024" data-name="Path 22024" d="M1181.854,228.3q.033,1.628.068,3.256-.093,5.176-.187,10.348c-2.823,4.434-7.9,7.214-9.319,12.686-7.526.216-6.851,8.737-11.873,11.764-2.332,1.4-3.5,4.731-7.108,4.044,5.92-7.547,11.639-15.262,17.821-22.588,4.883-5.787,7.743-12.377,9.594-19.552A5.354,5.354,0,0,0,1181.854,228.3Z" fill="#206490"/>
    <path id="Path_22025" data-name="Path 22025" d="M918.955,215.452a6.222,6.222,0,0,1-1.466.122,4.337,4.337,0,0,1-.7-.524c-4.007-4.482,4.64-12.378.008-12.7-10.375-.72-21.415-7.238-31.543.2-3.4,2.5-6.027.661-9.031.409.582-5.537,7.277-8.223,6.688-14.306,8.408-13.417,15.8-27.524,26.77-39.2,10.675-2.194,21.175,1.845,31.981.714,5.682-.6,12.288,1.712,14.678,8.8-3.147,3.1-1.173,7-1.628,10.512q-4.117,5.068-8.238,10.137c-7.343,5.912-12.274,13.746-17.225,21.566a31.084,31.084,0,0,0-8.755,12.168Q919.726,214.4,918.955,215.452Z" fill="#004a8b"/>
    <path id="Path_22026" data-name="Path 22026" d="M956.338,158.969c-2.39-7.087-9-9.394-14.678-8.8-10.806,1.131-21.306-2.908-31.981-.714,4.507-9.039,15.2-12.028,20.185-20.6a13.787,13.787,0,0,1,1.468-.5l2.063-1q1.591-.453,3.183-.9,1.066-.479,2.132-.96l3.309-.676,16.054-.179,9.11,3.391c1.482,3.959,1.882,7.913,7.211,10.007,6.376,2.5,2.284,7.03-.145,10.613-3.7,1.641-4.234,6.058-7.271,8.278C963.078,155.774,960.025,159.016,956.338,158.969Z" fill="#005a9b"/>
    <path id="Path_22027" data-name="Path 22027" d="M956.338,158.969c3.687.047,6.74-3.195,10.64-2.048l-12.269,12.561C955.165,165.964,953.191,162.07,956.338,158.969Z" fill="#206490"/>
    <path id="Path_22028" data-name="Path 22028" d="M882.909,188.654c.589,6.083-6.106,8.769-6.688,14.306-7.549,13.852-15.774,27.362-21.38,42.194-3.341,5.721-6.7,11.434-10.009,17.176-1.288,2.233-2.123,4.9-5.418,4.892q.887-5.311,1.776-10.624c2.907-1.41,3.943-4.032,4.841-6.925A281.588,281.588,0,0,1,869.4,196.006c1.485-.283,2.826-.757,3.254-2.442C874.109,187.835,877.417,185.968,882.909,188.654Z" fill="#007db6"/>
    <path id="Path_22029" data-name="Path 22029" d="M1119.577,277.578c3.168,1.578,6.475-7.446,9.564.126l2.917-3.732c-.577,5.434,3.226,7.223,7.317,8.77a5.726,5.726,0,0,0,1.538.258q.006.822.007,1.645c-5.907-1.473-10.023,4.949-15.9,3.6l-3.452-.093Q1120.571,282.866,1119.577,277.578Z" fill="#005a9b"/>
    <path id="Path_22030" data-name="Path 22030" d="M1140.92,284.645q0-.823-.007-1.645l12.466-12.534c-2.25,5.614-.791,13.9-10.309,14.275Z" fill="#206490"/>
    <path id="Path_22031" data-name="Path 22031" d="M940.536,219.01q-.18.861-.285,1.733L938.521,219Z" fill="#168fc1"/>
    <path id="Path_22032" data-name="Path 22032" d="M1652.061,138.894c-1.211,1.493-1.859,5.046-4.713,5.579-4.7.877-4.5-3.623-5.356-6.424-.906-2.954,1.573-3.924,3.75-4.283C1649.085,133.213,1651.358,134.836,1652.061,138.894Z" fill="#3d3d3d"/>
    <path id="Path_22033" data-name="Path 22033" d="M1041.634,305.868a5.363,5.363,0,0,1-3.726-5.272C1041.483,300.707,1041.561,303.286,1041.634,305.868Z" fill="#0062a2"/>
    <path id="Path_22034" data-name="Path 22034" d="M938.71,125.487q-1.065.48-2.132.96a2.9,2.9,0,0,1,.372-1.249Z" fill="#168fc1"/>
    <path id="Path_22035" data-name="Path 22035" d="M933.4,127.35l-2.063,1a2.668,2.668,0,0,1,.319-1.348Q932.524,127.18,933.4,127.35Z" fill="#168fc1"/>
    <path id="Path_22036" data-name="Path 22036" d="M1103.768,277.507c-3.8-.154-3.7-2.791-3.5-5.5A5.827,5.827,0,0,1,1103.768,277.507Z" fill="#004a8b"/>
    <path id="Path_22037" data-name="Path 22037" d="M1121.566,288.152l3.452.093q-.1,1.809-.2,3.615C1122.608,291.608,1121.417,290.466,1121.566,288.152Z" fill="#0062a2"/>
    <path id="Path_22038" data-name="Path 22038" d="M1023.709,194.224l.1-1.932c15.417-10,31.765-7.817,48.264-3.683q.762.926,1.525,1.849c-3.145,6.2-7.938,8.945-15.142,9.18-11.09.364-21.964-1.534-32.958-1.929A3.889,3.889,0,0,0,1023.709,194.224Z" fill="#005a9b"/>
    <path id="Path_22039" data-name="Path 22039" d="M883.312,273.871c.137,2.425-1.075,3.592-3.443,3.681C879.863,275.248,881.054,274.061,883.312,273.871Z" fill="#003c7d"/>
    <path id="Path_22040" data-name="Path 22040" d="M918.955,215.452q.77-1.048,1.537-2.1.111,1.914.224,3.83Z" fill="#007db6"/>
    <path id="Path_22041" data-name="Path 22041" d="M1072.069,188.609c-16.5-4.134-32.847-6.318-48.264,3.683-1.14-7.283-8.707-11.652-8.808-19.4,16.9-4.063,34.085-.017,51.06-1.811l1.921.018C1067.26,177.418,1073.133,182.205,1072.069,188.609Z" fill="#004a8b"/>
    <path id="Path_22042" data-name="Path 22042" d="M1283.274,134.231l-14.345,27.9a4.15,4.15,0,0,1-1.014-6.21c3.749-4.53,4.427-10.109,6.145-15.333C1275.548,136.066,1278.4,133.744,1283.274,134.231Z" fill="#206490"/>
  </g>
</svg>
