<svg xmlns="http://www.w3.org/2000/svg" width="428.704" height="222.212" viewBox="0 0 428.704 222.212">
  <g id="Group_22012" data-name="Group 22012" transform="translate(-1.909 -222.9)">
    <path id="Path_21890" data-name="Path 21890" d="M57.521,328.176c-1.9-4.962-5.637-8.669-8.8-12.756-3.83-4.945-7.765-9.809-11.677-14.69-3.356-4.19-6.758-8.343-10.113-12.534-3.38-4.221-6.715-8.479-10.09-12.7-2.895-3.623-5.694-7.335-8.76-10.808-4.585-5.194-6.791-11.125-6.017-18.013A18.824,18.824,0,0,1,6.94,235.847a100.369,100.369,0,0,1,9.329-8.969,18.11,18.11,0,0,1,10.819-3.927c5.279-.306,10.2.738,14.326,4.109a68.542,68.542,0,0,1,6.806,6.868c1.712,1.863,3.23,3.9,4.865,5.837q4.728,5.6,9.5,11.168c2.28,2.661,4.612,5.277,6.894,7.936,3.232,3.765,6.43,7.56,9.66,11.327,2.244,2.615,4.534,5.191,6.775,7.808,3.144,3.671,6.247,7.376,9.4,11.044,2.348,2.737,4.756,5.421,7.1,8.157,3.168,3.692,6.291,7.423,9.457,11.117,2.281,2.661,4.646,5.252,6.89,7.943a79.82,79.82,0,0,1,6.659,8.424c3.569,5.7,3.687,11.883,1.6,18.178-1.257,3.786-3.964,6.576-6.488,9.484-4.011,4.621-8.066,9.2-12.112,13.793-1.873,2.126-3.782,4.221-5.65,6.352-3.944,4.5-7.859,9.025-11.812,13.517-1.986,2.257-4.052,4.444-6.039,6.7-3.962,4.5-7.888,9.039-11.841,13.55-1.718,1.961-3.464,3.9-5.2,5.843-1.846,2.071-3.695,4.142-5.673,6.133a4.173,4.173,0,0,1,.4-1.491,92.165,92.165,0,0,0,8.536-48.866A91.688,91.688,0,0,0,58.5,329.262,7.274,7.274,0,0,0,57.521,328.176Z" fill="#92d13d"/>
    <path id="Path_21891" data-name="Path 21891" d="M167.488,368.013c-1.407-1.634-2.729-3.183-4.138-4.834v1.829c0,11.7-.028,23.4.033,35.1.008,1.573-.341,2.154-2.029,2.115-4.835-.113-9.674-.077-14.511-.016-1.293.016-1.745-.342-1.744-1.7q.051-51.3,0-102.6c0-1.317.381-1.748,1.716-1.729q7.424.1,14.849,0c1.353-.02,1.748.436,1.707,1.741-.083,2.625-.025,5.254-.025,7.6a67.958,67.958,0,0,1,6.31-6.151c3.632-2.765,8.043-3.824,12.488-4.484a40.166,40.166,0,0,1,14.5.61,34.386,34.386,0,0,1,15.15,7.491,40.182,40.182,0,0,1,9.622,11.663,36.66,36.66,0,0,1,4.354,14.329,62.766,62.766,0,0,1,.324,7.21,39.317,39.317,0,0,1-8.7,24.295c-5.992,7.4-13.566,12.19-22.98,13.549-8.992,1.3-17.777.621-25.546-4.888-.454-.322-.869-.7-1.388-1.134m29.971-53.105a21.972,21.972,0,0,0-15.869-3.188,22.4,22.4,0,0,0-15.273,9.316c-3.383,4.663-4.442,9.939-4.02,15.66a21.839,21.839,0,0,0,9.922,17.222,22.934,22.934,0,0,0,15.754,3.761,21.015,21.015,0,0,0,14.76-8.041c4.138-5.136,5.577-11.127,4.884-17.741A22.562,22.562,0,0,0,197.459,314.908Z" fill="#49691f"/>
    <path id="Path_21892" data-name="Path 21892" d="M57.484,328.306a3.036,3.036,0,0,1,1.014.956,91.688,91.688,0,0,1,12.63,38.621,92.165,92.165,0,0,1-8.536,48.866,8.115,8.115,0,0,0-.5,1.54c.024.128.013.1-.06.125a1.482,1.482,0,0,0-.267.347q-5.116,5.879-10.232,11.758c-2.052,2.36-4.043,4.776-6.157,7.08-4.125,4.5-9.055,7.271-15.357,7.493-5.075.178-9.8-.8-13.634-4.1-4.4-3.784-9.039-7.526-11.864-12.714a21.226,21.226,0,0,1,2.538-23.64c4.166-4.764,7.981-9.833,12.026-14.705,3.23-3.888,6.613-7.649,9.851-11.531,3.485-4.18,6.848-8.463,10.325-12.651,2.705-3.257,5.572-6.382,8.24-9.667,3.007-3.7,6.274-7.281,8.693-11.35a17.911,17.911,0,0,0,1.653-14.854A10.437,10.437,0,0,1,57.484,328.306Z" fill="#49691f"/>
    <path id="Path_21893" data-name="Path 21893" d="M314.2,373.158c-2.992.461-5.844.925-8.7,1.349a36.753,36.753,0,0,1-27.816-8.633,40.281,40.281,0,0,1-9.323-11.75,34.93,34.93,0,0,1-4.053-13.021,63.086,63.086,0,0,1-.34-9.4,38.223,38.223,0,0,1,8.856-23.351A36.986,36.986,0,0,1,288.347,297a38.25,38.25,0,0,1,17.617-2.231,31.66,31.66,0,0,1,13.6,4.281,21.4,21.4,0,0,1,7.14,7.457c0-3.139.062-5.874-.027-8.6-.043-1.334.4-1.739,1.727-1.721,4.893.066,9.788.085,14.68-.009,1.525-.03,1.877.478,1.873,1.924q-.069,24.721,0,49.442a39.17,39.17,0,0,0,.7,7.149,4.555,4.555,0,0,0,5.606,3.7,6.884,6.884,0,0,1,.837-.073c2.268-.1,2.273-.1,2.275,2.124,0,3.825-.023,7.65.017,11.474.01.976-.209,1.517-1.283,1.742-5.165,1.084-10.341,1.383-15.4-.279-4.776-1.568-7.858-4.929-9.25-10.132a26.085,26.085,0,0,1-14.252,9.918m-31.44-43.772c-.1,2.935-.41,5.883-.234,8.8a19.764,19.764,0,0,0,5.733,12.527,21.659,21.659,0,0,0,17.46,6.947,22.385,22.385,0,0,0,17.931-9.533c3.529-4.783,4.664-10.209,4.107-16.135a21.852,21.852,0,0,0-9.412-16.294c-7.149-5.165-15.033-5.835-23.04-2.365C288.455,316.3,284.3,321.729,282.761,329.386Z" fill="#49691f"/>
    <path id="Path_21894" data-name="Path 21894" d="M388.693,347.606c.773,1.932,1.484,3.749,2.289,5.81,1.39-3.767,2.7-7.3,3.995-10.835q6.258-17.061,12.506-34.124c1.362-3.722,2.688-7.458,4.1-11.16a1.785,1.785,0,0,1,1.2-1.037c5.735-.06,11.471-.03,17.206-.013a2.581,2.581,0,0,1,.619.213c-.953,2.521-1.882,5.018-2.84,7.5q-6.147,15.946-12.309,31.888-5.646,14.608-11.3,29.213c-2.759,7.133-5.5,14.273-8.274,21.4a34.452,34.452,0,0,1-7.347,12.09,22.44,22.44,0,0,1-12.034,6.2,35.027,35.027,0,0,1-14.592-.246c-.551-.126-1.381-.807-1.39-1.245-.1-4.993-.063-9.989-.063-15.273,1.7.307,3.182.682,4.691.829,3.8.37,7.8.894,10.929-1.821,1.647-1.428,2.655-3.635,3.807-5.575.56-.943.715-2.118,1.185-3.126a6.035,6.035,0,0,0-.04-5.218C376.3,361.566,371.7,350,367.05,338.448q-7.728-19.182-15.474-38.355c-.478-1.182-1.031-2.333-1.643-3.711h18.785q7.827,20.033,15.694,40.175C385.832,340.2,387.225,343.846,388.693,347.606Z" fill="#49691f"/>
    <path id="Path_21895" data-name="Path 21895" d="M243.337,266.843c2.137,0,4.106.04,6.073-.011,1.034-.027,1.437.386,1.357,1.39-.041.5-.005,1.012-.005,1.518q0,39.981,0,79.961c0,4.339,2.177,7.65,5.754,8.155a28.8,28.8,0,0,0,7.137-.047c1.238-.138,1.635-.039,1.628,1.211q-.042,6.917,0,13.833c.008,1.052-.422,1.486-1.43,1.659a37.154,37.154,0,0,1-17.741-.862c-7.516-2.385-11.823-7.78-13.2-15.456a47.111,47.111,0,0,1-.689-8.167q-.073-40.4-.03-80.805c0-2.375,0-2.377,2.365-2.378C237.433,266.842,240.3,266.843,243.337,266.843Z" fill="#49691f"/>
    <path id="Path_21896" data-name="Path 21896" d="M61.85,418.726c-.024-.072.041-.179.194-.318C62.068,418.481,62,418.587,61.85,418.726Z" fill="#92d13d"/>
  </g>
</svg>
