<svg xmlns="http://www.w3.org/2000/svg" width="416.543" height="146.606" viewBox="0 0 416.543 146.606">
  <g id="Group_22011" data-name="Group 22011" transform="translate(-8.402 -169.087)">
    <path id="Path_21873" data-name="Path 21873" d="M24.068,283.293a179.511,179.511,0,0,1,13.363-29.286c3.271-5.713,6.7-11.36,10.433-16.776a160.394,160.394,0,0,1,10.224-12.92c3.085-3.614,6.325-7.122,9.746-10.42a128.234,128.234,0,0,1,19.19-15.7c5.386-3.479,10.879-6.848,16.578-9.772a77.839,77.839,0,0,1,24.182-7.889,90.392,90.392,0,0,1,18.551-.9,118.071,118.071,0,0,1,27.2,4.841,152.441,152.441,0,0,1,36.454,16.292c7.523,4.65,14.869,9.608,22.083,14.725,3.932,2.789,7.432,6.188,11.112,9.33,1.4,1.191,2.75,2.432,4.305,3.813a41.474,41.474,0,0,1-3.627,2.746c-.331.2-1.162-.155-1.624-.464-3.214-2.154-6.309-4.5-9.6-6.52-4.376-2.687-8.873-5.181-13.362-7.679a86.941,86.941,0,0,0-19.2-8.091,137.661,137.661,0,0,0-16.825-3.651,76.594,76.594,0,0,0-14.711-.678,70.847,70.847,0,0,0-24.7,5.951,76.328,76.328,0,0,0-16.145,9.087A71.286,71.286,0,0,0,112.519,235a72.123,72.123,0,0,0-10.07,20.32c-1.687,5.471-2.733,11.15-3.884,16.773-1.808,8.838-1.567,17.822-1.275,26.753.171,5.241,1.235,10.452,1.891,15.677a8.6,8.6,0,0,1,0,.947H15.9A163.2,163.2,0,0,1,24.068,283.293Z" fill="#c00"/>
    <path id="Path_21874" data-name="Path 21874" d="M142.756,240.628a10.3,10.3,0,0,1,1.735-.3c12.372-.017,24.744-.109,37.114.033a24.144,24.144,0,0,1,14.107,5.19c6.491,4.793,9.378,11.433,9.5,19.4.066,4.469-.062,8.885-1.656,13.157-2.629,7.047-7.378,11.709-14.771,13.522-.426.1-.833.287-1.433.5l22.9,22.968-.288.477h-1.777c-8.154,0-16.316-.208-24.458.105-3.137.121-4.987-1.227-6.857-3.234-2.863-3.072-5.8-6.072-8.687-9.124-1.6-1.7-3.165-3.437-5.082-5.524v17.765c-6.813,0-13.423,0-20.189-.176-.154-25.039-.153-49.9-.152-74.765m24.481,35.8c3.374,0,6.752.089,10.12-.052a5.406,5.406,0,0,0,3.121-1.126c3.776-3.267,3.795-9.146,1.525-12.957a5.378,5.378,0,0,0-5.312-2.811c-3.861.272-7.755.071-11.635.071h-1.935v16.875Z" fill="#c00"/>
    <path id="Path_21875" data-name="Path 21875" d="M214.644,307.481c0-14.621.012-29.073-.006-43.526-.006-4.551.528-8.99,2.809-13.017,3.519-6.213,8.78-9.793,16.029-9.918,7.084-.121,14.176-.184,21.256.015,8.492.238,15.1,3.8,18.618,11.876a15.5,15.5,0,0,1,1.317,5.917c.1,18.557.056,37.114.053,55.672,0,.275-.04.551-.071.952H254.505V302.54H235.647v12.929h-21v-7.988m29.893-48.6c-1.718.119-3.455.119-5.15.385-2.476.388-3.809,2.134-3.811,4.7q0,7.668,0,15.334v1.757h18.887c0-6.156.09-12.211-.063-18.26a3.311,3.311,0,0,0-2.759-3.2C249.406,259.217,247.127,259.106,244.537,258.881Z" fill="#c00"/>
    <path id="Path_21876" data-name="Path 21876" d="M371.371,315.536c-.244-.164-.406-.3-.407-.437-.012-6.175-.011-12.35-.011-18.685h34.581v-9.183H403.72c-5.062,0-10.127.123-15.184-.031a19.228,19.228,0,0,1-14.883-7.708,17.134,17.134,0,0,1-3.773-11.779c.109-2.527.086-5.063.008-7.592-.248-8.055,5.685-15.068,12.63-17.765a21.278,21.278,0,0,1,7.984-1.393c9.842.078,19.685.031,29.527.031h2.082V260.2H388.555v8.807h1.831c5.118,0,10.236.028,15.354-.006,8.684-.059,17.264,6.3,18.744,15.133.632,3.774.269,7.709.44,11.567a17.885,17.885,0,0,1-3.768,12.13c-3.659,4.682-8.515,7.609-14.534,7.7C394.927,315.7,383.226,315.57,371.371,315.536Z" fill="#c00"/>
    <path id="Path_21877" data-name="Path 21877" d="M313.875,309.169V241.108h21.532v54.829h28.614v19.535H313.875Z" fill="#c00"/>
    <path id="Path_21878" data-name="Path 21878" d="M288.566,240.994h16.765v74.448H283.944V240.994Z" fill="#c00"/>
    <path id="Path_21879" data-name="Path 21879" d="M25.236,264.3a10.6,10.6,0,0,1,1.088.54L20.9,277.71,8.4,273.159c1.714-4.075,3.474-8.067,5.055-12.128.538-1.382,1.375-.556,1.868-.385C18.612,261.782,21.851,263.052,25.236,264.3Z" fill="#c00"/>
    <path id="Path_21880" data-name="Path 21880" d="M111.245,297.422c.99.8,2.655.5,2.83,2.148.094.882.184,1.768.339,2.641.6,3.367,1.219,6.729,1.868,10.293-1.572-.549-3.141-1.1-4.714-1.643-2.039-.7-4.075-1.414-6.125-2.081a3.016,3.016,0,0,1-2.463-2.824c-.259-3.826-.591-7.647-.908-11.653C105.305,295.4,108.215,296.38,111.245,297.422Z" fill="#c00"/>
    <path id="Path_21881" data-name="Path 21881" d="M111.284,259.3a11.111,11.111,0,0,0,1.909,1.525c1.565.768,1.629,1.821,1.247,3.4-.829,3.416-1.392,6.9-2.1,10.513-1.64-1.275-3.4-2.64-5.155-4.012a7.158,7.158,0,0,0-.755-.661c-1.939-1.1-3.175-2.308-2.211-4.915,1.072-2.9,1.668-5.978,2.564-9.325C108.452,257.1,109.825,258.159,111.284,259.3Z" fill="#c00"/>
    <path id="Path_21882" data-name="Path 21882" d="M54.924,221.338c-1.428,1.706-2.771,3.326-4.244,5.1-2.57-2.209-5.211-4.45-7.8-6.754a1.229,1.229,0,0,1,.074-1.182c2.224-2.306,4.484-4.577,6.8-6.788a1.428,1.428,0,0,1,1.383-.01c2.331,1.971,4.594,4.025,6.92,6.092C56.99,219.015,56,220.134,54.924,221.338Z" fill="#c00"/>
    <path id="Path_21883" data-name="Path 21883" d="M121.244,230.965c1.4-1.464,2.729-2.84,4.6-4.786a17.085,17.085,0,0,0,.729,1.56q1.118,1.842,2.3,3.646c1.793,2.746,1.783,2.727-.357,5.15-1.461,1.654-2.867,3.357-4.434,5.2-1.709-2.5-3.431-4.984-5.077-7.514-.125-.192.221-.779.459-1.1C119.992,232.4,120.591,231.738,121.244,230.965Z" fill="#c00"/>
    <path id="Path_21884" data-name="Path 21884" d="M85.03,184.981a9.511,9.511,0,0,0-.8-1.118l8.692-4.777,4.876,7.5c-2.553,1.536-5.076,3.088-7.652,4.549-.249.142-.986-.157-1.211-.462C87.593,188.849,86.337,186.966,85.03,184.981Z" fill="#c00"/>
    <path id="Path_21885" data-name="Path 21885" d="M179.133,182.547c-.131-2.436-.131-4.808-.131-7.666,3.518,1.278,6.609,2.344,9.639,3.56a2.084,2.084,0,0,1,.981,1.615c-.02,2.042-.249,4.082-.408,6.223C185.859,185.042,182.561,183.827,179.133,182.547Z" fill="#c00"/>
    <path id="Path_21886" data-name="Path 21886" d="M153.069,211.209c.572-.191,1.025-.327,1.566-.49.763,2.224,1.527,4.34,2.181,6.49a1.3,1.3,0,0,1-.572,1.127c-2.809,1.115-5.652,2.143-8.7,3.277l-2.576-7.553C147.7,213.1,150.323,212.184,153.069,211.209Z" fill="#c00"/>
    <path id="Path_21887" data-name="Path 21887" d="M189.339,214.039c0,.817,0,1.478,0,2.269l-10.8-1.244c.136-2.081.283-4.321.447-6.834,1.831.148,3.633.256,5.426.454a25.825,25.825,0,0,0,3.257.537c1.66-.037,2.236.648,2.011,2.2C189.558,212.244,189.452,213.064,189.339,214.039Z" fill="#c00"/>
    <path id="Path_21888" data-name="Path 21888" d="M129.283,171.112c-.379-.976-.486-1.637.788-1.675q4.007-.12,8.01-.344a1.391,1.391,0,0,1,1.664,1.177c.508,1.791,1.142,3.546,1.812,5.586-1.776,0-3.319,0-4.862,0a10.879,10.879,0,0,0-3.342.065c-2.1.714-2.763-.214-3.118-2.027A24.408,24.408,0,0,0,129.283,171.112Z" fill="#c00"/>
    <path id="Path_21889" data-name="Path 21889" d="M142.632,240.708q.185,37.175.118,74.664a2.567,2.567,0,0,1-.311-1.027q-.022-36.445-.009-72.89A1.6,1.6,0,0,1,142.632,240.708Z" fill="red"/>
  </g>
</svg>
