<svg xmlns="http://www.w3.org/2000/svg" width="998.91" height="1107.436" viewBox="0 0 998.91 1107.436">
  <g id="Group_22132" data-name="Group 22132" transform="translate(-173.87 56.294)">
    <g id="Group_22131" data-name="Group 22131" transform="translate(173.87 -56.294)">
      <g id="Group_22026" data-name="Group 22026" transform="translate(74.45 12.424)">
        <g id="Group_22025" data-name="Group 22025">
          <path id="Path_22064" data-name="Path 22064" d="M605.155,794.775c-234.351,0-425-190.653-425-425S370.8-55.246,605.155-55.246s425,190.665,425,425.016S839.506,794.775,605.155,794.775Zm0-816.021c-215.608,0-391.016,175.408-391.016,391.016s175.408,391,391.016,391,391-175.4,391-391S820.763-21.246,605.155-21.246Z" transform="translate(-180.15 55.246)" fill="#bfbfd5"/>
        </g>
      </g>
      <g id="Group_22028" data-name="Group 22028" transform="translate(74.45 12.424)">
        <g id="Group_22027" data-name="Group 22027">
          <path id="Path_22065" data-name="Path 22065" d="M206.178-.487a389.384,389.384,0,0,1,250.913.012,41.74,41.74,0,0,0,.842-8.3V-36.088A425.977,425.977,0,0,0,205.348-36.1V-8.774A41.53,41.53,0,0,0,206.178-.487Z" transform="translate(93.376 55.246)" fill="#7e80aa"/>
          <path id="Path_22066" data-name="Path 22066" d="M457.091,11.836A389.4,389.4,0,0,1,331.628,32.594a389.061,389.061,0,0,1-125.45-20.758,41.648,41.648,0,0,0-.83,8.3V47.449a423.778,423.778,0,0,0,126.28,19.146,423.62,423.62,0,0,0,126.3-19.158v-27.3A41.65,41.65,0,0,0,457.091,11.836Z" transform="translate(93.376 783.427)" fill="#7e80aa"/>
          <path id="Path_22067" data-name="Path 22067" d="M231.481,124.64a40.964,40.964,0,0,0,15.412,3.047h44.35A428.361,428.361,0,0,0,411.69-.87H371.276A393.779,393.779,0,0,1,231.481,124.64Z" transform="translate(377.052 645.502)" fill="#7e80aa"/>
          <path id="Path_22068" data-name="Path 22068" d="M365.538,124.64A393.679,393.679,0,0,1,225.743-.87H185.317A428.4,428.4,0,0,0,305.776,127.687h44.338A40.93,40.93,0,0,0,365.538,124.64Z" transform="translate(-124.062 645.502)" fill="#7e80aa"/>
          <path id="Path_22069" data-name="Path 22069" d="M363.506-46.431a40.736,40.736,0,0,0-12.365-2.1H303.306A428.225,428.225,0,0,0,185.182,80.039h40.141A393.961,393.961,0,0,1,363.506-46.431Z" transform="translate(-125.527 128.16)" fill="#7e80aa"/>
          <path id="Path_22070" data-name="Path 22070" d="M231.777-46.431A394.026,394.026,0,0,1,369.948,80.039h40.141A428.225,428.225,0,0,0,291.965-48.529H244.13A41.025,41.025,0,0,0,231.777-46.431Z" transform="translate(380.265 128.16)" fill="#7e80aa"/>
          <path id="Path_22071" data-name="Path 22071" d="M283.039-24.818h-34.51a392.161,392.161,0,0,1,5.37,64.29,392.236,392.236,0,0,1-5.37,64.278h34.51A425.85,425.85,0,0,0,287.9,39.472,425.772,425.772,0,0,0,283.039-24.818Z" transform="translate(562.11 385.544)" fill="#7e80aa"/>
          <path id="Path_22072" data-name="Path 22072" d="M214.139,39.472a392.186,392.186,0,0,1,5.382-64.29H185a428.55,428.55,0,0,0,0,128.568h34.522A392.262,392.262,0,0,1,214.139,39.472Z" transform="translate(-180.15 385.544)" fill="#7e80aa"/>
        </g>
      </g>
      <g id="Group_22029" data-name="Group 22029" transform="translate(85.772 23.758)">
        <path id="Path_22073" data-name="Path 22073" d="M594.788,773.064c-228.115,0-413.683-185.579-413.683-413.671S366.672-54.29,594.788-54.29c228.08,0,413.683,185.579,413.683,413.683S822.868,773.064,594.788,773.064Zm0-816.021c-221.868,0-402.338,180.494-402.338,402.35S372.92,761.731,594.788,761.731c221.844,0,402.338-180.482,402.338-402.338S816.632-42.957,594.788-42.957Z" transform="translate(-181.105 54.29)" fill="#a1a2c1"/>
      </g>
      <g id="Group_22030" data-name="Group 22030" transform="translate(85.772 23.758)">
        <path id="Path_22074" data-name="Path 22074" d="M331.628-42.957a400.5,400.5,0,0,1,126.3,20.426V-34.492A412.828,412.828,0,0,0,205.348-34.5v11.962A400.292,400.292,0,0,1,331.628-42.957Z" transform="translate(82.055 54.29)" fill="#8b8db3"/>
        <path id="Path_22075" data-name="Path 22075" d="M331.628,33.246a400.292,400.292,0,0,1-126.28-20.414V24.805A412.238,412.238,0,0,0,331.628,44.58a412.154,412.154,0,0,0,126.3-19.786V12.82A400.5,400.5,0,0,1,331.628,33.246Z" transform="translate(82.055 782.775)" fill="#8b8db3"/>
        <path id="Path_22076" data-name="Path 22076" d="M232.975,127.687h21.719A416.912,416.912,0,0,0,382.053-.87H368.6A405.415,405.415,0,0,1,232.975,127.687Z" transform="translate(381.948 634.168)" fill="#8b8db3"/>
        <path id="Path_22077" data-name="Path 22077" d="M199.906-.87H186.45A416.653,416.653,0,0,0,313.809,127.687h21.719A405.308,405.308,0,0,1,199.906-.87Z" transform="translate(-123.085 634.168)" fill="#8b8db3"/>
        <path id="Path_22078" data-name="Path 22078" d="M332.305-48.529h-21.2A416.949,416.949,0,0,0,186.3,80.039h13.455A405.4,405.4,0,0,1,332.305-48.529Z" transform="translate(-124.735 116.826)" fill="#8b8db3"/>
        <path id="Path_22079" data-name="Path 22079" d="M365.937,80.039h13.456a416.911,416.911,0,0,0-124.8-128.568H233.385A405.281,405.281,0,0,1,365.937,80.039Z" transform="translate(386.399 116.826)" fill="#8b8db3"/>
        <path id="Path_22080" data-name="Path 22080" d="M254.693,39.472A403.313,403.313,0,0,1,249.5,103.75H261a413.509,413.509,0,0,0,5.039-64.278A413.547,413.547,0,0,0,261-24.818H249.5A403.237,403.237,0,0,1,254.693,39.472Z" transform="translate(561.328 374.211)" fill="#8b8db3"/>
        <path id="Path_22081" data-name="Path 22081" d="M192.45,39.472a400.527,400.527,0,0,1,5.2-64.29H186.132a413.551,413.551,0,0,0,0,128.568h11.523A400.6,400.6,0,0,1,192.45,39.472Z" transform="translate(-181.105 374.211)" fill="#8b8db3"/>
      </g>
      <g id="Group_22108" data-name="Group 22108">
        <g id="Group_22107" data-name="Group 22107">
          <g id="Group_22049" data-name="Group 22049" transform="translate(401.496)">
            <g id="Group_22039" data-name="Group 22039">
              <path id="Path_22082" data-name="Path 22082" d="M390.661-56.294H220.754a13.023,13.023,0,0,0-13.017,13.017V2.6a13.013,13.013,0,0,0,13.017,13.005H390.661A13.018,13.018,0,0,0,403.666,2.6V-43.277A13.028,13.028,0,0,0,390.661-56.294Z" transform="translate(-207.737 56.294)" fill="#7475a3"/>
              <path id="Path_22083" data-name="Path 22083" d="M390.661-40.356H220.754c-7.184,0-13.017-5.086-13.017-11.4V-46.6A13.013,13.013,0,0,0,220.754-33.6H390.661A13.018,13.018,0,0,0,403.666-46.6v-5.157C403.666-45.442,397.821-40.356,390.661-40.356Z" transform="translate(-207.737 105.5)" fill="#292b72"/>
              <g id="Group_22032" data-name="Group 22032" transform="translate(22.299 24.836)">
                <g id="Group_22031" data-name="Group 22031">
                  <path id="Path_22084" data-name="Path 22084" d="M217.691-38.029a8.1,8.1,0,0,1-8.073-8.085,8.1,8.1,0,0,1,8.073-8.085,8.1,8.1,0,0,1,8.073,8.085A8.1,8.1,0,0,1,217.691-38.029Zm0-11.713a3.635,3.635,0,0,0-3.628,3.628,3.648,3.648,0,0,0,3.628,3.651,3.648,3.648,0,0,0,3.628-3.651A3.635,3.635,0,0,0,217.691-49.741Z" transform="translate(-209.618 54.199)" fill="#fff"/>
                </g>
                <path id="Path_22085" data-name="Path 22085" d="M215.651-42.309a5.844,5.844,0,0,1-5.844-5.856,5.834,5.834,0,0,1,5.844-5.845,5.841,5.841,0,0,1,5.845,5.845A5.851,5.851,0,0,1,215.651-42.309Z" transform="translate(-207.577 56.251)" fill="#7879a6"/>
              </g>
              <g id="Group_22034" data-name="Group 22034" transform="translate(81.658 24.848)">
                <g id="Group_22033" data-name="Group 22033">
                  <path id="Path_22086" data-name="Path 22086" d="M222.7-38.039a8.1,8.1,0,0,1-8.073-8.085A8.09,8.09,0,0,1,222.7-54.2a8.093,8.093,0,0,1,8.085,8.073A8.1,8.1,0,0,1,222.7-38.039Zm0-11.713a3.625,3.625,0,0,0-3.616,3.628,3.628,3.628,0,0,0,3.616,3.639,3.653,3.653,0,0,0,3.663-3.639A3.651,3.651,0,0,0,222.7-49.752Z" transform="translate(-214.625 54.198)" fill="#fff"/>
                </g>
                <path id="Path_22087" data-name="Path 22087" d="M220.668-42.309a5.861,5.861,0,0,1-5.856-5.856,5.851,5.851,0,0,1,5.856-5.845,5.854,5.854,0,0,1,5.868,5.845A5.864,5.864,0,0,1,220.668-42.309Z" transform="translate(-212.595 56.239)" fill="#7879a6"/>
              </g>
              <g id="Group_22036" data-name="Group 22036" transform="translate(51.973 24.836)">
                <g id="Group_22035" data-name="Group 22035">
                  <path id="Path_22088" data-name="Path 22088" d="M220.206-38.029a8.1,8.1,0,0,1-8.085-8.085,8.1,8.1,0,0,1,8.085-8.085,8.1,8.1,0,0,1,8.073,8.085A8.093,8.093,0,0,1,220.206-38.029Zm0-11.725a3.656,3.656,0,0,0-3.639,3.64,3.648,3.648,0,0,0,3.639,3.639,3.63,3.63,0,0,0,3.628-3.639A3.638,3.638,0,0,0,220.206-49.753Z" transform="translate(-212.121 54.199)" fill="#fff"/>
                </g>
                <path id="Path_22089" data-name="Path 22089" d="M218.155-42.309a5.844,5.844,0,0,1-5.844-5.856,5.834,5.834,0,0,1,5.844-5.845,5.851,5.851,0,0,1,5.856,5.845A5.861,5.861,0,0,1,218.155-42.309Z" transform="translate(-210.07 56.251)" fill="#a1a2c1"/>
              </g>
              <g id="Group_22038" data-name="Group 22038" transform="translate(111.331 24.848)">
                <g id="Group_22037" data-name="Group 22037">
                  <path id="Path_22090" data-name="Path 22090" d="M225.213-38.039a8.11,8.11,0,0,1-8.085-8.085,8.1,8.1,0,0,1,8.085-8.073,8.09,8.09,0,0,1,8.073,8.073A8.1,8.1,0,0,1,225.213-38.039Zm0-11.713a3.635,3.635,0,0,0-3.628,3.628,3.638,3.638,0,0,0,3.628,3.639,3.643,3.643,0,0,0,3.651-3.639A3.64,3.64,0,0,0,225.213-49.752Z" transform="translate(-217.128 54.198)" fill="#fff"/>
                </g>
                <path id="Path_22091" data-name="Path 22091" d="M223.161-42.309a5.851,5.851,0,0,1-5.844-5.856,5.841,5.841,0,0,1,5.844-5.845,5.854,5.854,0,0,1,5.868,5.845A5.864,5.864,0,0,1,223.161-42.309Z" transform="translate(-215.076 56.239)" fill="#7475a3"/>
              </g>
              <rect id="Rectangle_5265" data-name="Rectangle 5265" width="19.849" height="8.168" transform="translate(150.959 42.068)" fill="#292b72"/>
              <rect id="Rectangle_5266" data-name="Rectangle 5266" width="19.849" height="19.85" transform="translate(150.959 18.057)" fill="#bfbfd5"/>
            </g>
            <g id="Group_22048" data-name="Group 22048" transform="translate(0 802.968)">
              <path id="Path_22092" data-name="Path 22092" d="M390.661,11.438H220.754a13.023,13.023,0,0,0-13.017,13.017V70.334a13.023,13.023,0,0,0,13.017,13.017H390.661a13.028,13.028,0,0,0,13.005-13.017V24.455A13.028,13.028,0,0,0,390.661,11.438Z" transform="translate(-207.737 -11.438)" fill="#7475a3"/>
              <path id="Path_22093" data-name="Path 22093" d="M390.661,27.388H220.754c-7.184,0-13.017-5.11-13.017-11.416v5.145a13.023,13.023,0,0,0,13.017,13.017H390.661a13.028,13.028,0,0,0,13.005-13.017V15.972C403.666,22.279,397.821,27.388,390.661,27.388Z" transform="translate(-207.737 37.779)" fill="#292b72"/>
              <g id="Group_22041" data-name="Group 22041" transform="translate(22.299 24.848)">
                <g id="Group_22040" data-name="Group 22040">
                  <path id="Path_22094" data-name="Path 22094" d="M217.691,29.7a8.085,8.085,0,1,1,8.073-8.085A8.1,8.1,0,0,1,217.691,29.7Zm0-11.725a3.64,3.64,0,1,0,3.628,3.639A3.645,3.645,0,0,0,217.691,17.98Z" transform="translate(-209.618 -13.534)" fill="#fff"/>
                </g>
                <path id="Path_22095" data-name="Path 22095" d="M215.651,25.435a5.856,5.856,0,1,1,5.845-5.856A5.851,5.851,0,0,1,215.651,25.435Z" transform="translate(-207.577 -11.493)" fill="#7879a6"/>
              </g>
              <g id="Group_22043" data-name="Group 22043" transform="translate(81.658 24.86)">
                <g id="Group_22042" data-name="Group 22042">
                  <path id="Path_22096" data-name="Path 22096" d="M222.7,29.682a8.073,8.073,0,1,1,8.085-8.073A8.09,8.09,0,0,1,222.7,29.682Zm0-11.713a3.634,3.634,0,1,0,3.663,3.639A3.635,3.635,0,0,0,222.7,17.969Z" transform="translate(-214.625 -13.535)" fill="#fff"/>
                </g>
                <path id="Path_22097" data-name="Path 22097" d="M220.668,25.435a5.856,5.856,0,1,1,5.868-5.856A5.869,5.869,0,0,1,220.668,25.435Z" transform="translate(-212.595 -11.505)" fill="#7879a6"/>
              </g>
              <g id="Group_22045" data-name="Group 22045" transform="translate(51.973 24.848)">
                <g id="Group_22044" data-name="Group 22044">
                  <path id="Path_22098" data-name="Path 22098" d="M220.206,29.7a8.085,8.085,0,1,1,8.073-8.085A8.1,8.1,0,0,1,220.206,29.7Zm0-11.737a3.64,3.64,0,1,0,3.628,3.651A3.666,3.666,0,0,0,220.206,17.968Z" transform="translate(-212.121 -13.534)" fill="#fff"/>
                </g>
                <path id="Path_22099" data-name="Path 22099" d="M218.155,25.435a5.856,5.856,0,1,1,5.856-5.856A5.851,5.851,0,0,1,218.155,25.435Z" transform="translate(-210.07 -11.493)" fill="#a1a2c1"/>
              </g>
              <g id="Group_22047" data-name="Group 22047" transform="translate(111.331 24.86)">
                <g id="Group_22046" data-name="Group 22046">
                  <path id="Path_22100" data-name="Path 22100" d="M225.213,29.682a8.073,8.073,0,1,1,8.073-8.073A8.1,8.1,0,0,1,225.213,29.682Zm0-11.713a3.634,3.634,0,1,0,3.651,3.639A3.645,3.645,0,0,0,225.213,17.969Z" transform="translate(-217.128 -13.535)" fill="#fff"/>
                </g>
                <path id="Path_22101" data-name="Path 22101" d="M223.161,25.435a5.856,5.856,0,1,1,5.868-5.856A5.859,5.859,0,0,1,223.161,25.435Z" transform="translate(-215.076 -11.505)" fill="#7475a3"/>
              </g>
              <rect id="Rectangle_5267" data-name="Rectangle 5267" width="19.849" height="8.168" transform="translate(150.959 42.073)" fill="#292b72"/>
              <rect id="Rectangle_5268" data-name="Rectangle 5268" width="19.849" height="19.849" transform="translate(150.959 18.063)" fill="#bfbfd5"/>
            </g>
          </g>
          <g id="Group_22068" data-name="Group 22068" transform="translate(117.591 685.39)">
            <g id="Group_22058" data-name="Group 22058" transform="translate(567.776 0)">
              <path id="Path_22102" data-name="Path 22102" d="M414.594,1.52H244.711a13.026,13.026,0,0,0-13.029,13.017V60.4a13.026,13.026,0,0,0,13.029,13.017H414.594A13.026,13.026,0,0,0,427.623,60.4V14.537A13.026,13.026,0,0,0,414.594,1.52Z" transform="translate(-231.682 -1.52)" fill="#7475a3"/>
              <path id="Path_22103" data-name="Path 22103" d="M414.594,17.458H244.711c-7.184,0-13.029-5.1-13.029-11.4V11.2a13.026,13.026,0,0,0,13.029,13.017H414.594A13.026,13.026,0,0,0,427.623,11.2V6.053C427.623,12.36,421.778,17.458,414.594,17.458Z" transform="translate(-231.682 47.686)" fill="#292b72"/>
              <g id="Group_22051" data-name="Group 22051" transform="translate(22.311 24.836)">
                <g id="Group_22050" data-name="Group 22050">
                  <path id="Path_22104" data-name="Path 22104" d="M241.649,19.785a8.085,8.085,0,1,1,8.073-8.085A8.1,8.1,0,0,1,241.649,19.785Zm0-11.725a3.64,3.64,0,1,0,3.616,3.64A3.648,3.648,0,0,0,241.649,8.061Z" transform="translate(-233.564 -3.615)" fill="#fff"/>
                </g>
                <path id="Path_22105" data-name="Path 22105" d="M239.608,15.516a5.856,5.856,0,1,1,5.856-5.856A5.854,5.854,0,0,1,239.608,15.516Z" transform="translate(-231.523 -1.574)" fill="#7879a6"/>
              </g>
              <g id="Group_22053" data-name="Group 22053" transform="translate(81.67 24.848)">
                <g id="Group_22052" data-name="Group 22052">
                  <path id="Path_22106" data-name="Path 22106" d="M246.644,19.763a8.073,8.073,0,1,1,8.085-8.073A8.09,8.09,0,0,1,246.644,19.763Zm0-11.713a3.634,3.634,0,1,0,3.639,3.64A3.635,3.635,0,0,0,246.644,8.05Z" transform="translate(-238.571 -3.616)" fill="#fff"/>
                </g>
                <path id="Path_22107" data-name="Path 22107" d="M244.593,15.516a5.856,5.856,0,1,1,5.88-5.856A5.841,5.841,0,0,1,244.593,15.516Z" transform="translate(-236.519 -1.586)" fill="#7879a6"/>
              </g>
              <g id="Group_22055" data-name="Group 22055" transform="translate(51.984 24.836)">
                <g id="Group_22054" data-name="Group 22054">
                  <path id="Path_22108" data-name="Path 22108" d="M244.152,19.785a8.085,8.085,0,1,1,8.073-8.085A8.1,8.1,0,0,1,244.152,19.785Zm0-11.725A3.634,3.634,0,1,0,247.8,11.7,3.64,3.64,0,0,0,244.152,8.061Z" transform="translate(-236.067 -3.615)" fill="#fff"/>
                </g>
                <path id="Path_22109" data-name="Path 22109" d="M242.122,15.516a5.856,5.856,0,1,1,5.868-5.856A5.864,5.864,0,0,1,242.122,15.516Z" transform="translate(-234.037 -1.574)" fill="#a1a2c1"/>
              </g>
              <g id="Group_22057" data-name="Group 22057" transform="translate(111.378 24.848)">
                <g id="Group_22056" data-name="Group 22056">
                  <path id="Path_22110" data-name="Path 22110" d="M249.15,19.763a8.073,8.073,0,1,1,8.062-8.073A8.075,8.075,0,0,1,249.15,19.763Zm0-11.713a3.634,3.634,0,1,0,3.616,3.64A3.65,3.65,0,0,0,249.15,8.05Z" transform="translate(-241.077 -3.616)" fill="#fff"/>
                </g>
                <path id="Path_22111" data-name="Path 22111" d="M247.131,15.516a5.856,5.856,0,1,1,5.845-5.856A5.856,5.856,0,0,1,247.131,15.516Z" transform="translate(-239.058 -1.586)" fill="#7475a3"/>
              </g>
              <rect id="Rectangle_5269" data-name="Rectangle 5269" width="19.849" height="8.168" transform="translate(150.974 42.062)" fill="#292b72"/>
              <rect id="Rectangle_5270" data-name="Rectangle 5270" width="19.849" height="19.849" transform="translate(150.974 18.051)" fill="#bfbfd5"/>
            </g>
            <g id="Group_22067" data-name="Group 22067" transform="translate(0 0)">
              <path id="Path_22112" data-name="Path 22112" d="M366.7,1.52H196.83a13.028,13.028,0,0,0-13.041,13.017V60.4A13.028,13.028,0,0,0,196.83,73.421H366.7A13.028,13.028,0,0,0,379.741,60.4V14.537A13.028,13.028,0,0,0,366.7,1.52Z" transform="translate(-183.789 -1.52)" fill="#7475a3"/>
              <path id="Path_22113" data-name="Path 22113" d="M366.7,17.458H196.83c-7.2,0-13.041-5.1-13.041-11.4V11.2A13.028,13.028,0,0,0,196.83,24.215H366.7A13.028,13.028,0,0,0,379.741,11.2V6.053C379.741,12.36,373.9,17.458,366.7,17.458Z" transform="translate(-183.789 47.686)" fill="#292b72"/>
              <g id="Group_22060" data-name="Group 22060" transform="translate(22.311 24.836)">
                <g id="Group_22059" data-name="Group 22059">
                  <path id="Path_22114" data-name="Path 22114" d="M193.756,19.785a8.085,8.085,0,1,1,8.073-8.085A8.11,8.11,0,0,1,193.756,19.785Zm0-11.725a3.64,3.64,0,1,0,3.628,3.64A3.66,3.66,0,0,0,193.756,8.061Z" transform="translate(-185.671 -3.615)" fill="#fff"/>
                </g>
                <path id="Path_22115" data-name="Path 22115" d="M191.726,15.516a5.856,5.856,0,1,1,5.844-5.856A5.864,5.864,0,0,1,191.726,15.516Z" transform="translate(-183.641 -1.574)" fill="#7879a6"/>
              </g>
              <g id="Group_22062" data-name="Group 22062" transform="translate(81.682 24.848)">
                <g id="Group_22061" data-name="Group 22061">
                  <path id="Path_22116" data-name="Path 22116" d="M198.752,19.763a8.073,8.073,0,1,1,8.062-8.073A8.075,8.075,0,0,1,198.752,19.763Zm0-11.713a3.634,3.634,0,1,0,3.64,3.64A3.63,3.63,0,0,0,198.752,8.05Z" transform="translate(-190.679 -3.616)" fill="#fff"/>
                </g>
                <path id="Path_22117" data-name="Path 22117" d="M196.733,15.516a5.856,5.856,0,1,1,5.844-5.856A5.864,5.864,0,0,1,196.733,15.516Z" transform="translate(-188.66 -1.586)" fill="#7879a6"/>
              </g>
              <g id="Group_22064" data-name="Group 22064" transform="translate(51.996 24.836)">
                <g id="Group_22063" data-name="Group 22063">
                  <path id="Path_22118" data-name="Path 22118" d="M196.248,19.785a8.085,8.085,0,1,1,8.085-8.085A8.093,8.093,0,0,1,196.248,19.785Zm0-11.725a3.634,3.634,0,1,0,3.639,3.64A3.658,3.658,0,0,0,196.248,8.061Z" transform="translate(-188.175 -3.615)" fill="#fff"/>
                </g>
                <path id="Path_22119" data-name="Path 22119" d="M194.229,15.516a5.856,5.856,0,1,1,5.844-5.856A5.872,5.872,0,0,1,194.229,15.516Z" transform="translate(-186.156 -1.574)" fill="#a1a2c1"/>
              </g>
              <g id="Group_22066" data-name="Group 22066" transform="translate(111.355 24.848)">
                <g id="Group_22065" data-name="Group 22065">
                  <path id="Path_22120" data-name="Path 22120" d="M201.255,19.763a8.073,8.073,0,1,1,8.085-8.073A8.1,8.1,0,0,1,201.255,19.763Zm0-11.713a3.634,3.634,0,1,0,3.639,3.64A3.643,3.643,0,0,0,201.255,8.05Z" transform="translate(-193.182 -3.616)" fill="#fff"/>
                </g>
                <path id="Path_22121" data-name="Path 22121" d="M199.2,15.516a5.856,5.856,0,1,1,5.844-5.856A5.841,5.841,0,0,1,199.2,15.516Z" transform="translate(-191.13 -1.586)" fill="#7475a3"/>
              </g>
              <rect id="Rectangle_5271" data-name="Rectangle 5271" width="19.826" height="8.168" transform="translate(150.979 42.062)" fill="#292b72"/>
              <rect id="Rectangle_5272" data-name="Rectangle 5272" width="19.826" height="19.849" transform="translate(150.979 18.051)" fill="#bfbfd5"/>
            </g>
          </g>
          <g id="Group_22087" data-name="Group 22087" transform="translate(117.152 120.388)">
            <g id="Group_22077" data-name="Group 22077">
              <path id="Path_22122" data-name="Path 22122" d="M366.664-46.139H196.793a13.036,13.036,0,0,0-13.041,13.017V12.745a13.028,13.028,0,0,0,13.041,13.017H366.664a13.018,13.018,0,0,0,13.029-13.017V-33.122A13.026,13.026,0,0,0,366.664-46.139Z" transform="translate(-183.752 46.139)" fill="#7475a3"/>
              <path id="Path_22123" data-name="Path 22123" d="M366.664-30.2H196.793c-7.2,0-13.041-5.1-13.041-11.4v5.133a13.028,13.028,0,0,0,13.041,13.017H366.664a13.018,13.018,0,0,0,13.029-13.017V-41.6C379.693-35.3,373.86-30.2,366.664-30.2Z" transform="translate(-183.752 95.356)" fill="#292b72"/>
              <g id="Group_22070" data-name="Group 22070" transform="translate(22.288 24.848)">
                <g id="Group_22069" data-name="Group 22069">
                  <path id="Path_22124" data-name="Path 22124" d="M193.705-27.885a8.1,8.1,0,0,1-8.073-8.085,8.09,8.09,0,0,1,8.073-8.073,8.077,8.077,0,0,1,8.085,8.073A8.087,8.087,0,0,1,193.705-27.885Zm0-11.7a3.633,3.633,0,0,0-3.628,3.616,3.656,3.656,0,0,0,3.628,3.651,3.648,3.648,0,0,0,3.663-3.651A3.625,3.625,0,0,0,193.705-39.585Z" transform="translate(-185.632 44.043)" fill="#fff"/>
                </g>
                <path id="Path_22125" data-name="Path 22125" d="M191.665-32.142a5.877,5.877,0,0,1-5.844-5.868,5.856,5.856,0,0,1,5.844-5.845,5.854,5.854,0,0,1,5.868,5.845A5.874,5.874,0,0,1,191.665-32.142Z" transform="translate(-183.591 46.084)" fill="#7879a6"/>
              </g>
              <g id="Group_22072" data-name="Group 22072" transform="translate(81.67 24.86)">
                <g id="Group_22071" data-name="Group 22071">
                  <path id="Path_22126" data-name="Path 22126" d="M198.726-27.9a8.11,8.11,0,0,1-8.085-8.085,8.09,8.09,0,0,1,8.085-8.061,8.08,8.08,0,0,1,8.073,8.061A8.1,8.1,0,0,1,198.726-27.9Zm0-11.7a3.63,3.63,0,0,0-3.651,3.616,3.643,3.643,0,0,0,3.651,3.64,3.638,3.638,0,0,0,3.628-3.64A3.625,3.625,0,0,0,198.726-39.6Z" transform="translate(-190.641 44.042)" fill="#fff"/>
                </g>
                <path id="Path_22127" data-name="Path 22127" d="M196.7-32.142a5.874,5.874,0,0,1-5.868-5.868,5.854,5.854,0,0,1,5.868-5.845,5.831,5.831,0,0,1,5.833,5.845A5.851,5.851,0,0,1,196.7-32.142Z" transform="translate(-188.611 46.072)" fill="#7879a6"/>
              </g>
              <g id="Group_22074" data-name="Group 22074" transform="translate(51.996 24.848)">
                <g id="Group_22073" data-name="Group 22073">
                  <path id="Path_22128" data-name="Path 22128" d="M196.211-27.885a8.093,8.093,0,0,1-8.073-8.085,8.09,8.09,0,0,1,8.073-8.073A8.1,8.1,0,0,1,204.3-35.97,8.1,8.1,0,0,1,196.211-27.885Zm0-11.713a3.62,3.62,0,0,0-3.628,3.628,3.623,3.623,0,0,0,3.628,3.64,3.648,3.648,0,0,0,3.64-3.64A3.645,3.645,0,0,0,196.211-39.6Z" transform="translate(-188.138 44.043)" fill="#fff"/>
                </g>
                <path id="Path_22129" data-name="Path 22129" d="M194.192-32.142a5.874,5.874,0,0,1-5.868-5.868,5.854,5.854,0,0,1,5.868-5.845,5.834,5.834,0,0,1,5.844,5.845A5.854,5.854,0,0,1,194.192-32.142Z" transform="translate(-186.119 46.084)" fill="#a1a2c1"/>
              </g>
              <g id="Group_22076" data-name="Group 22076" transform="translate(111.355 24.86)">
                <g id="Group_22075" data-name="Group 22075">
                  <path id="Path_22130" data-name="Path 22130" d="M201.23-27.9a8.1,8.1,0,0,1-8.085-8.085,8.083,8.083,0,0,1,8.085-8.061,8.08,8.08,0,0,1,8.073,8.061A8.1,8.1,0,0,1,201.23-27.9Zm0-11.7a3.613,3.613,0,0,0-3.64,3.616,3.625,3.625,0,0,0,3.64,3.64,3.613,3.613,0,0,0,3.616-3.64A3.6,3.6,0,0,0,201.23-39.6Z" transform="translate(-193.145 44.042)" fill="#fff"/>
                </g>
                <path id="Path_22131" data-name="Path 22131" d="M199.2-32.142a5.874,5.874,0,0,1-5.868-5.868,5.854,5.854,0,0,1,5.868-5.845,5.851,5.851,0,0,1,5.856,5.845A5.872,5.872,0,0,1,199.2-32.142Z" transform="translate(-191.115 46.072)" fill="#7475a3"/>
              </g>
              <rect id="Rectangle_5273" data-name="Rectangle 5273" width="19.831" height="8.174" transform="translate(150.972 42.066)" fill="#292b72"/>
              <rect id="Rectangle_5274" data-name="Rectangle 5274" width="19.831" height="19.843" transform="translate(150.972 18.06)" fill="#bfbfd5"/>
            </g>
            <g id="Group_22086" data-name="Group 22086" transform="translate(568.676)">
              <path id="Path_22132" data-name="Path 22132" d="M414.633-46.139h-169.9a13.016,13.016,0,0,0-13.017,13.017V12.745a13.008,13.008,0,0,0,13.017,13.017h169.9A13.023,13.023,0,0,0,427.65,12.745V-33.122A13.031,13.031,0,0,0,414.633-46.139Z" transform="translate(-231.721 46.139)" fill="#7475a3"/>
              <path id="Path_22133" data-name="Path 22133" d="M414.633-30.2h-169.9c-7.2,0-13.017-5.1-13.017-11.4v5.133a13.008,13.008,0,0,0,13.017,13.017h169.9A13.023,13.023,0,0,0,427.65-36.472V-41.6C427.65-35.3,421.805-30.2,414.633-30.2Z" transform="translate(-231.721 95.356)" fill="#292b72"/>
              <g id="Group_22079" data-name="Group 22079" transform="translate(22.3 24.848)">
                <g id="Group_22078" data-name="Group 22078">
                  <path id="Path_22134" data-name="Path 22134" d="M241.675-27.885A8.093,8.093,0,0,1,233.6-35.97a8.082,8.082,0,0,1,8.073-8.073,8.09,8.09,0,0,1,8.073,8.073A8.1,8.1,0,0,1,241.675-27.885Zm0-11.7a3.617,3.617,0,0,0-3.628,3.616,3.64,3.64,0,0,0,3.628,3.651A3.633,3.633,0,0,0,245.3-35.97,3.61,3.61,0,0,0,241.675-39.585Z" transform="translate(-233.602 44.043)" fill="#fff"/>
                </g>
                <path id="Path_22135" data-name="Path 22135" d="M239.635-32.142a5.854,5.854,0,0,1-5.845-5.868,5.834,5.834,0,0,1,5.845-5.845,5.841,5.841,0,0,1,5.844,5.845A5.862,5.862,0,0,1,239.635-32.142Z" transform="translate(-231.561 46.084)" fill="#7879a6"/>
              </g>
              <g id="Group_22081" data-name="Group 22081" transform="translate(81.646 24.86)">
                <g id="Group_22080" data-name="Group 22080">
                  <path id="Path_22136" data-name="Path 22136" d="M246.717-27.9a8.115,8.115,0,0,1-8.109-8.085,8.1,8.1,0,0,1,8.109-8.061,8.06,8.06,0,0,1,8.05,8.061A8.08,8.08,0,0,1,246.717-27.9Zm0-11.7a3.625,3.625,0,0,0-3.663,3.616,3.638,3.638,0,0,0,3.663,3.64,3.625,3.625,0,0,0,3.6-3.64A3.612,3.612,0,0,0,246.717-39.6Z" transform="translate(-238.608 44.042)" fill="#fff"/>
                </g>
                <path id="Path_22137" data-name="Path 22137" d="M244.687-32.142a5.887,5.887,0,0,1-5.892-5.868,5.867,5.867,0,0,1,5.892-5.845,5.841,5.841,0,0,1,5.844,5.845A5.861,5.861,0,0,1,244.687-32.142Z" transform="translate(-236.578 46.072)" fill="#7879a6"/>
              </g>
              <g id="Group_22083" data-name="Group 22083" transform="translate(51.973 24.848)">
                <g id="Group_22082" data-name="Group 22082">
                  <path id="Path_22138" data-name="Path 22138" d="M244.178-27.885A8.093,8.093,0,0,1,236.1-35.97a8.09,8.09,0,0,1,8.073-8.073,8.1,8.1,0,0,1,8.085,8.073A8.1,8.1,0,0,1,244.178-27.885Zm0-11.713a3.635,3.635,0,0,0-3.627,3.628,3.638,3.638,0,0,0,3.627,3.64,3.623,3.623,0,0,0,3.628-3.64A3.62,3.62,0,0,0,244.178-39.6Z" transform="translate(-236.105 44.043)" fill="#fff"/>
                </g>
                <path id="Path_22139" data-name="Path 22139" d="M242.137-32.142a5.862,5.862,0,0,1-5.844-5.868,5.841,5.841,0,0,1,5.844-5.845,5.854,5.854,0,0,1,5.868,5.845A5.874,5.874,0,0,1,242.137-32.142Z" transform="translate(-234.064 46.084)" fill="#a1a2c1"/>
              </g>
              <g id="Group_22085" data-name="Group 22085" transform="translate(111.331 24.86)">
                <g id="Group_22084" data-name="Group 22084">
                  <path id="Path_22140" data-name="Path 22140" d="M249.209-27.9a8.105,8.105,0,0,1-8.1-8.085,8.085,8.085,0,0,1,8.1-8.061,8.062,8.062,0,0,1,8.062,8.061A8.083,8.083,0,0,1,249.209-27.9Zm0-11.7a3.628,3.628,0,0,0-3.639,3.616,3.64,3.64,0,0,0,3.639,3.64,3.648,3.648,0,0,0,3.639-3.64A3.635,3.635,0,0,0,249.209-39.6Z" transform="translate(-241.112 44.042)" fill="#fff"/>
                </g>
                <path id="Path_22141" data-name="Path 22141" d="M247.157-32.142A5.856,5.856,0,0,1,241.3-38.01a5.836,5.836,0,0,1,5.856-5.845,5.859,5.859,0,0,1,5.856,5.845A5.879,5.879,0,0,1,247.157-32.142Z" transform="translate(-239.06 46.072)" fill="#7475a3"/>
              </g>
              <rect id="Rectangle_5275" data-name="Rectangle 5275" width="19.855" height="8.174" transform="translate(150.952 42.066)" fill="#292b72"/>
              <rect id="Rectangle_5276" data-name="Rectangle 5276" width="19.855" height="19.843" transform="translate(150.952 18.06)" fill="#bfbfd5"/>
            </g>
          </g>
          <g id="Group_22106" data-name="Group 22106" transform="translate(0 401.484)">
            <g id="Group_22096" data-name="Group 22096" transform="translate(802.98)">
              <path id="Path_22142" data-name="Path 22142" d="M424.515-22.428H254.62A13.008,13.008,0,0,0,241.6-9.411V36.468A13.005,13.005,0,0,0,254.62,49.473h169.9a13.021,13.021,0,0,0,13.017-13.005V-9.411A13.023,13.023,0,0,0,424.515-22.428Z" transform="translate(-241.603 22.428)" fill="#7475a3"/>
              <path id="Path_22143" data-name="Path 22143" d="M424.515-6.489H254.62c-7.2,0-13.017-5.11-13.017-11.4v5.145A13.005,13.005,0,0,0,254.62.256h169.9a13.021,13.021,0,0,0,13.017-13.005v-5.145C437.532-11.6,431.687-6.489,424.515-6.489Z" transform="translate(-241.603 71.645)" fill="#292b72"/>
              <g id="Group_22089" data-name="Group 22089" transform="translate(22.288 24.836)">
                <g id="Group_22088" data-name="Group 22088">
                  <path id="Path_22144" data-name="Path 22144" d="M251.568-4.163a8.1,8.1,0,0,1-8.085-8.085,8.1,8.1,0,0,1,8.085-8.085,8.093,8.093,0,0,1,8.073,8.085A8.1,8.1,0,0,1,251.568-4.163Zm0-11.713a3.63,3.63,0,0,0-3.639,3.628,3.633,3.633,0,0,0,3.639,3.64,3.63,3.63,0,0,0,3.628-3.64A3.628,3.628,0,0,0,251.568-15.875Z" transform="translate(-243.483 20.333)" fill="#fff"/>
                </g>
                <path id="Path_22145" data-name="Path 22145" d="M249.538-8.432a5.864,5.864,0,0,1-5.868-5.856,5.864,5.864,0,0,1,5.868-5.856,5.851,5.851,0,0,1,5.845,5.856A5.851,5.851,0,0,1,249.538-8.432Z" transform="translate(-241.453 22.374)" fill="#7879a6"/>
              </g>
              <g id="Group_22091" data-name="Group 22091" transform="translate(81.658 24.848)">
                <g id="Group_22090" data-name="Group 22090">
                  <path id="Path_22146" data-name="Path 22146" d="M256.564-4.185a8.09,8.09,0,0,1-8.073-8.073,8.083,8.083,0,0,1,8.073-8.073,8.067,8.067,0,0,1,8.073,8.073A8.075,8.075,0,0,1,256.564-4.185Zm0-11.7a3.62,3.62,0,0,0-3.628,3.628,3.613,3.613,0,0,0,3.628,3.628,3.623,3.623,0,0,0,3.64-3.628A3.63,3.63,0,0,0,256.564-15.886Z" transform="translate(-248.491 20.332)" fill="#fff"/>
                </g>
                <path id="Path_22147" data-name="Path 22147" d="M254.545-8.432a5.864,5.864,0,0,1-5.868-5.856,5.864,5.864,0,0,1,5.868-5.856,5.849,5.849,0,0,1,5.868,5.856A5.849,5.849,0,0,1,254.545-8.432Z" transform="translate(-246.472 22.362)" fill="#7879a6"/>
              </g>
              <g id="Group_22093" data-name="Group 22093" transform="translate(51.973 24.836)">
                <g id="Group_22092" data-name="Group 22092">
                  <path id="Path_22148" data-name="Path 22148" d="M254.06-4.163a8.093,8.093,0,0,1-8.073-8.085,8.093,8.093,0,0,1,8.073-8.085,8.1,8.1,0,0,1,8.085,8.085A8.1,8.1,0,0,1,254.06-4.163Zm0-11.725a3.653,3.653,0,0,0-3.628,3.64A3.635,3.635,0,0,0,254.06-8.62a3.638,3.638,0,0,0,3.64-3.628A3.656,3.656,0,0,0,254.06-15.887Z" transform="translate(-245.987 20.333)" fill="#fff"/>
                </g>
                <path id="Path_22149" data-name="Path 22149" d="M252.02-8.432a5.851,5.851,0,0,1-5.844-5.856,5.851,5.851,0,0,1,5.844-5.856,5.844,5.844,0,0,1,5.844,5.856A5.844,5.844,0,0,1,252.02-8.432Z" transform="translate(-243.946 22.374)" fill="#a1a2c1"/>
              </g>
              <g id="Group_22095" data-name="Group 22095" transform="translate(111.331 24.848)">
                <g id="Group_22094" data-name="Group 22094">
                  <path id="Path_22150" data-name="Path 22150" d="M259.067-4.185a8.09,8.09,0,0,1-8.073-8.073,8.083,8.083,0,0,1,8.073-8.073,8.085,8.085,0,0,1,8.085,8.073A8.092,8.092,0,0,1,259.067-4.185Zm0-11.7a3.633,3.633,0,0,0-3.616,3.628,3.625,3.625,0,0,0,3.616,3.628,3.635,3.635,0,0,0,3.663-3.628A3.643,3.643,0,0,0,259.067-15.886Z" transform="translate(-250.994 20.332)" fill="#fff"/>
                </g>
                <path id="Path_22151" data-name="Path 22151" d="M257.016-8.432a5.841,5.841,0,0,1-5.833-5.856,5.841,5.841,0,0,1,5.833-5.856,5.864,5.864,0,0,1,5.868,5.856A5.864,5.864,0,0,1,257.016-8.432Z" transform="translate(-248.942 22.362)" fill="#7475a3"/>
              </g>
              <rect id="Rectangle_5277" data-name="Rectangle 5277" width="19.826" height="8.162" transform="translate(150.955 42.07)" fill="#292b72"/>
              <rect id="Rectangle_5278" data-name="Rectangle 5278" width="19.826" height="19.855" transform="translate(150.955 18.054)" fill="#bfbfd5"/>
            </g>
            <g id="Group_22105" data-name="Group 22105">
              <path id="Path_22152" data-name="Path 22152" d="M356.782-22.428H186.9A13.026,13.026,0,0,0,173.87-9.411V36.468A13.023,13.023,0,0,0,186.9,49.473H356.782a13.016,13.016,0,0,0,13.029-13.005V-9.411A13.018,13.018,0,0,0,356.782-22.428Z" transform="translate(-173.87 22.428)" fill="#7475a3"/>
              <path id="Path_22153" data-name="Path 22153" d="M356.782-6.489H186.9c-7.184,0-13.029-5.11-13.029-11.4v5.145A13.023,13.023,0,0,0,186.9.256H356.782a13.016,13.016,0,0,0,13.029-13.005v-5.145C369.811-11.6,363.978-6.489,356.782-6.489Z" transform="translate(-173.87 71.645)" fill="#292b72"/>
              <g id="Group_22098" data-name="Group 22098" transform="translate(22.311 24.836)">
                <g id="Group_22097" data-name="Group 22097">
                  <path id="Path_22154" data-name="Path 22154" d="M183.813-4.163a8.083,8.083,0,0,1-8.062-8.085,8.075,8.075,0,0,1,8.062-8.085,8.078,8.078,0,0,1,8.073,8.085A8.085,8.085,0,0,1,183.813-4.163Zm0-11.713a3.618,3.618,0,0,0-3.616,3.628,3.62,3.62,0,0,0,3.616,3.64,3.625,3.625,0,0,0,3.639-3.64A3.623,3.623,0,0,0,183.813-15.875Z" transform="translate(-175.752 20.333)" fill="#fff"/>
                </g>
                <path id="Path_22155" data-name="Path 22155" d="M181.794-8.432a5.869,5.869,0,0,1-5.856-5.856,5.869,5.869,0,0,1,5.856-5.856,5.846,5.846,0,0,1,5.856,5.856A5.846,5.846,0,0,1,181.794-8.432Z" transform="translate(-173.733 22.374)" fill="#7879a6"/>
              </g>
              <g id="Group_22100" data-name="Group 22100" transform="translate(81.67 24.848)">
                <g id="Group_22099" data-name="Group 22099">
                  <path id="Path_22156" data-name="Path 22156" d="M188.832-4.185a8.09,8.09,0,0,1-8.073-8.073,8.083,8.083,0,0,1,8.073-8.073,8.085,8.085,0,0,1,8.085,8.073A8.093,8.093,0,0,1,188.832-4.185Zm0-11.7a3.638,3.638,0,0,0-3.64,3.628,3.63,3.63,0,0,0,3.64,3.628,3.63,3.63,0,0,0,3.639-3.628A3.638,3.638,0,0,0,188.832-15.886Z" transform="translate(-180.759 20.332)" fill="#fff"/>
                </g>
                <path id="Path_22157" data-name="Path 22157" d="M186.8-8.432a5.861,5.861,0,0,1-5.856-5.856,5.861,5.861,0,0,1,5.856-5.856,5.874,5.874,0,0,1,5.88,5.856A5.874,5.874,0,0,1,186.8-8.432Z" transform="translate(-178.729 22.362)" fill="#7879a6"/>
              </g>
              <g id="Group_22102" data-name="Group 22102" transform="translate(51.985 24.836)">
                <g id="Group_22101" data-name="Group 22101">
                  <path id="Path_22158" data-name="Path 22158" d="M186.34-4.163a8.1,8.1,0,0,1-8.085-8.085,8.1,8.1,0,0,1,8.085-8.085,8.085,8.085,0,0,1,8.073,8.085A8.085,8.085,0,0,1,186.34-4.163Zm0-11.725a3.655,3.655,0,0,0-3.639,3.64A3.638,3.638,0,0,0,186.34-8.62a3.613,3.613,0,0,0,3.628-3.628A3.63,3.63,0,0,0,186.34-15.887Z" transform="translate(-178.255 20.333)" fill="#fff"/>
                </g>
                <path id="Path_22159" data-name="Path 22159" d="M184.31-8.432a5.864,5.864,0,0,1-5.868-5.856,5.864,5.864,0,0,1,5.868-5.856,5.851,5.851,0,0,1,5.844,5.856A5.851,5.851,0,0,1,184.31-8.432Z" transform="translate(-176.225 22.374)" fill="#a1a2c1"/>
              </g>
              <g id="Group_22104" data-name="Group 22104" transform="translate(111.355 24.848)">
                <g id="Group_22103" data-name="Group 22103">
                  <path id="Path_22160" data-name="Path 22160" d="M191.36-4.185a8.1,8.1,0,0,1-8.1-8.073,8.088,8.088,0,0,1,8.1-8.073,8.065,8.065,0,0,1,8.062,8.073A8.072,8.072,0,0,1,191.36-4.185Zm0-11.7a3.625,3.625,0,0,0-3.651,3.628,3.618,3.618,0,0,0,3.651,3.628,3.618,3.618,0,0,0,3.616-3.628A3.625,3.625,0,0,0,191.36-15.886Z" transform="translate(-183.263 20.332)" fill="#fff"/>
                </g>
                <path id="Path_22161" data-name="Path 22161" d="M189.33-8.432a5.867,5.867,0,0,1-5.88-5.856,5.867,5.867,0,0,1,5.88-5.856,5.859,5.859,0,0,1,5.844,5.856A5.859,5.859,0,0,1,189.33-8.432Z" transform="translate(-181.233 22.362)" fill="#7475a3"/>
              </g>
              <rect id="Rectangle_5279" data-name="Rectangle 5279" width="19.849" height="8.162" transform="translate(150.974 42.07)" fill="#292b72"/>
              <rect id="Rectangle_5280" data-name="Rectangle 5280" width="19.849" height="19.855" transform="translate(150.974 18.054)" fill="#bfbfd5"/>
            </g>
          </g>
        </g>
      </g>
      <g id="Group_22130" data-name="Group 22130" transform="translate(289.406 239.342)">
        <g id="Group_22109" data-name="Group 22109" transform="translate(25.631 365.978)">
          <path id="Path_22162" data-name="Path 22162" d="M200.444-5.234v22.2a7.989,7.989,0,0,0,7.99,8h14.013a8.009,8.009,0,0,0,8.014-8v-22.2Z" transform="translate(-200.444 5.234)" fill="#292b72"/>
          <path id="Path_22163" data-name="Path 22163" d="M229.026-5.234v22.2a8,8,0,0,0,7.99,8h14.013a7.989,7.989,0,0,0,7.99-8v-22.2Z" transform="translate(109.816 5.234)" fill="#292b72"/>
        </g>
        <g id="Group_22110" data-name="Group 22110" transform="translate(25.631 234.565)">
          <path id="Path_22164" data-name="Path 22164" d="M200.444-16.319v22.2a7.986,7.986,0,0,0,7.99,7.99h14.013a8.007,8.007,0,0,0,8.014-7.99v-22.2Z" transform="translate(-200.444 16.319)" fill="#292b72"/>
          <path id="Path_22165" data-name="Path 22165" d="M229.026-16.319v22.2a7.994,7.994,0,0,0,7.99,7.99h14.013a7.986,7.986,0,0,0,7.99-7.99v-22.2Z" transform="translate(109.816 16.319)" fill="#292b72"/>
        </g>
        <g id="Group_22111" data-name="Group 22111" transform="translate(25.631 107.348)">
          <path id="Path_22166" data-name="Path 22166" d="M200.444-27.05v22.2a7.976,7.976,0,0,0,7.99,7.978h14.013a8,8,0,0,0,8.014-7.978v-22.2Z" transform="translate(-200.444 27.05)" fill="#292b72"/>
          <path id="Path_22167" data-name="Path 22167" d="M229.026-27.05v22.2a7.984,7.984,0,0,0,7.99,7.978h14.013a7.976,7.976,0,0,0,7.99-7.978v-22.2Z" transform="translate(109.816 27.05)" fill="#292b72"/>
        </g>
        <g id="Group_22117" data-name="Group 22117" transform="translate(0 254.446)">
          <path id="Path_22168" data-name="Path 22168" d="M590.46-14.642H226.189a27.926,27.926,0,0,0-27.907,27.919V74.141a27.9,27.9,0,0,0,27.907,27.883H590.46a27.913,27.913,0,0,0,27.919-27.883V13.277A27.944,27.944,0,0,0,590.46-14.642Z" transform="translate(-198.282 14.642)" fill="#7475a3"/>
          <path id="Path_22169" data-name="Path 22169" d="M590.46,16.362H226.189c-15.4,0-27.907-10.942-27.907-24.445V2.942a27.9,27.9,0,0,0,27.907,27.883H590.46A27.913,27.913,0,0,0,618.379,2.942V-8.083C618.379,5.42,605.848,16.362,590.46,16.362Z" transform="translate(-198.282 85.84)" fill="#292b72"/>
          <g id="Group_22112" data-name="Group 22112" transform="translate(51.001 47.847)">
            <path id="Path_22170" data-name="Path 22170" d="M213.064,10.389a10.5,10.5,0,0,1-10.48-10.5,10.486,10.486,0,0,1,10.48-10.492A10.493,10.493,0,0,1,223.544-.114,10.5,10.5,0,0,1,213.064,10.389Zm0-15.222a4.733,4.733,0,0,0-4.73,4.718,4.726,4.726,0,0,0,4.73,4.718,4.723,4.723,0,0,0,4.718-4.718A4.731,4.731,0,0,0,213.064-4.833Z" transform="translate(-202.584 10.606)" fill="#fff"/>
          </g>
          <g id="Group_22113" data-name="Group 22113" transform="translate(98.717 47.847)">
            <path id="Path_22171" data-name="Path 22171" d="M217.1,10.389a10.506,10.506,0,0,1-10.492-10.5A10.5,10.5,0,0,1,217.1-10.606,10.521,10.521,0,0,1,227.6-.114,10.531,10.531,0,0,1,217.1,10.389Zm0-15.222a4.715,4.715,0,0,0-4.719,4.718A4.708,4.708,0,0,0,217.1,4.6a4.736,4.736,0,0,0,4.742-4.718A4.743,4.743,0,0,0,217.1-4.833Z" transform="translate(-206.609 10.606)" fill="#fff"/>
          </g>
          <g id="Group_22114" data-name="Group 22114" transform="translate(146.434 47.847)">
            <path id="Path_22172" data-name="Path 22172" d="M221.126,10.389a10.521,10.521,0,0,1-10.492-10.5,10.511,10.511,0,0,1,10.492-10.492A10.511,10.511,0,0,1,231.618-.114,10.521,10.521,0,0,1,221.126,10.389Zm0-15.222a4.728,4.728,0,0,0-4.707,4.718A4.721,4.721,0,0,0,221.126,4.6a4.718,4.718,0,0,0,4.73-4.718A4.726,4.726,0,0,0,221.126-4.833Z" transform="translate(-210.634 10.606)" fill="#fff"/>
          </g>
          <g id="Group_22115" data-name="Group 22115" transform="translate(194.174 47.847)">
            <path id="Path_22173" data-name="Path 22173" d="M225.177,10.389a10.526,10.526,0,0,1-10.515-10.5,10.516,10.516,0,0,1,10.515-10.492A10.483,10.483,0,0,1,235.645-.114,10.493,10.493,0,0,1,225.177,10.389Zm0-15.222a4.743,4.743,0,0,0-4.742,4.718A4.736,4.736,0,0,0,225.177,4.6a4.7,4.7,0,0,0,4.695-4.718A4.71,4.71,0,0,0,225.177-4.833Z" transform="translate(-214.661 10.606)" fill="#fff"/>
          </g>
          <g id="Group_22116" data-name="Group 22116" transform="translate(241.915 47.847)">
            <path id="Path_22174" data-name="Path 22174" d="M229.191,10.389a10.508,10.508,0,0,1-10.5-10.5,10.5,10.5,0,0,1,10.5-10.492A10.486,10.486,0,0,1,239.671-.114,10.5,10.5,0,0,1,229.191,10.389Zm0-15.222a4.736,4.736,0,0,0-4.742,4.718A4.728,4.728,0,0,0,229.191,4.6,4.713,4.713,0,0,0,233.9-.114,4.721,4.721,0,0,0,229.191-4.833Z" transform="translate(-218.688 10.606)" fill="#fff"/>
          </g>
          <path id="Path_22175" data-name="Path 22175" d="M210.437,4.859a7.6,7.6,0,0,1-7.611-7.611,7.6,7.6,0,0,1,7.611-7.611,7.594,7.594,0,0,1,7.6,7.611A7.6,7.6,0,0,1,210.437,4.859Z" transform="translate(-148.956 61.091)" fill="#7879a6"/>
          <path id="Path_22176" data-name="Path 22176" d="M214.463,4.859a7.612,7.612,0,0,1-7.611-7.611,7.6,7.6,0,0,1,7.611-7.611,7.6,7.6,0,0,1,7.611,7.611A7.612,7.612,0,0,1,214.463,4.859Z" transform="translate(-105.254 61.091)" fill="#7879a6"/>
          <path id="Path_22177" data-name="Path 22177" d="M218.488,4.859a7.627,7.627,0,0,1-7.611-7.611,7.619,7.619,0,0,1,7.611-7.611,7.615,7.615,0,0,1,7.623,7.611A7.622,7.622,0,0,1,218.488,4.859Z" transform="translate(-61.562 61.091)" fill="#7879a6"/>
          <path id="Path_22178" data-name="Path 22178" d="M222.517,4.859a7.6,7.6,0,0,1-7.611-7.611,7.589,7.589,0,0,1,7.611-7.611A7.6,7.6,0,0,1,230.1-2.752,7.607,7.607,0,0,1,222.517,4.859Z" transform="translate(-17.827 61.091)" fill="#a1a2c1"/>
          <path id="Path_22179" data-name="Path 22179" d="M226.554,4.859a7.637,7.637,0,0,1-7.623-7.611,7.63,7.63,0,0,1,7.623-7.611,7.592,7.592,0,0,1,7.587,7.611A7.6,7.6,0,0,1,226.554,4.859Z" transform="translate(25.865 61.091)" fill="#7475a3"/>
          <rect id="Rectangle_5281" data-name="Rectangle 5281" width="42.557" height="17.516" transform="translate(323.661 75.317)" fill="#292b72"/>
          <rect id="Rectangle_5282" data-name="Rectangle 5282" width="42.557" height="42.569" transform="translate(323.661 23.833)" fill="#bfbfd5"/>
        </g>
        <g id="Group_22123" data-name="Group 22123" transform="translate(0 127.217)">
          <path id="Path_22180" data-name="Path 22180" d="M590.46-25.374H226.189A27.934,27.934,0,0,0,198.282,2.545V63.409a27.906,27.906,0,0,0,27.907,27.9H590.46a27.923,27.923,0,0,0,27.919-27.9V2.545A27.951,27.951,0,0,0,590.46-25.374Z" transform="translate(-198.282 25.374)" fill="#7475a3"/>
          <path id="Path_22181" data-name="Path 22181" d="M590.46,5.607H226.189c-15.4,0-27.907-10.93-27.907-24.421V-7.8a27.906,27.906,0,0,0,27.907,27.9H590.46A27.923,27.923,0,0,0,618.379-7.8V-18.814C618.379-5.323,605.848,5.607,590.46,5.607Z" transform="translate(-198.282 96.583)" fill="#292b72"/>
          <g id="Group_22118" data-name="Group 22118" transform="translate(51.001 47.847)">
            <path id="Path_22182" data-name="Path 22182" d="M213.064-.355a10.478,10.478,0,0,1-10.48-10.492,10.486,10.486,0,0,1,10.48-10.492,10.493,10.493,0,0,1,10.48,10.492A10.486,10.486,0,0,1,213.064-.355Zm0-15.21a4.733,4.733,0,0,0-4.73,4.718,4.736,4.736,0,0,0,4.73,4.73,4.733,4.733,0,0,0,4.718-4.73A4.731,4.731,0,0,0,213.064-15.565Z" transform="translate(-202.584 21.338)" fill="#fff"/>
          </g>
          <g id="Group_22119" data-name="Group 22119" transform="translate(98.717 47.847)">
            <path id="Path_22183" data-name="Path 22183" d="M217.1-.355a10.488,10.488,0,0,1-10.492-10.492A10.5,10.5,0,0,1,217.1-21.338a10.521,10.521,0,0,1,10.5,10.492A10.514,10.514,0,0,1,217.1-.355Zm0-15.21a4.715,4.715,0,0,0-4.719,4.718,4.718,4.718,0,0,0,4.719,4.73,4.746,4.746,0,0,0,4.742-4.73A4.743,4.743,0,0,0,217.1-15.565Z" transform="translate(-206.609 21.338)" fill="#fff"/>
          </g>
          <g id="Group_22120" data-name="Group 22120" transform="translate(146.434 47.847)">
            <path id="Path_22184" data-name="Path 22184" d="M221.126-.355a10.5,10.5,0,0,1-10.492-10.492,10.511,10.511,0,0,1,10.492-10.492,10.511,10.511,0,0,1,10.492,10.492A10.5,10.5,0,0,1,221.126-.355Zm0-15.21a4.728,4.728,0,0,0-4.707,4.718,4.731,4.731,0,0,0,4.707,4.73,4.728,4.728,0,0,0,4.73-4.73A4.726,4.726,0,0,0,221.126-15.565Z" transform="translate(-210.634 21.338)" fill="#fff"/>
          </g>
          <g id="Group_22121" data-name="Group 22121" transform="translate(194.174 47.847)">
            <path id="Path_22185" data-name="Path 22185" d="M225.177-.355a10.508,10.508,0,0,1-10.515-10.492,10.516,10.516,0,0,1,10.515-10.492,10.483,10.483,0,0,1,10.468,10.492A10.476,10.476,0,0,1,225.177-.355Zm0-15.21a4.743,4.743,0,0,0-4.742,4.718,4.746,4.746,0,0,0,4.742,4.73,4.713,4.713,0,0,0,4.695-4.73A4.71,4.71,0,0,0,225.177-15.565Z" transform="translate(-214.661 21.338)" fill="#fff"/>
          </g>
          <g id="Group_22122" data-name="Group 22122" transform="translate(241.915 47.847)">
            <path id="Path_22186" data-name="Path 22186" d="M229.191-.355a10.491,10.491,0,0,1-10.5-10.492,10.5,10.5,0,0,1,10.5-10.492,10.486,10.486,0,0,1,10.48,10.492A10.478,10.478,0,0,1,229.191-.355Zm0-15.21a4.736,4.736,0,0,0-4.742,4.718,4.738,4.738,0,0,0,4.742,4.73,4.723,4.723,0,0,0,4.707-4.73A4.721,4.721,0,0,0,229.191-15.565Z" transform="translate(-218.688 21.338)" fill="#fff"/>
          </g>
          <path id="Path_22187" data-name="Path 22187" d="M210.437-5.873a7.6,7.6,0,0,1-7.611-7.611,7.6,7.6,0,0,1,7.611-7.611,7.6,7.6,0,0,1,7.6,7.611A7.594,7.594,0,0,1,210.437-5.873Z" transform="translate(-148.956 71.823)" fill="#7879a6"/>
          <circle id="Ellipse_269" data-name="Ellipse 269" cx="7.612" cy="7.612" r="7.612" transform="translate(101.592 50.727)" fill="#7879a6"/>
          <path id="Path_22188" data-name="Path 22188" d="M218.488-5.873a7.619,7.619,0,0,1-7.611-7.611,7.627,7.627,0,0,1,7.611-7.611,7.622,7.622,0,0,1,7.623,7.611A7.615,7.615,0,0,1,218.488-5.873Z" transform="translate(-61.562 71.823)" fill="#7879a6"/>
          <path id="Path_22189" data-name="Path 22189" d="M222.517-5.873a7.589,7.589,0,0,1-7.611-7.611,7.6,7.6,0,0,1,7.611-7.611,7.607,7.607,0,0,1,7.587,7.611A7.6,7.6,0,0,1,222.517-5.873Z" transform="translate(-17.827 71.823)" fill="#a1a2c1"/>
          <path id="Path_22190" data-name="Path 22190" d="M226.554-5.873a7.63,7.63,0,0,1-7.623-7.611,7.637,7.637,0,0,1,7.623-7.611,7.6,7.6,0,0,1,7.587,7.611A7.592,7.592,0,0,1,226.554-5.873Z" transform="translate(25.865 71.823)" fill="#7475a3"/>
          <rect id="Rectangle_5283" data-name="Rectangle 5283" width="42.557" height="17.528" transform="translate(323.661 75.323)" fill="#292b72"/>
          <rect id="Rectangle_5284" data-name="Rectangle 5284" width="42.557" height="42.563" transform="translate(323.661 23.84)" fill="#bfbfd5"/>
        </g>
        <g id="Group_22129" data-name="Group 22129">
          <path id="Path_22191" data-name="Path 22191" d="M590.46-36.1H226.189A27.916,27.916,0,0,0,198.282-8.2V52.666a27.908,27.908,0,0,0,27.907,27.907H590.46a27.926,27.926,0,0,0,27.919-27.907V-8.2A27.933,27.933,0,0,0,590.46-36.1Z" transform="translate(-198.282 36.105)" fill="#7475a3"/>
          <path id="Path_22192" data-name="Path 22192" d="M590.46-5.1H226.189c-15.4,0-27.907-10.93-27.907-24.445v11.025A27.908,27.908,0,0,0,226.189,9.385H590.46a27.926,27.926,0,0,0,27.919-27.907V-29.547C618.379-16.032,605.848-5.1,590.46-5.1Z" transform="translate(-198.282 107.293)" fill="#292b72"/>
          <g id="Group_22124" data-name="Group 22124" transform="translate(51.001 47.847)">
            <path id="Path_22193" data-name="Path 22193" d="M213.064-11.085a10.486,10.486,0,0,1-10.48-10.492,10.486,10.486,0,0,1,10.48-10.492,10.493,10.493,0,0,1,10.48,10.492A10.493,10.493,0,0,1,213.064-11.085Zm0-15.21a4.726,4.726,0,0,0-4.73,4.718,4.736,4.736,0,0,0,4.73,4.73,4.733,4.733,0,0,0,4.718-4.73A4.723,4.723,0,0,0,213.064-26.3Z" transform="translate(-202.584 32.069)" fill="#fff"/>
          </g>
          <g id="Group_22125" data-name="Group 22125" transform="translate(98.717 47.847)">
            <path id="Path_22194" data-name="Path 22194" d="M217.1-11.085a10.5,10.5,0,0,1-10.492-10.492A10.5,10.5,0,0,1,217.1-32.069a10.521,10.521,0,0,1,10.5,10.492A10.521,10.521,0,0,1,217.1-11.085Zm0-15.21a4.708,4.708,0,0,0-4.719,4.718,4.718,4.718,0,0,0,4.719,4.73,4.746,4.746,0,0,0,4.742-4.73A4.736,4.736,0,0,0,217.1-26.3Z" transform="translate(-206.609 32.069)" fill="#fff"/>
          </g>
          <g id="Group_22126" data-name="Group 22126" transform="translate(146.434 47.847)">
            <path id="Path_22195" data-name="Path 22195" d="M221.126-11.085a10.511,10.511,0,0,1-10.492-10.492,10.511,10.511,0,0,1,10.492-10.492,10.511,10.511,0,0,1,10.492,10.492A10.511,10.511,0,0,1,221.126-11.085Zm0-15.21a4.721,4.721,0,0,0-4.707,4.718,4.731,4.731,0,0,0,4.707,4.73,4.728,4.728,0,0,0,4.73-4.73A4.718,4.718,0,0,0,221.126-26.3Z" transform="translate(-210.634 32.069)" fill="#fff"/>
          </g>
          <g id="Group_22127" data-name="Group 22127" transform="translate(194.174 47.847)">
            <path id="Path_22196" data-name="Path 22196" d="M225.177-11.085a10.516,10.516,0,0,1-10.515-10.492,10.516,10.516,0,0,1,10.515-10.492,10.483,10.483,0,0,1,10.468,10.492A10.483,10.483,0,0,1,225.177-11.085Zm0-15.21a4.736,4.736,0,0,0-4.742,4.718,4.746,4.746,0,0,0,4.742,4.73,4.713,4.713,0,0,0,4.695-4.73A4.7,4.7,0,0,0,225.177-26.3Z" transform="translate(-214.661 32.069)" fill="#fff"/>
          </g>
          <g id="Group_22128" data-name="Group 22128" transform="translate(241.915 47.847)">
            <path id="Path_22197" data-name="Path 22197" d="M229.191-11.085a10.5,10.5,0,0,1-10.5-10.492,10.5,10.5,0,0,1,10.5-10.492,10.486,10.486,0,0,1,10.48,10.492A10.486,10.486,0,0,1,229.191-11.085Zm0-15.21a4.728,4.728,0,0,0-4.742,4.718,4.738,4.738,0,0,0,4.742,4.73,4.723,4.723,0,0,0,4.707-4.73A4.713,4.713,0,0,0,229.191-26.3Z" transform="translate(-218.688 32.069)" fill="#fff"/>
          </g>
          <path id="Path_22198" data-name="Path 22198" d="M210.437-16.6a7.6,7.6,0,0,1-7.611-7.611,7.6,7.6,0,0,1,7.611-7.611,7.6,7.6,0,0,1,7.6,7.611A7.6,7.6,0,0,1,210.437-16.6Z" transform="translate(-148.956 82.554)" fill="#7879a6"/>
          <path id="Path_22199" data-name="Path 22199" d="M214.463-16.6a7.612,7.612,0,0,1-7.611-7.611,7.612,7.612,0,0,1,7.611-7.611,7.612,7.612,0,0,1,7.611,7.611A7.612,7.612,0,0,1,214.463-16.6Z" transform="translate(-105.254 82.554)" fill="#7879a6"/>
          <path id="Path_22200" data-name="Path 22200" d="M218.488-16.6a7.627,7.627,0,0,1-7.611-7.611,7.627,7.627,0,0,1,7.611-7.611,7.622,7.622,0,0,1,7.623,7.611A7.622,7.622,0,0,1,218.488-16.6Z" transform="translate(-61.562 82.554)" fill="#7879a6"/>
          <path id="Path_22201" data-name="Path 22201" d="M222.517-16.6a7.6,7.6,0,0,1-7.611-7.611,7.6,7.6,0,0,1,7.611-7.611,7.607,7.607,0,0,1,7.587,7.611A7.607,7.607,0,0,1,222.517-16.6Z" transform="translate(-17.827 82.554)" fill="#a1a2c1"/>
          <path id="Path_22202" data-name="Path 22202" d="M226.554-16.6a7.637,7.637,0,0,1-7.623-7.611,7.637,7.637,0,0,1,7.623-7.611,7.6,7.6,0,0,1,7.587,7.611A7.6,7.6,0,0,1,226.554-16.6Z" transform="translate(25.865 82.554)" fill="#7475a3"/>
          <rect id="Rectangle_5285" data-name="Rectangle 5285" width="42.557" height="17.516" transform="translate(323.661 75.324)" fill="#292b72"/>
          <rect id="Rectangle_5286" data-name="Rectangle 5286" width="42.557" height="42.569" transform="translate(323.661 23.828)" fill="#bfbfd5"/>
        </g>
      </g>
    </g>
    <text id="BIG_DATA" data-name="BIG DATA" transform="translate(302.547 1007.141)" font-size="142" font-family="Arial-Black, Arial" font-weight="800"><tspan x="0" y="0">BIG DATA</tspan></text>
  </g>
</svg>
